<?xml version="1.0" encoding="iso-8859-1"?>
<!-- Generator: Adobe Illustrator 28.7.3, SVG Export Plug-In . SVG Version: 9.03 Build 54978)  -->
<svg version="1.1" id="Layer_1" xmlns="http://www.w3.org/2000/svg" xmlns:xlink="http://www.w3.org/1999/xlink" x="0px" y="0px"
	 viewBox="0 0 797.96 503.827" style="enable-background:new 0 0 797.96 503.827;" xml:space="preserve">
<g>
	<g>
		<defs>
			<rect id="SVGID_1_" x="48.42" y="28.3" width="730" height="453"/>
		</defs>
		<clipPath id="SVGID_00000062156599740003126350000016869834187736253859_">
			<use xlink:href="#SVGID_1_"  style="overflow:visible;"/>
		</clipPath>
		
			<polyline style="clip-path:url(#SVGID_00000062156599740003126350000016869834187736253859_);fill:none;stroke:#5E81B5;stroke-width:1.6;stroke-linecap:square;stroke-miterlimit:3.25;" points="
			49.1,474.767 49.324,474.755 49.547,474.743 49.994,474.718 50.889,474.669 52.677,474.569 56.255,474.365 63.409,473.934 
			78.922,472.896 93.407,471.785 107.608,470.548 123.012,469.022 137.389,467.407 152.969,465.428 168.264,463.229 
			182.532,460.928 198.004,458.134 212.447,455.221 226.606,452.056 241.969,448.247 256.304,444.315 271.843,439.61 
			287.097,434.51 301.323,429.295 316.753,423.109 331.155,416.807 346.761,409.372 362.082,401.427 376.376,393.414 
			391.873,384.043 406.342,374.631 420.527,364.764 435.915,353.329 450.276,341.961 465.84,328.877 481.12,315.261 
			495.372,301.882 510.828,286.654 525.255,271.79 539.399,256.651 554.746,239.641 569.065,223.292 584.588,205.138 
			599.082,187.888 613.293,170.813 628.707,152.267 643.093,135.105 658.683,116.892 673.988,99.665 688.266,84.449 703.747,69.217 
			718.201,56.54 718.422,56.359 718.643,56.179 719.086,55.82 719.972,55.107 721.743,53.704 725.285,50.986 725.506,50.82 
			725.728,50.655 726.171,50.326 727.056,49.673 728.827,48.393 732.37,45.93 732.61,45.768 732.85,45.607 733.33,45.286 
			734.291,44.652 736.213,43.415 740.056,41.069 740.296,40.929 740.536,40.789 741.017,40.511 741.978,39.963 743.899,38.903 
			747.742,36.925 747.966,36.816 748.191,36.707 748.639,36.492 749.535,36.069 751.328,35.258 751.553,35.159 751.777,35.062 
			752.225,34.869 753.122,34.491 754.915,33.77 755.139,33.683 755.363,33.597 755.811,33.427 756.708,33.096 758.501,32.47 
			758.725,32.395 758.949,32.321 759.397,32.175 760.294,31.893 762.087,31.366 762.337,31.297 762.587,31.228 763.088,31.095 
			764.089,30.839 764.339,30.777 764.589,30.717 765.089,30.599 766.09,30.377 766.34,30.323 766.591,30.271 767.091,30.17 
			768.092,29.981 768.342,29.936 768.592,29.893 769.093,29.809 770.093,29.654 770.344,29.618 770.594,29.583 771.094,29.516 
			771.344,29.485 771.595,29.454 772.095,29.396 772.345,29.369 772.596,29.343 773.096,29.294 773.346,29.272 773.596,29.25 
			774.097,29.211 774.347,29.193 774.597,29.176 774.847,29.16 775.098,29.145 775.348,29.132 775.598,29.119 775.848,29.108 
			776.098,29.098 776.349,29.089 776.599,29.081 776.849,29.075 777.099,29.07 777.349,29.065 777.6,29.062 777.85,29.061 
			778.1,29.06 		"/>
		
			<polyline style="clip-path:url(#SVGID_00000062156599740003126350000016869834187736253859_);fill:none;stroke:#E19C24;stroke-width:1.6;stroke-linecap:square;stroke-miterlimit:3.25;" points="
			49.1,476.945 49.324,476.934 49.547,476.924 49.994,476.903 50.889,476.862 52.677,476.777 56.255,476.599 63.409,476.216 
			63.652,476.202 63.894,476.188 64.379,476.161 65.348,476.105 67.288,475.99 71.166,475.752 78.922,475.234 79.149,475.218 
			79.375,475.202 79.827,475.169 80.733,475.104 82.543,474.972 86.165,474.696 93.407,474.102 93.629,474.083 93.851,474.064 
			94.295,474.025 95.182,473.947 96.957,473.789 100.507,473.46 107.608,472.754 107.849,472.729 108.089,472.704 108.571,472.654 
			109.533,472.551 111.459,472.343 115.31,471.911 123.012,470.98 123.237,470.952 123.461,470.923 123.911,470.866 124.809,470.75 
			126.606,470.514 130.2,470.027 137.389,468.984 137.632,468.947 137.875,468.91 138.362,468.836 139.336,468.686 141.284,468.38 
			145.179,467.747 152.969,466.391 153.208,466.347 153.447,466.303 153.925,466.216 154.88,466.039 156.792,465.678 
			160.616,464.934 168.264,463.345 182.532,459.997 198.004,455.741 212.447,451.115 226.606,445.902 241.969,439.416 
			256.304,432.517 271.843,424.047 287.097,414.662 301.323,404.906 316.753,393.188 331.155,381.157 346.761,366.921 
			362.082,351.743 376.376,336.542 391.873,318.991 406.342,301.684 420.527,283.96 435.915,264.03 450.276,244.936 465.84,223.917 
			481.12,203.191 495.372,184.011 510.828,163.644 525.255,145.287 539.399,128.139 554.746,110.722 569.065,95.798 584.588,81.259 
			599.082,69.358 599.304,69.189 599.526,69.02 599.97,68.684 600.859,68.016 602.635,66.699 606.188,64.142 613.293,59.338 
			613.534,59.183 613.774,59.028 614.256,58.719 615.22,58.107 617.146,56.906 621,54.596 628.707,50.335 628.932,50.218 
			629.157,50.102 629.606,49.87 630.505,49.41 632.303,48.51 635.9,46.787 636.125,46.683 636.35,46.579 636.799,46.373 
			637.698,45.964 639.497,45.165 643.093,43.642 643.337,43.542 643.58,43.443 644.067,43.246 645.042,42.857 646.991,42.1 
			650.888,40.67 651.132,40.584 651.375,40.499 651.862,40.329 652.837,39.996 654.785,39.348 658.683,38.13 658.922,38.059 
			659.161,37.988 659.639,37.847 660.596,37.57 662.509,37.034 666.336,36.031 666.575,35.972 666.814,35.912 667.292,35.795 
			668.249,35.564 670.162,35.119 673.988,34.293 674.212,34.247 674.435,34.202 674.881,34.112 675.773,33.936 677.558,33.596 
			681.127,32.968 681.35,32.93 681.573,32.894 682.02,32.821 682.912,32.678 684.697,32.403 688.266,31.899 688.508,31.867 
			688.75,31.836 689.234,31.773 690.201,31.65 692.136,31.417 692.378,31.389 692.62,31.361 693.104,31.307 694.072,31.2 
			696.007,30.997 696.249,30.973 696.49,30.949 696.974,30.901 697.942,30.809 699.877,30.634 703.747,30.324 703.973,30.307 
			704.199,30.291 704.651,30.258 705.554,30.195 707.361,30.077 707.586,30.063 707.812,30.049 708.264,30.021 709.167,29.968 
			710.974,29.867 711.2,29.856 711.426,29.844 711.877,29.821 712.781,29.776 714.587,29.692 714.813,29.682 715.039,29.672 
			715.491,29.653 716.394,29.616 718.201,29.547 718.422,29.539 718.643,29.531 719.086,29.515 719.972,29.485 721.743,29.43 
			721.964,29.424 722.186,29.417 722.628,29.405 723.514,29.38 725.285,29.336 725.506,29.331 725.728,29.326 726.171,29.316 
			727.056,29.296 727.278,29.292 727.499,29.287 727.942,29.278 728.827,29.261 729.049,29.257 729.27,29.253 729.713,29.245 
			730.598,29.23 732.37,29.203 732.61,29.199 732.85,29.196 733.33,29.19 734.291,29.177 734.531,29.174 734.772,29.171 
			735.252,29.166 736.213,29.155 736.453,29.153 736.693,29.15 737.174,29.146 738.134,29.137 738.375,29.134 738.615,29.132 
			739.095,29.128 740.056,29.121 740.296,29.119 740.536,29.117 741.017,29.114 741.978,29.108 742.218,29.106 742.458,29.105 
			742.938,29.102 743.899,29.097 744.139,29.096 744.38,29.095 744.86,29.092 745.821,29.088 746.061,29.087 746.301,29.086 
			746.782,29.084 747.742,29.081 747.966,29.08 748.191,29.08 748.639,29.078 749.535,29.076 749.76,29.075 749.984,29.075 
			750.432,29.074 751.328,29.072 751.553,29.071 751.777,29.071 752.225,29.07 752.449,29.069 752.673,29.069 753.122,29.068 
			753.346,29.068 753.57,29.068 754.018,29.067 754.915,29.066 755.139,29.066 755.363,29.065 755.811,29.065 756.035,29.065 
			756.259,29.064 756.708,29.064 756.932,29.064 757.156,29.064 757.604,29.063 758.501,29.063 758.725,29.062 758.949,29.062 
			759.397,29.062 759.621,29.062 759.846,29.062 760.294,29.062 760.518,29.062 760.742,29.061 761.19,29.061 761.415,29.061 
			761.639,29.061 762.087,29.061 762.337,29.061 762.587,29.061 762.838,29.061 763.088,29.061 763.338,29.061 763.588,29.061 
			764.089,29.061 764.339,29.06 764.589,29.06 764.839,29.06 765.089,29.06 765.34,29.06 765.59,29.06 766.09,29.06 766.34,29.06 
			766.591,29.06 766.841,29.06 767.091,29.06 767.341,29.06 767.591,29.06 767.842,29.06 768.092,29.06 768.342,29.06 
			768.592,29.06 768.842,29.06 769.093,29.06 769.343,29.06 769.593,29.06 769.843,29.06 770.093,29.06 770.344,29.06 
			770.594,29.06 770.844,29.06 771.094,29.06 771.344,29.06 771.595,29.06 771.845,29.06 772.095,29.06 772.596,29.06 
			773.096,29.06 773.596,29.06 774.097,29.06 776.098,29.06 778.1,29.06 		"/>
		
			<polyline style="clip-path:url(#SVGID_00000062156599740003126350000016869834187736253859_);fill:none;stroke:#8FB032;stroke-width:1.6;stroke-linecap:square;stroke-miterlimit:3.25;" points="
			49.1,474.881 49.324,474.842 49.547,474.804 49.994,474.725 50.889,474.565 52.677,474.232 56.255,473.507 56.478,473.459 
			56.702,473.411 57.149,473.314 58.043,473.115 59.832,472.7 63.409,471.803 63.652,471.739 63.894,471.674 64.379,471.543 
			65.348,471.276 67.288,470.719 71.166,469.511 71.408,469.431 71.651,469.351 72.135,469.188 73.105,468.857 75.044,468.167 
			78.922,466.676 79.149,466.584 79.375,466.491 79.827,466.305 80.733,465.926 82.543,465.14 86.165,463.458 86.391,463.347 
			86.617,463.236 87.07,463.013 87.975,462.558 89.786,461.617 93.407,459.609 93.629,459.481 93.851,459.351 94.295,459.091 
			95.182,458.561 96.957,457.469 100.507,455.149 100.729,454.997 100.951,454.845 101.395,454.539 102.283,453.918 
			104.058,452.639 107.608,449.931 107.849,449.74 108.089,449.548 108.571,449.161 109.533,448.376 111.459,446.759 
			115.31,443.332 115.551,443.109 115.791,442.885 116.273,442.434 117.236,441.519 119.161,439.639 123.012,435.671 
			123.237,435.431 123.461,435.19 123.911,434.705 124.809,433.723 126.606,431.712 130.2,427.499 137.389,418.288 137.632,417.958 
			137.875,417.626 138.362,416.959 139.336,415.609 141.284,412.851 145.179,407.096 152.969,394.625 153.208,394.222 
			153.447,393.818 153.925,393.007 154.88,391.369 156.792,388.037 160.616,381.147 168.264,366.483 182.532,336.218 
			198.004,299.892 212.447,263.877 226.606,227.964 241.969,189.959 256.304,156.852 271.843,124.876 272.081,124.423 
			272.319,123.971 272.796,123.07 273.749,121.283 275.656,117.767 279.47,110.97 287.097,98.34 287.319,97.991 287.542,97.644 
			287.986,96.952 288.875,95.582 290.654,92.896 294.21,87.736 294.433,87.423 294.655,87.112 295.099,86.491 295.989,85.263 
			297.767,82.861 301.323,78.267 301.565,77.965 301.806,77.665 302.288,77.069 303.252,75.892 305.181,73.598 309.038,69.249 
			309.28,68.988 309.521,68.727 310.003,68.211 310.967,67.192 312.896,65.213 316.753,61.479 316.978,61.271 317.203,61.063 
			317.654,60.651 318.554,59.838 320.354,58.259 323.954,55.284 324.179,55.106 324.404,54.929 324.855,54.578 325.755,53.886 
			327.555,52.545 331.155,50.03 331.399,49.868 331.643,49.706 332.131,49.386 333.106,48.758 335.057,47.547 338.958,45.3 
			339.202,45.167 339.446,45.035 339.934,44.773 340.909,44.26 342.86,43.275 346.761,41.457 347,41.352 347.24,41.247 
			347.719,41.041 348.676,40.636 350.591,39.859 354.422,38.433 354.661,38.35 354.901,38.266 355.379,38.102 356.337,37.781 
			358.252,37.166 362.082,36.043 362.306,35.982 362.529,35.921 362.976,35.801 363.869,35.566 365.656,35.116 365.879,35.061 
			366.102,35.007 366.549,34.901 367.442,34.692 369.229,34.294 369.452,34.245 369.676,34.198 370.123,34.103 371.016,33.919 
			372.803,33.568 376.376,32.929 376.618,32.889 376.86,32.849 377.344,32.77 378.313,32.616 380.25,32.325 380.492,32.29 
			380.734,32.256 381.219,32.187 382.187,32.055 384.124,31.804 384.367,31.774 384.609,31.744 385.093,31.685 386.062,31.571 
			387.999,31.356 391.873,30.973 392.099,30.952 392.325,30.932 392.777,30.892 393.682,30.814 395.49,30.666 395.716,30.649 
			395.942,30.631 396.395,30.597 397.299,30.53 399.107,30.404 399.334,30.389 399.56,30.374 400.012,30.344 400.916,30.287 
			402.725,30.18 406.342,29.989 406.564,29.978 406.785,29.968 407.229,29.947 408.115,29.906 409.888,29.83 410.11,29.821 
			410.332,29.812 410.775,29.795 411.661,29.761 413.434,29.696 413.656,29.689 413.878,29.681 414.321,29.666 415.208,29.638 
			416.981,29.584 417.202,29.577 417.424,29.571 417.867,29.558 418.754,29.534 420.527,29.489 420.767,29.483 421.008,29.477 
			421.489,29.466 422.45,29.444 424.374,29.404 424.614,29.399 424.855,29.394 425.336,29.385 426.298,29.367 428.221,29.334 
			428.462,29.33 428.702,29.326 429.183,29.319 430.145,29.304 432.068,29.277 432.309,29.274 432.549,29.271 433.03,29.265 
			433.992,29.253 435.915,29.232 436.14,29.229 436.364,29.227 436.813,29.222 437.711,29.213 439.506,29.197 439.73,29.195 
			439.954,29.193 440.403,29.189 441.301,29.182 443.096,29.169 443.32,29.167 443.544,29.165 443.993,29.162 444.891,29.157 
			446.686,29.146 446.91,29.145 447.135,29.143 447.583,29.141 448.481,29.136 450.276,29.127 450.519,29.126 450.762,29.125 
			451.249,29.123 452.221,29.119 452.465,29.118 452.708,29.117 453.194,29.115 454.167,29.112 454.41,29.111 454.653,29.11 
			455.14,29.108 456.113,29.105 458.058,29.099 458.301,29.099 458.544,29.098 459.031,29.097 460.004,29.094 460.247,29.094 
			460.49,29.093 460.976,29.092 461.949,29.09 462.192,29.089 462.435,29.089 462.922,29.088 463.895,29.086 465.84,29.082 
			466.079,29.082 466.318,29.082 466.795,29.081 467.75,29.079 467.989,29.079 468.228,29.079 468.705,29.078 469.66,29.077 
			469.899,29.076 470.138,29.076 470.615,29.076 471.57,29.074 473.48,29.072 473.719,29.072 473.958,29.072 474.435,29.072 
			475.39,29.071 475.629,29.071 475.868,29.07 476.345,29.07 477.3,29.069 477.539,29.069 477.778,29.069 478.255,29.069 
			479.21,29.068 481.12,29.067 481.343,29.067 481.565,29.067 482.011,29.066 482.902,29.066 483.124,29.066 483.347,29.066 
			483.792,29.065 484.683,29.065 484.906,29.065 485.128,29.065 485.574,29.065 486.465,29.064 488.246,29.064 488.469,29.064 
			488.691,29.064 489.137,29.063 490.028,29.063 490.25,29.063 490.473,29.063 490.918,29.063 491.809,29.063 492.032,29.063 
			492.254,29.063 492.7,29.063 493.591,29.062 495.372,29.062 495.614,29.062 495.855,29.062 496.338,29.062 497.304,29.062 
			497.546,29.062 497.787,29.062 498.27,29.062 499.236,29.061 499.477,29.061 499.719,29.061 500.202,29.061 501.168,29.061 
			503.1,29.061 503.341,29.061 503.583,29.061 504.066,29.061 505.032,29.061 505.273,29.061 505.515,29.061 505.998,29.061 
			506.964,29.061 507.205,29.061 507.447,29.061 507.93,29.061 508.896,29.061 510.828,29.06 511.053,29.06 511.279,29.06 
			511.729,29.06 512.631,29.06 512.857,29.06 513.082,29.06 513.533,29.06 514.435,29.06 514.66,29.06 514.885,29.06 515.336,29.06 
			516.238,29.06 518.041,29.06 518.267,29.06 518.492,29.06 518.943,29.06 519.845,29.06 520.07,29.06 520.296,29.06 520.747,29.06 
			521.648,29.06 521.874,29.06 522.099,29.06 522.55,29.06 523.452,29.06 523.677,29.06 523.903,29.06 524.354,29.06 525.255,29.06 
			525.476,29.06 525.697,29.06 526.139,29.06 527.023,29.06 527.244,29.06 527.465,29.06 527.907,29.06 528.791,29.06 
			529.012,29.06 529.233,29.06 529.675,29.06 530.559,29.06 531.001,29.06 531.443,29.06 532.327,29.06 532.769,29.06 
			533.211,29.06 534.095,29.06 534.537,29.06 534.979,29.06 535.863,29.06 536.747,29.06 537.631,29.06 538.515,29.06 
			539.399,29.06 540.358,29.06 541.317,29.06 542.276,29.06 543.236,29.06 545.154,29.06 547.072,29.06 550.909,29.06 
			554.746,29.06 561.905,29.06 569.065,29.06 576.826,29.06 584.588,29.06 591.835,29.06 599.082,29.06 606.188,29.06 
			613.293,29.06 621,29.06 628.707,29.06 635.9,29.06 643.093,29.06 650.888,29.06 658.683,29.06 666.336,29.06 673.988,29.06 
			688.266,29.06 703.747,29.06 718.201,29.06 732.37,29.06 747.742,29.06 762.087,29.06 770.093,29.06 778.1,29.06 		"/>
	</g>
	<line style="fill:none;stroke:#000000;stroke-width:0.5;stroke-miterlimit:3.25;" x1="49.1" y1="479.607" x2="49.1" y2="475.601"/>
	<path style="fill-rule:evenodd;clip-rule:evenodd;" d="M33,495.133c0-2.015,0.208-3.647,0.624-4.895
		c0.417-1.248,1.035-2.195,1.857-2.842c0.821-0.646,1.854-0.969,3.099-0.969c0.919,0,1.734,0.184,2.447,0.552
		c0.712,0.368,1.284,0.899,1.716,1.593c0.431,0.694,0.775,1.538,1.032,2.534c0.257,0.996,0.385,2.338,0.385,4.027
		c0,1.998-0.206,3.622-0.619,4.871c-0.412,1.249-1.029,2.198-1.85,2.848c-0.822,0.65-1.858,0.975-3.111,0.975
		c-1.65,0-2.946-0.569-3.887-1.706C33.564,500.662,33,498.333,33,495.133L33,495.133z M35.16,495.187
		c0,2.831,0.329,4.699,0.986,5.603c0.658,0.905,1.469,1.357,2.434,1.357c0.965,0,1.776-0.454,2.434-1.362
		c0.657-0.908,0.986-2.774,0.986-5.598c0-2.8-0.324-4.66-0.971-5.58c-0.648-0.92-1.471-1.38-2.471-1.38
		c-0.965,0-1.746,0.406-2.342,1.219C35.512,490.482,35.16,492.396,35.16,495.187L35.16,495.187z"/>
	<rect x="47.4" y="501.307" style="fill-rule:evenodd;clip-rule:evenodd;" width="2.28" height="2.28"/>
	<path style="fill-rule:evenodd;clip-rule:evenodd;" d="M53.04,499.027l2.16-0.12c0.161,1.076,0.527,1.885,1.096,2.427
		c0.569,0.542,1.29,0.813,2.163,0.813c1.061,0,1.923-0.381,2.586-1.142c0.663-0.761,0.995-1.771,0.995-3.03
		c0-1.196-0.313-2.14-0.939-2.831c-0.627-0.691-1.501-1.037-2.623-1.037c-0.7,0-1.306,0.145-1.816,0.434
		c-0.511,0.289-0.918,0.665-1.222,1.126l-2.16-0.24l1.8-8.76h8.16v2.16h-6.585l-0.917,4.472c1.016-0.741,2.082-1.112,3.197-1.112
		c1.479,0,2.726,0.517,3.742,1.552c1.015,1.035,1.523,2.367,1.523,3.994c0,1.549-0.444,2.888-1.331,4.016
		c-1.08,1.385-2.554,2.078-4.421,2.078c-1.532,0-2.781-0.438-3.75-1.314C53.73,501.636,53.178,500.474,53.04,499.027L53.04,499.027z
		"/>
	
		<line style="fill:none;stroke:#000000;stroke-width:0.5;stroke-miterlimit:3.25;" x1="194.9" y1="479.607" x2="194.9" y2="475.601"/>
	<path style="fill-rule:evenodd;clip-rule:evenodd;" d="M178.8,495.133c0-2.015,0.208-3.647,0.624-4.895
		c0.417-1.248,1.035-2.195,1.857-2.842c0.821-0.646,1.854-0.969,3.099-0.969c0.919,0,1.734,0.184,2.447,0.552
		c0.712,0.368,1.284,0.899,1.716,1.593c0.431,0.694,0.775,1.538,1.032,2.534c0.257,0.996,0.385,2.338,0.385,4.027
		c0,1.998-0.206,3.622-0.619,4.871c-0.412,1.249-1.029,2.198-1.85,2.848c-0.822,0.65-1.858,0.975-3.111,0.975
		c-1.65,0-2.946-0.569-3.887-1.706C179.364,500.662,178.8,498.333,178.8,495.133L178.8,495.133z M180.96,495.187
		c0,2.831,0.329,4.699,0.986,5.603c0.658,0.905,1.469,1.357,2.434,1.357s1.776-0.454,2.434-1.362
		c0.657-0.908,0.986-2.774,0.986-5.598c0-2.8-0.324-4.66-0.971-5.58c-0.648-0.92-1.471-1.38-2.471-1.38
		c-0.965,0-1.746,0.406-2.342,1.219C181.312,490.482,180.96,492.396,180.96,495.187L180.96,495.187z"/>
	<rect x="193.2" y="501.307" style="fill-rule:evenodd;clip-rule:evenodd;" width="2.28" height="2.28"/>
	<path style="fill-rule:evenodd;clip-rule:evenodd;" d="M209.76,490.747l-2.16,0.12c-0.184-0.844-0.444-1.457-0.782-1.839
		c-0.56-0.614-1.25-0.921-2.072-0.921c-0.66,0-1.259,0.185-1.798,0.555c-0.611,0.479-1.105,1.178-1.481,2.097
		c-0.376,0.92-0.572,2.237-0.587,3.954c0.501-0.774,1.114-1.349,1.838-1.724c0.725-0.375,1.484-0.562,2.278-0.562
		c1.386,0,2.567,0.516,3.542,1.548c0.975,1.032,1.462,2.365,1.462,4c0,1.075-0.231,2.074-0.694,2.996
		c-0.462,0.923-1.097,1.629-1.905,2.12c-0.807,0.491-1.724,0.736-2.75,0.736c-1.748,0-3.173-0.641-4.276-1.924
		c-1.103-1.282-1.655-3.396-1.655-6.341c0-3.293,0.613-5.687,1.839-7.183c1.072-1.301,2.514-1.952,4.326-1.952
		c1.351,0,2.458,0.383,3.322,1.148C209.07,488.341,209.588,489.398,209.76,490.747L209.76,490.747z M201,498.043
		c0,0.722,0.156,1.414,0.468,2.075c0.312,0.661,0.738,1.165,1.28,1.511c0.541,0.345,1.14,0.518,1.796,0.518
		c0.941,0,1.726-0.358,2.354-1.073c0.628-0.715,0.942-1.686,0.942-2.915c0-1.181-0.31-2.112-0.93-2.792
		c-0.62-0.68-1.436-1.02-2.449-1.02c-0.963,0-1.781,0.34-2.453,1.02C201.336,496.047,201,496.939,201,498.043L201,498.043z"/>
	
		<line style="fill:none;stroke:#000000;stroke-width:0.5;stroke-miterlimit:3.25;" x1="340.7" y1="479.607" x2="340.7" y2="475.601"/>
	<path style="fill-rule:evenodd;clip-rule:evenodd;" d="M324.6,495.133c0-2.015,0.208-3.647,0.624-4.895
		c0.417-1.248,1.035-2.195,1.857-2.842c0.821-0.646,1.854-0.969,3.099-0.969c0.919,0,1.734,0.184,2.447,0.552
		c0.712,0.368,1.284,0.899,1.716,1.593c0.431,0.694,0.775,1.538,1.032,2.534c0.257,0.996,0.385,2.338,0.385,4.027
		c0,1.998-0.206,3.622-0.619,4.871c-0.412,1.249-1.029,2.198-1.85,2.848c-0.822,0.65-1.858,0.975-3.111,0.975
		c-1.65,0-2.946-0.569-3.887-1.706C325.164,500.662,324.6,498.333,324.6,495.133L324.6,495.133z M326.76,495.187
		c0,2.831,0.329,4.699,0.986,5.603c0.658,0.905,1.469,1.357,2.434,1.357c0.965,0,1.776-0.454,2.434-1.362
		c0.657-0.908,0.986-2.774,0.986-5.598c0-2.8-0.324-4.66-0.971-5.58c-0.648-0.92-1.471-1.38-2.471-1.38
		c-0.965,0-1.746,0.406-2.342,1.219C327.112,490.482,326.76,492.396,326.76,495.187L326.76,495.187z"/>
	<rect x="339" y="501.307" style="fill-rule:evenodd;clip-rule:evenodd;" width="2.28" height="2.28"/>
	<path style="fill-rule:evenodd;clip-rule:evenodd;" d="M344.64,488.827v-2.16h11.04v1.747c-1.082,1.172-2.155,2.711-3.217,4.619
		c-1.063,1.907-1.884,3.869-2.462,5.885c-0.418,1.421-0.685,2.978-0.801,4.669h-2.16c0.023-1.336,0.282-2.951,0.779-4.843
		c0.497-1.893,1.21-3.717,2.139-5.474c0.928-1.757,1.916-3.238,2.962-4.443H344.64z"/>
	
		<line style="fill:none;stroke:#000000;stroke-width:0.5;stroke-miterlimit:3.25;" x1="486.5" y1="479.607" x2="486.5" y2="475.601"/>
	<path style="fill-rule:evenodd;clip-rule:evenodd;" d="M470.4,495.133c0-2.015,0.208-3.647,0.624-4.895
		c0.417-1.248,1.035-2.195,1.857-2.842c0.821-0.646,1.854-0.969,3.099-0.969c0.919,0,1.734,0.184,2.447,0.552
		c0.712,0.368,1.284,0.899,1.716,1.593c0.431,0.694,0.775,1.538,1.032,2.534c0.257,0.996,0.385,2.338,0.385,4.027
		c0,1.998-0.206,3.622-0.619,4.871c-0.412,1.249-1.029,2.198-1.85,2.848c-0.822,0.65-1.858,0.975-3.111,0.975
		c-1.65,0-2.946-0.569-3.887-1.706C470.964,500.662,470.4,498.333,470.4,495.133L470.4,495.133z M472.56,495.187
		c0,2.831,0.329,4.699,0.986,5.603c0.658,0.905,1.469,1.357,2.434,1.357s1.776-0.454,2.434-1.362
		c0.657-0.908,0.986-2.774,0.986-5.598c0-2.8-0.324-4.66-0.971-5.58c-0.648-0.92-1.471-1.38-2.471-1.38
		c-0.965,0-1.746,0.406-2.342,1.219C472.912,490.482,472.56,492.396,472.56,495.187L472.56,495.187z"/>
	<rect x="484.8" y="501.307" style="fill-rule:evenodd;clip-rule:evenodd;" width="2.28" height="2.28"/>
	<path style="fill-rule:evenodd;clip-rule:evenodd;" d="M493.626,494.296c-0.878-0.317-1.528-0.77-1.951-1.359
		s-0.635-1.294-0.635-2.117c0-1.24,0.451-2.282,1.352-3.126c0.901-0.845,2.101-1.267,3.598-1.267c1.505,0,2.716,0.432,3.634,1.296
		c0.917,0.863,1.376,1.915,1.376,3.155c0,0.791-0.208,1.48-0.625,2.065c-0.417,0.585-1.051,1.036-1.901,1.353
		c1.019,0.342,1.795,0.892,2.327,1.651c0.533,0.76,0.799,1.666,0.799,2.72c0,1.456-0.512,2.68-1.537,3.672
		c-1.024,0.992-2.372,1.488-4.043,1.488c-1.671,0-3.019-0.498-4.043-1.493c-1.025-0.996-1.537-2.238-1.537-3.725
		c0-1.109,0.276-2.037,0.828-2.785C491.82,495.077,492.606,494.568,493.626,494.296L493.626,494.296z M493.2,490.736
		c0,0.815,0.253,1.48,0.76,1.997c0.507,0.516,1.202,0.774,2.084,0.774c0.858,0,1.538-0.256,2.041-0.769
		c0.503-0.512,0.755-1.14,0.755-1.884c0-0.775-0.259-1.427-0.778-1.955c-0.519-0.528-1.199-0.792-2.042-0.792
		c-0.85,0-1.532,0.258-2.047,0.774C493.458,489.398,493.2,490.016,493.2,490.736L493.2,490.736z M492.6,498.631
		c0,0.602,0.129,1.183,0.388,1.746c0.259,0.562,0.673,0.998,1.243,1.307s1.172,0.463,1.806,0.463c1.025,0,1.848-0.324,2.47-0.972
		c0.622-0.648,0.933-1.472,0.933-2.472c0-1.017-0.32-1.857-0.961-2.52c-0.641-0.664-1.477-0.996-2.51-0.996
		c-1.011,0-1.825,0.328-2.443,0.984C492.909,496.828,492.6,497.648,492.6,498.631L492.6,498.631z"/>
	
		<line style="fill:none;stroke:#000000;stroke-width:0.5;stroke-miterlimit:3.25;" x1="632.3" y1="479.607" x2="632.3" y2="475.601"/>
	<path style="fill-rule:evenodd;clip-rule:evenodd;" d="M616.2,495.133c0-2.015,0.208-3.647,0.624-4.895
		c0.417-1.248,1.035-2.195,1.857-2.842c0.821-0.646,1.854-0.969,3.099-0.969c0.919,0,1.734,0.184,2.447,0.552
		c0.712,0.368,1.284,0.899,1.716,1.593c0.431,0.694,0.775,1.538,1.032,2.534c0.257,0.996,0.385,2.338,0.385,4.027
		c0,1.998-0.206,3.622-0.619,4.871c-0.412,1.249-1.029,2.198-1.85,2.848c-0.822,0.65-1.858,0.975-3.111,0.975
		c-1.65,0-2.946-0.569-3.887-1.706C616.764,500.662,616.2,498.333,616.2,495.133L616.2,495.133z M618.36,495.187
		c0,2.831,0.329,4.699,0.986,5.603c0.658,0.905,1.469,1.357,2.434,1.357s1.776-0.454,2.434-1.362
		c0.657-0.908,0.986-2.774,0.986-5.598c0-2.8-0.324-4.66-0.971-5.58c-0.648-0.92-1.471-1.38-2.471-1.38
		c-0.965,0-1.746,0.406-2.342,1.219C618.712,490.482,618.36,492.396,618.36,495.187L618.36,495.187z"/>
	<rect x="630.6" y="501.307" style="fill-rule:evenodd;clip-rule:evenodd;" width="2.28" height="2.28"/>
	<path style="fill-rule:evenodd;clip-rule:evenodd;" d="M636.48,499.507l2.16-0.12c0.166,0.967,0.483,1.669,0.95,2.106
		c0.467,0.436,1.066,0.654,1.797,0.654c0.625,0,1.183-0.15,1.673-0.451c0.491-0.301,0.877-0.702,1.159-1.205
		c0.282-0.502,0.525-1.18,0.729-2.033c0.203-0.853,0.305-1.717,0.305-2.592c0-0.094-0.004-0.235-0.013-0.422
		c-0.414,0.672-0.978,1.218-1.694,1.636c-0.716,0.418-1.49,0.627-2.324,0.627c-1.393,0-2.571-0.509-3.535-1.527
		c-0.965-1.018-1.447-2.361-1.447-4.027c0-1.72,0.508-3.104,1.523-4.153c1.015-1.049,2.286-1.573,3.813-1.573
		c1.104,0,2.113,0.298,3.028,0.895c0.915,0.597,1.61,1.447,2.084,2.551c0.475,1.104,0.712,2.702,0.712,4.795
		c0,2.177-0.237,3.911-0.711,5.201c-0.473,1.29-1.178,2.272-2.115,2.946c-0.936,0.675-2.033,1.012-3.292,1.012
		c-1.336,0-2.428-0.378-3.275-1.133C637.16,501.938,636.651,500.876,636.48,499.507L636.48,499.507z M645.12,492.046
		c0-1.171-0.309-2.1-0.927-2.788c-0.618-0.687-1.396-1.031-2.334-1.031c-0.968,0-1.787,0.37-2.456,1.111
		c-0.669,0.741-1.003,1.7-1.003,2.879c0,1.057,0.317,1.917,0.951,2.578c0.633,0.661,1.45,0.992,2.45,0.992
		c0.967,0,1.761-0.331,2.384-0.992C644.808,494.134,645.12,493.218,645.12,492.046L645.12,492.046z"/>
	
		<line style="fill:none;stroke:#000000;stroke-width:0.5;stroke-miterlimit:3.25;" x1="778.1" y1="479.607" x2="778.1" y2="475.601"/>
	<path style="fill-rule:evenodd;clip-rule:evenodd;" d="M776.46,503.587h-2.16v-13.371c-0.491,0.482-1.135,0.963-1.932,1.445
		s-1.513,0.843-2.148,1.085v-2.029c1.151-0.551,2.158-1.219,3.019-2.004c0.861-0.785,1.471-1.547,1.83-2.286h1.391V503.587z"/>
	<rect x="783.06" y="501.307" style="fill-rule:evenodd;clip-rule:evenodd;" width="2.28" height="2.28"/>
	
		<line style="fill:none;stroke:#000000;stroke-width:0.5;stroke-miterlimit:3.25;" x1="49.1" y1="479.607" x2="778.1" y2="479.607"/>
	<path style="fill-rule:evenodd;clip-rule:evenodd;" d="M787.16,492.007v-17.28h2.16v1.686c0.441-0.643,0.939-1.124,1.493-1.445
		c0.555-0.321,1.227-0.481,2.017-0.481c1.034,0,1.946,0.272,2.737,0.817c0.79,0.545,1.387,1.314,1.789,2.307
		c0.403,0.992,0.604,2.08,0.604,3.262c0,1.269-0.227,2.411-0.682,3.427c-0.454,1.015-1.114,1.794-1.979,2.335
		c-0.865,0.541-1.775,0.812-2.73,0.812c-0.698,0-1.325-0.144-1.88-0.431c-0.555-0.288-1.011-0.651-1.369-1.09v6.081H787.16z
		 M789.32,481.078c0,1.598,0.312,2.78,0.936,3.543c0.623,0.764,1.378,1.146,2.265,1.146c0.901,0,1.673-0.396,2.315-1.187
		c0.643-0.791,0.964-2.017,0.964-3.677c0-1.582-0.314-2.767-0.941-3.555c-0.628-0.787-1.377-1.181-2.248-1.181
		c-0.864,0-1.628,0.419-2.293,1.257C789.653,478.262,789.32,479.48,789.32,481.078L789.32,481.078z"/>
	
		<line style="fill:none;stroke:#000000;stroke-width:0.5;stroke-miterlimit:3.25;" x1="49.1" y1="479.607" x2="53.105" y2="479.607"/>
	<path style="fill-rule:evenodd;clip-rule:evenodd;" d="M33.36,478.753c0-2.015,0.208-3.647,0.624-4.895
		c0.417-1.248,1.035-2.195,1.857-2.842c0.821-0.646,1.854-0.969,3.099-0.969c0.919,0,1.734,0.184,2.447,0.552
		c0.712,0.368,1.284,0.899,1.716,1.593c0.431,0.694,0.775,1.538,1.032,2.534c0.257,0.996,0.385,2.338,0.385,4.027
		c0,1.998-0.206,3.622-0.619,4.871c-0.412,1.249-1.029,2.198-1.85,2.848c-0.822,0.65-1.858,0.975-3.111,0.975
		c-1.65,0-2.946-0.569-3.887-1.706C33.924,484.282,33.36,481.953,33.36,478.753L33.36,478.753z M35.52,478.807
		c0,2.831,0.329,4.699,0.986,5.603c0.658,0.905,1.469,1.357,2.434,1.357c0.965,0,1.776-0.454,2.434-1.362
		c0.657-0.908,0.986-2.774,0.986-5.598c0-2.8-0.324-4.66-0.971-5.58c-0.648-0.92-1.471-1.38-2.471-1.38
		c-0.965,0-1.746,0.406-2.342,1.219C35.872,474.102,35.52,476.016,35.52,478.807L35.52,478.807z"/>
	<line style="fill:none;stroke:#000000;stroke-width:0.5;stroke-miterlimit:3.25;" x1="49.1" y1="366.97" x2="53.105" y2="366.97"/>
	<path style="fill-rule:evenodd;clip-rule:evenodd;" d="M0,366.116c0-2.015,0.208-3.647,0.624-4.895
		c0.417-1.248,1.035-2.195,1.857-2.842c0.821-0.646,1.854-0.969,3.099-0.969c0.919,0,1.734,0.184,2.447,0.552
		c0.712,0.368,1.284,0.899,1.716,1.593c0.431,0.694,0.775,1.538,1.032,2.534c0.257,0.996,0.385,2.338,0.385,4.027
		c0,1.998-0.206,3.622-0.619,4.871c-0.412,1.249-1.029,2.198-1.85,2.848c-0.822,0.65-1.858,0.975-3.111,0.975
		c-1.65,0-2.946-0.569-3.887-1.706C0.564,371.645,0,369.316,0,366.116L0,366.116z M2.16,366.17c0,2.831,0.329,4.699,0.986,5.603
		c0.658,0.905,1.469,1.357,2.434,1.357c0.965,0,1.776-0.454,2.434-1.362C8.671,370.86,9,368.994,9,366.17
		c0-2.8-0.324-4.66-0.971-5.58c-0.648-0.92-1.471-1.38-2.471-1.38c-0.965,0-1.746,0.406-2.342,1.219
		C2.512,361.465,2.16,363.379,2.16,366.17L2.16,366.17z"/>
	<rect x="14.4" y="372.29" style="fill-rule:evenodd;clip-rule:evenodd;" width="2.28" height="2.28"/>
	<path style="fill-rule:evenodd;clip-rule:evenodd;" d="M30.96,372.41v2.16H19.68c-0.016-0.526,0.061-1.032,0.233-1.517
		c0.273-0.801,0.712-1.585,1.315-2.351c0.603-0.766,1.498-1.632,2.686-2.597c1.844-1.553,3.099-2.755,3.766-3.608
		c0.667-0.854,1-1.67,1-2.448c0-0.798-0.299-1.47-0.897-2.018c-0.598-0.547-1.378-0.821-2.339-0.821
		c-1.015,0-1.828,0.297-2.438,0.892c-0.61,0.594-0.918,1.417-0.926,2.468l-2.16-0.24c0.149-1.601,0.707-2.822,1.674-3.661
		c0.968-0.839,2.267-1.259,3.897-1.259c1.646,0,2.949,0.452,3.909,1.356c0.96,0.903,1.44,2.023,1.44,3.36
		c0,0.678-0.135,1.346-0.404,2.002c-0.269,0.656-0.717,1.348-1.343,2.074c-0.625,0.726-1.68,1.717-3.165,2.972
		c-1.258,1.04-2.084,1.745-2.477,2.117c-0.394,0.371-0.72,0.744-0.977,1.119H30.96z"/>
	<path style="fill-rule:evenodd;clip-rule:evenodd;" d="M33.36,370.01l2.16-0.12c0.161,1.076,0.527,1.885,1.096,2.427
		c0.569,0.542,1.29,0.813,2.163,0.813c1.061,0,1.923-0.381,2.586-1.142c0.663-0.761,0.995-1.771,0.995-3.03
		c0-1.196-0.313-2.14-0.939-2.831c-0.627-0.691-1.501-1.037-2.623-1.037c-0.7,0-1.306,0.145-1.816,0.434
		c-0.511,0.289-0.918,0.665-1.222,1.126l-2.16-0.24l1.8-8.76h8.16v2.16h-6.585l-0.917,4.472c1.016-0.741,2.082-1.112,3.197-1.112
		c1.479,0,2.726,0.517,3.742,1.552c1.015,1.035,1.523,2.367,1.523,3.994c0,1.549-0.444,2.888-1.331,4.016
		c-1.08,1.385-2.554,2.078-4.421,2.078c-1.532,0-2.781-0.438-3.75-1.314C34.05,372.619,33.498,371.457,33.36,370.01L33.36,370.01z"
		/>
	
		<line style="fill:none;stroke:#000000;stroke-width:0.5;stroke-miterlimit:3.25;" x1="49.1" y1="254.333" x2="53.105" y2="254.333"/>
	<path style="fill-rule:evenodd;clip-rule:evenodd;" d="M13.32,253.479c0-2.015,0.208-3.647,0.624-4.895
		c0.417-1.248,1.035-2.195,1.857-2.842c0.821-0.646,1.854-0.969,3.099-0.969c0.919,0,1.734,0.184,2.447,0.552
		c0.712,0.368,1.284,0.899,1.716,1.593c0.431,0.694,0.775,1.538,1.032,2.534c0.257,0.996,0.385,2.338,0.385,4.027
		c0,1.998-0.206,3.622-0.619,4.871c-0.412,1.249-1.029,2.198-1.85,2.848c-0.822,0.65-1.858,0.975-3.111,0.975
		c-1.65,0-2.946-0.569-3.887-1.706C13.884,259.008,13.32,256.679,13.32,253.479L13.32,253.479z M15.48,253.533
		c0,2.831,0.329,4.699,0.986,5.603c0.658,0.905,1.469,1.357,2.434,1.357c0.965,0,1.776-0.454,2.434-1.362
		c0.657-0.908,0.986-2.774,0.986-5.598c0-2.8-0.324-4.66-0.971-5.58c-0.648-0.92-1.471-1.38-2.471-1.38
		c-0.965,0-1.746,0.406-2.342,1.219C15.832,248.828,15.48,250.742,15.48,253.533L15.48,253.533z"/>
	<rect x="27.72" y="259.653" style="fill-rule:evenodd;clip-rule:evenodd;" width="2.28" height="2.28"/>
	<path style="fill-rule:evenodd;clip-rule:evenodd;" d="M33.36,257.373l2.16-0.12c0.161,1.076,0.527,1.885,1.096,2.427
		c0.569,0.542,1.29,0.813,2.163,0.813c1.061,0,1.923-0.381,2.586-1.142c0.663-0.761,0.995-1.771,0.995-3.03
		c0-1.196-0.313-2.14-0.939-2.831c-0.627-0.691-1.501-1.037-2.623-1.037c-0.7,0-1.306,0.145-1.816,0.434
		c-0.511,0.289-0.918,0.665-1.222,1.126l-2.16-0.24l1.8-8.76h8.16v2.16h-6.585l-0.917,4.472c1.016-0.741,2.082-1.112,3.197-1.112
		c1.479,0,2.726,0.517,3.742,1.552c1.015,1.035,1.523,2.367,1.523,3.994c0,1.549-0.444,2.888-1.331,4.016
		c-1.08,1.385-2.554,2.078-4.421,2.078c-1.532,0-2.781-0.438-3.75-1.314C34.05,259.982,33.498,258.82,33.36,257.373L33.36,257.373z"
		/>
	
		<line style="fill:none;stroke:#000000;stroke-width:0.5;stroke-miterlimit:3.25;" x1="49.1" y1="141.697" x2="53.105" y2="141.697"/>
	<path style="fill-rule:evenodd;clip-rule:evenodd;" d="M0,140.843c0-2.015,0.208-3.647,0.624-4.895
		c0.417-1.248,1.035-2.195,1.857-2.842c0.821-0.646,1.854-0.969,3.099-0.969c0.919,0,1.734,0.184,2.447,0.552
		c0.712,0.368,1.284,0.899,1.716,1.593c0.431,0.694,0.775,1.538,1.032,2.534c0.257,0.996,0.385,2.338,0.385,4.027
		c0,1.998-0.206,3.622-0.619,4.871c-0.412,1.249-1.029,2.198-1.85,2.848c-0.822,0.65-1.858,0.975-3.111,0.975
		c-1.65,0-2.946-0.569-3.887-1.706C0.564,146.372,0,144.043,0,140.843L0,140.843z M2.16,140.897c0,2.831,0.329,4.699,0.986,5.603
		c0.658,0.905,1.469,1.357,2.434,1.357c0.965,0,1.776-0.454,2.434-1.362C8.671,145.587,9,143.721,9,140.897
		c0-2.8-0.324-4.66-0.971-5.58c-0.648-0.92-1.471-1.38-2.471-1.38c-0.965,0-1.746,0.406-2.342,1.219
		C2.512,136.192,2.16,138.106,2.16,140.897L2.16,140.897z"/>
	<rect x="14.4" y="147.017" style="fill-rule:evenodd;clip-rule:evenodd;" width="2.28" height="2.28"/>
	<path style="fill-rule:evenodd;clip-rule:evenodd;" d="M20.04,134.537v-2.16h11.04v1.747c-1.082,1.172-2.155,2.711-3.217,4.619
		c-1.063,1.907-1.884,3.869-2.462,5.885c-0.418,1.421-0.685,2.978-0.801,4.669h-2.16c0.023-1.336,0.282-2.951,0.779-4.843
		c0.497-1.893,1.21-3.717,2.139-5.474c0.928-1.757,1.916-3.238,2.962-4.443H20.04z"/>
	<path style="fill-rule:evenodd;clip-rule:evenodd;" d="M33.36,144.737l2.16-0.12c0.161,1.076,0.527,1.885,1.096,2.427
		s1.29,0.813,2.163,0.813c1.061,0,1.923-0.381,2.586-1.142c0.663-0.761,0.995-1.771,0.995-3.03c0-1.196-0.313-2.14-0.939-2.831
		c-0.627-0.691-1.501-1.037-2.623-1.037c-0.7,0-1.306,0.145-1.816,0.434c-0.511,0.289-0.918,0.665-1.222,1.126l-2.16-0.24l1.8-8.76
		h8.16v2.16h-6.585l-0.917,4.472c1.016-0.741,2.082-1.112,3.197-1.112c1.479,0,2.726,0.517,3.742,1.552
		c1.015,1.035,1.523,2.367,1.523,3.994c0,1.549-0.444,2.888-1.331,4.016c-1.08,1.385-2.554,2.078-4.421,2.078
		c-1.532,0-2.781-0.438-3.75-1.314C34.05,147.346,33.498,146.184,33.36,144.737L33.36,144.737z"/>
	<line style="fill:none;stroke:#000000;stroke-width:0.5;stroke-miterlimit:3.25;" x1="49.1" y1="29.06" x2="53.105" y2="29.06"/>
	<path style="fill-rule:evenodd;clip-rule:evenodd;" d="M34.44,36.66h-2.16V23.289c-0.491,0.482-1.135,0.963-1.932,1.445
		c-0.797,0.482-1.513,0.843-2.148,1.085V23.79c1.151-0.551,2.158-1.219,3.019-2.004c0.861-0.785,1.471-1.547,1.83-2.286h1.391V36.66
		z"/>
	<rect x="41.04" y="34.38" style="fill-rule:evenodd;clip-rule:evenodd;" width="2.28" height="2.28"/>
	<line style="fill:none;stroke:#000000;stroke-width:0.5;stroke-miterlimit:3.25;" x1="49.1" y1="479.607" x2="49.1" y2="29.06"/>
	<path style="fill-rule:evenodd;clip-rule:evenodd;" d="M36.54,17.28h-2.16V3.909c-0.491,0.482-1.135,0.963-1.932,1.445
		c-0.797,0.482-1.513,0.843-2.148,1.085V4.41c1.151-0.551,2.158-1.219,3.019-2.004c0.861-0.785,1.471-1.547,1.83-2.286h1.391V17.28z
		"/>
	<rect x="42.304" y="10.048" style="fill-rule:evenodd;clip-rule:evenodd;" width="11.368" height="1.969"/>
	<path style="fill-rule:evenodd;clip-rule:evenodd;" d="M69.551,3.392c0,0.585-0.109,1.129-0.328,1.633s-0.515,0.952-0.89,1.343
		C67.958,6.76,67.52,7.091,67.02,7.36c-0.5,0.27-1.031,0.454-1.594,0.554c0.517,0.062,0.983,0.176,1.401,0.343
		c0.417,0.168,0.777,0.396,1.078,0.686c0.301,0.289,0.532,0.636,0.692,1.039c0.16,0.404,0.24,0.869,0.24,1.395
		c0,0.549-0.078,1.079-0.234,1.589c-0.157,0.51-0.375,0.988-0.657,1.434c-0.281,0.446-0.615,0.854-1.002,1.223
		c-0.387,0.37-0.815,0.686-1.283,0.948c-0.469,0.263-0.967,0.466-1.495,0.611c-0.527,0.145-1.068,0.217-1.622,0.217
		c-0.461,0-0.854-0.031-1.178-0.093c-0.324-0.062-0.615-0.164-0.873-0.306c-0.257-0.143-0.498-0.332-0.721-0.567
		c-0.223-0.235-0.463-0.53-0.721-0.885l-1.348,6.531h-2.109l3.622-16.918c0.164-0.775,0.441-1.479,0.832-2.11
		c0.39-0.632,0.869-1.175,1.435-1.628c0.566-0.453,1.203-0.804,1.91-1.052C64.1,0.124,64.852,0,65.649,0
		c0.508,0,0.998,0.075,1.47,0.225c0.473,0.15,0.889,0.369,1.248,0.657c0.36,0.288,0.647,0.644,0.862,1.067
		C69.444,2.372,69.551,2.853,69.551,3.392L69.551,3.392z M67.524,3.827c0-0.335-0.064-0.632-0.193-0.892
		c-0.128-0.259-0.304-0.478-0.528-0.658c-0.223-0.179-0.48-0.316-0.773-0.411c-0.292-0.095-0.599-0.143-0.921-0.143
		c-0.562,0-1.056,0.086-1.482,0.258c-0.425,0.172-0.79,0.41-1.095,0.715c-0.304,0.305-0.556,0.667-0.755,1.087
		c-0.2,0.419-0.354,0.88-0.464,1.383l-1.382,6.373c-0.048,0.221-0.085,0.44-0.112,0.658c-0.027,0.217-0.04,0.437-0.04,0.658
		c0,0.426,0.062,0.821,0.187,1.183c0.125,0.363,0.309,0.677,0.551,0.944c0.241,0.267,0.538,0.477,0.89,0.629
		c0.352,0.153,0.754,0.229,1.207,0.229c0.579,0,1.114-0.121,1.606-0.363c0.492-0.242,0.917-0.561,1.277-0.959
		c0.359-0.397,0.64-0.85,0.843-1.356c0.203-0.507,0.305-1.029,0.305-1.565c0-0.598-0.123-1.082-0.369-1.452
		c-0.247-0.371-0.569-0.658-0.967-0.863c-0.398-0.204-0.845-0.342-1.341-0.414c-0.497-0.072-0.995-0.108-1.495-0.108h-0.082
		l0.328-1.56c0.555,0,1.118-0.055,1.688-0.166c0.571-0.111,1.086-0.296,1.547-0.555s0.838-0.604,1.131-1.035
		S67.524,4.474,67.524,3.827L67.524,3.827z"/>
</g>
</svg>
