<?xml version="1.0" encoding="iso-8859-1"?>
<!-- Generator: Adobe Illustrator 28.7.3, SVG Export Plug-In . SVG Version: 9.03 Build 54978)  -->
<svg version="1.1" id="Layer_1" xmlns="http://www.w3.org/2000/svg" xmlns:xlink="http://www.w3.org/1999/xlink" x="0px" y="0px"
	 viewBox="0 0 1920 1080" style="enable-background:new 0 0 1920 1080;" xml:space="preserve">
<g>
	<g>
		<defs>
			<rect id="SVGID_1_" x="608.42" y="316.3" width="730" height="453"/>
		</defs>
		<clipPath id="SVGID_00000062913767324508102490000003542002675186943123_">
			<use xlink:href="#SVGID_1_"  style="overflow:visible;"/>
		</clipPath>
		
			<polyline style="clip-path:url(#SVGID_00000062913767324508102490000003542002675186943123_);fill:none;stroke:#5E81B5;stroke-width:1.6;stroke-linecap:square;stroke-miterlimit:3.25;" points="
			609.1,762.767 609.324,762.755 609.547,762.743 609.994,762.718 610.889,762.669 612.677,762.569 616.255,762.365 
			623.409,761.934 638.922,760.896 653.407,759.785 667.608,758.548 683.012,757.022 697.389,755.407 712.969,753.428 
			728.264,751.229 742.532,748.928 758.004,746.134 772.447,743.221 786.606,740.056 801.969,736.247 816.304,732.315 
			831.843,727.61 847.097,722.51 861.323,717.295 876.753,711.109 891.155,704.807 906.761,697.372 922.082,689.427 
			936.376,681.414 951.873,672.043 966.342,662.631 980.527,652.764 995.915,641.329 1010.276,629.961 1025.84,616.877 
			1041.12,603.261 1055.372,589.882 1070.828,574.654 1085.255,559.79 1099.399,544.651 1114.746,527.641 1129.065,511.292 
			1144.588,493.138 1159.082,475.888 1173.293,458.813 1188.707,440.267 1203.093,423.105 1218.683,404.892 1233.988,387.665 
			1248.266,372.449 1263.747,357.217 1278.201,344.54 1278.422,344.359 1278.643,344.179 1279.086,343.82 1279.972,343.107 
			1281.743,341.704 1285.285,338.986 1285.506,338.82 1285.728,338.655 1286.171,338.326 1287.056,337.673 1288.827,336.393 
			1292.37,333.93 1292.61,333.768 1292.85,333.607 1293.33,333.286 1294.291,332.652 1296.213,331.415 1300.056,329.069 
			1300.296,328.929 1300.536,328.789 1301.017,328.511 1301.978,327.963 1303.899,326.903 1307.742,324.925 1307.966,324.816 
			1308.191,324.707 1308.639,324.492 1309.535,324.069 1311.328,323.258 1311.553,323.159 1311.777,323.062 1312.225,322.869 
			1313.122,322.491 1314.915,321.77 1315.139,321.683 1315.363,321.597 1315.811,321.427 1316.708,321.096 1318.501,320.47 
			1318.725,320.395 1318.949,320.321 1319.397,320.175 1320.294,319.893 1322.087,319.366 1322.337,319.297 1322.587,319.228 
			1323.088,319.095 1324.089,318.839 1324.339,318.777 1324.589,318.717 1325.089,318.599 1326.09,318.377 1326.34,318.323 
			1326.591,318.271 1327.091,318.17 1328.092,317.981 1328.342,317.936 1328.592,317.893 1329.093,317.809 1330.093,317.654 
			1330.344,317.618 1330.594,317.583 1331.094,317.516 1331.344,317.485 1331.595,317.454 1332.095,317.396 1332.345,317.369 
			1332.596,317.343 1333.096,317.294 1333.346,317.272 1333.596,317.25 1334.097,317.211 1334.347,317.193 1334.597,317.176 
			1334.847,317.16 1335.098,317.145 1335.348,317.132 1335.598,317.119 1335.848,317.108 1336.098,317.098 1336.349,317.089 
			1336.599,317.081 1336.849,317.075 1337.099,317.07 1337.349,317.065 1337.6,317.062 1337.85,317.061 1338.1,317.06 		"/>
		
			<polyline style="clip-path:url(#SVGID_00000062913767324508102490000003542002675186943123_);fill:none;stroke:#E19C24;stroke-width:1.6;stroke-linecap:square;stroke-miterlimit:3.25;" points="
			609.1,764.945 609.324,764.934 609.547,764.924 609.994,764.903 610.889,764.862 612.677,764.777 616.255,764.599 
			623.409,764.216 623.652,764.202 623.894,764.188 624.379,764.161 625.348,764.105 627.288,763.99 631.166,763.752 
			638.922,763.234 639.149,763.218 639.375,763.202 639.827,763.169 640.733,763.104 642.543,762.972 646.165,762.696 
			653.407,762.102 653.629,762.083 653.851,762.064 654.295,762.025 655.182,761.947 656.957,761.789 660.507,761.46 
			667.608,760.754 667.849,760.729 668.089,760.704 668.571,760.654 669.533,760.551 671.459,760.343 675.31,759.911 
			683.012,758.98 683.237,758.952 683.461,758.923 683.911,758.866 684.809,758.75 686.606,758.514 690.2,758.027 697.389,756.984 
			697.632,756.947 697.875,756.91 698.362,756.836 699.336,756.686 701.284,756.38 705.179,755.747 712.969,754.391 
			713.208,754.347 713.447,754.303 713.925,754.216 714.88,754.039 716.792,753.678 720.616,752.934 728.264,751.345 
			742.532,747.997 758.004,743.741 772.447,739.115 786.606,733.902 801.969,727.416 816.304,720.517 831.843,712.047 
			847.097,702.662 861.323,692.906 876.753,681.188 891.155,669.157 906.761,654.921 922.082,639.743 936.376,624.542 
			951.873,606.991 966.342,589.684 980.527,571.96 995.915,552.03 1010.276,532.936 1025.84,511.917 1041.12,491.191 
			1055.372,472.011 1070.828,451.644 1085.255,433.287 1099.399,416.139 1114.746,398.722 1129.065,383.798 1144.588,369.259 
			1159.082,357.358 1159.304,357.189 1159.526,357.02 1159.97,356.684 1160.859,356.016 1162.635,354.699 1166.188,352.142 
			1173.293,347.338 1173.534,347.183 1173.774,347.028 1174.256,346.719 1175.22,346.107 1177.146,344.906 1181,342.596 
			1188.707,338.335 1188.932,338.218 1189.157,338.102 1189.606,337.87 1190.505,337.41 1192.303,336.51 1195.9,334.787 
			1196.125,334.683 1196.35,334.579 1196.799,334.373 1197.698,333.964 1199.497,333.165 1203.093,331.642 1203.337,331.542 
			1203.58,331.443 1204.067,331.246 1205.042,330.857 1206.991,330.1 1210.888,328.67 1211.132,328.584 1211.375,328.499 
			1211.862,328.329 1212.837,327.996 1214.785,327.348 1218.683,326.13 1218.922,326.059 1219.161,325.988 1219.639,325.847 
			1220.596,325.57 1222.509,325.034 1226.336,324.031 1226.575,323.972 1226.814,323.912 1227.292,323.795 1228.249,323.564 
			1230.162,323.119 1233.988,322.293 1234.212,322.247 1234.435,322.202 1234.881,322.112 1235.773,321.936 1237.558,321.596 
			1241.127,320.968 1241.35,320.93 1241.573,320.894 1242.02,320.821 1242.912,320.678 1244.697,320.403 1248.266,319.899 
			1248.508,319.867 1248.75,319.836 1249.234,319.773 1250.201,319.65 1252.136,319.417 1252.378,319.389 1252.62,319.361 
			1253.104,319.307 1254.072,319.2 1256.007,318.997 1256.249,318.973 1256.49,318.949 1256.974,318.901 1257.942,318.809 
			1259.877,318.634 1263.747,318.324 1263.973,318.307 1264.199,318.291 1264.651,318.258 1265.554,318.195 1267.361,318.077 
			1267.586,318.063 1267.812,318.049 1268.264,318.021 1269.167,317.968 1270.974,317.867 1271.2,317.856 1271.426,317.844 
			1271.877,317.821 1272.781,317.776 1274.587,317.692 1274.813,317.682 1275.039,317.672 1275.491,317.653 1276.394,317.616 
			1278.201,317.547 1278.422,317.539 1278.643,317.531 1279.086,317.515 1279.972,317.485 1281.743,317.43 1281.964,317.424 
			1282.186,317.417 1282.628,317.405 1283.514,317.38 1285.285,317.336 1285.506,317.331 1285.728,317.326 1286.171,317.316 
			1287.056,317.296 1287.278,317.292 1287.499,317.287 1287.942,317.278 1288.827,317.261 1289.049,317.257 1289.27,317.253 
			1289.713,317.245 1290.598,317.23 1292.37,317.203 1292.61,317.199 1292.85,317.196 1293.33,317.19 1294.291,317.177 
			1294.531,317.174 1294.772,317.171 1295.252,317.166 1296.213,317.155 1296.453,317.153 1296.693,317.15 1297.174,317.146 
			1298.134,317.137 1298.375,317.134 1298.615,317.132 1299.095,317.128 1300.056,317.121 1300.296,317.119 1300.536,317.117 
			1301.017,317.114 1301.978,317.108 1302.218,317.106 1302.458,317.105 1302.938,317.102 1303.899,317.097 1304.139,317.096 
			1304.38,317.095 1304.86,317.092 1305.821,317.088 1306.061,317.087 1306.301,317.086 1306.782,317.084 1307.742,317.081 
			1307.966,317.08 1308.191,317.08 1308.639,317.078 1309.535,317.076 1309.76,317.075 1309.984,317.075 1310.432,317.074 
			1311.328,317.072 1311.553,317.071 1311.777,317.071 1312.225,317.07 1312.449,317.069 1312.673,317.069 1313.122,317.068 
			1313.346,317.068 1313.57,317.068 1314.018,317.067 1314.915,317.066 1315.139,317.066 1315.363,317.065 1315.811,317.065 
			1316.035,317.065 1316.259,317.064 1316.708,317.064 1316.932,317.064 1317.156,317.064 1317.604,317.063 1318.501,317.063 
			1318.725,317.062 1318.949,317.062 1319.397,317.062 1319.621,317.062 1319.846,317.062 1320.294,317.062 1320.518,317.062 
			1320.742,317.061 1321.19,317.061 1321.415,317.061 1321.639,317.061 1322.087,317.061 1322.337,317.061 1322.587,317.061 
			1322.838,317.061 1323.088,317.061 1323.338,317.061 1323.588,317.061 1324.089,317.061 1324.339,317.06 1324.589,317.06 
			1324.839,317.06 1325.089,317.06 1325.34,317.06 1325.59,317.06 1326.09,317.06 1326.34,317.06 1326.591,317.06 1326.841,317.06 
			1327.091,317.06 1327.341,317.06 1327.591,317.06 1327.842,317.06 1328.092,317.06 1328.342,317.06 1328.592,317.06 
			1328.842,317.06 1329.093,317.06 1329.343,317.06 1329.593,317.06 1329.843,317.06 1330.093,317.06 1330.344,317.06 
			1330.594,317.06 1330.844,317.06 1331.094,317.06 1331.344,317.06 1331.595,317.06 1331.845,317.06 1332.095,317.06 
			1332.596,317.06 1333.096,317.06 1333.596,317.06 1334.097,317.06 1336.098,317.06 1338.1,317.06 		"/>
		
			<polyline style="clip-path:url(#SVGID_00000062913767324508102490000003542002675186943123_);fill:none;stroke:#8FB032;stroke-width:1.6;stroke-linecap:square;stroke-miterlimit:3.25;" points="
			609.1,762.881 609.324,762.842 609.547,762.804 609.994,762.725 610.889,762.565 612.677,762.232 616.255,761.507 
			616.478,761.459 616.702,761.411 617.149,761.314 618.043,761.115 619.832,760.7 623.409,759.803 623.652,759.739 
			623.894,759.674 624.379,759.543 625.348,759.276 627.288,758.719 631.166,757.511 631.408,757.431 631.651,757.351 
			632.135,757.188 633.105,756.857 635.044,756.167 638.922,754.676 639.149,754.584 639.375,754.491 639.827,754.305 
			640.733,753.926 642.543,753.14 646.165,751.458 646.391,751.347 646.617,751.236 647.07,751.013 647.975,750.558 
			649.786,749.617 653.407,747.609 653.629,747.481 653.851,747.351 654.295,747.091 655.182,746.561 656.957,745.469 
			660.507,743.149 660.729,742.997 660.951,742.845 661.395,742.539 662.283,741.918 664.058,740.639 667.608,737.931 
			667.849,737.74 668.089,737.548 668.571,737.161 669.533,736.376 671.459,734.759 675.31,731.332 675.551,731.109 
			675.791,730.885 676.273,730.434 677.236,729.519 679.161,727.639 683.012,723.671 683.237,723.431 683.461,723.19 
			683.911,722.705 684.809,721.723 686.606,719.712 690.2,715.499 697.389,706.288 697.632,705.958 697.875,705.626 
			698.362,704.959 699.336,703.609 701.284,700.851 705.179,695.096 712.969,682.625 713.208,682.222 713.447,681.818 
			713.925,681.007 714.88,679.369 716.792,676.037 720.616,669.147 728.264,654.483 742.532,624.218 758.004,587.892 
			772.447,551.877 786.606,515.964 801.969,477.959 816.304,444.852 831.843,412.876 832.081,412.423 832.319,411.971 
			832.796,411.07 833.749,409.283 835.656,405.767 839.47,398.97 847.097,386.34 847.319,385.991 847.542,385.644 847.986,384.952 
			848.875,383.582 850.654,380.896 854.21,375.736 854.433,375.423 854.655,375.112 855.099,374.491 855.989,373.263 
			857.767,370.861 861.323,366.267 861.565,365.965 861.806,365.665 862.288,365.069 863.252,363.892 865.181,361.598 
			869.038,357.249 869.28,356.988 869.521,356.727 870.003,356.211 870.967,355.192 872.896,353.213 876.753,349.479 
			876.978,349.271 877.203,349.063 877.654,348.651 878.554,347.838 880.354,346.259 883.954,343.284 884.179,343.106 
			884.404,342.929 884.855,342.578 885.755,341.886 887.555,340.545 891.155,338.03 891.399,337.868 891.643,337.706 
			892.131,337.386 893.106,336.758 895.057,335.547 898.958,333.3 899.202,333.167 899.446,333.035 899.934,332.773 900.909,332.26 
			902.86,331.275 906.761,329.457 907,329.352 907.24,329.247 907.719,329.041 908.676,328.636 910.591,327.859 914.422,326.433 
			914.661,326.35 914.901,326.266 915.379,326.102 916.337,325.781 918.252,325.166 922.082,324.043 922.306,323.982 
			922.529,323.921 922.976,323.801 923.869,323.566 925.656,323.116 925.879,323.061 926.102,323.007 926.549,322.901 
			927.442,322.692 929.229,322.294 929.452,322.245 929.676,322.198 930.123,322.103 931.016,321.919 932.803,321.568 
			936.376,320.929 936.618,320.889 936.86,320.849 937.344,320.77 938.313,320.616 940.25,320.325 940.492,320.29 940.734,320.256 
			941.219,320.187 942.187,320.055 944.124,319.804 944.367,319.774 944.609,319.744 945.093,319.685 946.062,319.571 
			947.999,319.356 951.873,318.973 952.099,318.952 952.325,318.932 952.777,318.892 953.682,318.814 955.49,318.666 
			955.716,318.649 955.942,318.631 956.395,318.597 957.299,318.53 959.107,318.404 959.334,318.389 959.56,318.374 
			960.012,318.344 960.916,318.287 962.725,318.18 966.342,317.989 966.564,317.978 966.785,317.968 967.229,317.947 
			968.115,317.906 969.888,317.83 970.11,317.821 970.332,317.812 970.775,317.795 971.661,317.761 973.434,317.696 
			973.656,317.689 973.878,317.681 974.321,317.666 975.208,317.638 976.981,317.584 977.202,317.577 977.424,317.571 
			977.867,317.558 978.754,317.534 980.527,317.489 980.767,317.483 981.008,317.477 981.489,317.466 982.45,317.444 
			984.374,317.404 984.614,317.399 984.855,317.394 985.336,317.385 986.298,317.367 988.221,317.334 988.462,317.33 
			988.702,317.326 989.183,317.319 990.145,317.304 992.068,317.277 992.309,317.274 992.549,317.271 993.03,317.265 
			993.992,317.253 995.915,317.232 996.14,317.229 996.364,317.227 996.813,317.222 997.711,317.213 999.506,317.197 
			999.73,317.195 999.954,317.193 1000.403,317.189 1001.301,317.182 1003.096,317.169 1003.32,317.167 1003.544,317.165 
			1003.993,317.162 1004.891,317.157 1006.686,317.146 1006.91,317.145 1007.135,317.143 1007.583,317.141 1008.481,317.136 
			1010.276,317.127 1010.519,317.126 1010.762,317.125 1011.249,317.123 1012.221,317.119 1012.465,317.118 1012.708,317.117 
			1013.194,317.115 1014.167,317.112 1014.41,317.111 1014.653,317.11 1015.14,317.108 1016.113,317.105 1018.058,317.099 
			1018.301,317.099 1018.544,317.098 1019.031,317.097 1020.004,317.094 1020.247,317.094 1020.49,317.093 1020.976,317.092 
			1021.949,317.09 1022.192,317.089 1022.435,317.089 1022.922,317.088 1023.895,317.086 1025.84,317.082 1026.079,317.082 
			1026.318,317.082 1026.795,317.081 1027.75,317.079 1027.989,317.079 1028.228,317.079 1028.705,317.078 1029.66,317.077 
			1029.899,317.076 1030.138,317.076 1030.615,317.076 1031.57,317.074 1033.48,317.072 1033.719,317.072 1033.958,317.072 
			1034.435,317.072 1035.39,317.071 1035.629,317.071 1035.868,317.07 1036.345,317.07 1037.3,317.069 1037.539,317.069 
			1037.778,317.069 1038.255,317.069 1039.21,317.068 1041.12,317.067 1041.343,317.067 1041.565,317.067 1042.011,317.066 
			1042.902,317.066 1043.124,317.066 1043.347,317.066 1043.792,317.065 1044.683,317.065 1044.906,317.065 1045.128,317.065 
			1045.574,317.065 1046.465,317.064 1048.246,317.064 1048.469,317.064 1048.691,317.064 1049.137,317.063 1050.028,317.063 
			1050.25,317.063 1050.473,317.063 1050.918,317.063 1051.809,317.063 1052.032,317.063 1052.254,317.063 1052.7,317.063 
			1053.591,317.062 1055.372,317.062 1055.614,317.062 1055.855,317.062 1056.338,317.062 1057.304,317.062 1057.546,317.062 
			1057.787,317.062 1058.27,317.062 1059.236,317.061 1059.477,317.061 1059.719,317.061 1060.202,317.061 1061.168,317.061 
			1063.1,317.061 1063.341,317.061 1063.583,317.061 1064.066,317.061 1065.032,317.061 1065.273,317.061 1065.515,317.061 
			1065.998,317.061 1066.964,317.061 1067.205,317.061 1067.447,317.061 1067.93,317.061 1068.896,317.061 1070.828,317.06 
			1071.053,317.06 1071.279,317.06 1071.729,317.06 1072.631,317.06 1072.857,317.06 1073.082,317.06 1073.533,317.06 
			1074.435,317.06 1074.66,317.06 1074.885,317.06 1075.336,317.06 1076.238,317.06 1078.041,317.06 1078.267,317.06 
			1078.492,317.06 1078.943,317.06 1079.845,317.06 1080.07,317.06 1080.296,317.06 1080.747,317.06 1081.648,317.06 
			1081.874,317.06 1082.099,317.06 1082.55,317.06 1083.452,317.06 1083.677,317.06 1083.903,317.06 1084.354,317.06 
			1085.255,317.06 1085.476,317.06 1085.697,317.06 1086.139,317.06 1087.023,317.06 1087.244,317.06 1087.465,317.06 
			1087.907,317.06 1088.791,317.06 1089.012,317.06 1089.233,317.06 1089.675,317.06 1090.559,317.06 1091.001,317.06 
			1091.443,317.06 1092.327,317.06 1092.769,317.06 1093.211,317.06 1094.095,317.06 1094.537,317.06 1094.979,317.06 
			1095.863,317.06 1096.747,317.06 1097.631,317.06 1098.515,317.06 1099.399,317.06 1100.358,317.06 1101.317,317.06 
			1102.276,317.06 1103.236,317.06 1105.154,317.06 1107.072,317.06 1110.909,317.06 1114.746,317.06 1121.905,317.06 
			1129.065,317.06 1136.826,317.06 1144.588,317.06 1151.835,317.06 1159.082,317.06 1166.188,317.06 1173.293,317.06 1181,317.06 
			1188.707,317.06 1195.9,317.06 1203.093,317.06 1210.888,317.06 1218.683,317.06 1226.336,317.06 1233.988,317.06 
			1248.266,317.06 1263.747,317.06 1278.201,317.06 1292.37,317.06 1307.742,317.06 1322.087,317.06 1330.093,317.06 1338.1,317.06 
					"/>
		
			<polyline style="clip-path:url(#SVGID_00000062913767324508102490000003542002675186943123_);fill:none;stroke:#EB6235;stroke-width:1.6;stroke-linecap:square;stroke-miterlimit:3.25;" points="
			609.1,762.892 609.324,762.77 609.547,762.645 609.994,762.386 610.889,761.832 611.112,761.686 611.336,761.537 611.783,761.229 
			612.677,760.572 612.901,760.399 613.124,760.222 613.572,759.858 614.466,759.082 616.255,757.333 616.478,757.094 
			616.702,756.851 617.149,756.35 618.043,755.29 618.267,755.012 618.49,754.729 618.938,754.147 619.832,752.918 620.056,752.597 
			620.279,752.27 620.726,751.598 621.621,750.183 623.409,747.045 623.652,746.587 623.894,746.121 624.379,745.164 
			625.348,743.147 625.591,742.621 625.833,742.086 626.318,740.989 627.288,738.685 627.53,738.086 627.772,737.476 
			628.257,736.229 629.227,733.615 631.166,727.893 631.408,727.13 631.651,726.357 632.135,724.776 633.105,721.482 
			635.044,714.349 635.286,713.405 635.529,712.45 636.014,710.503 636.983,706.468 638.922,697.823 639.149,696.763 
			639.375,695.693 639.827,693.522 640.733,689.053 642.543,679.612 646.165,658.769 646.391,657.383 646.617,655.987 
			647.07,653.167 647.975,647.417 649.786,635.494 653.407,610.136 653.629,608.524 653.851,606.907 654.295,603.655 
			655.182,597.086 656.957,583.719 660.507,556.329 667.608,501.173 667.849,499.341 668.089,497.514 668.571,493.874 
			669.533,486.657 671.459,472.516 675.31,445.692 675.551,444.09 675.791,442.498 676.273,439.344 677.236,433.155 679.161,421.28 
			683.012,399.681 683.237,398.514 683.461,397.356 683.911,395.073 684.809,390.63 686.606,382.247 686.831,381.246 
			687.056,380.255 687.505,378.305 688.403,374.529 690.2,367.469 690.425,366.632 690.65,365.804 691.099,364.18 691.997,361.049 
			693.794,355.248 694.019,354.565 694.244,353.891 694.693,352.571 695.592,350.038 697.389,345.388 697.632,344.8 
			697.875,344.221 698.362,343.091 699.336,340.942 699.579,340.428 699.823,339.922 700.31,338.936 701.284,337.067 
			701.527,336.62 701.77,336.181 702.257,335.328 703.231,333.713 705.179,330.832 705.422,330.503 705.665,330.18 706.152,329.554 
			707.126,328.376 707.369,328.097 707.613,327.823 708.1,327.292 709.074,326.297 709.317,326.062 709.56,325.831 710.047,325.385 
			711.021,324.551 711.264,324.354 711.508,324.161 711.995,323.789 712.969,323.094 713.208,322.933 713.447,322.776 
			713.925,322.473 714.88,321.908 715.119,321.775 715.358,321.645 715.836,321.395 716.792,320.93 717.031,320.821 717.27,320.714 
			717.748,320.509 718.704,320.129 718.943,320.04 719.182,319.953 719.66,319.786 720.616,319.478 720.855,319.406 
			721.094,319.336 721.572,319.201 722.528,318.952 722.767,318.894 723.006,318.838 723.484,318.73 724.44,318.531 
			724.679,318.485 724.918,318.44 725.396,318.354 726.352,318.196 726.591,318.16 726.83,318.124 727.308,318.056 728.264,317.932 
			728.487,317.905 728.71,317.878 729.156,317.828 730.048,317.736 730.271,317.715 730.494,317.694 730.94,317.655 
			731.831,317.582 732.054,317.565 732.277,317.549 732.723,317.517 732.946,317.502 733.169,317.488 733.615,317.46 
			733.838,317.447 734.061,317.434 734.507,317.41 735.398,317.365 735.621,317.355 735.844,317.345 736.29,317.326 
			736.513,317.317 736.736,317.308 737.182,317.291 737.405,317.283 737.628,317.276 738.073,317.261 738.965,317.234 
			739.188,317.228 739.411,317.222 739.857,317.211 740.08,317.205 740.303,317.2 740.749,317.19 740.972,317.186 741.195,317.181 
			741.64,317.173 742.532,317.157 742.774,317.153 743.016,317.149 743.499,317.142 743.741,317.139 743.983,317.136 
			744.466,317.13 744.708,317.127 744.95,317.124 745.433,317.119 746.4,317.11 746.642,317.108 746.884,317.106 747.367,317.102 
			747.609,317.1 747.85,317.099 748.334,317.096 748.576,317.094 748.817,317.093 749.301,317.09 750.268,317.085 750.51,317.084 
			750.751,317.083 751.235,317.081 751.477,317.08 751.718,317.079 752.202,317.078 752.444,317.077 752.685,317.076 
			753.169,317.075 754.136,317.072 754.378,317.072 754.619,317.071 755.103,317.07 755.344,317.07 755.586,317.069 756.07,317.068 
			756.311,317.068 756.553,317.068 757.037,317.067 757.278,317.067 757.52,317.066 758.004,317.066 758.229,317.066 
			758.455,317.065 758.906,317.065 759.132,317.065 759.358,317.064 759.809,317.064 760.035,317.064 760.26,317.064 
			760.712,317.063 761.614,317.063 761.84,317.063 762.066,317.063 762.517,317.062 762.743,317.062 762.969,317.062 
			763.42,317.062 763.646,317.062 763.871,317.062 764.323,317.062 764.548,317.062 764.774,317.061 765.225,317.061 
			765.451,317.061 765.677,317.061 766.128,317.061 766.354,317.061 766.579,317.061 767.031,317.061 767.256,317.061 
			767.482,317.061 767.933,317.061 768.159,317.061 768.385,317.061 768.836,317.061 769.062,317.061 769.288,317.061 
			769.739,317.06 769.965,317.06 770.19,317.06 770.642,317.06 770.867,317.06 771.093,317.06 771.544,317.06 771.77,317.06 
			771.996,317.06 772.447,317.06 772.668,317.06 772.89,317.06 773.332,317.06 773.553,317.06 773.774,317.06 774.217,317.06 
			774.438,317.06 774.659,317.06 775.102,317.06 775.323,317.06 775.544,317.06 775.987,317.06 776.208,317.06 776.429,317.06 
			776.872,317.06 777.093,317.06 777.314,317.06 777.757,317.06 777.978,317.06 778.199,317.06 778.642,317.06 778.863,317.06 
			779.084,317.06 779.527,317.06 779.748,317.06 779.969,317.06 780.412,317.06 780.633,317.06 780.854,317.06 781.297,317.06 
			781.739,317.06 782.182,317.06 782.624,317.06 783.067,317.06 783.509,317.06 783.951,317.06 784.394,317.06 784.836,317.06 
			785.721,317.06 786.606,317.06 788.527,317.06 790.447,317.06 792.367,317.06 794.288,317.06 798.129,317.06 801.969,317.06 
			809.137,317.06 816.304,317.06 824.073,317.06 831.843,317.06 839.47,317.06 847.097,317.06 854.21,317.06 861.323,317.06 
			876.753,317.06 891.155,317.06 906.761,317.06 922.082,317.06 936.376,317.06 951.873,317.06 966.342,317.06 980.527,317.06 
			995.915,317.06 1010.276,317.06 1025.84,317.06 1041.12,317.06 1055.372,317.06 1070.828,317.06 1085.255,317.06 1099.399,317.06 
			1114.746,317.06 1129.065,317.06 1144.588,317.06 1159.082,317.06 1173.293,317.06 1188.707,317.06 1203.093,317.06 
			1218.683,317.06 1233.988,317.06 1248.266,317.06 1263.747,317.06 1278.201,317.06 1292.37,317.06 1307.742,317.06 
			1322.087,317.06 1330.093,317.06 1338.1,317.06 		"/>
	</g>
	
		<line style="fill:none;stroke:#000000;stroke-width:0.5;stroke-miterlimit:3.25;" x1="609.1" y1="767.607" x2="609.1" y2="763.601"/>
	<path style="fill-rule:evenodd;clip-rule:evenodd;" d="M593,783.133c0-2.015,0.208-3.647,0.624-4.895
		c0.417-1.248,1.035-2.195,1.857-2.842c0.821-0.646,1.854-0.969,3.099-0.969c0.919,0,1.734,0.184,2.447,0.552
		c0.712,0.368,1.284,0.899,1.716,1.593c0.431,0.694,0.775,1.538,1.032,2.534c0.257,0.996,0.385,2.338,0.385,4.027
		c0,1.998-0.206,3.622-0.619,4.871c-0.412,1.249-1.029,2.198-1.85,2.848c-0.822,0.65-1.858,0.975-3.111,0.975
		c-1.65,0-2.946-0.569-3.887-1.706C593.564,788.662,593,786.333,593,783.133L593,783.133z M595.16,783.187
		c0,2.831,0.329,4.699,0.986,5.603c0.658,0.905,1.469,1.357,2.434,1.357s1.776-0.454,2.434-1.362
		c0.657-0.908,0.986-2.774,0.986-5.598c0-2.8-0.324-4.66-0.971-5.58c-0.648-0.92-1.471-1.38-2.471-1.38
		c-0.965,0-1.746,0.406-2.342,1.219C595.512,778.482,595.16,780.396,595.16,783.187L595.16,783.187z"/>
	<rect x="607.4" y="789.307" style="fill-rule:evenodd;clip-rule:evenodd;" width="2.28" height="2.28"/>
	<path style="fill-rule:evenodd;clip-rule:evenodd;" d="M613.04,787.027l2.16-0.12c0.161,1.076,0.527,1.885,1.096,2.427
		c0.569,0.542,1.29,0.813,2.163,0.813c1.061,0,1.923-0.381,2.586-1.142c0.663-0.761,0.995-1.771,0.995-3.03
		c0-1.196-0.313-2.14-0.939-2.831c-0.627-0.691-1.501-1.037-2.623-1.037c-0.7,0-1.306,0.145-1.816,0.434
		c-0.511,0.289-0.918,0.665-1.222,1.126l-2.16-0.24l1.8-8.76h8.16v2.16h-6.585l-0.917,4.472c1.016-0.741,2.082-1.112,3.197-1.112
		c1.479,0,2.726,0.517,3.742,1.552c1.015,1.035,1.523,2.367,1.523,3.994c0,1.549-0.444,2.888-1.331,4.016
		c-1.08,1.385-2.554,2.078-4.421,2.078c-1.532,0-2.781-0.438-3.75-1.314C613.73,789.636,613.178,788.474,613.04,787.027
		L613.04,787.027z"/>
	
		<line style="fill:none;stroke:#000000;stroke-width:0.5;stroke-miterlimit:3.25;" x1="754.9" y1="767.607" x2="754.9" y2="763.601"/>
	<path style="fill-rule:evenodd;clip-rule:evenodd;" d="M738.8,783.133c0-2.015,0.208-3.647,0.624-4.895
		c0.417-1.248,1.035-2.195,1.857-2.842c0.821-0.646,1.854-0.969,3.099-0.969c0.919,0,1.734,0.184,2.447,0.552
		c0.712,0.368,1.284,0.899,1.716,1.593c0.431,0.694,0.775,1.538,1.032,2.534c0.257,0.996,0.385,2.338,0.385,4.027
		c0,1.998-0.206,3.622-0.619,4.871c-0.412,1.249-1.029,2.198-1.85,2.848c-0.822,0.65-1.858,0.975-3.111,0.975
		c-1.65,0-2.946-0.569-3.887-1.706C739.364,788.662,738.8,786.333,738.8,783.133L738.8,783.133z M740.96,783.187
		c0,2.831,0.329,4.699,0.986,5.603c0.658,0.905,1.469,1.357,2.434,1.357c0.965,0,1.776-0.454,2.434-1.362
		c0.657-0.908,0.986-2.774,0.986-5.598c0-2.8-0.324-4.66-0.971-5.58c-0.648-0.92-1.471-1.38-2.471-1.38
		c-0.965,0-1.746,0.406-2.342,1.219C741.312,778.482,740.96,780.396,740.96,783.187L740.96,783.187z"/>
	<rect x="753.2" y="789.307" style="fill-rule:evenodd;clip-rule:evenodd;" width="2.28" height="2.28"/>
	<path style="fill-rule:evenodd;clip-rule:evenodd;" d="M769.76,778.747l-2.16,0.12c-0.184-0.844-0.444-1.457-0.782-1.839
		c-0.56-0.614-1.25-0.921-2.072-0.921c-0.66,0-1.259,0.185-1.798,0.555c-0.611,0.479-1.105,1.178-1.481,2.097
		c-0.376,0.92-0.572,2.237-0.587,3.954c0.501-0.774,1.114-1.349,1.838-1.724c0.725-0.375,1.484-0.562,2.278-0.562
		c1.386,0,2.567,0.516,3.542,1.548c0.975,1.032,1.462,2.365,1.462,4c0,1.075-0.231,2.074-0.694,2.996
		c-0.462,0.923-1.097,1.629-1.905,2.12c-0.807,0.491-1.724,0.736-2.75,0.736c-1.748,0-3.173-0.641-4.276-1.924
		c-1.103-1.282-1.655-3.396-1.655-6.341c0-3.293,0.613-5.687,1.839-7.183c1.072-1.301,2.514-1.952,4.326-1.952
		c1.351,0,2.458,0.383,3.322,1.148C769.07,776.341,769.588,777.398,769.76,778.747L769.76,778.747z M761,786.043
		c0,0.722,0.156,1.414,0.468,2.075s0.738,1.165,1.28,1.511c0.541,0.345,1.14,0.518,1.796,0.518c0.941,0,1.726-0.358,2.354-1.073
		c0.628-0.715,0.942-1.686,0.942-2.915c0-1.181-0.31-2.112-0.93-2.792c-0.62-0.68-1.436-1.02-2.449-1.02
		c-0.963,0-1.781,0.34-2.453,1.02C761.336,784.047,761,784.939,761,786.043L761,786.043z"/>
	
		<line style="fill:none;stroke:#000000;stroke-width:0.5;stroke-miterlimit:3.25;" x1="900.7" y1="767.607" x2="900.7" y2="763.601"/>
	<path style="fill-rule:evenodd;clip-rule:evenodd;" d="M884.6,783.133c0-2.015,0.208-3.647,0.624-4.895
		c0.417-1.248,1.035-2.195,1.857-2.842c0.821-0.646,1.854-0.969,3.099-0.969c0.919,0,1.734,0.184,2.447,0.552
		c0.712,0.368,1.284,0.899,1.716,1.593c0.431,0.694,0.775,1.538,1.032,2.534c0.257,0.996,0.385,2.338,0.385,4.027
		c0,1.998-0.206,3.622-0.619,4.871c-0.412,1.249-1.029,2.198-1.85,2.848c-0.822,0.65-1.858,0.975-3.111,0.975
		c-1.65,0-2.946-0.569-3.887-1.706C885.164,788.662,884.6,786.333,884.6,783.133L884.6,783.133z M886.76,783.187
		c0,2.831,0.329,4.699,0.986,5.603c0.658,0.905,1.469,1.357,2.434,1.357c0.965,0,1.776-0.454,2.434-1.362
		c0.657-0.908,0.986-2.774,0.986-5.598c0-2.8-0.324-4.66-0.971-5.58c-0.648-0.92-1.471-1.38-2.471-1.38
		c-0.965,0-1.746,0.406-2.342,1.219C887.112,778.482,886.76,780.396,886.76,783.187L886.76,783.187z"/>
	<rect x="899" y="789.307" style="fill-rule:evenodd;clip-rule:evenodd;" width="2.28" height="2.28"/>
	<path style="fill-rule:evenodd;clip-rule:evenodd;" d="M904.64,776.827v-2.16h11.04v1.747c-1.082,1.172-2.155,2.711-3.217,4.619
		c-1.063,1.907-1.884,3.869-2.462,5.885c-0.418,1.421-0.685,2.978-0.801,4.669h-2.16c0.023-1.336,0.282-2.951,0.779-4.843
		c0.497-1.893,1.21-3.717,2.139-5.474c0.928-1.757,1.916-3.238,2.962-4.443H904.64z"/>
	
		<line style="fill:none;stroke:#000000;stroke-width:0.5;stroke-miterlimit:3.25;" x1="1046.5" y1="767.607" x2="1046.5" y2="763.601"/>
	<path style="fill-rule:evenodd;clip-rule:evenodd;" d="M1030.4,783.133c0-2.015,0.208-3.647,0.624-4.895
		c0.417-1.248,1.035-2.195,1.857-2.842c0.821-0.646,1.854-0.969,3.099-0.969c0.919,0,1.734,0.184,2.447,0.552
		c0.712,0.368,1.284,0.899,1.716,1.593c0.431,0.694,0.775,1.538,1.032,2.534c0.257,0.996,0.385,2.338,0.385,4.027
		c0,1.998-0.206,3.622-0.619,4.871c-0.412,1.249-1.029,2.198-1.85,2.848c-0.822,0.65-1.858,0.975-3.111,0.975
		c-1.65,0-2.946-0.569-3.887-1.706C1030.964,788.662,1030.4,786.333,1030.4,783.133L1030.4,783.133z M1032.56,783.187
		c0,2.831,0.329,4.699,0.986,5.603c0.658,0.905,1.469,1.357,2.434,1.357c0.965,0,1.776-0.454,2.434-1.362
		c0.657-0.908,0.986-2.774,0.986-5.598c0-2.8-0.324-4.66-0.971-5.58c-0.648-0.92-1.471-1.38-2.471-1.38
		c-0.965,0-1.746,0.406-2.342,1.219C1032.912,778.482,1032.56,780.396,1032.56,783.187L1032.56,783.187z"/>
	<rect x="1044.8" y="789.307" style="fill-rule:evenodd;clip-rule:evenodd;" width="2.28" height="2.28"/>
	<path style="fill-rule:evenodd;clip-rule:evenodd;" d="M1053.626,782.296c-0.878-0.317-1.528-0.77-1.951-1.359
		c-0.423-0.589-0.635-1.294-0.635-2.117c0-1.24,0.451-2.282,1.352-3.126c0.901-0.845,2.101-1.267,3.598-1.267
		c1.505,0,2.716,0.432,3.634,1.296c0.917,0.863,1.376,1.915,1.376,3.155c0,0.791-0.208,1.48-0.625,2.065s-1.051,1.036-1.901,1.353
		c1.019,0.342,1.795,0.892,2.327,1.651c0.533,0.76,0.799,1.666,0.799,2.72c0,1.456-0.512,2.68-1.537,3.672
		c-1.024,0.992-2.372,1.488-4.043,1.488s-3.019-0.498-4.043-1.493c-1.025-0.996-1.537-2.238-1.537-3.725
		c0-1.109,0.276-2.037,0.828-2.785C1051.82,783.077,1052.606,782.568,1053.626,782.296L1053.626,782.296z M1053.2,778.736
		c0,0.815,0.253,1.48,0.76,1.997c0.507,0.516,1.202,0.774,2.084,0.774c0.858,0,1.538-0.256,2.041-0.769
		c0.503-0.512,0.755-1.14,0.755-1.884c0-0.775-0.259-1.427-0.778-1.955c-0.519-0.528-1.199-0.792-2.042-0.792
		c-0.85,0-1.532,0.258-2.047,0.774C1053.458,777.398,1053.2,778.016,1053.2,778.736L1053.2,778.736z M1052.6,786.631
		c0,0.602,0.129,1.183,0.388,1.746c0.259,0.562,0.673,0.998,1.243,1.307c0.57,0.309,1.172,0.463,1.806,0.463
		c1.025,0,1.848-0.324,2.47-0.972c0.622-0.648,0.933-1.472,0.933-2.472c0-1.017-0.32-1.857-0.961-2.52
		c-0.641-0.664-1.477-0.996-2.51-0.996c-1.011,0-1.825,0.328-2.443,0.984C1052.909,784.828,1052.6,785.648,1052.6,786.631
		L1052.6,786.631z"/>
	
		<line style="fill:none;stroke:#000000;stroke-width:0.5;stroke-miterlimit:3.25;" x1="1192.3" y1="767.607" x2="1192.3" y2="763.601"/>
	<path style="fill-rule:evenodd;clip-rule:evenodd;" d="M1176.2,783.133c0-2.015,0.208-3.647,0.624-4.895
		c0.417-1.248,1.035-2.195,1.857-2.842c0.821-0.646,1.854-0.969,3.099-0.969c0.919,0,1.734,0.184,2.447,0.552
		c0.712,0.368,1.284,0.899,1.716,1.593c0.431,0.694,0.775,1.538,1.032,2.534c0.257,0.996,0.385,2.338,0.385,4.027
		c0,1.998-0.206,3.622-0.619,4.871c-0.412,1.249-1.029,2.198-1.85,2.848c-0.822,0.65-1.858,0.975-3.111,0.975
		c-1.65,0-2.946-0.569-3.887-1.706C1176.764,788.662,1176.2,786.333,1176.2,783.133L1176.2,783.133z M1178.36,783.187
		c0,2.831,0.329,4.699,0.986,5.603c0.658,0.905,1.469,1.357,2.434,1.357s1.776-0.454,2.434-1.362
		c0.657-0.908,0.986-2.774,0.986-5.598c0-2.8-0.324-4.66-0.971-5.58c-0.648-0.92-1.471-1.38-2.471-1.38
		c-0.965,0-1.746,0.406-2.342,1.219C1178.712,778.482,1178.36,780.396,1178.36,783.187L1178.36,783.187z"/>
	<rect x="1190.6" y="789.307" style="fill-rule:evenodd;clip-rule:evenodd;" width="2.28" height="2.28"/>
	<path style="fill-rule:evenodd;clip-rule:evenodd;" d="M1196.48,787.507l2.16-0.12c0.166,0.967,0.483,1.669,0.95,2.106
		c0.467,0.436,1.066,0.654,1.797,0.654c0.625,0,1.183-0.15,1.673-0.451c0.491-0.301,0.877-0.702,1.159-1.205
		c0.282-0.502,0.525-1.18,0.729-2.033c0.203-0.853,0.305-1.717,0.305-2.592c0-0.094-0.004-0.235-0.013-0.422
		c-0.414,0.672-0.978,1.218-1.694,1.636c-0.716,0.418-1.49,0.627-2.324,0.627c-1.393,0-2.571-0.509-3.535-1.527
		c-0.965-1.018-1.447-2.361-1.447-4.027c0-1.72,0.508-3.104,1.523-4.153c1.015-1.049,2.286-1.573,3.813-1.573
		c1.104,0,2.113,0.298,3.028,0.895c0.915,0.597,1.61,1.447,2.084,2.551c0.475,1.104,0.712,2.702,0.712,4.795
		c0,2.177-0.237,3.911-0.711,5.201c-0.473,1.29-1.178,2.272-2.115,2.946c-0.936,0.675-2.033,1.012-3.292,1.012
		c-1.336,0-2.428-0.378-3.275-1.133C1197.16,789.938,1196.651,788.876,1196.48,787.507L1196.48,787.507z M1205.12,780.046
		c0-1.171-0.309-2.1-0.927-2.788c-0.618-0.687-1.396-1.031-2.334-1.031c-0.968,0-1.787,0.37-2.456,1.111
		c-0.669,0.741-1.003,1.7-1.003,2.879c0,1.057,0.317,1.917,0.951,2.578c0.633,0.661,1.45,0.992,2.45,0.992
		c0.967,0,1.761-0.331,2.384-0.992S1205.12,781.218,1205.12,780.046L1205.12,780.046z"/>
	
		<line style="fill:none;stroke:#000000;stroke-width:0.5;stroke-miterlimit:3.25;" x1="1338.1" y1="767.607" x2="1338.1" y2="763.601"/>
	<path style="fill-rule:evenodd;clip-rule:evenodd;" d="M1336.46,791.587h-2.16v-13.371c-0.491,0.482-1.135,0.963-1.932,1.445
		c-0.797,0.482-1.513,0.843-2.148,1.085v-2.029c1.151-0.551,2.158-1.219,3.019-2.004c0.861-0.785,1.471-1.547,1.83-2.286h1.391
		V791.587z"/>
	<rect x="1343.06" y="789.307" style="fill-rule:evenodd;clip-rule:evenodd;" width="2.28" height="2.28"/>
	
		<line style="fill:none;stroke:#000000;stroke-width:0.5;stroke-miterlimit:3.25;" x1="609.1" y1="767.607" x2="1338.1" y2="767.607"/>
	<path style="fill-rule:evenodd;clip-rule:evenodd;" d="M1347.16,780.007v-17.28h2.16v1.686c0.441-0.643,0.939-1.124,1.493-1.445
		c0.555-0.321,1.227-0.481,2.017-0.481c1.034,0,1.946,0.272,2.737,0.817c0.79,0.545,1.387,1.314,1.789,2.307
		c0.403,0.992,0.604,2.08,0.604,3.262c0,1.269-0.227,2.411-0.682,3.427c-0.454,1.015-1.114,1.794-1.979,2.335
		c-0.865,0.541-1.775,0.812-2.73,0.812c-0.698,0-1.325-0.144-1.88-0.431c-0.555-0.288-1.011-0.651-1.369-1.09v6.081H1347.16z
		 M1349.32,769.078c0,1.598,0.312,2.78,0.936,3.543c0.623,0.764,1.378,1.146,2.265,1.146c0.901,0,1.673-0.396,2.315-1.187
		c0.643-0.791,0.964-2.017,0.964-3.677c0-1.582-0.314-2.767-0.941-3.555c-0.628-0.787-1.377-1.181-2.248-1.181
		c-0.864,0-1.628,0.419-2.293,1.257C1349.653,766.262,1349.32,767.48,1349.32,769.078L1349.32,769.078z"/>
	
		<line style="fill:none;stroke:#000000;stroke-width:0.5;stroke-miterlimit:3.25;" x1="609.1" y1="767.607" x2="613.105" y2="767.607"/>
	<path style="fill-rule:evenodd;clip-rule:evenodd;" d="M593.36,766.753c0-2.015,0.208-3.647,0.624-4.895
		c0.417-1.248,1.035-2.195,1.857-2.842c0.821-0.646,1.854-0.969,3.099-0.969c0.919,0,1.734,0.184,2.447,0.552
		c0.712,0.368,1.284,0.899,1.716,1.593c0.431,0.694,0.775,1.538,1.032,2.534c0.257,0.996,0.385,2.338,0.385,4.027
		c0,1.998-0.206,3.622-0.619,4.871c-0.412,1.249-1.029,2.198-1.85,2.848c-0.822,0.65-1.858,0.975-3.111,0.975
		c-1.65,0-2.946-0.569-3.887-1.706C593.924,772.282,593.36,769.953,593.36,766.753L593.36,766.753z M595.52,766.807
		c0,2.831,0.329,4.699,0.986,5.603c0.658,0.905,1.469,1.357,2.434,1.357s1.776-0.454,2.434-1.362
		c0.657-0.908,0.986-2.774,0.986-5.598c0-2.8-0.324-4.66-0.971-5.58c-0.648-0.92-1.471-1.38-2.471-1.38
		c-0.965,0-1.746,0.406-2.342,1.219C595.872,762.102,595.52,764.016,595.52,766.807L595.52,766.807z"/>
	
		<line style="fill:none;stroke:#000000;stroke-width:0.5;stroke-miterlimit:3.25;" x1="609.1" y1="654.97" x2="613.105" y2="654.97"/>
	<path style="fill-rule:evenodd;clip-rule:evenodd;" d="M560,654.116c0-2.015,0.208-3.647,0.624-4.895
		c0.417-1.248,1.035-2.195,1.857-2.842c0.821-0.646,1.854-0.969,3.099-0.969c0.919,0,1.734,0.184,2.447,0.552
		c0.712,0.368,1.284,0.899,1.716,1.593c0.431,0.694,0.775,1.538,1.032,2.534c0.257,0.996,0.385,2.338,0.385,4.027
		c0,1.998-0.206,3.622-0.619,4.871c-0.412,1.249-1.029,2.198-1.85,2.848c-0.822,0.65-1.858,0.975-3.111,0.975
		c-1.65,0-2.946-0.569-3.887-1.706C560.564,659.645,560,657.316,560,654.116L560,654.116z M562.16,654.17
		c0,2.831,0.329,4.699,0.986,5.603c0.658,0.905,1.469,1.357,2.434,1.357s1.776-0.454,2.434-1.362
		c0.657-0.908,0.986-2.774,0.986-5.598c0-2.8-0.324-4.66-0.971-5.58c-0.648-0.92-1.471-1.38-2.471-1.38
		c-0.965,0-1.746,0.406-2.342,1.219C562.512,649.465,562.16,651.379,562.16,654.17L562.16,654.17z"/>
	<rect x="574.4" y="660.29" style="fill-rule:evenodd;clip-rule:evenodd;" width="2.28" height="2.28"/>
	<path style="fill-rule:evenodd;clip-rule:evenodd;" d="M590.96,660.41v2.16h-11.28c-0.016-0.526,0.061-1.032,0.233-1.517
		c0.273-0.801,0.712-1.585,1.315-2.351s1.498-1.632,2.686-2.597c1.844-1.553,3.099-2.755,3.766-3.608c0.667-0.854,1-1.67,1-2.448
		c0-0.798-0.299-1.47-0.897-2.018c-0.598-0.547-1.378-0.821-2.339-0.821c-1.015,0-1.828,0.297-2.438,0.892
		c-0.61,0.594-0.918,1.417-0.926,2.468l-2.16-0.24c0.149-1.601,0.707-2.822,1.674-3.661c0.968-0.839,2.267-1.259,3.897-1.259
		c1.646,0,2.949,0.452,3.909,1.356c0.96,0.903,1.44,2.023,1.44,3.36c0,0.678-0.135,1.346-0.404,2.002
		c-0.269,0.656-0.717,1.348-1.343,2.074c-0.625,0.726-1.68,1.717-3.165,2.972c-1.258,1.04-2.084,1.745-2.477,2.117
		c-0.394,0.371-0.72,0.744-0.977,1.119H590.96z"/>
	<path style="fill-rule:evenodd;clip-rule:evenodd;" d="M593.36,658.01l2.16-0.12c0.161,1.076,0.527,1.885,1.096,2.427
		c0.569,0.542,1.29,0.813,2.163,0.813c1.061,0,1.923-0.381,2.586-1.142c0.663-0.761,0.995-1.771,0.995-3.03
		c0-1.196-0.313-2.14-0.939-2.831c-0.627-0.691-1.501-1.037-2.623-1.037c-0.7,0-1.306,0.145-1.816,0.434
		c-0.511,0.289-0.918,0.665-1.222,1.126l-2.16-0.24l1.8-8.76h8.16v2.16h-6.585l-0.917,4.472c1.016-0.741,2.082-1.112,3.197-1.112
		c1.479,0,2.726,0.517,3.742,1.552c1.015,1.035,1.523,2.367,1.523,3.994c0,1.549-0.444,2.888-1.331,4.016
		c-1.08,1.385-2.554,2.078-4.421,2.078c-1.532,0-2.781-0.438-3.75-1.314C594.05,660.619,593.498,659.457,593.36,658.01
		L593.36,658.01z"/>
	
		<line style="fill:none;stroke:#000000;stroke-width:0.5;stroke-miterlimit:3.25;" x1="609.1" y1="542.333" x2="613.105" y2="542.333"/>
	<path style="fill-rule:evenodd;clip-rule:evenodd;" d="M573.32,541.479c0-2.015,0.208-3.647,0.624-4.895
		c0.417-1.248,1.035-2.195,1.857-2.842c0.821-0.646,1.854-0.969,3.099-0.969c0.919,0,1.734,0.184,2.447,0.552
		c0.712,0.368,1.284,0.899,1.716,1.593c0.431,0.694,0.775,1.538,1.032,2.534c0.257,0.996,0.385,2.338,0.385,4.027
		c0,1.998-0.206,3.622-0.619,4.871c-0.412,1.249-1.029,2.198-1.85,2.848c-0.822,0.65-1.858,0.975-3.111,0.975
		c-1.65,0-2.946-0.569-3.887-1.706C573.884,547.008,573.32,544.679,573.32,541.479L573.32,541.479z M575.48,541.533
		c0,2.831,0.329,4.699,0.986,5.603c0.658,0.905,1.469,1.357,2.434,1.357c0.965,0,1.776-0.454,2.434-1.362
		c0.657-0.908,0.986-2.774,0.986-5.598c0-2.8-0.324-4.66-0.971-5.58c-0.648-0.92-1.471-1.38-2.471-1.38
		c-0.965,0-1.746,0.406-2.342,1.219C575.832,536.828,575.48,538.742,575.48,541.533L575.48,541.533z"/>
	<rect x="587.72" y="547.653" style="fill-rule:evenodd;clip-rule:evenodd;" width="2.28" height="2.28"/>
	<path style="fill-rule:evenodd;clip-rule:evenodd;" d="M593.36,545.373l2.16-0.12c0.161,1.076,0.527,1.885,1.096,2.427
		c0.569,0.542,1.29,0.813,2.163,0.813c1.061,0,1.923-0.381,2.586-1.142c0.663-0.761,0.995-1.771,0.995-3.03
		c0-1.196-0.313-2.14-0.939-2.831c-0.627-0.691-1.501-1.037-2.623-1.037c-0.7,0-1.306,0.145-1.816,0.434
		c-0.511,0.289-0.918,0.665-1.222,1.126l-2.16-0.24l1.8-8.76h8.16v2.16h-6.585l-0.917,4.472c1.016-0.741,2.082-1.112,3.197-1.112
		c1.479,0,2.726,0.517,3.742,1.552c1.015,1.035,1.523,2.367,1.523,3.994c0,1.549-0.444,2.888-1.331,4.016
		c-1.08,1.385-2.554,2.078-4.421,2.078c-1.532,0-2.781-0.438-3.75-1.314C594.05,547.982,593.498,546.82,593.36,545.373
		L593.36,545.373z"/>
	
		<line style="fill:none;stroke:#000000;stroke-width:0.5;stroke-miterlimit:3.25;" x1="609.1" y1="429.697" x2="613.105" y2="429.697"/>
	<path style="fill-rule:evenodd;clip-rule:evenodd;" d="M560,428.843c0-2.015,0.208-3.647,0.624-4.895
		c0.417-1.248,1.035-2.195,1.857-2.842c0.821-0.646,1.854-0.969,3.099-0.969c0.919,0,1.734,0.184,2.447,0.552
		c0.712,0.368,1.284,0.899,1.716,1.593c0.431,0.694,0.775,1.538,1.032,2.534c0.257,0.996,0.385,2.338,0.385,4.027
		c0,1.998-0.206,3.622-0.619,4.871c-0.412,1.249-1.029,2.198-1.85,2.848c-0.822,0.65-1.858,0.975-3.111,0.975
		c-1.65,0-2.946-0.569-3.887-1.706C560.564,434.372,560,432.043,560,428.843L560,428.843z M562.16,428.897
		c0,2.831,0.329,4.699,0.986,5.603c0.658,0.905,1.469,1.357,2.434,1.357s1.776-0.454,2.434-1.362
		c0.657-0.908,0.986-2.774,0.986-5.598c0-2.8-0.324-4.66-0.971-5.58c-0.648-0.92-1.471-1.38-2.471-1.38
		c-0.965,0-1.746,0.406-2.342,1.219C562.512,424.192,562.16,426.106,562.16,428.897L562.16,428.897z"/>
	<rect x="574.4" y="435.017" style="fill-rule:evenodd;clip-rule:evenodd;" width="2.28" height="2.28"/>
	<path style="fill-rule:evenodd;clip-rule:evenodd;" d="M580.04,422.537v-2.16h11.04v1.747c-1.082,1.172-2.155,2.711-3.217,4.619
		c-1.063,1.907-1.884,3.869-2.462,5.885c-0.418,1.421-0.685,2.978-0.801,4.669h-2.16c0.023-1.336,0.282-2.951,0.779-4.843
		c0.497-1.893,1.21-3.717,2.139-5.474c0.928-1.757,1.916-3.238,2.962-4.443H580.04z"/>
	<path style="fill-rule:evenodd;clip-rule:evenodd;" d="M593.36,432.737l2.16-0.12c0.161,1.076,0.527,1.885,1.096,2.427
		c0.569,0.542,1.29,0.813,2.163,0.813c1.061,0,1.923-0.381,2.586-1.142c0.663-0.761,0.995-1.771,0.995-3.03
		c0-1.196-0.313-2.14-0.939-2.831c-0.627-0.691-1.501-1.037-2.623-1.037c-0.7,0-1.306,0.145-1.816,0.434
		c-0.511,0.289-0.918,0.665-1.222,1.126l-2.16-0.24l1.8-8.76h8.16v2.16h-6.585l-0.917,4.472c1.016-0.741,2.082-1.112,3.197-1.112
		c1.479,0,2.726,0.517,3.742,1.552c1.015,1.035,1.523,2.367,1.523,3.994c0,1.549-0.444,2.888-1.331,4.016
		c-1.08,1.385-2.554,2.078-4.421,2.078c-1.532,0-2.781-0.438-3.75-1.314C594.05,435.346,593.498,434.184,593.36,432.737
		L593.36,432.737z"/>
	
		<line style="fill:none;stroke:#000000;stroke-width:0.5;stroke-miterlimit:3.25;" x1="609.1" y1="317.06" x2="613.105" y2="317.06"/>
	<path style="fill-rule:evenodd;clip-rule:evenodd;" d="M594.44,324.66h-2.16v-13.371c-0.491,0.482-1.135,0.963-1.932,1.445
		s-1.513,0.843-2.148,1.085v-2.029c1.151-0.551,2.158-1.219,3.019-2.004c0.861-0.785,1.471-1.547,1.83-2.286h1.391V324.66z"/>
	<rect x="601.04" y="322.38" style="fill-rule:evenodd;clip-rule:evenodd;" width="2.28" height="2.28"/>
	
		<line style="fill:none;stroke:#000000;stroke-width:0.5;stroke-miterlimit:3.25;" x1="609.1" y1="767.607" x2="609.1" y2="317.06"/>
	<path style="fill-rule:evenodd;clip-rule:evenodd;" d="M596.54,305.28h-2.16v-13.371c-0.491,0.482-1.135,0.963-1.932,1.445
		s-1.513,0.843-2.148,1.085v-2.029c1.151-0.551,2.158-1.219,3.019-2.004c0.861-0.785,1.471-1.547,1.83-2.286h1.391V305.28z"/>
	<rect x="602.304" y="298.048" style="fill-rule:evenodd;clip-rule:evenodd;" width="11.368" height="1.969"/>
	<path style="fill-rule:evenodd;clip-rule:evenodd;" d="M629.551,291.392c0,0.585-0.109,1.129-0.328,1.633s-0.515,0.952-0.89,1.343
		c-0.375,0.392-0.813,0.723-1.313,0.992c-0.5,0.27-1.031,0.454-1.594,0.554c0.517,0.062,0.983,0.176,1.401,0.343
		c0.417,0.168,0.777,0.396,1.078,0.686c0.301,0.289,0.532,0.636,0.692,1.039c0.16,0.404,0.24,0.869,0.24,1.395
		c0,0.549-0.078,1.079-0.234,1.589c-0.157,0.51-0.375,0.988-0.657,1.434c-0.281,0.446-0.615,0.854-1.002,1.223
		c-0.387,0.37-0.815,0.686-1.283,0.948c-0.469,0.263-0.967,0.466-1.495,0.611c-0.527,0.145-1.068,0.217-1.622,0.217
		c-0.461,0-0.854-0.031-1.178-0.093c-0.324-0.062-0.615-0.164-0.873-0.306c-0.257-0.143-0.498-0.332-0.721-0.567
		c-0.223-0.235-0.463-0.53-0.721-0.885l-1.348,6.531h-2.109l3.622-16.918c0.164-0.775,0.441-1.479,0.832-2.11
		c0.39-0.632,0.869-1.175,1.435-1.628c0.566-0.453,1.203-0.804,1.91-1.052c0.707-0.248,1.459-0.372,2.256-0.372
		c0.508,0,0.998,0.075,1.47,0.225c0.473,0.15,0.889,0.369,1.248,0.657c0.36,0.288,0.647,0.644,0.862,1.067
		S629.551,290.853,629.551,291.392L629.551,291.392z M627.524,291.827c0-0.335-0.064-0.632-0.193-0.892
		c-0.128-0.259-0.304-0.478-0.528-0.658c-0.223-0.179-0.48-0.316-0.773-0.411c-0.292-0.095-0.599-0.143-0.921-0.143
		c-0.562,0-1.056,0.086-1.482,0.258c-0.425,0.172-0.79,0.41-1.095,0.715c-0.304,0.305-0.556,0.667-0.755,1.087
		c-0.2,0.419-0.354,0.88-0.464,1.383l-1.382,6.373c-0.048,0.221-0.085,0.44-0.112,0.658c-0.027,0.217-0.04,0.437-0.04,0.658
		c0,0.426,0.062,0.821,0.187,1.183c0.125,0.363,0.309,0.677,0.551,0.944c0.241,0.267,0.538,0.477,0.89,0.629
		c0.352,0.153,0.754,0.229,1.207,0.229c0.579,0,1.114-0.121,1.606-0.363s0.917-0.561,1.277-0.959c0.359-0.397,0.64-0.85,0.843-1.356
		c0.203-0.507,0.305-1.029,0.305-1.565c0-0.598-0.123-1.082-0.369-1.452c-0.247-0.371-0.569-0.658-0.967-0.863
		c-0.398-0.204-0.845-0.342-1.341-0.414c-0.497-0.072-0.995-0.108-1.495-0.108h-0.082l0.328-1.56c0.555,0,1.118-0.055,1.688-0.166
		c0.571-0.111,1.086-0.296,1.547-0.555c0.461-0.259,0.838-0.604,1.131-1.035S627.524,292.474,627.524,291.827L627.524,291.827z"/>
</g>
</svg>
