<?xml version="1.0" encoding="iso-8859-1"?>
<!-- Generator: Adobe Illustrator 28.7.3, SVG Export Plug-In . SVG Version: 9.03 Build 54978)  -->
<svg version="1.1" id="Layer_1" xmlns="http://www.w3.org/2000/svg" xmlns:xlink="http://www.w3.org/1999/xlink" x="0px" y="0px"
	 viewBox="0 0 1920 1080" style="enable-background:new 0 0 1920 1080;" xml:space="preserve">
<g>
	<path style="fill:none;stroke:#DFE6F0;stroke-width:1.6;stroke-linecap:square;stroke-miterlimit:3.25;" d="M753.303,705.855v0.915
		 M797.507,697.623v9.147 M841.71,665.608v41.162 M885.913,597.005V706.77 M930.117,514.682V706.77 M974.32,476.265V706.77
		 M1018.523,514.682V706.77 M1062.727,597.005V706.77 M1106.93,665.608v41.162 M1151.133,697.623v9.147 M1195.337,705.855v0.915"/>
	<path style="fill:none;stroke:#5E81B5;stroke-width:10.314;stroke-linecap:round;stroke-miterlimit:3.25;" d="M753.303,705.855
		L753.303,705.855 M797.507,697.623L797.507,697.623 M841.71,665.608L841.71,665.608 M885.913,597.005L885.913,597.005
		 M930.117,514.682L930.117,514.682 M974.32,476.265L974.32,476.265 M1018.523,514.682L1018.523,514.682 M1062.727,597.005
		L1062.727,597.005 M1106.93,665.608L1106.93,665.608 M1151.133,697.623L1151.133,697.623 M1195.337,705.855L1195.337,705.855"/>
	
		<line style="fill:none;stroke:#000000;stroke-width:0.5;stroke-miterlimit:3.25;" x1="753.303" y1="706.77" x2="753.303" y2="702.77"/>
	<path style="fill-rule:evenodd;clip-rule:evenodd;" d="M747.223,722.296c0-2.015,0.208-3.647,0.624-4.895
		c0.417-1.248,1.035-2.195,1.857-2.842c0.821-0.646,1.854-0.969,3.099-0.969c0.919,0,1.734,0.184,2.447,0.552
		c0.712,0.368,1.284,0.899,1.716,1.593c0.431,0.694,0.775,1.538,1.032,2.534c0.257,0.996,0.385,2.338,0.385,4.027
		c0,1.998-0.206,3.622-0.619,4.871c-0.412,1.249-1.029,2.198-1.85,2.848c-0.822,0.65-1.858,0.975-3.111,0.975
		c-1.65,0-2.946-0.569-3.887-1.706C747.787,727.825,747.223,725.496,747.223,722.296L747.223,722.296z M749.383,722.35
		c0,2.831,0.329,4.699,0.986,5.603c0.658,0.905,1.469,1.357,2.434,1.357c0.965,0,1.776-0.454,2.434-1.362
		c0.657-0.908,0.986-2.774,0.986-5.598c0-2.8-0.324-4.66-0.971-5.58c-0.648-0.92-1.471-1.38-2.471-1.38
		c-0.965,0-1.746,0.406-2.342,1.219C749.735,717.645,749.383,719.559,749.383,722.35L749.383,722.35z"/>
	
		<line style="fill:none;stroke:#000000;stroke-width:0.5;stroke-miterlimit:3.25;" x1="974.32" y1="706.77" x2="974.32" y2="702.77"/>
	<path style="fill-rule:evenodd;clip-rule:evenodd;" d="M968.24,726.19l2.16-0.12c0.161,1.076,0.527,1.885,1.096,2.427
		c0.569,0.542,1.29,0.813,2.163,0.813c1.061,0,1.923-0.381,2.586-1.142s0.995-1.771,0.995-3.03c0-1.196-0.313-2.14-0.939-2.831
		c-0.627-0.691-1.501-1.037-2.623-1.037c-0.7,0-1.306,0.145-1.816,0.434c-0.511,0.289-0.918,0.665-1.222,1.126l-2.16-0.24l1.8-8.76
		h8.16v2.16h-6.585l-0.917,4.472c1.016-0.741,2.082-1.112,3.197-1.112c1.479,0,2.726,0.517,3.742,1.552
		c1.015,1.035,1.523,2.367,1.523,3.994c0,1.549-0.444,2.888-1.331,4.016c-1.08,1.385-2.554,2.078-4.421,2.078
		c-1.532,0-2.781-0.438-3.75-1.314C968.93,728.799,968.378,727.637,968.24,726.19L968.24,726.19z"/>
	
		<line style="fill:none;stroke:#000000;stroke-width:0.5;stroke-miterlimit:3.25;" x1="1151.133" y1="706.77" x2="1151.133" y2="702.77"/>
	<path style="fill-rule:evenodd;clip-rule:evenodd;" d="M1145.293,726.67l2.16-0.12c0.166,0.967,0.483,1.669,0.95,2.106
		c0.467,0.436,1.066,0.654,1.797,0.654c0.625,0,1.183-0.15,1.673-0.451c0.491-0.301,0.877-0.702,1.159-1.205
		c0.282-0.502,0.525-1.18,0.729-2.033c0.203-0.853,0.305-1.717,0.305-2.592c0-0.094-0.004-0.235-0.013-0.422
		c-0.414,0.672-0.978,1.218-1.694,1.636c-0.716,0.418-1.49,0.627-2.324,0.627c-1.393,0-2.571-0.509-3.535-1.527
		c-0.965-1.018-1.447-2.361-1.447-4.027c0-1.72,0.508-3.104,1.523-4.153c1.015-1.049,2.286-1.573,3.813-1.573
		c1.104,0,2.113,0.298,3.028,0.895c0.915,0.597,1.61,1.447,2.084,2.551c0.475,1.104,0.712,2.702,0.712,4.795
		c0,2.177-0.237,3.911-0.711,5.201c-0.473,1.29-1.178,2.272-2.115,2.946c-0.936,0.675-2.033,1.012-3.292,1.012
		c-1.336,0-2.428-0.378-3.275-1.133C1145.973,729.101,1145.464,728.039,1145.293,726.67L1145.293,726.67z M1153.933,719.209
		c0-1.171-0.309-2.1-0.927-2.788c-0.618-0.687-1.396-1.031-2.334-1.031c-0.968,0-1.787,0.37-2.456,1.111
		c-0.669,0.741-1.003,1.7-1.003,2.879c0,1.057,0.317,1.917,0.951,2.578c0.633,0.661,1.45,0.992,2.45,0.992
		c0.967,0,1.761-0.331,2.384-0.992C1153.621,721.297,1153.933,720.381,1153.933,719.209L1153.933,719.209z"/>
	
		<line style="fill:none;stroke:#000000;stroke-width:0.5;stroke-miterlimit:3.25;" x1="1195.337" y1="706.77" x2="1195.337" y2="702.77"/>
	<path style="fill-rule:evenodd;clip-rule:evenodd;" d="M1190.397,730.75h-2.16v-13.371c-0.491,0.482-1.135,0.963-1.932,1.445
		s-1.513,0.843-2.148,1.085v-2.029c1.151-0.551,2.158-1.219,3.019-2.004c0.861-0.785,1.471-1.547,1.83-2.286h1.391V730.75z"/>
	<path style="fill-rule:evenodd;clip-rule:evenodd;" d="M1195.917,722.296c0-2.015,0.208-3.647,0.624-4.895
		c0.417-1.248,1.035-2.195,1.857-2.842c0.821-0.646,1.854-0.969,3.099-0.969c0.919,0,1.734,0.184,2.447,0.552
		c0.712,0.368,1.284,0.899,1.716,1.593c0.431,0.694,0.775,1.538,1.032,2.534c0.257,0.996,0.385,2.338,0.385,4.027
		c0,1.998-0.206,3.622-0.619,4.871c-0.412,1.249-1.029,2.198-1.85,2.848c-0.822,0.65-1.858,0.975-3.111,0.975
		c-1.65,0-2.946-0.569-3.887-1.706C1196.481,727.825,1195.917,725.496,1195.917,722.296L1195.917,722.296z M1198.077,722.35
		c0,2.831,0.329,4.699,0.986,5.603c0.658,0.905,1.469,1.357,2.434,1.357c0.965,0,1.776-0.454,2.434-1.362
		c0.657-0.908,0.986-2.774,0.986-5.598c0-2.8-0.324-4.66-0.971-5.58c-0.648-0.92-1.471-1.38-2.471-1.38
		c-0.965,0-1.746,0.406-2.342,1.219C1198.429,717.645,1198.077,719.559,1198.077,722.35L1198.077,722.35z"/>
	
		<line style="fill:none;stroke:#000000;stroke-width:0.5;stroke-miterlimit:3.25;" x1="709.1" y1="706.77" x2="1239.54" y2="706.77"/>
	<path style="fill-rule:evenodd;clip-rule:evenodd;" d="M1247.16,714.37l4.538-6.377l-4.298-6.103h2.612l2.083,2.959
		c0.38,0.538,0.66,1.007,0.84,1.404c0.373-0.522,0.702-0.984,0.988-1.386l2.117-2.977h2.623l-4.348,6.111l4.485,6.369h-2.612
		l-2.64-3.748l-0.472-0.88l-3.293,4.628H1247.16z"/>
	<line style="fill:none;stroke:#000000;stroke-width:0.5;stroke-miterlimit:3.25;" x1="709.1" y1="706.77" x2="713.1" y2="706.77"/>
	<path style="fill-rule:evenodd;clip-rule:evenodd;" d="M693.36,705.916c0-2.015,0.208-3.647,0.624-4.895
		c0.417-1.248,1.035-2.195,1.857-2.842c0.821-0.646,1.854-0.969,3.099-0.969c0.919,0,1.734,0.184,2.447,0.552
		c0.712,0.368,1.284,0.899,1.716,1.593c0.431,0.694,0.775,1.538,1.032,2.534c0.257,0.996,0.385,2.338,0.385,4.027
		c0,1.998-0.206,3.622-0.619,4.871c-0.412,1.249-1.029,2.198-1.85,2.848c-0.822,0.65-1.858,0.975-3.111,0.975
		c-1.65,0-2.946-0.569-3.887-1.706C693.924,711.445,693.36,709.116,693.36,705.916L693.36,705.916z M695.52,705.97
		c0,2.831,0.329,4.699,0.986,5.603c0.658,0.905,1.469,1.357,2.434,1.357s1.776-0.454,2.434-1.362
		c0.657-0.908,0.986-2.774,0.986-5.598c0-2.8-0.324-4.66-0.971-5.58c-0.648-0.92-1.471-1.38-2.471-1.38
		c-0.965,0-1.746,0.406-2.342,1.219C695.872,701.265,695.52,703.179,695.52,705.97L695.52,705.97z"/>
	
		<line style="fill:none;stroke:#000000;stroke-width:0.5;stroke-miterlimit:3.25;" x1="709.1" y1="472.606" x2="713.1" y2="472.606"/>
	<path style="fill-rule:evenodd;clip-rule:evenodd;" d="M660,471.752c0-2.015,0.208-3.647,0.624-4.895
		c0.417-1.248,1.035-2.195,1.857-2.842c0.821-0.646,1.854-0.969,3.099-0.969c0.919,0,1.734,0.184,2.447,0.552
		c0.712,0.368,1.284,0.899,1.716,1.593c0.431,0.694,0.775,1.538,1.032,2.534c0.257,0.996,0.385,2.338,0.385,4.027
		c0,1.998-0.206,3.622-0.619,4.871c-0.412,1.249-1.029,2.198-1.85,2.848c-0.822,0.65-1.858,0.975-3.111,0.975
		c-1.65,0-2.946-0.569-3.887-1.706C660.564,477.281,660,474.952,660,471.752L660,471.752z M662.16,471.806
		c0,2.831,0.329,4.699,0.986,5.603c0.658,0.905,1.469,1.357,2.434,1.357c0.965,0,1.776-0.454,2.434-1.362
		c0.657-0.908,0.986-2.774,0.986-5.598c0-2.8-0.324-4.66-0.971-5.58c-0.648-0.92-1.471-1.38-2.471-1.38
		c-0.965,0-1.746,0.406-2.342,1.219C662.512,467.101,662.16,469.015,662.16,471.806L662.16,471.806z"/>
	<rect x="674.4" y="477.926" style="fill-rule:evenodd;clip-rule:evenodd;" width="2.28" height="2.28"/>
	<path style="fill-rule:evenodd;clip-rule:evenodd;" d="M690.96,478.046v2.16h-11.28c-0.016-0.526,0.061-1.032,0.233-1.517
		c0.273-0.801,0.712-1.585,1.315-2.351c0.603-0.766,1.498-1.632,2.686-2.597c1.844-1.553,3.099-2.755,3.766-3.608
		c0.667-0.854,1-1.67,1-2.448c0-0.798-0.299-1.47-0.897-2.018c-0.598-0.547-1.378-0.821-2.339-0.821
		c-1.015,0-1.828,0.297-2.438,0.892c-0.61,0.594-0.918,1.417-0.926,2.468l-2.16-0.24c0.149-1.601,0.707-2.822,1.674-3.661
		c0.968-0.839,2.267-1.259,3.897-1.259c1.646,0,2.949,0.452,3.909,1.356c0.96,0.903,1.44,2.023,1.44,3.36
		c0,0.678-0.135,1.346-0.404,2.002c-0.269,0.656-0.717,1.348-1.343,2.074c-0.625,0.726-1.68,1.717-3.165,2.972
		c-1.258,1.04-2.084,1.745-2.477,2.117c-0.394,0.371-0.72,0.744-0.977,1.119H690.96z"/>
	<path style="fill-rule:evenodd;clip-rule:evenodd;" d="M693.36,475.646l2.16-0.12c0.161,1.076,0.527,1.885,1.096,2.427
		c0.569,0.542,1.29,0.813,2.163,0.813c1.061,0,1.923-0.381,2.586-1.142c0.663-0.761,0.995-1.771,0.995-3.03
		c0-1.196-0.313-2.14-0.939-2.831c-0.627-0.691-1.501-1.037-2.623-1.037c-0.7,0-1.306,0.145-1.816,0.434
		c-0.511,0.289-0.918,0.665-1.222,1.126l-2.16-0.24l1.8-8.76h8.16v2.16h-6.585l-0.917,4.472c1.016-0.741,2.082-1.112,3.197-1.112
		c1.479,0,2.726,0.517,3.742,1.552c1.015,1.035,1.523,2.367,1.523,3.994c0,1.549-0.444,2.888-1.331,4.016
		c-1.08,1.385-2.554,2.078-4.421,2.078c-1.532,0-2.781-0.438-3.75-1.314C694.05,478.255,693.498,477.093,693.36,475.646
		L693.36,475.646z"/>
	<line style="fill:none;stroke:#000000;stroke-width:0.5;stroke-miterlimit:3.25;" x1="709.1" y1="706.77" x2="709.1" y2="378.94"/>
	<path style="fill-rule:evenodd;clip-rule:evenodd;" d="M686.58,367.16V350h6.345c1.118,0,1.971,0.055,2.559,0.165
		c0.827,0.14,1.519,0.407,2.077,0.802c0.558,0.395,1.007,0.949,1.348,1.66s0.511,1.492,0.511,2.344c0,1.462-0.453,2.699-1.358,3.711
		c-0.906,1.012-2.543,1.518-4.91,1.518h-4.292v6.96H686.58z M688.86,358.16h4.329c1.432,0,2.448-0.273,3.049-0.818
		c0.601-0.545,0.902-1.311,0.902-2.3c0-0.716-0.177-1.33-0.531-1.84c-0.353-0.51-0.82-0.846-1.398-1.01
		c-0.374-0.101-1.063-0.152-2.068-0.152h-4.283V358.16z"/>
	<path style="fill-rule:evenodd;clip-rule:evenodd;" d="M702.54,367.16V350h5.901c1.331,0,2.347,0.082,3.048,0.246
		c0.982,0.226,1.819,0.636,2.513,1.23c0.902,0.763,1.578,1.74,2.026,2.93c0.448,1.19,0.672,2.55,0.672,4.08
		c0,1.304-0.152,2.459-0.456,3.465c-0.303,1.006-0.693,1.839-1.168,2.499c-0.475,0.659-0.995,1.178-1.56,1.557
		s-1.246,0.665-2.044,0.86c-0.799,0.196-1.716,0.293-2.752,0.293H702.54z M704.82,365.12h3.673c1.135,0,2.025-0.105,2.67-0.315
		c0.645-0.21,1.16-0.506,1.543-0.889c0.54-0.536,0.961-1.258,1.262-2.165c0.301-0.908,0.452-2.008,0.452-3.3
		c0-1.79-0.295-3.166-0.886-4.128s-1.308-1.606-2.153-1.932c-0.61-0.234-1.592-0.351-2.946-0.351h-3.615V365.12z"/>
	<polygon style="fill-rule:evenodd;clip-rule:evenodd;" points="719.82,367.16 719.82,350 731.34,350 731.34,352.04 722.1,352.04 
		722.1,357.32 729.9,357.32 729.9,359.36 722.1,359.36 722.1,367.16 	"/>
	<polygon style="fill-rule:evenodd;clip-rule:evenodd;" points="745.385,682.247 743.223,682.247 743.223,682.985 745.385,682.985 
		761.723,682.985 763.885,682.985 763.885,682.247 761.723,682.247 	"/>
	<path style="fill-rule:evenodd;clip-rule:evenodd;" d="M753.643,676.568h-0.84v-5.049c-0.187,0.182-0.434,0.364-0.739,0.546
		c-0.305,0.182-0.578,0.319-0.821,0.41v-0.767c0.441-0.209,0.827-0.461,1.157-0.758c0.33-0.296,0.564-0.583,0.701-0.862h0.542
		V676.568z"/>
	<path style="fill-rule:evenodd;clip-rule:evenodd;" d="M746.083,694.309h-0.84v-5.049c-0.187,0.182-0.434,0.364-0.739,0.546
		s-0.578,0.319-0.821,0.41v-0.767c0.441-0.209,0.827-0.461,1.157-0.758c0.33-0.296,0.564-0.583,0.701-0.862h0.542V694.309z"/>
	<path style="fill-rule:evenodd;clip-rule:evenodd;" d="M748.123,691.131c0-0.764,0.081-1.389,0.242-1.875
		c0.161-0.486,0.401-0.846,0.718-1.078c0.318-0.233,0.718-0.349,1.2-0.349c0.355,0,0.677,0.07,0.965,0.209
		c0.288,0.139,0.509,0.341,0.664,0.604c0.155,0.263,0.283,0.584,0.382,0.962c0.099,0.378,0.149,0.887,0.149,1.527
		c0,0.759-0.08,1.381-0.239,1.866c-0.159,0.486-0.398,0.846-0.716,1.08c-0.318,0.235-0.72,0.352-1.205,0.352
		c-0.639,0-1.141-0.203-1.506-0.609C748.341,693.241,748.123,692.345,748.123,691.131L748.123,691.131z M748.963,691.129
		c0,1.075,0.127,1.774,0.381,2.096c0.253,0.323,0.567,0.484,0.939,0.484c0.373,0,0.686-0.162,0.939-0.486
		c0.254-0.323,0.381-1.022,0.381-2.094c0-1.038-0.122-1.727-0.366-2.068c-0.243-0.341-0.565-0.512-0.963-0.512
		c-0.373,0-0.68,0.151-0.923,0.452C749.092,689.385,748.963,690.094,748.963,691.129L748.963,691.129z"/>
	<path style="fill-rule:evenodd;clip-rule:evenodd;" d="M757.363,693.469v0.84h-4.32c-0.005-0.2,0.024-0.392,0.088-0.576
		c0.104-0.305,0.27-0.6,0.499-0.885s0.571-0.602,1.027-0.95c0.708-0.594,1.176-1.049,1.404-1.366
		c0.228-0.317,0.342-0.627,0.342-0.929c0-0.297-0.109-0.546-0.326-0.749c-0.218-0.203-0.501-0.305-0.85-0.305
		c-0.37,0-0.666,0.106-0.887,0.319c-0.222,0.212-0.334,0.506-0.337,0.881l-0.84-0.12c0.055-0.586,0.263-1.033,0.625-1.34
		s0.848-0.46,1.456-0.46c0.615,0,1.102,0.171,1.461,0.512c0.359,0.341,0.538,0.764,0.538,1.269c0,0.256-0.048,0.508-0.143,0.756
		c-0.096,0.247-0.255,0.508-0.478,0.783c-0.222,0.274-0.611,0.645-1.168,1.112c-0.481,0.389-0.793,0.653-0.935,0.791
		c-0.143,0.138-0.261,0.277-0.355,0.417H757.363z"/>
	<path style="fill-rule:evenodd;clip-rule:evenodd;" d="M760.843,694.309v-1.56h-2.88v-0.84l3.12-3.96h0.6v3.96h0.84v0.84h-0.84
		v1.56H760.843z M760.843,691.909v-2.338L759,691.909H760.843z"/>
	<polygon style="fill-rule:evenodd;clip-rule:evenodd;" points="792.109,674.015 789.947,674.015 789.947,674.753 792.109,674.753 
		803.407,674.753 805.569,674.753 805.569,674.015 803.407,674.015 	"/>
	<path style="fill-rule:evenodd;clip-rule:evenodd;" d="M794.847,666.656l0.84-0.12c0.063,0.399,0.198,0.698,0.405,0.899
		c0.208,0.201,0.492,0.301,0.853,0.301c0.446,0,0.788-0.142,1.026-0.426c0.237-0.283,0.356-0.66,0.356-1.13
		c0-0.447-0.11-0.799-0.331-1.057c-0.221-0.258-0.563-0.387-1.028-0.387c-0.293,0-0.53,0.067-0.713,0.201
		c-0.182,0.133-0.332,0.306-0.448,0.519l-0.84-0.12l0.72-3.36h3.12v0.84h-2.445l-0.337,1.616c0.377-0.277,0.773-0.416,1.186-0.416
		c0.549,0,1.012,0.197,1.39,0.592c0.377,0.395,0.566,0.903,0.566,1.523c0,0.591-0.172,1.102-0.516,1.532
		c-0.417,0.529-0.988,0.793-1.711,0.793c-0.593,0-1.076-0.164-1.451-0.493C795.115,667.634,794.901,667.198,794.847,666.656
		L794.847,666.656z"/>
	<path style="fill-rule:evenodd;clip-rule:evenodd;" d="M789.807,684.397l0.84-0.12c0.063,0.399,0.198,0.698,0.405,0.899
		c0.208,0.201,0.492,0.301,0.853,0.301c0.446,0,0.788-0.142,1.026-0.426c0.237-0.283,0.356-0.66,0.356-1.13
		c0-0.447-0.11-0.799-0.331-1.057c-0.221-0.258-0.563-0.387-1.028-0.387c-0.293,0-0.53,0.067-0.713,0.201
		c-0.182,0.133-0.332,0.306-0.448,0.519l-0.84-0.12l0.72-3.36h3.12v0.84h-2.445l-0.337,1.616c0.377-0.277,0.773-0.416,1.186-0.416
		c0.549,0,1.012,0.197,1.39,0.592c0.377,0.395,0.566,0.903,0.566,1.523c0,0.591-0.172,1.102-0.516,1.532
		c-0.417,0.529-0.988,0.793-1.711,0.793c-0.593,0-1.076-0.164-1.451-0.493C790.075,685.375,789.861,684.939,789.807,684.397
		L789.807,684.397z"/>
	<path style="fill-rule:evenodd;clip-rule:evenodd;" d="M797.847,686.077h-0.84v-5.049c-0.187,0.182-0.434,0.364-0.739,0.546
		s-0.578,0.319-0.821,0.41v-0.767c0.441-0.209,0.827-0.461,1.157-0.758c0.33-0.296,0.564-0.583,0.701-0.862h0.542V686.077z"/>
	<path style="fill-rule:evenodd;clip-rule:evenodd;" d="M804.087,685.237v0.84h-4.32c-0.005-0.2,0.024-0.392,0.088-0.576
		c0.104-0.305,0.27-0.6,0.499-0.885s0.571-0.602,1.027-0.95c0.708-0.594,1.176-1.049,1.404-1.366
		c0.228-0.317,0.342-0.627,0.342-0.929c0-0.297-0.109-0.546-0.326-0.749c-0.218-0.203-0.501-0.305-0.85-0.305
		c-0.37,0-0.666,0.106-0.887,0.319c-0.222,0.212-0.334,0.506-0.337,0.881l-0.84-0.12c0.055-0.586,0.263-1.033,0.625-1.34
		s0.848-0.46,1.456-0.46c0.615,0,1.102,0.171,1.461,0.512c0.359,0.341,0.538,0.764,0.538,1.269c0,0.256-0.048,0.508-0.143,0.756
		c-0.096,0.247-0.255,0.508-0.478,0.783c-0.222,0.274-0.611,0.645-1.168,1.112c-0.481,0.389-0.793,0.653-0.935,0.791
		c-0.143,0.138-0.261,0.277-0.355,0.417H804.087z"/>
	<polygon style="fill-rule:evenodd;clip-rule:evenodd;" points="833.792,642 831.63,642 831.63,642.738 833.792,642.738 
		850.13,642.738 852.292,642.738 852.292,642 850.13,642 	"/>
	<path style="fill-rule:evenodd;clip-rule:evenodd;" d="M839.17,636.321v-1.56h-2.88v-0.84l3.12-3.96h0.6v3.96h0.84v0.84h-0.84v1.56
		H839.17z M839.17,633.921v-2.338l-1.843,2.338H839.17z"/>
	<path style="fill-rule:evenodd;clip-rule:evenodd;" d="M841.57,634.641l0.84-0.12c0.063,0.399,0.198,0.698,0.405,0.899
		c0.208,0.201,0.492,0.301,0.853,0.301c0.446,0,0.788-0.142,1.026-0.426c0.237-0.283,0.356-0.66,0.356-1.13
		c0-0.447-0.11-0.799-0.331-1.057c-0.221-0.258-0.563-0.387-1.028-0.387c-0.293,0-0.53,0.067-0.713,0.201
		c-0.182,0.133-0.332,0.306-0.448,0.519l-0.84-0.12l0.72-3.36h3.12v0.84h-2.445l-0.337,1.616c0.377-0.277,0.773-0.416,1.186-0.416
		c0.549,0,1.012,0.197,1.39,0.592c0.377,0.395,0.566,0.903,0.566,1.523c0,0.591-0.172,1.102-0.516,1.532
		c-0.417,0.529-0.988,0.793-1.711,0.793c-0.593,0-1.076-0.164-1.451-0.493C841.838,635.619,841.624,635.183,841.57,634.641
		L841.57,634.641z"/>
	<path style="fill-rule:evenodd;clip-rule:evenodd;" d="M834.49,654.062h-0.84v-5.049c-0.187,0.182-0.434,0.364-0.739,0.546
		s-0.578,0.319-0.821,0.41v-0.767c0.441-0.209,0.827-0.461,1.157-0.758c0.33-0.296,0.564-0.583,0.701-0.862h0.542V654.062z"/>
	<path style="fill-rule:evenodd;clip-rule:evenodd;" d="M836.53,650.884c0-0.764,0.081-1.389,0.242-1.875
		c0.161-0.486,0.401-0.846,0.718-1.078c0.318-0.233,0.718-0.349,1.2-0.349c0.355,0,0.677,0.07,0.965,0.209
		c0.288,0.139,0.509,0.341,0.664,0.604c0.155,0.263,0.283,0.584,0.382,0.962c0.099,0.378,0.149,0.887,0.149,1.527
		c0,0.759-0.08,1.381-0.239,1.866c-0.159,0.486-0.398,0.846-0.716,1.08c-0.318,0.235-0.72,0.352-1.205,0.352
		c-0.639,0-1.141-0.203-1.506-0.609C836.748,652.994,836.53,652.098,836.53,650.884L836.53,650.884z M837.37,650.882
		c0,1.075,0.127,1.774,0.381,2.096c0.253,0.323,0.567,0.484,0.939,0.484c0.373,0,0.686-0.162,0.939-0.486
		c0.254-0.323,0.381-1.022,0.381-2.094c0-1.038-0.122-1.727-0.366-2.068c-0.243-0.341-0.565-0.512-0.963-0.512
		c-0.373,0-0.68,0.151-0.923,0.452C837.499,649.138,837.37,649.847,837.37,650.882L837.37,650.882z"/>
	<path style="fill-rule:evenodd;clip-rule:evenodd;" d="M845.77,653.222v0.84h-4.32c-0.005-0.2,0.024-0.392,0.088-0.576
		c0.104-0.305,0.27-0.6,0.499-0.885c0.229-0.285,0.571-0.602,1.027-0.95c0.708-0.594,1.176-1.049,1.404-1.366
		c0.228-0.317,0.342-0.627,0.342-0.929c0-0.297-0.109-0.546-0.326-0.749c-0.218-0.203-0.501-0.305-0.85-0.305
		c-0.37,0-0.666,0.106-0.887,0.319c-0.222,0.212-0.334,0.506-0.337,0.881l-0.84-0.12c0.055-0.586,0.263-1.033,0.625-1.34
		s0.848-0.46,1.456-0.46c0.615,0,1.102,0.171,1.461,0.512s0.538,0.764,0.538,1.269c0,0.256-0.048,0.508-0.143,0.756
		c-0.096,0.247-0.255,0.508-0.478,0.783c-0.222,0.274-0.611,0.645-1.168,1.112c-0.481,0.389-0.793,0.653-0.935,0.791
		c-0.143,0.138-0.261,0.277-0.355,0.417H845.77z"/>
	<path style="fill-rule:evenodd;clip-rule:evenodd;" d="M849.25,654.062v-1.56h-2.88v-0.84l3.12-3.96h0.6v3.96h0.84v0.84h-0.84v1.56
		H849.25z M849.25,651.662v-2.338l-1.843,2.338H849.25z"/>
	<polygon style="fill-rule:evenodd;clip-rule:evenodd;" points="880.515,573.397 878.353,573.397 878.353,574.135 880.515,574.135 
		891.813,574.135 893.975,574.135 893.975,573.397 891.813,573.397 	"/>
	<path style="fill-rule:evenodd;clip-rule:evenodd;" d="M883.733,567.718h-0.84v-5.049c-0.187,0.182-0.434,0.364-0.739,0.546
		s-0.578,0.319-0.821,0.41v-0.767c0.441-0.209,0.827-0.461,1.157-0.758c0.33-0.296,0.564-0.583,0.701-0.862h0.542V567.718z"/>
	<path style="fill-rule:evenodd;clip-rule:evenodd;" d="M885.773,566.038l0.84-0.12c0.063,0.399,0.198,0.698,0.405,0.899
		c0.208,0.201,0.492,0.301,0.853,0.301c0.446,0,0.788-0.142,1.026-0.426c0.237-0.283,0.356-0.66,0.356-1.13
		c0-0.447-0.11-0.799-0.331-1.057c-0.221-0.258-0.563-0.387-1.028-0.387c-0.293,0-0.53,0.067-0.713,0.201
		c-0.182,0.133-0.332,0.306-0.448,0.519l-0.84-0.12l0.72-3.36h3.12v0.84h-2.445l-0.337,1.616c0.377-0.277,0.773-0.416,1.186-0.416
		c0.549,0,1.012,0.197,1.39,0.592c0.377,0.395,0.566,0.903,0.566,1.523c0,0.591-0.172,1.102-0.516,1.532
		c-0.417,0.529-0.988,0.793-1.711,0.793c-0.593,0-1.076-0.164-1.451-0.493C886.041,567.016,885.827,566.58,885.773,566.038
		L885.773,566.038z"/>
	<path style="fill-rule:evenodd;clip-rule:evenodd;" d="M881.213,585.459h-0.84v-5.049c-0.187,0.182-0.434,0.364-0.739,0.546
		c-0.305,0.182-0.578,0.319-0.821,0.41v-0.767c0.441-0.209,0.827-0.461,1.157-0.758c0.33-0.296,0.564-0.583,0.701-0.862h0.542
		V585.459z"/>
	<path style="fill-rule:evenodd;clip-rule:evenodd;" d="M887.453,584.619v0.84h-4.32c-0.005-0.2,0.024-0.392,0.088-0.576
		c0.104-0.305,0.27-0.6,0.499-0.885s0.571-0.602,1.027-0.95c0.708-0.594,1.176-1.049,1.404-1.366
		c0.228-0.317,0.342-0.627,0.342-0.929c0-0.297-0.109-0.546-0.326-0.749c-0.218-0.203-0.501-0.305-0.85-0.305
		c-0.37,0-0.666,0.106-0.887,0.319c-0.222,0.212-0.334,0.506-0.337,0.881l-0.84-0.12c0.055-0.586,0.263-1.033,0.625-1.34
		s0.848-0.46,1.456-0.46c0.615,0,1.102,0.171,1.461,0.512c0.359,0.341,0.538,0.764,0.538,1.269c0,0.256-0.048,0.508-0.143,0.756
		c-0.096,0.247-0.255,0.508-0.478,0.783c-0.222,0.274-0.611,0.645-1.168,1.112c-0.481,0.389-0.793,0.653-0.935,0.791
		c-0.143,0.138-0.261,0.277-0.355,0.417H887.453z"/>
	<path style="fill-rule:evenodd;clip-rule:evenodd;" d="M889.527,581.956c-0.338-0.12-0.588-0.291-0.75-0.514
		c-0.163-0.223-0.244-0.49-0.244-0.8c0-0.47,0.168-0.865,0.505-1.184c0.337-0.319,0.785-0.479,1.344-0.479
		c0.562,0,1.015,0.163,1.357,0.49c0.343,0.327,0.514,0.725,0.514,1.194c0,0.3-0.08,0.56-0.241,0.782
		c-0.161,0.221-0.405,0.391-0.732,0.511c0.395,0.13,0.696,0.34,0.903,0.628c0.207,0.288,0.31,0.632,0.31,1.034
		c0,0.553-0.193,1.019-0.578,1.396c-0.386,0.377-0.893,0.565-1.522,0.565s-1.136-0.189-1.522-0.568
		c-0.385-0.379-0.578-0.851-0.578-1.416c0-0.421,0.107-0.774,0.321-1.058C888.827,582.252,889.132,582.059,889.527,581.956
		L889.527,581.956z M889.373,580.635c0,0.288,0.085,0.525,0.256,0.708c0.171,0.184,0.428,0.276,0.773,0.276
		c0.335,0,0.588-0.091,0.757-0.274c0.169-0.182,0.254-0.405,0.254-0.669c0-0.275-0.087-0.507-0.262-0.695s-0.428-0.282-0.758-0.282
		c-0.332,0-0.586,0.092-0.759,0.276C889.46,580.158,889.373,580.378,889.373,580.635L889.373,580.635z M889.133,583.586
		c0,0.217,0.041,0.428,0.124,0.632c0.082,0.203,0.235,0.361,0.458,0.473c0.223,0.112,0.451,0.168,0.684,0.168
		c0.403,0,0.713-0.118,0.93-0.353c0.216-0.235,0.324-0.533,0.324-0.894c0-0.367-0.112-0.671-0.335-0.912
		c-0.223-0.241-0.537-0.361-0.944-0.361c-0.397,0-0.703,0.119-0.918,0.356C889.241,582.933,889.133,583.23,889.133,583.586
		L889.133,583.586z"/>
	<polygon style="fill-rule:evenodd;clip-rule:evenodd;" points="924.719,491.074 922.557,491.074 922.557,491.812 924.719,491.812 
		936.017,491.812 938.179,491.812 938.179,491.074 936.017,491.074 	"/>
	<path style="fill-rule:evenodd;clip-rule:evenodd;" d="M925.417,485.395h-0.84v-5.049c-0.187,0.182-0.434,0.364-0.739,0.546
		c-0.305,0.182-0.578,0.319-0.821,0.41v-0.767c0.441-0.209,0.827-0.461,1.157-0.758c0.33-0.296,0.564-0.583,0.701-0.862h0.542
		V485.395z"/>
	<path style="fill-rule:evenodd;clip-rule:evenodd;" d="M927.457,482.217c0-0.764,0.081-1.389,0.242-1.875
		c0.161-0.486,0.401-0.846,0.718-1.078c0.318-0.233,0.718-0.349,1.2-0.349c0.355,0,0.677,0.07,0.965,0.209
		c0.288,0.139,0.509,0.341,0.664,0.604c0.155,0.263,0.283,0.584,0.382,0.962c0.099,0.378,0.149,0.887,0.149,1.527
		c0,0.759-0.08,1.381-0.239,1.866c-0.159,0.486-0.398,0.846-0.716,1.08c-0.318,0.235-0.72,0.352-1.205,0.352
		c-0.639,0-1.141-0.203-1.506-0.609C927.675,484.327,927.457,483.431,927.457,482.217L927.457,482.217z M928.297,482.215
		c0,1.075,0.127,1.774,0.381,2.096c0.253,0.323,0.567,0.484,0.939,0.484c0.373,0,0.686-0.162,0.939-0.486
		c0.254-0.323,0.381-1.022,0.381-2.094c0-1.038-0.122-1.727-0.366-2.068c-0.243-0.341-0.565-0.512-0.963-0.512
		c-0.373,0-0.68,0.151-0.923,0.452C928.426,480.471,928.297,481.18,928.297,482.215L928.297,482.215z"/>
	<path style="fill-rule:evenodd;clip-rule:evenodd;" d="M932.497,483.715l0.84-0.12c0.063,0.399,0.198,0.698,0.405,0.899
		c0.208,0.201,0.492,0.301,0.853,0.301c0.446,0,0.788-0.142,1.026-0.426c0.237-0.283,0.356-0.66,0.356-1.13
		c0-0.447-0.11-0.799-0.331-1.057c-0.221-0.258-0.563-0.387-1.028-0.387c-0.293,0-0.53,0.067-0.713,0.201
		c-0.182,0.133-0.332,0.306-0.448,0.519l-0.84-0.12l0.72-3.36h3.12v0.84h-2.445l-0.337,1.616c0.377-0.277,0.773-0.416,1.186-0.416
		c0.549,0,1.012,0.197,1.39,0.592c0.377,0.395,0.566,0.903,0.566,1.523c0,0.591-0.172,1.102-0.516,1.532
		c-0.417,0.529-0.988,0.793-1.711,0.793c-0.593,0-1.076-0.164-1.451-0.493C932.765,484.693,932.551,484.257,932.497,483.715
		L932.497,483.715z"/>
	<path style="fill-rule:evenodd;clip-rule:evenodd;" d="M922.417,501.456l0.84-0.12c0.063,0.399,0.198,0.698,0.405,0.899
		c0.208,0.201,0.492,0.301,0.853,0.301c0.446,0,0.788-0.142,1.026-0.426c0.237-0.283,0.356-0.66,0.356-1.13
		c0-0.447-0.11-0.799-0.331-1.057c-0.221-0.258-0.563-0.387-1.028-0.387c-0.293,0-0.53,0.067-0.713,0.201
		c-0.182,0.133-0.332,0.306-0.448,0.519l-0.84-0.12l0.72-3.36h3.12v0.84h-2.445l-0.337,1.616c0.377-0.277,0.773-0.416,1.186-0.416
		c0.549,0,1.012,0.197,1.39,0.592c0.377,0.395,0.566,0.903,0.566,1.523c0,0.591-0.172,1.102-0.516,1.532
		c-0.417,0.529-0.988,0.793-1.711,0.793c-0.593,0-1.076-0.164-1.451-0.493C922.685,502.434,922.471,501.998,922.417,501.456
		L922.417,501.456z"/>
	<path style="fill-rule:evenodd;clip-rule:evenodd;" d="M930.457,503.136h-0.84v-5.049c-0.187,0.182-0.434,0.364-0.739,0.546
		c-0.305,0.182-0.578,0.319-0.821,0.41v-0.767c0.441-0.209,0.827-0.461,1.157-0.758c0.33-0.296,0.564-0.583,0.701-0.862h0.542
		V503.136z"/>
	<path style="fill-rule:evenodd;clip-rule:evenodd;" d="M936.697,502.296v0.84h-4.32c-0.005-0.2,0.024-0.392,0.088-0.576
		c0.104-0.305,0.27-0.6,0.499-0.885s0.571-0.602,1.027-0.95c0.708-0.594,1.176-1.049,1.404-1.366
		c0.228-0.317,0.342-0.627,0.342-0.929c0-0.297-0.109-0.546-0.326-0.749c-0.218-0.203-0.501-0.305-0.85-0.305
		c-0.37,0-0.666,0.106-0.887,0.319c-0.222,0.212-0.334,0.506-0.337,0.881l-0.84-0.12c0.055-0.586,0.263-1.033,0.625-1.34
		s0.848-0.46,1.456-0.46c0.615,0,1.102,0.171,1.461,0.512c0.359,0.341,0.538,0.764,0.538,1.269c0,0.256-0.048,0.508-0.143,0.756
		c-0.096,0.247-0.255,0.508-0.478,0.783c-0.222,0.274-0.611,0.645-1.168,1.112c-0.481,0.389-0.793,0.653-0.935,0.791
		c-0.143,0.138-0.261,0.277-0.355,0.417H936.697z"/>
	<polygon style="fill-rule:evenodd;clip-rule:evenodd;" points="968.922,452.656 966.76,452.656 966.76,453.394 968.922,453.394 
		980.22,453.394 982.382,453.394 982.382,452.656 980.22,452.656 	"/>
	<path style="fill-rule:evenodd;clip-rule:evenodd;" d="M973.34,442.177l-0.84,0.12c-0.072-0.33-0.175-0.57-0.307-0.72
		c-0.22-0.24-0.492-0.36-0.814-0.36c-0.259,0-0.506,0.067-0.743,0.201c-0.216,0.172-0.398,0.424-0.545,0.756
		c-0.148,0.332-0.225,0.819-0.231,1.46c0.198-0.29,0.439-0.505,0.726-0.646c0.286-0.141,0.585-0.211,0.898-0.211
		c0.547,0,1.014,0.196,1.399,0.587c0.385,0.391,0.577,0.896,0.577,1.515c0,0.407-0.091,0.786-0.273,1.136s-0.432,0.618-0.75,0.804
		c-0.318,0.185-0.679,0.278-1.083,0.278c-0.687,0-1.248-0.243-1.682-0.729c-0.435-0.487-0.652-1.289-0.652-2.406
		c0-1.249,0.24-2.157,0.72-2.724c0.419-0.494,0.983-0.741,1.693-0.741c0.529,0,0.962,0.149,1.3,0.446
		C973.07,441.241,973.273,441.652,973.34,442.177L973.34,442.177z M969.86,444.862c0,0.266,0.063,0.522,0.189,0.766
		c0.127,0.244,0.293,0.43,0.499,0.558c0.206,0.127,0.454,0.191,0.743,0.191c0.403,0,0.726-0.132,0.967-0.396
		c0.241-0.263,0.362-0.622,0.362-1.076c0-0.436-0.119-0.78-0.357-1.031c-0.238-0.251-0.574-0.377-1.006-0.377
		c-0.389,0-0.719,0.126-0.99,0.377C969.996,444.125,969.86,444.454,969.86,444.862L969.86,444.862z"/>
	<path style="fill-rule:evenodd;clip-rule:evenodd;" d="M974.18,445.297l0.84-0.12c0.093,0.425,0.24,0.731,0.443,0.919
		c0.202,0.187,0.483,0.281,0.843,0.281c0.42,0,0.751-0.123,0.992-0.37s0.362-0.553,0.362-0.916c0-0.348-0.121-0.635-0.363-0.861
		c-0.242-0.226-0.549-0.339-0.923-0.339c-0.153,0-0.343,0.028-0.57,0.086l0.09-0.72c0.054,0.006,0.096,0.009,0.127,0.009
		c0.328,0,0.623-0.086,0.885-0.259c0.263-0.173,0.394-0.44,0.394-0.8c0-0.285-0.096-0.521-0.287-0.709
		c-0.191-0.187-0.437-0.281-0.739-0.281c-0.3,0-0.549,0.09-0.749,0.27c-0.199,0.18-0.327,0.45-0.385,0.81l-0.84-0.12
		c0.098-0.534,0.318-0.947,0.663-1.24c0.344-0.293,0.772-0.44,1.283-0.44c0.354,0,0.679,0.077,0.976,0.23
		c0.297,0.153,0.524,0.362,0.682,0.627c0.157,0.265,0.236,0.545,0.236,0.842c0,0.282-0.075,0.54-0.224,0.772
		c-0.149,0.233-0.371,0.417-0.665,0.553c0.382,0.088,0.685,0.269,0.911,0.543c0.225,0.275,0.338,0.619,0.338,1.032
		c0,0.558-0.21,1.031-0.63,1.419c-0.42,0.388-0.951,0.582-1.594,0.582c-0.578,0-1.059-0.167-1.442-0.502
		C974.452,446.261,974.234,445.828,974.18,445.297L974.18,445.297z"/>
	<path style="fill-rule:evenodd;clip-rule:evenodd;" d="M970.82,463.878v0.84h-4.32c-0.005-0.2,0.024-0.392,0.088-0.576
		c0.104-0.305,0.27-0.6,0.499-0.885c0.229-0.285,0.571-0.602,1.027-0.95c0.708-0.594,1.176-1.049,1.404-1.366
		c0.228-0.317,0.342-0.627,0.342-0.929c0-0.297-0.109-0.546-0.326-0.749c-0.218-0.203-0.501-0.305-0.85-0.305
		c-0.37,0-0.666,0.106-0.887,0.319c-0.222,0.212-0.334,0.506-0.337,0.881l-0.84-0.12c0.055-0.586,0.263-1.033,0.625-1.34
		s0.848-0.46,1.456-0.46c0.615,0,1.102,0.171,1.461,0.512s0.538,0.764,0.538,1.269c0,0.256-0.048,0.508-0.143,0.756
		c-0.096,0.247-0.255,0.508-0.478,0.783c-0.222,0.274-0.611,0.645-1.168,1.112c-0.481,0.389-0.793,0.653-0.935,0.791
		c-0.143,0.138-0.261,0.277-0.355,0.417H970.82z"/>
	<path style="fill-rule:evenodd;clip-rule:evenodd;" d="M971.66,463.038l0.84-0.12c0.063,0.399,0.198,0.698,0.405,0.899
		c0.208,0.201,0.492,0.301,0.853,0.301c0.446,0,0.788-0.142,1.026-0.426c0.237-0.283,0.356-0.66,0.356-1.13
		c0-0.447-0.11-0.799-0.331-1.057c-0.221-0.258-0.563-0.387-1.028-0.387c-0.293,0-0.53,0.067-0.713,0.201
		c-0.182,0.133-0.332,0.306-0.448,0.519l-0.84-0.12l0.72-3.36h3.12v0.84h-2.445l-0.337,1.616c0.377-0.277,0.773-0.416,1.186-0.416
		c0.549,0,1.012,0.197,1.39,0.592c0.377,0.395,0.566,0.903,0.566,1.523c0,0.591-0.172,1.102-0.516,1.532
		c-0.417,0.529-0.988,0.793-1.711,0.793c-0.593,0-1.076-0.164-1.451-0.493C971.928,464.016,971.714,463.58,971.66,463.038
		L971.66,463.038z"/>
	<path style="fill-rule:evenodd;clip-rule:evenodd;" d="M980.9,459.918l-0.84,0.12c-0.072-0.33-0.175-0.57-0.307-0.72
		c-0.22-0.24-0.492-0.36-0.814-0.36c-0.259,0-0.506,0.067-0.743,0.201c-0.216,0.172-0.398,0.424-0.545,0.756
		c-0.148,0.332-0.225,0.819-0.231,1.46c0.198-0.29,0.439-0.505,0.726-0.646c0.286-0.141,0.585-0.211,0.898-0.211
		c0.547,0,1.014,0.196,1.399,0.587c0.385,0.391,0.577,0.896,0.577,1.515c0,0.407-0.091,0.786-0.273,1.136
		c-0.182,0.35-0.432,0.618-0.75,0.804c-0.318,0.185-0.679,0.278-1.083,0.278c-0.687,0-1.248-0.243-1.682-0.729
		c-0.435-0.487-0.652-1.289-0.652-2.406c0-1.249,0.24-2.157,0.72-2.724c0.419-0.494,0.983-0.741,1.693-0.741
		c0.529,0,0.962,0.149,1.3,0.446C980.63,458.982,980.833,459.393,980.9,459.918L980.9,459.918z M977.42,462.603
		c0,0.266,0.063,0.522,0.189,0.766c0.127,0.244,0.293,0.43,0.499,0.558c0.206,0.127,0.454,0.191,0.743,0.191
		c0.403,0,0.726-0.132,0.967-0.396c0.241-0.263,0.362-0.622,0.362-1.076c0-0.436-0.119-0.78-0.357-1.031
		c-0.238-0.251-0.574-0.377-1.006-0.377c-0.389,0-0.719,0.126-0.99,0.377C977.556,461.866,977.42,462.195,977.42,462.603
		L977.42,462.603z"/>
	<polygon style="fill-rule:evenodd;clip-rule:evenodd;" points="1013.125,491.074 1010.963,491.074 1010.963,491.812 
		1013.125,491.812 1024.423,491.812 1026.585,491.812 1026.585,491.074 1024.423,491.074 	"/>
	<path style="fill-rule:evenodd;clip-rule:evenodd;" d="M1013.823,485.395h-0.84v-5.049c-0.187,0.182-0.434,0.364-0.739,0.546
		c-0.305,0.182-0.578,0.319-0.821,0.41v-0.767c0.441-0.209,0.827-0.461,1.157-0.758c0.33-0.296,0.564-0.583,0.701-0.862h0.542
		V485.395z"/>
	<path style="fill-rule:evenodd;clip-rule:evenodd;" d="M1015.863,482.217c0-0.764,0.081-1.389,0.242-1.875
		c0.161-0.486,0.401-0.846,0.718-1.078c0.318-0.233,0.718-0.349,1.2-0.349c0.355,0,0.677,0.07,0.965,0.209
		c0.288,0.139,0.509,0.341,0.664,0.604s0.283,0.584,0.382,0.962c0.099,0.378,0.149,0.887,0.149,1.527
		c0,0.759-0.08,1.381-0.239,1.866c-0.159,0.486-0.398,0.846-0.716,1.08c-0.318,0.235-0.72,0.352-1.205,0.352
		c-0.639,0-1.141-0.203-1.506-0.609C1016.081,484.327,1015.863,483.431,1015.863,482.217L1015.863,482.217z M1016.703,482.215
		c0,1.075,0.127,1.774,0.381,2.096c0.253,0.323,0.567,0.484,0.939,0.484c0.373,0,0.686-0.162,0.939-0.486
		c0.254-0.323,0.381-1.022,0.381-2.094c0-1.038-0.122-1.727-0.366-2.068c-0.243-0.341-0.565-0.512-0.963-0.512
		c-0.373,0-0.68,0.151-0.923,0.452C1016.832,480.471,1016.703,481.18,1016.703,482.215L1016.703,482.215z"/>
	<path style="fill-rule:evenodd;clip-rule:evenodd;" d="M1020.903,483.715l0.84-0.12c0.063,0.399,0.198,0.698,0.405,0.899
		c0.208,0.201,0.492,0.301,0.853,0.301c0.446,0,0.788-0.142,1.026-0.426c0.237-0.283,0.356-0.66,0.356-1.13
		c0-0.447-0.11-0.799-0.331-1.057c-0.221-0.258-0.563-0.387-1.028-0.387c-0.293,0-0.53,0.067-0.713,0.201
		c-0.182,0.133-0.332,0.306-0.448,0.519l-0.84-0.12l0.72-3.36h3.12v0.84h-2.445l-0.337,1.616c0.377-0.277,0.773-0.416,1.186-0.416
		c0.549,0,1.012,0.197,1.39,0.592c0.377,0.395,0.566,0.903,0.566,1.523c0,0.591-0.172,1.102-0.516,1.532
		c-0.417,0.529-0.988,0.793-1.711,0.793c-0.593,0-1.076-0.164-1.451-0.493C1021.171,484.693,1020.957,484.257,1020.903,483.715
		L1020.903,483.715z"/>
	<path style="fill-rule:evenodd;clip-rule:evenodd;" d="M1010.823,501.456l0.84-0.12c0.063,0.399,0.198,0.698,0.405,0.899
		c0.208,0.201,0.492,0.301,0.853,0.301c0.446,0,0.788-0.142,1.026-0.426c0.237-0.283,0.356-0.66,0.356-1.13
		c0-0.447-0.11-0.799-0.331-1.057c-0.221-0.258-0.563-0.387-1.028-0.387c-0.293,0-0.53,0.067-0.713,0.201
		c-0.182,0.133-0.332,0.306-0.448,0.519l-0.84-0.12l0.72-3.36h3.12v0.84h-2.445l-0.337,1.616c0.377-0.277,0.773-0.416,1.186-0.416
		c0.549,0,1.012,0.197,1.39,0.592c0.377,0.395,0.566,0.903,0.566,1.523c0,0.591-0.172,1.102-0.516,1.532
		c-0.417,0.529-0.988,0.793-1.711,0.793c-0.593,0-1.076-0.164-1.451-0.493C1011.091,502.434,1010.877,501.998,1010.823,501.456
		L1010.823,501.456z"/>
	<path style="fill-rule:evenodd;clip-rule:evenodd;" d="M1018.863,503.136h-0.84v-5.049c-0.187,0.182-0.434,0.364-0.739,0.546
		s-0.578,0.319-0.821,0.41v-0.767c0.441-0.209,0.827-0.461,1.157-0.758c0.33-0.296,0.564-0.583,0.701-0.862h0.542V503.136z"/>
	<path style="fill-rule:evenodd;clip-rule:evenodd;" d="M1025.103,502.296v0.84h-4.32c-0.005-0.2,0.024-0.392,0.088-0.576
		c0.104-0.305,0.27-0.6,0.499-0.885s0.571-0.602,1.027-0.95c0.708-0.594,1.176-1.049,1.404-1.366
		c0.228-0.317,0.342-0.627,0.342-0.929c0-0.297-0.109-0.546-0.326-0.749c-0.218-0.203-0.501-0.305-0.85-0.305
		c-0.37,0-0.666,0.106-0.887,0.319c-0.222,0.212-0.334,0.506-0.337,0.881l-0.84-0.12c0.055-0.586,0.263-1.033,0.625-1.34
		c0.362-0.307,0.848-0.46,1.456-0.46c0.615,0,1.102,0.171,1.461,0.512c0.359,0.341,0.538,0.764,0.538,1.269
		c0,0.256-0.048,0.508-0.143,0.756c-0.096,0.247-0.255,0.508-0.478,0.783c-0.222,0.274-0.611,0.645-1.168,1.112
		c-0.481,0.389-0.793,0.653-0.935,0.791c-0.143,0.138-0.261,0.277-0.355,0.417H1025.103z"/>
	<polygon style="fill-rule:evenodd;clip-rule:evenodd;" points="1057.329,573.397 1055.167,573.397 1055.167,574.135 
		1057.329,574.135 1068.627,574.135 1070.789,574.135 1070.789,573.397 1068.627,573.397 	"/>
	<path style="fill-rule:evenodd;clip-rule:evenodd;" d="M1060.547,567.718h-0.84v-5.049c-0.187,0.182-0.434,0.364-0.739,0.546
		c-0.305,0.182-0.578,0.319-0.821,0.41v-0.767c0.441-0.209,0.827-0.461,1.157-0.758c0.33-0.296,0.564-0.583,0.701-0.862h0.542
		V567.718z"/>
	<path style="fill-rule:evenodd;clip-rule:evenodd;" d="M1062.587,566.038l0.84-0.12c0.063,0.399,0.198,0.698,0.405,0.899
		c0.208,0.201,0.492,0.301,0.853,0.301c0.446,0,0.788-0.142,1.026-0.426c0.237-0.283,0.356-0.66,0.356-1.13
		c0-0.447-0.11-0.799-0.331-1.057c-0.221-0.258-0.563-0.387-1.028-0.387c-0.293,0-0.53,0.067-0.713,0.201
		c-0.182,0.133-0.332,0.306-0.448,0.519l-0.84-0.12l0.72-3.36h3.12v0.84h-2.445l-0.337,1.616c0.377-0.277,0.773-0.416,1.186-0.416
		c0.549,0,1.012,0.197,1.39,0.592c0.377,0.395,0.566,0.903,0.566,1.523c0,0.591-0.172,1.102-0.516,1.532
		c-0.417,0.529-0.988,0.793-1.711,0.793c-0.593,0-1.076-0.164-1.451-0.493C1062.855,567.016,1062.641,566.58,1062.587,566.038
		L1062.587,566.038z"/>
	<path style="fill-rule:evenodd;clip-rule:evenodd;" d="M1058.027,585.459h-0.84v-5.049c-0.187,0.182-0.434,0.364-0.739,0.546
		c-0.305,0.182-0.578,0.319-0.821,0.41v-0.767c0.441-0.209,0.827-0.461,1.157-0.758c0.33-0.296,0.564-0.583,0.701-0.862h0.542
		V585.459z"/>
	<path style="fill-rule:evenodd;clip-rule:evenodd;" d="M1064.267,584.619v0.84h-4.32c-0.005-0.2,0.024-0.392,0.088-0.576
		c0.104-0.305,0.27-0.6,0.499-0.885s0.571-0.602,1.027-0.95c0.708-0.594,1.176-1.049,1.404-1.366
		c0.228-0.317,0.342-0.627,0.342-0.929c0-0.297-0.109-0.546-0.326-0.749c-0.218-0.203-0.501-0.305-0.85-0.305
		c-0.37,0-0.666,0.106-0.887,0.319c-0.222,0.212-0.334,0.506-0.337,0.881l-0.84-0.12c0.055-0.586,0.263-1.033,0.625-1.34
		c0.362-0.307,0.848-0.46,1.456-0.46c0.615,0,1.102,0.171,1.461,0.512c0.359,0.341,0.538,0.764,0.538,1.269
		c0,0.256-0.048,0.508-0.143,0.756c-0.096,0.247-0.255,0.508-0.478,0.783c-0.222,0.274-0.611,0.645-1.168,1.112
		c-0.481,0.389-0.793,0.653-0.935,0.791c-0.143,0.138-0.261,0.277-0.355,0.417H1064.267z"/>
	<path style="fill-rule:evenodd;clip-rule:evenodd;" d="M1066.341,581.956c-0.338-0.12-0.588-0.291-0.75-0.514
		c-0.163-0.223-0.244-0.49-0.244-0.8c0-0.47,0.168-0.865,0.505-1.184c0.337-0.319,0.785-0.479,1.344-0.479
		c0.562,0,1.015,0.163,1.357,0.49c0.343,0.327,0.514,0.725,0.514,1.194c0,0.3-0.08,0.56-0.241,0.782
		c-0.161,0.221-0.405,0.391-0.732,0.511c0.395,0.13,0.696,0.34,0.903,0.628c0.207,0.288,0.31,0.632,0.31,1.034
		c0,0.553-0.193,1.019-0.578,1.396c-0.386,0.377-0.893,0.565-1.522,0.565c-0.629,0-1.136-0.189-1.522-0.568
		c-0.385-0.379-0.578-0.851-0.578-1.416c0-0.421,0.107-0.774,0.321-1.058C1065.641,582.252,1065.946,582.059,1066.341,581.956
		L1066.341,581.956z M1066.187,580.635c0,0.288,0.085,0.525,0.256,0.708c0.171,0.184,0.428,0.276,0.773,0.276
		c0.335,0,0.588-0.091,0.757-0.274c0.169-0.182,0.254-0.405,0.254-0.669c0-0.275-0.087-0.507-0.262-0.695
		c-0.175-0.188-0.428-0.282-0.758-0.282c-0.332,0-0.586,0.092-0.759,0.276C1066.274,580.158,1066.187,580.378,1066.187,580.635
		L1066.187,580.635z M1065.947,583.586c0,0.217,0.041,0.428,0.124,0.632c0.082,0.203,0.235,0.361,0.458,0.473
		c0.223,0.112,0.451,0.168,0.684,0.168c0.403,0,0.713-0.118,0.93-0.353c0.216-0.235,0.324-0.533,0.324-0.894
		c0-0.367-0.112-0.671-0.335-0.912c-0.223-0.241-0.537-0.361-0.944-0.361c-0.397,0-0.703,0.119-0.918,0.356
		C1066.055,582.933,1065.947,583.23,1065.947,583.586L1065.947,583.586z"/>
	<polygon style="fill-rule:evenodd;clip-rule:evenodd;" points="1099.012,642 1096.85,642 1096.85,642.738 1099.012,642.738 
		1115.35,642.738 1117.512,642.738 1117.512,642 1115.35,642 	"/>
	<path style="fill-rule:evenodd;clip-rule:evenodd;" d="M1104.39,636.321v-1.56h-2.88v-0.84l3.12-3.96h0.6v3.96h0.84v0.84h-0.84
		v1.56H1104.39z M1104.39,633.921v-2.338l-1.843,2.338H1104.39z"/>
	<path style="fill-rule:evenodd;clip-rule:evenodd;" d="M1106.79,634.641l0.84-0.12c0.063,0.399,0.198,0.698,0.405,0.899
		c0.208,0.201,0.492,0.301,0.853,0.301c0.446,0,0.788-0.142,1.026-0.426c0.237-0.283,0.356-0.66,0.356-1.13
		c0-0.447-0.11-0.799-0.331-1.057c-0.221-0.258-0.563-0.387-1.028-0.387c-0.293,0-0.53,0.067-0.713,0.201
		c-0.182,0.133-0.332,0.306-0.448,0.519l-0.84-0.12l0.72-3.36h3.12v0.84h-2.445l-0.337,1.616c0.377-0.277,0.773-0.416,1.186-0.416
		c0.549,0,1.012,0.197,1.39,0.592c0.377,0.395,0.566,0.903,0.566,1.523c0,0.591-0.172,1.102-0.516,1.532
		c-0.417,0.529-0.988,0.793-1.711,0.793c-0.593,0-1.076-0.164-1.451-0.493C1107.058,635.619,1106.844,635.183,1106.79,634.641
		L1106.79,634.641z"/>
	<path style="fill-rule:evenodd;clip-rule:evenodd;" d="M1099.71,654.062h-0.84v-5.049c-0.187,0.182-0.434,0.364-0.739,0.546
		s-0.578,0.319-0.821,0.41v-0.767c0.441-0.209,0.827-0.461,1.157-0.758c0.33-0.296,0.564-0.583,0.701-0.862h0.542V654.062z"/>
	<path style="fill-rule:evenodd;clip-rule:evenodd;" d="M1101.75,650.884c0-0.764,0.081-1.389,0.242-1.875
		c0.161-0.486,0.401-0.846,0.718-1.078c0.318-0.233,0.718-0.349,1.2-0.349c0.355,0,0.677,0.07,0.965,0.209s0.509,0.341,0.664,0.604
		c0.155,0.263,0.283,0.584,0.382,0.962c0.099,0.378,0.149,0.887,0.149,1.527c0,0.759-0.08,1.381-0.239,1.866
		c-0.159,0.486-0.398,0.846-0.716,1.08c-0.318,0.235-0.72,0.352-1.205,0.352c-0.639,0-1.141-0.203-1.506-0.609
		C1101.968,652.994,1101.75,652.098,1101.75,650.884L1101.75,650.884z M1102.59,650.882c0,1.075,0.127,1.774,0.381,2.096
		c0.253,0.323,0.567,0.484,0.939,0.484c0.373,0,0.686-0.162,0.939-0.486c0.254-0.323,0.381-1.022,0.381-2.094
		c0-1.038-0.122-1.727-0.366-2.068c-0.243-0.341-0.565-0.512-0.963-0.512c-0.373,0-0.68,0.151-0.923,0.452
		C1102.719,649.138,1102.59,649.847,1102.59,650.882L1102.59,650.882z"/>
	<path style="fill-rule:evenodd;clip-rule:evenodd;" d="M1110.99,653.222v0.84h-4.32c-0.005-0.2,0.024-0.392,0.088-0.576
		c0.104-0.305,0.27-0.6,0.499-0.885c0.229-0.285,0.571-0.602,1.027-0.95c0.708-0.594,1.176-1.049,1.404-1.366
		s0.342-0.627,0.342-0.929c0-0.297-0.109-0.546-0.326-0.749c-0.218-0.203-0.501-0.305-0.85-0.305c-0.37,0-0.666,0.106-0.887,0.319
		c-0.222,0.212-0.334,0.506-0.337,0.881l-0.84-0.12c0.055-0.586,0.263-1.033,0.625-1.34c0.362-0.307,0.848-0.46,1.456-0.46
		c0.615,0,1.102,0.171,1.461,0.512c0.359,0.341,0.538,0.764,0.538,1.269c0,0.256-0.048,0.508-0.143,0.756
		c-0.096,0.247-0.255,0.508-0.478,0.783c-0.222,0.274-0.611,0.645-1.168,1.112c-0.481,0.389-0.793,0.653-0.935,0.791
		c-0.143,0.138-0.261,0.277-0.355,0.417H1110.99z"/>
	<path style="fill-rule:evenodd;clip-rule:evenodd;" d="M1114.47,654.062v-1.56h-2.88v-0.84l3.12-3.96h0.6v3.96h0.84v0.84h-0.84
		v1.56H1114.47z M1114.47,651.662v-2.338l-1.843,2.338H1114.47z"/>
	<polygon style="fill-rule:evenodd;clip-rule:evenodd;" points="1145.735,674.015 1143.573,674.015 1143.573,674.753 
		1145.735,674.753 1157.033,674.753 1159.195,674.753 1159.195,674.015 1157.033,674.015 	"/>
	<path style="fill-rule:evenodd;clip-rule:evenodd;" d="M1148.473,666.656l0.84-0.12c0.063,0.399,0.198,0.698,0.405,0.899
		c0.208,0.201,0.492,0.301,0.853,0.301c0.446,0,0.788-0.142,1.026-0.426c0.237-0.283,0.356-0.66,0.356-1.13
		c0-0.447-0.11-0.799-0.331-1.057c-0.221-0.258-0.563-0.387-1.028-0.387c-0.293,0-0.53,0.067-0.713,0.201
		c-0.182,0.133-0.332,0.306-0.448,0.519l-0.84-0.12l0.72-3.36h3.12v0.84h-2.445l-0.337,1.616c0.377-0.277,0.773-0.416,1.186-0.416
		c0.549,0,1.012,0.197,1.39,0.592c0.377,0.395,0.566,0.903,0.566,1.523c0,0.591-0.172,1.102-0.516,1.532
		c-0.417,0.529-0.988,0.793-1.711,0.793c-0.593,0-1.076-0.164-1.451-0.493C1148.741,667.634,1148.527,667.198,1148.473,666.656
		L1148.473,666.656z"/>
	<path style="fill-rule:evenodd;clip-rule:evenodd;" d="M1143.433,684.397l0.84-0.12c0.063,0.399,0.198,0.698,0.405,0.899
		c0.208,0.201,0.492,0.301,0.853,0.301c0.446,0,0.788-0.142,1.026-0.426c0.237-0.283,0.356-0.66,0.356-1.13
		c0-0.447-0.11-0.799-0.331-1.057c-0.221-0.258-0.563-0.387-1.028-0.387c-0.293,0-0.53,0.067-0.713,0.201
		c-0.182,0.133-0.332,0.306-0.448,0.519l-0.84-0.12l0.72-3.36h3.12v0.84h-2.445l-0.337,1.616c0.377-0.277,0.773-0.416,1.186-0.416
		c0.549,0,1.012,0.197,1.39,0.592c0.377,0.395,0.566,0.903,0.566,1.523c0,0.591-0.172,1.102-0.516,1.532
		c-0.417,0.529-0.988,0.793-1.711,0.793c-0.593,0-1.076-0.164-1.451-0.493C1143.701,685.375,1143.487,684.939,1143.433,684.397
		L1143.433,684.397z"/>
	<path style="fill-rule:evenodd;clip-rule:evenodd;" d="M1151.473,686.077h-0.84v-5.049c-0.187,0.182-0.434,0.364-0.739,0.546
		c-0.305,0.182-0.578,0.319-0.821,0.41v-0.767c0.441-0.209,0.827-0.461,1.157-0.758c0.33-0.296,0.564-0.583,0.701-0.862h0.542
		V686.077z"/>
	<path style="fill-rule:evenodd;clip-rule:evenodd;" d="M1157.713,685.237v0.84h-4.32c-0.005-0.2,0.024-0.392,0.088-0.576
		c0.104-0.305,0.27-0.6,0.499-0.885s0.571-0.602,1.027-0.95c0.708-0.594,1.176-1.049,1.404-1.366
		c0.228-0.317,0.342-0.627,0.342-0.929c0-0.297-0.109-0.546-0.326-0.749c-0.218-0.203-0.501-0.305-0.85-0.305
		c-0.37,0-0.666,0.106-0.887,0.319c-0.222,0.212-0.334,0.506-0.337,0.881l-0.84-0.12c0.055-0.586,0.263-1.033,0.625-1.34
		c0.362-0.307,0.848-0.46,1.456-0.46c0.615,0,1.102,0.171,1.461,0.512c0.359,0.341,0.538,0.764,0.538,1.269
		c0,0.256-0.048,0.508-0.143,0.756c-0.096,0.247-0.255,0.508-0.478,0.783c-0.222,0.274-0.611,0.645-1.168,1.112
		c-0.481,0.389-0.793,0.653-0.935,0.791c-0.143,0.138-0.261,0.277-0.355,0.417H1157.713z"/>
	<polygon style="fill-rule:evenodd;clip-rule:evenodd;" points="1187.419,682.247 1185.257,682.247 1185.257,682.985 
		1187.419,682.985 1203.757,682.985 1205.919,682.985 1205.919,682.247 1203.757,682.247 	"/>
	<path style="fill-rule:evenodd;clip-rule:evenodd;" d="M1195.677,676.568h-0.84v-5.049c-0.187,0.182-0.434,0.364-0.739,0.546
		c-0.305,0.182-0.578,0.319-0.821,0.41v-0.767c0.441-0.209,0.827-0.461,1.157-0.758c0.33-0.296,0.564-0.583,0.701-0.862h0.542
		V676.568z"/>
	<path style="fill-rule:evenodd;clip-rule:evenodd;" d="M1188.117,694.309h-0.84v-5.049c-0.187,0.182-0.434,0.364-0.739,0.546
		c-0.305,0.182-0.578,0.319-0.821,0.41v-0.767c0.441-0.209,0.827-0.461,1.157-0.758c0.33-0.296,0.564-0.583,0.701-0.862h0.542
		V694.309z"/>
	<path style="fill-rule:evenodd;clip-rule:evenodd;" d="M1190.157,691.131c0-0.764,0.081-1.389,0.242-1.875
		c0.161-0.486,0.401-0.846,0.718-1.078c0.318-0.233,0.718-0.349,1.2-0.349c0.355,0,0.677,0.07,0.965,0.209
		c0.288,0.139,0.509,0.341,0.664,0.604c0.155,0.263,0.283,0.584,0.382,0.962c0.099,0.378,0.149,0.887,0.149,1.527
		c0,0.759-0.08,1.381-0.239,1.866c-0.159,0.486-0.398,0.846-0.716,1.08c-0.318,0.235-0.72,0.352-1.205,0.352
		c-0.639,0-1.141-0.203-1.506-0.609C1190.375,693.241,1190.157,692.345,1190.157,691.131L1190.157,691.131z M1190.997,691.129
		c0,1.075,0.127,1.774,0.381,2.096c0.253,0.323,0.567,0.484,0.939,0.484c0.373,0,0.686-0.162,0.939-0.486
		c0.254-0.323,0.381-1.022,0.381-2.094c0-1.038-0.122-1.727-0.366-2.068c-0.243-0.341-0.565-0.512-0.963-0.512
		c-0.373,0-0.68,0.151-0.923,0.452C1191.126,689.385,1190.997,690.094,1190.997,691.129L1190.997,691.129z"/>
	<path style="fill-rule:evenodd;clip-rule:evenodd;" d="M1199.397,693.469v0.84h-4.32c-0.005-0.2,0.024-0.392,0.088-0.576
		c0.104-0.305,0.27-0.6,0.499-0.885c0.229-0.285,0.571-0.602,1.027-0.95c0.708-0.594,1.176-1.049,1.404-1.366
		s0.342-0.627,0.342-0.929c0-0.297-0.109-0.546-0.326-0.749c-0.218-0.203-0.501-0.305-0.85-0.305c-0.37,0-0.666,0.106-0.887,0.319
		c-0.222,0.212-0.334,0.506-0.337,0.881l-0.84-0.12c0.055-0.586,0.263-1.033,0.625-1.34c0.362-0.307,0.848-0.46,1.456-0.46
		c0.615,0,1.102,0.171,1.461,0.512c0.359,0.341,0.538,0.764,0.538,1.269c0,0.256-0.048,0.508-0.143,0.756
		c-0.096,0.247-0.255,0.508-0.478,0.783c-0.222,0.274-0.611,0.645-1.168,1.112c-0.481,0.389-0.793,0.653-0.935,0.791
		c-0.143,0.138-0.261,0.277-0.355,0.417H1199.397z"/>
	<path style="fill-rule:evenodd;clip-rule:evenodd;" d="M1202.877,694.309v-1.56h-2.88v-0.84l3.12-3.96h0.6v3.96h0.84v0.84h-0.84
		v1.56H1202.877z M1202.877,691.909v-2.338l-1.843,2.338H1202.877z"/>
	
		<line style="fill:none;stroke:#FF0000;stroke-width:0.5;stroke-miterlimit:3.25;" x1="1141.069" y1="613.104" x2="1205.401" y2="613.104"/>
	<polygon style="fill:#FF0000;" points="1142.413,616.664 1142.218,616.267 1141.793,615.315 1141.567,614.742 1141.371,614.165 
		1141.235,613.627 1141.189,613.174 1141.235,612.764 1141.371,612.234 1141.567,611.637 1141.793,611.028 1142.218,609.987 
		1142.413,609.545 1129.152,613.174 1142.413,616.664 	"/>
	
		<polygon style="fill:none;stroke:#FF0000;stroke-width:0.1;stroke-linecap:square;stroke-linejoin:bevel;stroke-miterlimit:3.25;" points="
		1142.413,616.664 1142.218,616.267 1141.793,615.315 1141.567,614.742 1141.371,614.165 1141.235,613.627 1141.189,613.174 
		1141.235,612.764 1141.371,612.234 1141.567,611.637 1141.793,611.028 1142.218,609.987 1142.413,609.545 1129.152,613.174 
		1142.413,616.664 	"/>
	<polygon style="fill:#FF0000;" points="1204.297,609.684 1204.492,610.081 1204.917,611.034 1205.143,611.606 1205.339,612.184 
		1205.475,612.721 1205.521,613.174 1205.475,613.584 1205.339,614.115 1205.143,614.711 1204.917,615.321 1204.492,616.361 
		1204.297,616.804 1217.558,613.174 1204.297,609.684 	"/>
	
		<polygon style="fill:none;stroke:#FF0000;stroke-width:0.1;stroke-linecap:square;stroke-linejoin:bevel;stroke-miterlimit:3.25;" points="
		1204.297,609.684 1204.492,610.081 1204.917,611.034 1205.143,611.606 1205.339,612.184 1205.475,612.721 1205.521,613.174 
		1205.475,613.584 1205.339,614.115 1205.143,614.711 1204.917,615.321 1204.492,616.361 1204.297,616.804 1217.558,613.174 
		1204.297,609.684 	"/>
	<path style="fill-rule:evenodd;clip-rule:evenodd;" d="M1174.071,606.654h-6.703v-1.922c0.726-0.347,1.353-0.76,1.881-1.238
		c0.527-0.478,0.961-1.015,1.3-1.609s0.591-1.239,0.756-1.933c0.164-0.695,0.246-1.432,0.246-2.212c0-0.81-0.105-1.6-0.317-2.372
		c-0.211-0.771-0.535-1.46-0.973-2.066c-0.437-0.606-0.99-1.092-1.657-1.459c-0.668-0.366-1.463-0.549-2.385-0.549
		c-0.906,0-1.691,0.187-2.355,0.562c-0.664,0.374-1.215,0.864-1.652,1.47c-0.438,0.605-0.762,1.294-0.973,2.066
		c-0.211,0.772-0.317,1.554-0.317,2.348c0,0.78,0.082,1.516,0.246,2.206c0.165,0.691,0.417,1.331,0.756,1.921
		s0.769,1.126,1.289,1.609c0.52,0.482,1.14,0.901,1.858,1.256v1.922h-6.703v-2.04h3.773c-1.164-0.918-2.051-1.986-2.66-3.205
		c-0.609-1.22-0.914-2.57-0.914-4.051c0-1.142,0.176-2.198,0.527-3.17c0.351-0.972,0.855-1.815,1.511-2.528
		c0.656-0.714,1.457-1.274,2.403-1.679c0.945-0.405,2.016-0.607,3.211-0.607c1.172,0,2.231,0.204,3.176,0.613
		c0.945,0.409,1.75,0.972,2.414,1.689c0.664,0.718,1.176,1.563,1.536,2.535c0.359,0.971,0.539,2.02,0.539,3.147
		c0,1.473-0.313,2.818-0.938,4.033s-1.508,2.289-2.649,3.223h3.774V606.654z"/>
	<path style="fill-rule:evenodd;clip-rule:evenodd;" d="M1176.205,611.094l2.52-12.24h5.136c1.013,0,1.782,0.085,2.305,0.254
		c0.523,0.169,0.934,0.487,1.232,0.953c0.298,0.467,0.447,1.055,0.447,1.765c0,0.994-0.318,1.818-0.954,2.474
		c-0.637,0.656-1.665,1.08-3.085,1.274c0.45,0.345,0.79,0.684,1.02,1.016c0.484,0.7,0.873,1.425,1.168,2.173l0.975,2.331h-1.58
		l-0.938-2.402c-0.31-0.802-0.663-1.496-1.061-2.081c-0.415-0.351-0.776-0.592-1.084-0.722c-0.307-0.13-0.807-0.195-1.5-0.195
		h-2.023l-1.112,5.4H1176.205z M1179.079,604.254h2.38c1.101,0,1.819,0,2.152,0c0.625-0.059,1.137-0.193,1.537-0.404
		c0.399-0.211,0.709-0.494,0.928-0.849c0.219-0.356,0.329-0.738,0.329-1.147c0-0.345-0.085-0.645-0.254-0.901
		c-0.169-0.256-0.391-0.429-0.666-0.521c-0.274-0.092-0.741-0.138-1.401-0.138h-4.189L1179.079,604.254z"/>
</g>
</svg>
