<?xml version="1.0" encoding="iso-8859-1"?>
<!-- Generator: Adobe Illustrator 28.7.3, SVG Export Plug-In . SVG Version: 9.03 Build 54978)  -->
<svg version="1.1" id="Layer_1" xmlns="http://www.w3.org/2000/svg" xmlns:xlink="http://www.w3.org/1999/xlink" x="0px" y="0px"
	 viewBox="0 0 1920 1080" style="enable-background:new 0 0 1920 1080;" xml:space="preserve">
<g>
	<g>
		<defs>
			<rect id="SVGID_1_" x="608.42" y="316.3" width="730" height="453"/>
		</defs>
		<clipPath id="SVGID_00000141444283994723106610000013835398569648515470_">
			<use xlink:href="#SVGID_1_"  style="overflow:visible;"/>
		</clipPath>
		
			<polyline style="clip-path:url(#SVGID_00000141444283994723106610000013835398569648515470_);fill:none;stroke:#5E81B5;stroke-width:1.6;stroke-linecap:square;stroke-miterlimit:3.25;" points="
			609.1,762.767 609.324,762.755 609.547,762.743 609.994,762.718 610.889,762.669 612.677,762.569 616.255,762.365 
			623.409,761.934 638.922,760.896 653.407,759.785 667.608,758.548 683.012,757.022 697.389,755.407 712.969,753.428 
			728.264,751.229 742.532,748.928 758.004,746.134 772.447,743.221 786.606,740.056 801.969,736.247 816.304,732.315 
			831.843,727.61 847.097,722.51 861.323,717.295 876.753,711.109 891.155,704.807 906.761,697.372 922.082,689.427 
			936.376,681.414 951.873,672.043 966.342,662.631 980.527,652.764 995.915,641.329 1010.276,629.961 1025.84,616.877 
			1041.12,603.261 1055.372,589.882 1070.828,574.654 1085.255,559.79 1099.399,544.651 1114.746,527.641 1129.065,511.292 
			1144.588,493.138 1159.082,475.888 1173.293,458.813 1188.707,440.267 1203.093,423.105 1218.683,404.892 1233.988,387.665 
			1248.266,372.449 1263.747,357.217 1278.201,344.54 1278.422,344.359 1278.643,344.179 1279.086,343.82 1279.972,343.107 
			1281.743,341.704 1285.285,338.986 1285.506,338.82 1285.728,338.655 1286.171,338.326 1287.056,337.673 1288.827,336.393 
			1292.37,333.93 1292.61,333.768 1292.85,333.607 1293.33,333.286 1294.291,332.652 1296.213,331.415 1300.056,329.069 
			1300.296,328.929 1300.536,328.789 1301.017,328.511 1301.978,327.963 1303.899,326.903 1307.742,324.925 1307.966,324.816 
			1308.191,324.707 1308.639,324.492 1309.535,324.069 1311.328,323.258 1311.553,323.159 1311.777,323.062 1312.225,322.869 
			1313.122,322.491 1314.915,321.77 1315.139,321.683 1315.363,321.597 1315.811,321.427 1316.708,321.096 1318.501,320.47 
			1318.725,320.395 1318.949,320.321 1319.397,320.175 1320.294,319.893 1322.087,319.366 1322.337,319.297 1322.587,319.228 
			1323.088,319.095 1324.089,318.839 1324.339,318.777 1324.589,318.717 1325.089,318.599 1326.09,318.377 1326.34,318.323 
			1326.591,318.271 1327.091,318.17 1328.092,317.981 1328.342,317.936 1328.592,317.893 1329.093,317.809 1330.093,317.654 
			1330.344,317.618 1330.594,317.583 1331.094,317.516 1331.344,317.485 1331.595,317.454 1332.095,317.396 1332.345,317.369 
			1332.596,317.343 1333.096,317.294 1333.346,317.272 1333.596,317.25 1334.097,317.211 1334.347,317.193 1334.597,317.176 
			1334.847,317.16 1335.098,317.145 1335.348,317.132 1335.598,317.119 1335.848,317.108 1336.098,317.098 1336.349,317.089 
			1336.599,317.081 1336.849,317.075 1337.099,317.07 1337.349,317.065 1337.6,317.062 1337.85,317.061 1338.1,317.06 		"/>
	</g>
	
		<line style="fill:none;stroke:#000000;stroke-width:0.5;stroke-miterlimit:3.25;" x1="609.1" y1="767.607" x2="609.1" y2="763.601"/>
	<path style="fill-rule:evenodd;clip-rule:evenodd;" d="M593,783.133c0-2.015,0.208-3.647,0.624-4.895
		c0.417-1.248,1.035-2.195,1.857-2.842c0.821-0.646,1.854-0.969,3.099-0.969c0.919,0,1.734,0.184,2.447,0.552
		c0.712,0.368,1.284,0.899,1.716,1.593c0.431,0.694,0.775,1.538,1.032,2.534c0.257,0.996,0.385,2.338,0.385,4.027
		c0,1.998-0.206,3.622-0.619,4.871c-0.412,1.249-1.029,2.198-1.85,2.848c-0.822,0.65-1.858,0.975-3.111,0.975
		c-1.65,0-2.946-0.569-3.887-1.706C593.564,788.662,593,786.333,593,783.133L593,783.133z M595.16,783.187
		c0,2.831,0.329,4.699,0.986,5.603c0.658,0.905,1.469,1.357,2.434,1.357s1.776-0.454,2.434-1.362
		c0.657-0.908,0.986-2.774,0.986-5.598c0-2.8-0.324-4.66-0.971-5.58c-0.648-0.92-1.471-1.38-2.471-1.38
		c-0.965,0-1.746,0.406-2.342,1.219C595.512,778.482,595.16,780.396,595.16,783.187L595.16,783.187z"/>
	<rect x="607.4" y="789.307" style="fill-rule:evenodd;clip-rule:evenodd;" width="2.28" height="2.28"/>
	<path style="fill-rule:evenodd;clip-rule:evenodd;" d="M613.04,787.027l2.16-0.12c0.161,1.076,0.527,1.885,1.096,2.427
		c0.569,0.542,1.29,0.813,2.163,0.813c1.061,0,1.923-0.381,2.586-1.142c0.663-0.761,0.995-1.771,0.995-3.03
		c0-1.196-0.313-2.14-0.939-2.831c-0.627-0.691-1.501-1.037-2.623-1.037c-0.7,0-1.306,0.145-1.816,0.434
		c-0.511,0.289-0.918,0.665-1.222,1.126l-2.16-0.24l1.8-8.76h8.16v2.16h-6.585l-0.917,4.472c1.016-0.741,2.082-1.112,3.197-1.112
		c1.479,0,2.726,0.517,3.742,1.552c1.015,1.035,1.523,2.367,1.523,3.994c0,1.549-0.444,2.888-1.331,4.016
		c-1.08,1.385-2.554,2.078-4.421,2.078c-1.532,0-2.781-0.438-3.75-1.314C613.73,789.636,613.178,788.474,613.04,787.027
		L613.04,787.027z"/>
	
		<line style="fill:none;stroke:#000000;stroke-width:0.5;stroke-miterlimit:3.25;" x1="754.9" y1="767.607" x2="754.9" y2="763.601"/>
	<path style="fill-rule:evenodd;clip-rule:evenodd;" d="M738.8,783.133c0-2.015,0.208-3.647,0.624-4.895
		c0.417-1.248,1.035-2.195,1.857-2.842c0.821-0.646,1.854-0.969,3.099-0.969c0.919,0,1.734,0.184,2.447,0.552
		c0.712,0.368,1.284,0.899,1.716,1.593c0.431,0.694,0.775,1.538,1.032,2.534c0.257,0.996,0.385,2.338,0.385,4.027
		c0,1.998-0.206,3.622-0.619,4.871c-0.412,1.249-1.029,2.198-1.85,2.848c-0.822,0.65-1.858,0.975-3.111,0.975
		c-1.65,0-2.946-0.569-3.887-1.706C739.364,788.662,738.8,786.333,738.8,783.133L738.8,783.133z M740.96,783.187
		c0,2.831,0.329,4.699,0.986,5.603c0.658,0.905,1.469,1.357,2.434,1.357c0.965,0,1.776-0.454,2.434-1.362
		c0.657-0.908,0.986-2.774,0.986-5.598c0-2.8-0.324-4.66-0.971-5.58c-0.648-0.92-1.471-1.38-2.471-1.38
		c-0.965,0-1.746,0.406-2.342,1.219C741.312,778.482,740.96,780.396,740.96,783.187L740.96,783.187z"/>
	<rect x="753.2" y="789.307" style="fill-rule:evenodd;clip-rule:evenodd;" width="2.28" height="2.28"/>
	<path style="fill-rule:evenodd;clip-rule:evenodd;" d="M769.76,778.747l-2.16,0.12c-0.184-0.844-0.444-1.457-0.782-1.839
		c-0.56-0.614-1.25-0.921-2.072-0.921c-0.66,0-1.259,0.185-1.798,0.555c-0.611,0.479-1.105,1.178-1.481,2.097
		c-0.376,0.92-0.572,2.237-0.587,3.954c0.501-0.774,1.114-1.349,1.838-1.724c0.725-0.375,1.484-0.562,2.278-0.562
		c1.386,0,2.567,0.516,3.542,1.548c0.975,1.032,1.462,2.365,1.462,4c0,1.075-0.231,2.074-0.694,2.996
		c-0.462,0.923-1.097,1.629-1.905,2.12c-0.807,0.491-1.724,0.736-2.75,0.736c-1.748,0-3.173-0.641-4.276-1.924
		c-1.103-1.282-1.655-3.396-1.655-6.341c0-3.293,0.613-5.687,1.839-7.183c1.072-1.301,2.514-1.952,4.326-1.952
		c1.351,0,2.458,0.383,3.322,1.148C769.07,776.341,769.588,777.398,769.76,778.747L769.76,778.747z M761,786.043
		c0,0.722,0.156,1.414,0.468,2.075s0.738,1.165,1.28,1.511c0.541,0.345,1.14,0.518,1.796,0.518c0.941,0,1.726-0.358,2.354-1.073
		c0.628-0.715,0.942-1.686,0.942-2.915c0-1.181-0.31-2.112-0.93-2.792c-0.62-0.68-1.436-1.02-2.449-1.02
		c-0.963,0-1.781,0.34-2.453,1.02C761.336,784.047,761,784.939,761,786.043L761,786.043z"/>
	
		<line style="fill:none;stroke:#000000;stroke-width:0.5;stroke-miterlimit:3.25;" x1="900.7" y1="767.607" x2="900.7" y2="763.601"/>
	<path style="fill-rule:evenodd;clip-rule:evenodd;" d="M884.6,783.133c0-2.015,0.208-3.647,0.624-4.895
		c0.417-1.248,1.035-2.195,1.857-2.842c0.821-0.646,1.854-0.969,3.099-0.969c0.919,0,1.734,0.184,2.447,0.552
		c0.712,0.368,1.284,0.899,1.716,1.593c0.431,0.694,0.775,1.538,1.032,2.534c0.257,0.996,0.385,2.338,0.385,4.027
		c0,1.998-0.206,3.622-0.619,4.871c-0.412,1.249-1.029,2.198-1.85,2.848c-0.822,0.65-1.858,0.975-3.111,0.975
		c-1.65,0-2.946-0.569-3.887-1.706C885.164,788.662,884.6,786.333,884.6,783.133L884.6,783.133z M886.76,783.187
		c0,2.831,0.329,4.699,0.986,5.603c0.658,0.905,1.469,1.357,2.434,1.357c0.965,0,1.776-0.454,2.434-1.362
		c0.657-0.908,0.986-2.774,0.986-5.598c0-2.8-0.324-4.66-0.971-5.58c-0.648-0.92-1.471-1.38-2.471-1.38
		c-0.965,0-1.746,0.406-2.342,1.219C887.112,778.482,886.76,780.396,886.76,783.187L886.76,783.187z"/>
	<rect x="899" y="789.307" style="fill-rule:evenodd;clip-rule:evenodd;" width="2.28" height="2.28"/>
	<path style="fill-rule:evenodd;clip-rule:evenodd;" d="M904.64,776.827v-2.16h11.04v1.747c-1.082,1.172-2.155,2.711-3.217,4.619
		c-1.063,1.907-1.884,3.869-2.462,5.885c-0.418,1.421-0.685,2.978-0.801,4.669h-2.16c0.023-1.336,0.282-2.951,0.779-4.843
		c0.497-1.893,1.21-3.717,2.139-5.474c0.928-1.757,1.916-3.238,2.962-4.443H904.64z"/>
	
		<line style="fill:none;stroke:#000000;stroke-width:0.5;stroke-miterlimit:3.25;" x1="1046.5" y1="767.607" x2="1046.5" y2="763.601"/>
	<path style="fill-rule:evenodd;clip-rule:evenodd;" d="M1030.4,783.133c0-2.015,0.208-3.647,0.624-4.895
		c0.417-1.248,1.035-2.195,1.857-2.842c0.821-0.646,1.854-0.969,3.099-0.969c0.919,0,1.734,0.184,2.447,0.552
		c0.712,0.368,1.284,0.899,1.716,1.593c0.431,0.694,0.775,1.538,1.032,2.534c0.257,0.996,0.385,2.338,0.385,4.027
		c0,1.998-0.206,3.622-0.619,4.871c-0.412,1.249-1.029,2.198-1.85,2.848c-0.822,0.65-1.858,0.975-3.111,0.975
		c-1.65,0-2.946-0.569-3.887-1.706C1030.964,788.662,1030.4,786.333,1030.4,783.133L1030.4,783.133z M1032.56,783.187
		c0,2.831,0.329,4.699,0.986,5.603c0.658,0.905,1.469,1.357,2.434,1.357c0.965,0,1.776-0.454,2.434-1.362
		c0.657-0.908,0.986-2.774,0.986-5.598c0-2.8-0.324-4.66-0.971-5.58c-0.648-0.92-1.471-1.38-2.471-1.38
		c-0.965,0-1.746,0.406-2.342,1.219C1032.912,778.482,1032.56,780.396,1032.56,783.187L1032.56,783.187z"/>
	<rect x="1044.8" y="789.307" style="fill-rule:evenodd;clip-rule:evenodd;" width="2.28" height="2.28"/>
	<path style="fill-rule:evenodd;clip-rule:evenodd;" d="M1053.626,782.296c-0.878-0.317-1.528-0.77-1.951-1.359
		c-0.423-0.589-0.635-1.294-0.635-2.117c0-1.24,0.451-2.282,1.352-3.126c0.901-0.845,2.101-1.267,3.598-1.267
		c1.505,0,2.716,0.432,3.634,1.296c0.917,0.863,1.376,1.915,1.376,3.155c0,0.791-0.208,1.48-0.625,2.065s-1.051,1.036-1.901,1.353
		c1.019,0.342,1.795,0.892,2.327,1.651c0.533,0.76,0.799,1.666,0.799,2.72c0,1.456-0.512,2.68-1.537,3.672
		c-1.024,0.992-2.372,1.488-4.043,1.488s-3.019-0.498-4.043-1.493c-1.025-0.996-1.537-2.238-1.537-3.725
		c0-1.109,0.276-2.037,0.828-2.785C1051.82,783.077,1052.606,782.568,1053.626,782.296L1053.626,782.296z M1053.2,778.736
		c0,0.815,0.253,1.48,0.76,1.997c0.507,0.516,1.202,0.774,2.084,0.774c0.858,0,1.538-0.256,2.041-0.769
		c0.503-0.512,0.755-1.14,0.755-1.884c0-0.775-0.259-1.427-0.778-1.955c-0.519-0.528-1.199-0.792-2.042-0.792
		c-0.85,0-1.532,0.258-2.047,0.774C1053.458,777.398,1053.2,778.016,1053.2,778.736L1053.2,778.736z M1052.6,786.631
		c0,0.602,0.129,1.183,0.388,1.746c0.259,0.562,0.673,0.998,1.243,1.307c0.57,0.309,1.172,0.463,1.806,0.463
		c1.025,0,1.848-0.324,2.47-0.972c0.622-0.648,0.933-1.472,0.933-2.472c0-1.017-0.32-1.857-0.961-2.52
		c-0.641-0.664-1.477-0.996-2.51-0.996c-1.011,0-1.825,0.328-2.443,0.984C1052.909,784.828,1052.6,785.648,1052.6,786.631
		L1052.6,786.631z"/>
	
		<line style="fill:none;stroke:#000000;stroke-width:0.5;stroke-miterlimit:3.25;" x1="1192.3" y1="767.607" x2="1192.3" y2="763.601"/>
	<path style="fill-rule:evenodd;clip-rule:evenodd;" d="M1176.2,783.133c0-2.015,0.208-3.647,0.624-4.895
		c0.417-1.248,1.035-2.195,1.857-2.842c0.821-0.646,1.854-0.969,3.099-0.969c0.919,0,1.734,0.184,2.447,0.552
		c0.712,0.368,1.284,0.899,1.716,1.593c0.431,0.694,0.775,1.538,1.032,2.534c0.257,0.996,0.385,2.338,0.385,4.027
		c0,1.998-0.206,3.622-0.619,4.871c-0.412,1.249-1.029,2.198-1.85,2.848c-0.822,0.65-1.858,0.975-3.111,0.975
		c-1.65,0-2.946-0.569-3.887-1.706C1176.764,788.662,1176.2,786.333,1176.2,783.133L1176.2,783.133z M1178.36,783.187
		c0,2.831,0.329,4.699,0.986,5.603c0.658,0.905,1.469,1.357,2.434,1.357s1.776-0.454,2.434-1.362
		c0.657-0.908,0.986-2.774,0.986-5.598c0-2.8-0.324-4.66-0.971-5.58c-0.648-0.92-1.471-1.38-2.471-1.38
		c-0.965,0-1.746,0.406-2.342,1.219C1178.712,778.482,1178.36,780.396,1178.36,783.187L1178.36,783.187z"/>
	<rect x="1190.6" y="789.307" style="fill-rule:evenodd;clip-rule:evenodd;" width="2.28" height="2.28"/>
	<path style="fill-rule:evenodd;clip-rule:evenodd;" d="M1196.48,787.507l2.16-0.12c0.166,0.967,0.483,1.669,0.95,2.106
		c0.467,0.436,1.066,0.654,1.797,0.654c0.625,0,1.183-0.15,1.673-0.451c0.491-0.301,0.877-0.702,1.159-1.205
		c0.282-0.502,0.525-1.18,0.729-2.033c0.203-0.853,0.305-1.717,0.305-2.592c0-0.094-0.004-0.235-0.013-0.422
		c-0.414,0.672-0.978,1.218-1.694,1.636c-0.716,0.418-1.49,0.627-2.324,0.627c-1.393,0-2.571-0.509-3.535-1.527
		c-0.965-1.018-1.447-2.361-1.447-4.027c0-1.72,0.508-3.104,1.523-4.153c1.015-1.049,2.286-1.573,3.813-1.573
		c1.104,0,2.113,0.298,3.028,0.895c0.915,0.597,1.61,1.447,2.084,2.551c0.475,1.104,0.712,2.702,0.712,4.795
		c0,2.177-0.237,3.911-0.711,5.201c-0.473,1.29-1.178,2.272-2.115,2.946c-0.936,0.675-2.033,1.012-3.292,1.012
		c-1.336,0-2.428-0.378-3.275-1.133C1197.16,789.938,1196.651,788.876,1196.48,787.507L1196.48,787.507z M1205.12,780.046
		c0-1.171-0.309-2.1-0.927-2.788c-0.618-0.687-1.396-1.031-2.334-1.031c-0.968,0-1.787,0.37-2.456,1.111
		c-0.669,0.741-1.003,1.7-1.003,2.879c0,1.057,0.317,1.917,0.951,2.578c0.633,0.661,1.45,0.992,2.45,0.992
		c0.967,0,1.761-0.331,2.384-0.992S1205.12,781.218,1205.12,780.046L1205.12,780.046z"/>
	
		<line style="fill:none;stroke:#000000;stroke-width:0.5;stroke-miterlimit:3.25;" x1="1338.1" y1="767.607" x2="1338.1" y2="763.601"/>
	<path style="fill-rule:evenodd;clip-rule:evenodd;" d="M1336.46,791.587h-2.16v-13.371c-0.491,0.482-1.135,0.963-1.932,1.445
		c-0.797,0.482-1.513,0.843-2.148,1.085v-2.029c1.151-0.551,2.158-1.219,3.019-2.004c0.861-0.785,1.471-1.547,1.83-2.286h1.391
		V791.587z"/>
	<rect x="1343.06" y="789.307" style="fill-rule:evenodd;clip-rule:evenodd;" width="2.28" height="2.28"/>
	
		<line style="fill:none;stroke:#000000;stroke-width:0.5;stroke-miterlimit:3.25;" x1="609.1" y1="767.607" x2="1338.1" y2="767.607"/>
	<path style="fill-rule:evenodd;clip-rule:evenodd;" d="M1347.16,780.007v-17.28h2.16v1.686c0.441-0.643,0.939-1.124,1.493-1.445
		c0.555-0.321,1.227-0.481,2.017-0.481c1.034,0,1.946,0.272,2.737,0.817c0.79,0.545,1.387,1.314,1.789,2.307
		c0.403,0.992,0.604,2.08,0.604,3.262c0,1.269-0.227,2.411-0.682,3.427c-0.454,1.015-1.114,1.794-1.979,2.335
		c-0.865,0.541-1.775,0.812-2.73,0.812c-0.698,0-1.325-0.144-1.88-0.431c-0.555-0.288-1.011-0.651-1.369-1.09v6.081H1347.16z
		 M1349.32,769.078c0,1.598,0.312,2.78,0.936,3.543c0.623,0.764,1.378,1.146,2.265,1.146c0.901,0,1.673-0.396,2.315-1.187
		c0.643-0.791,0.964-2.017,0.964-3.677c0-1.582-0.314-2.767-0.941-3.555c-0.628-0.787-1.377-1.181-2.248-1.181
		c-0.864,0-1.628,0.419-2.293,1.257C1349.653,766.262,1349.32,767.48,1349.32,769.078L1349.32,769.078z"/>
	
		<line style="fill:none;stroke:#000000;stroke-width:0.5;stroke-miterlimit:3.25;" x1="609.1" y1="767.607" x2="613.105" y2="767.607"/>
	<path style="fill-rule:evenodd;clip-rule:evenodd;" d="M593.36,766.753c0-2.015,0.208-3.647,0.624-4.895
		c0.417-1.248,1.035-2.195,1.857-2.842c0.821-0.646,1.854-0.969,3.099-0.969c0.919,0,1.734,0.184,2.447,0.552
		c0.712,0.368,1.284,0.899,1.716,1.593c0.431,0.694,0.775,1.538,1.032,2.534c0.257,0.996,0.385,2.338,0.385,4.027
		c0,1.998-0.206,3.622-0.619,4.871c-0.412,1.249-1.029,2.198-1.85,2.848c-0.822,0.65-1.858,0.975-3.111,0.975
		c-1.65,0-2.946-0.569-3.887-1.706C593.924,772.282,593.36,769.953,593.36,766.753L593.36,766.753z M595.52,766.807
		c0,2.831,0.329,4.699,0.986,5.603c0.658,0.905,1.469,1.357,2.434,1.357s1.776-0.454,2.434-1.362
		c0.657-0.908,0.986-2.774,0.986-5.598c0-2.8-0.324-4.66-0.971-5.58c-0.648-0.92-1.471-1.38-2.471-1.38
		c-0.965,0-1.746,0.406-2.342,1.219C595.872,762.102,595.52,764.016,595.52,766.807L595.52,766.807z"/>
	
		<line style="fill:none;stroke:#000000;stroke-width:0.5;stroke-miterlimit:3.25;" x1="609.1" y1="654.97" x2="613.105" y2="654.97"/>
	<path style="fill-rule:evenodd;clip-rule:evenodd;" d="M560,654.116c0-2.015,0.208-3.647,0.624-4.895
		c0.417-1.248,1.035-2.195,1.857-2.842c0.821-0.646,1.854-0.969,3.099-0.969c0.919,0,1.734,0.184,2.447,0.552
		c0.712,0.368,1.284,0.899,1.716,1.593c0.431,0.694,0.775,1.538,1.032,2.534c0.257,0.996,0.385,2.338,0.385,4.027
		c0,1.998-0.206,3.622-0.619,4.871c-0.412,1.249-1.029,2.198-1.85,2.848c-0.822,0.65-1.858,0.975-3.111,0.975
		c-1.65,0-2.946-0.569-3.887-1.706C560.564,659.645,560,657.316,560,654.116L560,654.116z M562.16,654.17
		c0,2.831,0.329,4.699,0.986,5.603c0.658,0.905,1.469,1.357,2.434,1.357s1.776-0.454,2.434-1.362
		c0.657-0.908,0.986-2.774,0.986-5.598c0-2.8-0.324-4.66-0.971-5.58c-0.648-0.92-1.471-1.38-2.471-1.38
		c-0.965,0-1.746,0.406-2.342,1.219C562.512,649.465,562.16,651.379,562.16,654.17L562.16,654.17z"/>
	<rect x="574.4" y="660.29" style="fill-rule:evenodd;clip-rule:evenodd;" width="2.28" height="2.28"/>
	<path style="fill-rule:evenodd;clip-rule:evenodd;" d="M590.96,660.41v2.16h-11.28c-0.016-0.526,0.061-1.032,0.233-1.517
		c0.273-0.801,0.712-1.585,1.315-2.351s1.498-1.632,2.686-2.597c1.844-1.553,3.099-2.755,3.766-3.608c0.667-0.854,1-1.67,1-2.448
		c0-0.798-0.299-1.47-0.897-2.018c-0.598-0.547-1.378-0.821-2.339-0.821c-1.015,0-1.828,0.297-2.438,0.892
		c-0.61,0.594-0.918,1.417-0.926,2.468l-2.16-0.24c0.149-1.601,0.707-2.822,1.674-3.661c0.968-0.839,2.267-1.259,3.897-1.259
		c1.646,0,2.949,0.452,3.909,1.356c0.96,0.903,1.44,2.023,1.44,3.36c0,0.678-0.135,1.346-0.404,2.002
		c-0.269,0.656-0.717,1.348-1.343,2.074c-0.625,0.726-1.68,1.717-3.165,2.972c-1.258,1.04-2.084,1.745-2.477,2.117
		c-0.394,0.371-0.72,0.744-0.977,1.119H590.96z"/>
	<path style="fill-rule:evenodd;clip-rule:evenodd;" d="M593.36,658.01l2.16-0.12c0.161,1.076,0.527,1.885,1.096,2.427
		c0.569,0.542,1.29,0.813,2.163,0.813c1.061,0,1.923-0.381,2.586-1.142c0.663-0.761,0.995-1.771,0.995-3.03
		c0-1.196-0.313-2.14-0.939-2.831c-0.627-0.691-1.501-1.037-2.623-1.037c-0.7,0-1.306,0.145-1.816,0.434
		c-0.511,0.289-0.918,0.665-1.222,1.126l-2.16-0.24l1.8-8.76h8.16v2.16h-6.585l-0.917,4.472c1.016-0.741,2.082-1.112,3.197-1.112
		c1.479,0,2.726,0.517,3.742,1.552c1.015,1.035,1.523,2.367,1.523,3.994c0,1.549-0.444,2.888-1.331,4.016
		c-1.08,1.385-2.554,2.078-4.421,2.078c-1.532,0-2.781-0.438-3.75-1.314C594.05,660.619,593.498,659.457,593.36,658.01
		L593.36,658.01z"/>
	
		<line style="fill:none;stroke:#000000;stroke-width:0.5;stroke-miterlimit:3.25;" x1="609.1" y1="542.333" x2="613.105" y2="542.333"/>
	<path style="fill-rule:evenodd;clip-rule:evenodd;" d="M573.32,541.479c0-2.015,0.208-3.647,0.624-4.895
		c0.417-1.248,1.035-2.195,1.857-2.842c0.821-0.646,1.854-0.969,3.099-0.969c0.919,0,1.734,0.184,2.447,0.552
		c0.712,0.368,1.284,0.899,1.716,1.593c0.431,0.694,0.775,1.538,1.032,2.534c0.257,0.996,0.385,2.338,0.385,4.027
		c0,1.998-0.206,3.622-0.619,4.871c-0.412,1.249-1.029,2.198-1.85,2.848c-0.822,0.65-1.858,0.975-3.111,0.975
		c-1.65,0-2.946-0.569-3.887-1.706C573.884,547.008,573.32,544.679,573.32,541.479L573.32,541.479z M575.48,541.533
		c0,2.831,0.329,4.699,0.986,5.603c0.658,0.905,1.469,1.357,2.434,1.357c0.965,0,1.776-0.454,2.434-1.362
		c0.657-0.908,0.986-2.774,0.986-5.598c0-2.8-0.324-4.66-0.971-5.58c-0.648-0.92-1.471-1.38-2.471-1.38
		c-0.965,0-1.746,0.406-2.342,1.219C575.832,536.828,575.48,538.742,575.48,541.533L575.48,541.533z"/>
	<rect x="587.72" y="547.653" style="fill-rule:evenodd;clip-rule:evenodd;" width="2.28" height="2.28"/>
	<path style="fill-rule:evenodd;clip-rule:evenodd;" d="M593.36,545.373l2.16-0.12c0.161,1.076,0.527,1.885,1.096,2.427
		c0.569,0.542,1.29,0.813,2.163,0.813c1.061,0,1.923-0.381,2.586-1.142c0.663-0.761,0.995-1.771,0.995-3.03
		c0-1.196-0.313-2.14-0.939-2.831c-0.627-0.691-1.501-1.037-2.623-1.037c-0.7,0-1.306,0.145-1.816,0.434
		c-0.511,0.289-0.918,0.665-1.222,1.126l-2.16-0.24l1.8-8.76h8.16v2.16h-6.585l-0.917,4.472c1.016-0.741,2.082-1.112,3.197-1.112
		c1.479,0,2.726,0.517,3.742,1.552c1.015,1.035,1.523,2.367,1.523,3.994c0,1.549-0.444,2.888-1.331,4.016
		c-1.08,1.385-2.554,2.078-4.421,2.078c-1.532,0-2.781-0.438-3.75-1.314C594.05,547.982,593.498,546.82,593.36,545.373
		L593.36,545.373z"/>
	
		<line style="fill:none;stroke:#000000;stroke-width:0.5;stroke-miterlimit:3.25;" x1="609.1" y1="429.697" x2="613.105" y2="429.697"/>
	<path style="fill-rule:evenodd;clip-rule:evenodd;" d="M560,428.843c0-2.015,0.208-3.647,0.624-4.895
		c0.417-1.248,1.035-2.195,1.857-2.842c0.821-0.646,1.854-0.969,3.099-0.969c0.919,0,1.734,0.184,2.447,0.552
		c0.712,0.368,1.284,0.899,1.716,1.593c0.431,0.694,0.775,1.538,1.032,2.534c0.257,0.996,0.385,2.338,0.385,4.027
		c0,1.998-0.206,3.622-0.619,4.871c-0.412,1.249-1.029,2.198-1.85,2.848c-0.822,0.65-1.858,0.975-3.111,0.975
		c-1.65,0-2.946-0.569-3.887-1.706C560.564,434.372,560,432.043,560,428.843L560,428.843z M562.16,428.897
		c0,2.831,0.329,4.699,0.986,5.603c0.658,0.905,1.469,1.357,2.434,1.357s1.776-0.454,2.434-1.362
		c0.657-0.908,0.986-2.774,0.986-5.598c0-2.8-0.324-4.66-0.971-5.58c-0.648-0.92-1.471-1.38-2.471-1.38
		c-0.965,0-1.746,0.406-2.342,1.219C562.512,424.192,562.16,426.106,562.16,428.897L562.16,428.897z"/>
	<rect x="574.4" y="435.017" style="fill-rule:evenodd;clip-rule:evenodd;" width="2.28" height="2.28"/>
	<path style="fill-rule:evenodd;clip-rule:evenodd;" d="M580.04,422.537v-2.16h11.04v1.747c-1.082,1.172-2.155,2.711-3.217,4.619
		c-1.063,1.907-1.884,3.869-2.462,5.885c-0.418,1.421-0.685,2.978-0.801,4.669h-2.16c0.023-1.336,0.282-2.951,0.779-4.843
		c0.497-1.893,1.21-3.717,2.139-5.474c0.928-1.757,1.916-3.238,2.962-4.443H580.04z"/>
	<path style="fill-rule:evenodd;clip-rule:evenodd;" d="M593.36,432.737l2.16-0.12c0.161,1.076,0.527,1.885,1.096,2.427
		c0.569,0.542,1.29,0.813,2.163,0.813c1.061,0,1.923-0.381,2.586-1.142c0.663-0.761,0.995-1.771,0.995-3.03
		c0-1.196-0.313-2.14-0.939-2.831c-0.627-0.691-1.501-1.037-2.623-1.037c-0.7,0-1.306,0.145-1.816,0.434
		c-0.511,0.289-0.918,0.665-1.222,1.126l-2.16-0.24l1.8-8.76h8.16v2.16h-6.585l-0.917,4.472c1.016-0.741,2.082-1.112,3.197-1.112
		c1.479,0,2.726,0.517,3.742,1.552c1.015,1.035,1.523,2.367,1.523,3.994c0,1.549-0.444,2.888-1.331,4.016
		c-1.08,1.385-2.554,2.078-4.421,2.078c-1.532,0-2.781-0.438-3.75-1.314C594.05,435.346,593.498,434.184,593.36,432.737
		L593.36,432.737z"/>
	
		<line style="fill:none;stroke:#000000;stroke-width:0.5;stroke-miterlimit:3.25;" x1="609.1" y1="317.06" x2="613.105" y2="317.06"/>
	<path style="fill-rule:evenodd;clip-rule:evenodd;" d="M594.44,324.66h-2.16v-13.371c-0.491,0.482-1.135,0.963-1.932,1.445
		s-1.513,0.843-2.148,1.085v-2.029c1.151-0.551,2.158-1.219,3.019-2.004c0.861-0.785,1.471-1.547,1.83-2.286h1.391V324.66z"/>
	<rect x="601.04" y="322.38" style="fill-rule:evenodd;clip-rule:evenodd;" width="2.28" height="2.28"/>
	
		<line style="fill:none;stroke:#000000;stroke-width:0.5;stroke-miterlimit:3.25;" x1="609.1" y1="767.607" x2="609.1" y2="317.06"/>
	<path style="fill-rule:evenodd;clip-rule:evenodd;" d="M596.54,305.28h-2.16v-13.371c-0.491,0.482-1.135,0.963-1.932,1.445
		s-1.513,0.843-2.148,1.085v-2.029c1.151-0.551,2.158-1.219,3.019-2.004c0.861-0.785,1.471-1.547,1.83-2.286h1.391V305.28z"/>
	<rect x="602.304" y="298.048" style="fill-rule:evenodd;clip-rule:evenodd;" width="11.368" height="1.969"/>
	<path style="fill-rule:evenodd;clip-rule:evenodd;" d="M629.551,291.392c0,0.585-0.109,1.129-0.328,1.633s-0.515,0.952-0.89,1.343
		c-0.375,0.392-0.813,0.723-1.313,0.992c-0.5,0.27-1.031,0.454-1.594,0.554c0.517,0.062,0.983,0.176,1.401,0.343
		c0.417,0.168,0.777,0.396,1.078,0.686c0.301,0.289,0.532,0.636,0.692,1.039c0.16,0.404,0.24,0.869,0.24,1.395
		c0,0.549-0.078,1.079-0.234,1.589c-0.157,0.51-0.375,0.988-0.657,1.434c-0.281,0.446-0.615,0.854-1.002,1.223
		c-0.387,0.37-0.815,0.686-1.283,0.948c-0.469,0.263-0.967,0.466-1.495,0.611c-0.527,0.145-1.068,0.217-1.622,0.217
		c-0.461,0-0.854-0.031-1.178-0.093c-0.324-0.062-0.615-0.164-0.873-0.306c-0.257-0.143-0.498-0.332-0.721-0.567
		c-0.223-0.235-0.463-0.53-0.721-0.885l-1.348,6.531h-2.109l3.622-16.918c0.164-0.775,0.441-1.479,0.832-2.11
		c0.39-0.632,0.869-1.175,1.435-1.628c0.566-0.453,1.203-0.804,1.91-1.052c0.707-0.248,1.459-0.372,2.256-0.372
		c0.508,0,0.998,0.075,1.47,0.225c0.473,0.15,0.889,0.369,1.248,0.657c0.36,0.288,0.647,0.644,0.862,1.067
		S629.551,290.853,629.551,291.392L629.551,291.392z M627.524,291.827c0-0.335-0.064-0.632-0.193-0.892
		c-0.128-0.259-0.304-0.478-0.528-0.658c-0.223-0.179-0.48-0.316-0.773-0.411c-0.292-0.095-0.599-0.143-0.921-0.143
		c-0.562,0-1.056,0.086-1.482,0.258c-0.425,0.172-0.79,0.41-1.095,0.715c-0.304,0.305-0.556,0.667-0.755,1.087
		c-0.2,0.419-0.354,0.88-0.464,1.383l-1.382,6.373c-0.048,0.221-0.085,0.44-0.112,0.658c-0.027,0.217-0.04,0.437-0.04,0.658
		c0,0.426,0.062,0.821,0.187,1.183c0.125,0.363,0.309,0.677,0.551,0.944c0.241,0.267,0.538,0.477,0.89,0.629
		c0.352,0.153,0.754,0.229,1.207,0.229c0.579,0,1.114-0.121,1.606-0.363s0.917-0.561,1.277-0.959c0.359-0.397,0.64-0.85,0.843-1.356
		c0.203-0.507,0.305-1.029,0.305-1.565c0-0.598-0.123-1.082-0.369-1.452c-0.247-0.371-0.569-0.658-0.967-0.863
		c-0.398-0.204-0.845-0.342-1.341-0.414c-0.497-0.072-0.995-0.108-1.495-0.108h-0.082l0.328-1.56c0.555,0,1.118-0.055,1.688-0.166
		c0.571-0.111,1.086-0.296,1.547-0.555c0.461-0.259,0.838-0.604,1.131-1.035S627.524,292.474,627.524,291.827L627.524,291.827z"/>
</g>
</svg>
