<?xml version="1.0" encoding="iso-8859-1"?>
<!-- Generator: Adobe Illustrator 28.7.3, SVG Export Plug-In . SVG Version: 9.03 Build 54978)  -->
<svg version="1.1" id="Layer_1" xmlns="http://www.w3.org/2000/svg" xmlns:xlink="http://www.w3.org/1999/xlink" x="0px" y="0px"
	 viewBox="0 0 598.8 380.99" style="enable-background:new 0 0 598.8 380.99;" xml:space="preserve">
<g>
	<path style="fill:none;stroke:#DFE6F0;stroke-width:1.6;stroke-linecap:square;stroke-miterlimit:3.25;" d="M93.303,355.855v0.915
		 M137.507,347.623v9.147 M181.71,315.608v41.162 M225.913,247.005V356.77 M270.117,164.682V356.77 M314.32,126.265V356.77
		 M358.523,164.682V356.77 M402.727,247.005V356.77 M446.93,315.608v41.162 M491.133,347.623v9.147 M535.337,355.855v0.915"/>
	<path style="fill:none;stroke:#5E81B5;stroke-width:10.314;stroke-linecap:round;stroke-miterlimit:3.25;" d="M93.303,355.855
		L93.303,355.855 M137.507,347.623L137.507,347.623 M181.71,315.608L181.71,315.608 M225.913,247.005L225.913,247.005
		 M270.117,164.682L270.117,164.682 M314.32,126.265L314.32,126.265 M358.523,164.682L358.523,164.682 M402.727,247.005
		L402.727,247.005 M446.93,315.608L446.93,315.608 M491.133,347.623L491.133,347.623 M535.337,355.855L535.337,355.855"/>
	
		<line style="fill:none;stroke:#000000;stroke-width:0.5;stroke-miterlimit:3.25;" x1="93.303" y1="356.77" x2="93.303" y2="352.77"/>
	<path style="fill-rule:evenodd;clip-rule:evenodd;" d="M87.223,372.296c0-2.015,0.208-3.647,0.624-4.895
		c0.417-1.248,1.035-2.195,1.857-2.842c0.821-0.646,1.854-0.969,3.099-0.969c0.919,0,1.734,0.184,2.447,0.552
		c0.712,0.368,1.284,0.899,1.716,1.593c0.431,0.694,0.775,1.538,1.032,2.534c0.257,0.996,0.385,2.338,0.385,4.027
		c0,1.998-0.206,3.622-0.619,4.871c-0.412,1.249-1.029,2.198-1.85,2.848c-0.822,0.65-1.858,0.975-3.111,0.975
		c-1.65,0-2.946-0.569-3.887-1.706C87.787,377.825,87.223,375.496,87.223,372.296L87.223,372.296z M89.383,372.35
		c0,2.831,0.329,4.699,0.986,5.603c0.658,0.905,1.469,1.357,2.434,1.357c0.965,0,1.776-0.454,2.434-1.362
		c0.657-0.908,0.986-2.774,0.986-5.598c0-2.8-0.324-4.66-0.971-5.58c-0.648-0.92-1.471-1.38-2.471-1.38
		c-0.965,0-1.746,0.406-2.342,1.219C89.735,367.645,89.383,369.559,89.383,372.35L89.383,372.35z"/>
	
		<line style="fill:none;stroke:#000000;stroke-width:0.5;stroke-miterlimit:3.25;" x1="314.32" y1="356.77" x2="314.32" y2="352.77"/>
	<path style="fill-rule:evenodd;clip-rule:evenodd;" d="M308.24,376.19l2.16-0.12c0.161,1.076,0.527,1.885,1.096,2.427
		c0.569,0.542,1.29,0.813,2.163,0.813c1.061,0,1.923-0.381,2.586-1.142c0.663-0.761,0.995-1.771,0.995-3.03
		c0-1.196-0.313-2.14-0.939-2.831c-0.627-0.691-1.501-1.037-2.623-1.037c-0.7,0-1.306,0.145-1.816,0.434
		c-0.511,0.289-0.918,0.665-1.222,1.126l-2.16-0.24l1.8-8.76h8.16v2.16h-6.585l-0.917,4.472c1.016-0.741,2.082-1.112,3.197-1.112
		c1.479,0,2.726,0.517,3.742,1.552c1.015,1.035,1.523,2.367,1.523,3.994c0,1.549-0.444,2.888-1.331,4.016
		c-1.08,1.385-2.554,2.078-4.421,2.078c-1.532,0-2.781-0.438-3.75-1.314C308.93,378.799,308.378,377.637,308.24,376.19
		L308.24,376.19z"/>
	
		<line style="fill:none;stroke:#000000;stroke-width:0.5;stroke-miterlimit:3.25;" x1="491.133" y1="356.77" x2="491.133" y2="352.77"/>
	<path style="fill-rule:evenodd;clip-rule:evenodd;" d="M485.293,376.67l2.16-0.12c0.166,0.967,0.483,1.669,0.95,2.106
		c0.467,0.436,1.066,0.654,1.797,0.654c0.625,0,1.183-0.15,1.673-0.451c0.491-0.301,0.877-0.702,1.159-1.205
		c0.282-0.502,0.525-1.18,0.729-2.033c0.203-0.853,0.305-1.717,0.305-2.592c0-0.094-0.004-0.235-0.013-0.422
		c-0.414,0.672-0.978,1.218-1.694,1.636c-0.716,0.418-1.49,0.627-2.324,0.627c-1.393,0-2.571-0.509-3.535-1.527
		c-0.965-1.018-1.447-2.361-1.447-4.027c0-1.72,0.508-3.104,1.523-4.153c1.015-1.049,2.286-1.573,3.813-1.573
		c1.104,0,2.113,0.298,3.028,0.895c0.915,0.597,1.61,1.447,2.084,2.551c0.475,1.104,0.712,2.702,0.712,4.795
		c0,2.177-0.237,3.911-0.711,5.201c-0.473,1.29-1.178,2.272-2.115,2.946c-0.936,0.675-2.033,1.012-3.292,1.012
		c-1.336,0-2.428-0.378-3.275-1.133C485.973,379.101,485.464,378.039,485.293,376.67L485.293,376.67z M493.933,369.209
		c0-1.171-0.309-2.1-0.927-2.788c-0.618-0.687-1.396-1.031-2.334-1.031c-0.968,0-1.787,0.37-2.456,1.111
		c-0.669,0.741-1.003,1.7-1.003,2.879c0,1.057,0.317,1.917,0.951,2.578c0.633,0.661,1.45,0.992,2.45,0.992
		c0.967,0,1.761-0.331,2.384-0.992C493.621,371.297,493.933,370.381,493.933,369.209L493.933,369.209z"/>
	
		<line style="fill:none;stroke:#000000;stroke-width:0.5;stroke-miterlimit:3.25;" x1="535.337" y1="356.77" x2="535.337" y2="352.77"/>
	<path style="fill-rule:evenodd;clip-rule:evenodd;" d="M530.397,380.75h-2.16v-13.371c-0.491,0.482-1.135,0.963-1.932,1.445
		s-1.513,0.843-2.148,1.085v-2.029c1.151-0.551,2.158-1.219,3.019-2.004c0.861-0.785,1.471-1.547,1.83-2.286h1.391V380.75z"/>
	<path style="fill-rule:evenodd;clip-rule:evenodd;" d="M535.917,372.296c0-2.015,0.208-3.647,0.624-4.895
		c0.417-1.248,1.035-2.195,1.857-2.842c0.821-0.646,1.854-0.969,3.099-0.969c0.919,0,1.734,0.184,2.447,0.552
		c0.712,0.368,1.284,0.899,1.716,1.593c0.431,0.694,0.775,1.538,1.032,2.534c0.257,0.996,0.385,2.338,0.385,4.027
		c0,1.998-0.206,3.622-0.619,4.871c-0.412,1.249-1.029,2.198-1.85,2.848c-0.822,0.65-1.858,0.975-3.111,0.975
		c-1.65,0-2.946-0.569-3.887-1.706C536.481,377.825,535.917,375.496,535.917,372.296L535.917,372.296z M538.077,372.35
		c0,2.831,0.329,4.699,0.986,5.603c0.658,0.905,1.469,1.357,2.434,1.357c0.965,0,1.776-0.454,2.434-1.362
		c0.657-0.908,0.986-2.774,0.986-5.598c0-2.8-0.324-4.66-0.971-5.58c-0.648-0.92-1.471-1.38-2.471-1.38
		c-0.965,0-1.746,0.406-2.342,1.219C538.429,367.645,538.077,369.559,538.077,372.35L538.077,372.35z"/>
	<line style="fill:none;stroke:#000000;stroke-width:0.5;stroke-miterlimit:3.25;" x1="49.1" y1="356.77" x2="579.54" y2="356.77"/>
	<path style="fill-rule:evenodd;clip-rule:evenodd;" d="M587.16,364.37l4.538-6.377l-4.298-6.103h2.612l2.083,2.959
		c0.38,0.538,0.66,1.007,0.84,1.404c0.373-0.522,0.702-0.984,0.988-1.386l2.117-2.977h2.623l-4.348,6.111l4.485,6.369h-2.612
		l-2.64-3.748l-0.472-0.88l-3.293,4.628H587.16z"/>
	<line style="fill:none;stroke:#000000;stroke-width:0.5;stroke-miterlimit:3.25;" x1="49.1" y1="356.77" x2="53.1" y2="356.77"/>
	<path style="fill-rule:evenodd;clip-rule:evenodd;" d="M33.36,355.916c0-2.015,0.208-3.647,0.624-4.895
		c0.417-1.248,1.035-2.195,1.857-2.842c0.821-0.646,1.854-0.969,3.099-0.969c0.919,0,1.734,0.184,2.447,0.552
		c0.712,0.368,1.284,0.899,1.716,1.593c0.431,0.694,0.775,1.538,1.032,2.534c0.257,0.996,0.385,2.338,0.385,4.027
		c0,1.998-0.206,3.622-0.619,4.871c-0.412,1.249-1.029,2.198-1.85,2.848c-0.822,0.65-1.858,0.975-3.111,0.975
		c-1.65,0-2.946-0.569-3.887-1.706C33.924,361.445,33.36,359.116,33.36,355.916L33.36,355.916z M35.52,355.97
		c0,2.831,0.329,4.699,0.986,5.603c0.658,0.905,1.469,1.357,2.434,1.357c0.965,0,1.776-0.454,2.434-1.362
		c0.657-0.908,0.986-2.774,0.986-5.598c0-2.8-0.324-4.66-0.971-5.58c-0.648-0.92-1.471-1.38-2.471-1.38
		c-0.965,0-1.746,0.406-2.342,1.219C35.872,351.265,35.52,353.179,35.52,355.97L35.52,355.97z"/>
	<line style="fill:none;stroke:#000000;stroke-width:0.5;stroke-miterlimit:3.25;" x1="49.1" y1="122.606" x2="53.1" y2="122.606"/>
	<path style="fill-rule:evenodd;clip-rule:evenodd;" d="M0,121.752c0-2.015,0.208-3.647,0.624-4.895
		c0.417-1.248,1.035-2.195,1.857-2.842c0.821-0.646,1.854-0.969,3.099-0.969c0.919,0,1.734,0.184,2.447,0.552
		c0.712,0.368,1.284,0.899,1.716,1.593c0.431,0.694,0.775,1.538,1.032,2.534c0.257,0.996,0.385,2.338,0.385,4.027
		c0,1.998-0.206,3.622-0.619,4.871c-0.412,1.249-1.029,2.198-1.85,2.848c-0.822,0.65-1.858,0.975-3.111,0.975
		c-1.65,0-2.946-0.569-3.887-1.706C0.564,127.281,0,124.952,0,121.752L0,121.752z M2.16,121.806c0,2.831,0.329,4.699,0.986,5.603
		c0.658,0.905,1.469,1.357,2.434,1.357c0.965,0,1.776-0.454,2.434-1.362C8.671,126.496,9,124.63,9,121.806
		c0-2.8-0.324-4.66-0.971-5.58c-0.648-0.92-1.471-1.38-2.471-1.38c-0.965,0-1.746,0.406-2.342,1.219
		C2.512,117.101,2.16,119.015,2.16,121.806L2.16,121.806z"/>
	<rect x="14.4" y="127.926" style="fill-rule:evenodd;clip-rule:evenodd;" width="2.28" height="2.28"/>
	<path style="fill-rule:evenodd;clip-rule:evenodd;" d="M30.96,128.046v2.16H19.68c-0.016-0.526,0.061-1.032,0.233-1.517
		c0.273-0.801,0.712-1.585,1.315-2.351c0.603-0.766,1.498-1.632,2.686-2.597c1.844-1.553,3.099-2.755,3.766-3.608
		c0.667-0.854,1-1.67,1-2.448c0-0.798-0.299-1.47-0.897-2.018c-0.598-0.547-1.378-0.821-2.339-0.821
		c-1.015,0-1.828,0.297-2.438,0.892c-0.61,0.594-0.918,1.417-0.926,2.468l-2.16-0.24c0.149-1.601,0.707-2.822,1.674-3.661
		c0.968-0.839,2.267-1.259,3.897-1.259c1.646,0,2.949,0.452,3.909,1.356c0.96,0.903,1.44,2.023,1.44,3.36
		c0,0.678-0.135,1.346-0.404,2.002c-0.269,0.656-0.717,1.348-1.343,2.074c-0.625,0.726-1.68,1.717-3.165,2.972
		c-1.258,1.04-2.084,1.745-2.477,2.117c-0.394,0.371-0.72,0.744-0.977,1.119H30.96z"/>
	<path style="fill-rule:evenodd;clip-rule:evenodd;" d="M33.36,125.646l2.16-0.12c0.161,1.076,0.527,1.885,1.096,2.427
		s1.29,0.813,2.163,0.813c1.061,0,1.923-0.381,2.586-1.142c0.663-0.761,0.995-1.771,0.995-3.03c0-1.196-0.313-2.14-0.939-2.831
		c-0.627-0.691-1.501-1.037-2.623-1.037c-0.7,0-1.306,0.145-1.816,0.434c-0.511,0.289-0.918,0.665-1.222,1.126l-2.16-0.24l1.8-8.76
		h8.16v2.16h-6.585l-0.917,4.472c1.016-0.741,2.082-1.112,3.197-1.112c1.479,0,2.726,0.517,3.742,1.552
		c1.015,1.035,1.523,2.367,1.523,3.994c0,1.549-0.444,2.888-1.331,4.016c-1.08,1.385-2.554,2.078-4.421,2.078
		c-1.532,0-2.781-0.438-3.75-1.314C34.05,128.255,33.498,127.093,33.36,125.646L33.36,125.646z"/>
	<line style="fill:none;stroke:#000000;stroke-width:0.5;stroke-miterlimit:3.25;" x1="49.1" y1="356.77" x2="49.1" y2="28.94"/>
	<path style="fill-rule:evenodd;clip-rule:evenodd;" d="M26.58,17.16V0h6.345c1.118,0,1.971,0.055,2.559,0.165
		c0.827,0.14,1.519,0.407,2.077,0.802c0.558,0.395,1.007,0.949,1.348,1.66c0.341,0.711,0.511,1.492,0.511,2.344
		c0,1.462-0.453,2.699-1.358,3.711c-0.906,1.012-2.543,1.518-4.91,1.518H28.86v6.96H26.58z M28.86,8.16h4.329
		c1.432,0,2.448-0.273,3.049-0.818c0.601-0.545,0.902-1.311,0.902-2.3c0-0.716-0.177-1.33-0.531-1.84
		c-0.353-0.51-0.82-0.846-1.398-1.01c-0.374-0.101-1.063-0.152-2.068-0.152H28.86V8.16z"/>
	<path style="fill-rule:evenodd;clip-rule:evenodd;" d="M42.54,17.16V0h5.901c1.331,0,2.347,0.082,3.048,0.246
		c0.982,0.226,1.819,0.636,2.513,1.23c0.902,0.763,1.578,1.74,2.026,2.93c0.448,1.19,0.672,2.55,0.672,4.08
		c0,1.304-0.152,2.459-0.456,3.465c-0.303,1.006-0.693,1.839-1.168,2.499c-0.475,0.659-0.995,1.178-1.56,1.557
		c-0.565,0.379-1.246,0.665-2.044,0.86c-0.799,0.196-1.716,0.293-2.752,0.293H42.54z M44.82,15.12h3.673
		c1.135,0,2.025-0.105,2.67-0.315c0.645-0.21,1.16-0.506,1.543-0.889c0.54-0.536,0.961-1.258,1.262-2.165
		c0.301-0.908,0.452-2.008,0.452-3.3c0-1.79-0.295-3.166-0.886-4.128s-1.308-1.606-2.153-1.932c-0.61-0.234-1.592-0.351-2.946-0.351
		H44.82V15.12z"/>
	<polygon style="fill-rule:evenodd;clip-rule:evenodd;" points="59.82,17.16 59.82,0 71.34,0 71.34,2.04 62.1,2.04 62.1,7.32 
		69.9,7.32 69.9,9.36 62.1,9.36 62.1,17.16 	"/>
	<polygon style="fill-rule:evenodd;clip-rule:evenodd;" points="85.385,332.247 83.223,332.247 83.223,332.985 85.385,332.985 
		101.723,332.985 103.885,332.985 103.885,332.247 101.723,332.247 	"/>
	<path style="fill-rule:evenodd;clip-rule:evenodd;" d="M93.643,326.568h-0.84v-5.049c-0.187,0.182-0.434,0.364-0.739,0.546
		c-0.305,0.182-0.578,0.319-0.821,0.41v-0.767c0.441-0.209,0.827-0.461,1.157-0.758c0.33-0.296,0.564-0.583,0.701-0.862h0.542
		V326.568z"/>
	<path style="fill-rule:evenodd;clip-rule:evenodd;" d="M86.083,344.309h-0.84v-5.049c-0.187,0.182-0.434,0.364-0.739,0.546
		c-0.305,0.182-0.578,0.319-0.821,0.41v-0.767c0.441-0.209,0.827-0.461,1.157-0.758c0.33-0.296,0.564-0.583,0.701-0.862h0.542
		V344.309z"/>
	<path style="fill-rule:evenodd;clip-rule:evenodd;" d="M88.123,341.131c0-0.764,0.081-1.389,0.242-1.875
		c0.161-0.486,0.401-0.846,0.718-1.078c0.318-0.233,0.718-0.349,1.2-0.349c0.355,0,0.677,0.07,0.965,0.209
		c0.288,0.139,0.509,0.341,0.664,0.604c0.155,0.263,0.283,0.584,0.382,0.962c0.099,0.378,0.149,0.887,0.149,1.527
		c0,0.759-0.08,1.381-0.239,1.866c-0.159,0.486-0.398,0.846-0.716,1.08c-0.318,0.235-0.72,0.352-1.205,0.352
		c-0.639,0-1.141-0.203-1.506-0.609C88.341,343.241,88.123,342.345,88.123,341.131L88.123,341.131z M88.963,341.129
		c0,1.075,0.127,1.774,0.381,2.096c0.253,0.323,0.567,0.484,0.939,0.484c0.373,0,0.686-0.162,0.939-0.486
		c0.254-0.323,0.381-1.022,0.381-2.094c0-1.038-0.122-1.727-0.366-2.068c-0.243-0.341-0.565-0.512-0.963-0.512
		c-0.373,0-0.68,0.151-0.923,0.452C89.092,339.385,88.963,340.094,88.963,341.129L88.963,341.129z"/>
	<path style="fill-rule:evenodd;clip-rule:evenodd;" d="M97.363,343.469v0.84h-4.32c-0.005-0.2,0.024-0.392,0.088-0.576
		c0.104-0.305,0.27-0.6,0.499-0.885s0.571-0.602,1.027-0.95c0.708-0.594,1.176-1.049,1.404-1.366
		c0.228-0.317,0.342-0.627,0.342-0.929c0-0.297-0.109-0.546-0.326-0.749c-0.218-0.203-0.501-0.305-0.85-0.305
		c-0.37,0-0.666,0.106-0.887,0.319c-0.222,0.212-0.334,0.506-0.337,0.881l-0.84-0.12c0.055-0.586,0.263-1.033,0.625-1.34
		c0.362-0.307,0.848-0.46,1.456-0.46c0.615,0,1.102,0.171,1.461,0.512c0.359,0.341,0.538,0.764,0.538,1.269
		c0,0.256-0.048,0.508-0.143,0.756c-0.096,0.247-0.255,0.508-0.478,0.783c-0.222,0.274-0.611,0.645-1.168,1.112
		c-0.481,0.389-0.793,0.653-0.935,0.791c-0.143,0.138-0.261,0.277-0.355,0.417H97.363z"/>
	<path style="fill-rule:evenodd;clip-rule:evenodd;" d="M100.843,344.309v-1.56h-2.88v-0.84l3.12-3.96h0.6v3.96h0.84v0.84h-0.84
		v1.56H100.843z M100.843,341.909v-2.338L99,341.909H100.843z"/>
	<polygon style="fill-rule:evenodd;clip-rule:evenodd;" points="132.109,324.015 129.947,324.015 129.947,324.753 132.109,324.753 
		143.407,324.753 145.569,324.753 145.569,324.015 143.407,324.015 	"/>
	<path style="fill-rule:evenodd;clip-rule:evenodd;" d="M134.847,316.656l0.84-0.12c0.063,0.399,0.198,0.698,0.405,0.899
		c0.208,0.201,0.492,0.301,0.853,0.301c0.446,0,0.788-0.142,1.026-0.426c0.237-0.283,0.356-0.66,0.356-1.13
		c0-0.447-0.11-0.799-0.331-1.057c-0.221-0.258-0.563-0.387-1.028-0.387c-0.293,0-0.53,0.067-0.713,0.201
		c-0.182,0.133-0.332,0.306-0.448,0.519l-0.84-0.12l0.72-3.36h3.12v0.84h-2.445l-0.337,1.616c0.377-0.277,0.773-0.416,1.186-0.416
		c0.549,0,1.012,0.197,1.39,0.592c0.377,0.395,0.566,0.903,0.566,1.523c0,0.591-0.172,1.102-0.516,1.532
		c-0.417,0.529-0.988,0.793-1.711,0.793c-0.593,0-1.076-0.164-1.451-0.493C135.115,317.634,134.901,317.198,134.847,316.656
		L134.847,316.656z"/>
	<path style="fill-rule:evenodd;clip-rule:evenodd;" d="M129.807,334.397l0.84-0.12c0.063,0.399,0.198,0.698,0.405,0.899
		c0.208,0.201,0.492,0.301,0.853,0.301c0.446,0,0.788-0.142,1.026-0.426c0.237-0.283,0.356-0.66,0.356-1.13
		c0-0.447-0.11-0.799-0.331-1.057c-0.221-0.258-0.563-0.387-1.028-0.387c-0.293,0-0.53,0.067-0.713,0.201
		c-0.182,0.133-0.332,0.306-0.448,0.519l-0.84-0.12l0.72-3.36h3.12v0.84h-2.445l-0.337,1.616c0.377-0.277,0.773-0.416,1.186-0.416
		c0.549,0,1.012,0.197,1.39,0.592c0.377,0.395,0.566,0.903,0.566,1.523c0,0.591-0.172,1.102-0.516,1.532
		c-0.417,0.529-0.988,0.793-1.711,0.793c-0.593,0-1.076-0.164-1.451-0.493C130.075,335.375,129.861,334.939,129.807,334.397
		L129.807,334.397z"/>
	<path style="fill-rule:evenodd;clip-rule:evenodd;" d="M137.847,336.077h-0.84v-5.049c-0.187,0.182-0.434,0.364-0.739,0.546
		c-0.305,0.182-0.578,0.319-0.821,0.41v-0.767c0.441-0.209,0.827-0.461,1.157-0.758c0.33-0.296,0.564-0.583,0.701-0.862h0.542
		V336.077z"/>
	<path style="fill-rule:evenodd;clip-rule:evenodd;" d="M144.087,335.237v0.84h-4.32c-0.005-0.2,0.024-0.392,0.088-0.576
		c0.104-0.305,0.27-0.6,0.499-0.885c0.229-0.285,0.571-0.602,1.027-0.95c0.708-0.594,1.176-1.049,1.404-1.366
		c0.228-0.317,0.342-0.627,0.342-0.929c0-0.297-0.109-0.546-0.326-0.749c-0.218-0.203-0.501-0.305-0.85-0.305
		c-0.37,0-0.666,0.106-0.887,0.319c-0.222,0.212-0.334,0.506-0.337,0.881l-0.84-0.12c0.055-0.586,0.263-1.033,0.625-1.34
		s0.848-0.46,1.456-0.46c0.615,0,1.102,0.171,1.461,0.512c0.359,0.341,0.538,0.764,0.538,1.269c0,0.256-0.048,0.508-0.143,0.756
		c-0.096,0.247-0.255,0.508-0.478,0.783c-0.222,0.274-0.611,0.645-1.168,1.112c-0.481,0.389-0.793,0.653-0.935,0.791
		c-0.143,0.138-0.261,0.277-0.355,0.417H144.087z"/>
	<polygon style="fill-rule:evenodd;clip-rule:evenodd;" points="173.792,292 171.63,292 171.63,292.738 173.792,292.738 
		190.13,292.738 192.292,292.738 192.292,292 190.13,292 	"/>
	<path style="fill-rule:evenodd;clip-rule:evenodd;" d="M179.17,286.321v-1.56h-2.88v-0.84l3.12-3.96h0.6v3.96h0.84v0.84h-0.84v1.56
		H179.17z M179.17,283.921v-2.338l-1.843,2.338H179.17z"/>
	<path style="fill-rule:evenodd;clip-rule:evenodd;" d="M181.57,284.641l0.84-0.12c0.063,0.399,0.198,0.698,0.405,0.899
		c0.208,0.201,0.492,0.301,0.853,0.301c0.446,0,0.788-0.142,1.026-0.426c0.237-0.283,0.356-0.66,0.356-1.13
		c0-0.447-0.11-0.799-0.331-1.057c-0.221-0.258-0.563-0.387-1.028-0.387c-0.293,0-0.53,0.067-0.713,0.201
		c-0.182,0.133-0.332,0.306-0.448,0.519l-0.84-0.12l0.72-3.36h3.12v0.84h-2.445l-0.337,1.616c0.377-0.277,0.773-0.416,1.186-0.416
		c0.549,0,1.012,0.197,1.39,0.592c0.377,0.395,0.566,0.903,0.566,1.523c0,0.591-0.172,1.102-0.516,1.532
		c-0.417,0.529-0.988,0.793-1.711,0.793c-0.593,0-1.076-0.164-1.451-0.493C181.838,285.619,181.624,285.183,181.57,284.641
		L181.57,284.641z"/>
	<path style="fill-rule:evenodd;clip-rule:evenodd;" d="M174.49,304.062h-0.84v-5.049c-0.187,0.182-0.434,0.364-0.739,0.546
		c-0.305,0.182-0.578,0.319-0.821,0.41v-0.767c0.441-0.209,0.827-0.461,1.157-0.758c0.33-0.296,0.564-0.583,0.701-0.862h0.542
		V304.062z"/>
	<path style="fill-rule:evenodd;clip-rule:evenodd;" d="M176.53,300.884c0-0.764,0.081-1.389,0.242-1.875
		c0.161-0.486,0.401-0.846,0.718-1.078c0.318-0.233,0.718-0.349,1.2-0.349c0.355,0,0.677,0.07,0.965,0.209
		c0.288,0.139,0.509,0.341,0.664,0.604s0.283,0.584,0.382,0.962c0.099,0.378,0.149,0.887,0.149,1.527
		c0,0.759-0.08,1.381-0.239,1.866c-0.159,0.486-0.398,0.846-0.716,1.08c-0.318,0.235-0.72,0.352-1.205,0.352
		c-0.639,0-1.141-0.203-1.506-0.609C176.748,302.994,176.53,302.098,176.53,300.884L176.53,300.884z M177.37,300.882
		c0,1.075,0.127,1.774,0.381,2.096c0.253,0.323,0.567,0.484,0.939,0.484c0.373,0,0.686-0.162,0.939-0.486
		c0.254-0.323,0.381-1.022,0.381-2.094c0-1.038-0.122-1.727-0.366-2.068c-0.243-0.341-0.565-0.512-0.963-0.512
		c-0.373,0-0.68,0.151-0.923,0.452C177.499,299.138,177.37,299.847,177.37,300.882L177.37,300.882z"/>
	<path style="fill-rule:evenodd;clip-rule:evenodd;" d="M185.77,303.222v0.84h-4.32c-0.005-0.2,0.024-0.392,0.088-0.576
		c0.104-0.305,0.27-0.6,0.499-0.885c0.229-0.285,0.571-0.602,1.027-0.95c0.708-0.594,1.176-1.049,1.404-1.366
		c0.228-0.317,0.342-0.627,0.342-0.929c0-0.297-0.109-0.546-0.326-0.749c-0.218-0.203-0.501-0.305-0.85-0.305
		c-0.37,0-0.666,0.106-0.887,0.319c-0.222,0.212-0.334,0.506-0.337,0.881l-0.84-0.12c0.055-0.586,0.263-1.033,0.625-1.34
		s0.848-0.46,1.456-0.46c0.615,0,1.102,0.171,1.461,0.512c0.359,0.341,0.538,0.764,0.538,1.269c0,0.256-0.048,0.508-0.143,0.756
		c-0.096,0.247-0.255,0.508-0.478,0.783c-0.222,0.274-0.611,0.645-1.168,1.112c-0.481,0.389-0.793,0.653-0.935,0.791
		c-0.143,0.138-0.261,0.277-0.355,0.417H185.77z"/>
	<path style="fill-rule:evenodd;clip-rule:evenodd;" d="M189.25,304.062v-1.56h-2.88v-0.84l3.12-3.96h0.6v3.96h0.84v0.84h-0.84v1.56
		H189.25z M189.25,301.662v-2.338l-1.843,2.338H189.25z"/>
	<polygon style="fill-rule:evenodd;clip-rule:evenodd;" points="220.515,223.397 218.353,223.397 218.353,224.135 220.515,224.135 
		231.813,224.135 233.975,224.135 233.975,223.397 231.813,223.397 	"/>
	<path style="fill-rule:evenodd;clip-rule:evenodd;" d="M223.733,217.718h-0.84v-5.049c-0.187,0.182-0.434,0.364-0.739,0.546
		c-0.305,0.182-0.578,0.319-0.821,0.41v-0.767c0.441-0.209,0.827-0.461,1.157-0.758c0.33-0.296,0.564-0.583,0.701-0.862h0.542
		V217.718z"/>
	<path style="fill-rule:evenodd;clip-rule:evenodd;" d="M225.773,216.038l0.84-0.12c0.063,0.399,0.198,0.698,0.405,0.899
		c0.208,0.201,0.492,0.301,0.853,0.301c0.446,0,0.788-0.142,1.026-0.426c0.237-0.283,0.356-0.66,0.356-1.13
		c0-0.447-0.11-0.799-0.331-1.057c-0.221-0.258-0.563-0.387-1.028-0.387c-0.293,0-0.53,0.067-0.713,0.201
		c-0.182,0.133-0.332,0.306-0.448,0.519l-0.84-0.12l0.72-3.36h3.12v0.84h-2.445l-0.337,1.616c0.377-0.277,0.773-0.416,1.186-0.416
		c0.549,0,1.012,0.197,1.39,0.592c0.377,0.395,0.566,0.903,0.566,1.523c0,0.591-0.172,1.102-0.516,1.532
		c-0.417,0.529-0.988,0.793-1.711,0.793c-0.593,0-1.076-0.164-1.451-0.493C226.041,217.016,225.827,216.58,225.773,216.038
		L225.773,216.038z"/>
	<path style="fill-rule:evenodd;clip-rule:evenodd;" d="M221.213,235.459h-0.84v-5.049c-0.187,0.182-0.434,0.364-0.739,0.546
		c-0.305,0.182-0.578,0.319-0.821,0.41v-0.767c0.441-0.209,0.827-0.461,1.157-0.758c0.33-0.296,0.564-0.583,0.701-0.862h0.542
		V235.459z"/>
	<path style="fill-rule:evenodd;clip-rule:evenodd;" d="M227.453,234.619v0.84h-4.32c-0.005-0.2,0.024-0.392,0.088-0.576
		c0.104-0.305,0.27-0.6,0.499-0.885c0.229-0.285,0.571-0.602,1.027-0.95c0.708-0.594,1.176-1.049,1.404-1.366
		c0.228-0.317,0.342-0.627,0.342-0.929c0-0.297-0.109-0.546-0.326-0.749c-0.218-0.203-0.501-0.305-0.85-0.305
		c-0.37,0-0.666,0.106-0.887,0.319c-0.222,0.212-0.334,0.506-0.337,0.881l-0.84-0.12c0.055-0.586,0.263-1.033,0.625-1.34
		c0.362-0.307,0.848-0.46,1.456-0.46c0.615,0,1.102,0.171,1.461,0.512c0.359,0.341,0.538,0.764,0.538,1.269
		c0,0.256-0.048,0.508-0.143,0.756c-0.096,0.247-0.255,0.508-0.478,0.783c-0.222,0.274-0.611,0.645-1.168,1.112
		c-0.481,0.389-0.793,0.653-0.935,0.791c-0.143,0.138-0.261,0.277-0.355,0.417H227.453z"/>
	<path style="fill-rule:evenodd;clip-rule:evenodd;" d="M229.527,231.956c-0.338-0.12-0.588-0.291-0.75-0.514
		c-0.163-0.223-0.244-0.49-0.244-0.8c0-0.47,0.168-0.865,0.505-1.184c0.337-0.319,0.785-0.479,1.344-0.479
		c0.562,0,1.015,0.163,1.357,0.49c0.343,0.327,0.514,0.725,0.514,1.194c0,0.3-0.08,0.56-0.241,0.782
		c-0.161,0.221-0.405,0.391-0.732,0.511c0.395,0.13,0.696,0.34,0.903,0.628s0.31,0.632,0.31,1.034c0,0.553-0.193,1.019-0.578,1.396
		c-0.386,0.377-0.893,0.565-1.522,0.565s-1.136-0.189-1.522-0.568c-0.385-0.379-0.578-0.851-0.578-1.416
		c0-0.421,0.107-0.774,0.321-1.058C228.827,232.252,229.132,232.059,229.527,231.956L229.527,231.956z M229.373,230.635
		c0,0.288,0.085,0.525,0.256,0.708c0.171,0.184,0.428,0.276,0.773,0.276c0.335,0,0.588-0.091,0.757-0.274
		c0.169-0.182,0.254-0.405,0.254-0.669c0-0.275-0.087-0.507-0.262-0.695c-0.175-0.188-0.428-0.282-0.758-0.282
		c-0.332,0-0.586,0.092-0.759,0.276C229.46,230.158,229.373,230.378,229.373,230.635L229.373,230.635z M229.133,233.586
		c0,0.217,0.041,0.428,0.124,0.632c0.082,0.203,0.235,0.361,0.458,0.473s0.451,0.168,0.684,0.168c0.403,0,0.713-0.118,0.93-0.353
		c0.216-0.235,0.324-0.533,0.324-0.894c0-0.367-0.112-0.671-0.335-0.912c-0.223-0.241-0.537-0.361-0.944-0.361
		c-0.397,0-0.703,0.119-0.918,0.356C229.241,232.933,229.133,233.23,229.133,233.586L229.133,233.586z"/>
	<polygon style="fill-rule:evenodd;clip-rule:evenodd;" points="264.719,141.074 262.557,141.074 262.557,141.812 264.719,141.812 
		276.017,141.812 278.179,141.812 278.179,141.074 276.017,141.074 	"/>
	<path style="fill-rule:evenodd;clip-rule:evenodd;" d="M265.417,135.395h-0.84v-5.049c-0.187,0.182-0.434,0.364-0.739,0.546
		c-0.305,0.182-0.578,0.319-0.821,0.41v-0.767c0.441-0.209,0.827-0.461,1.157-0.758c0.33-0.296,0.564-0.583,0.701-0.862h0.542
		V135.395z"/>
	<path style="fill-rule:evenodd;clip-rule:evenodd;" d="M267.457,132.217c0-0.764,0.081-1.389,0.242-1.875
		c0.161-0.486,0.401-0.846,0.718-1.078c0.318-0.233,0.718-0.349,1.2-0.349c0.355,0,0.677,0.07,0.965,0.209
		c0.288,0.139,0.509,0.341,0.664,0.604s0.283,0.584,0.382,0.962c0.099,0.378,0.149,0.887,0.149,1.527
		c0,0.759-0.08,1.381-0.239,1.866c-0.159,0.486-0.398,0.846-0.716,1.08c-0.318,0.235-0.72,0.352-1.205,0.352
		c-0.639,0-1.141-0.203-1.506-0.609C267.675,134.327,267.457,133.431,267.457,132.217L267.457,132.217z M268.297,132.215
		c0,1.075,0.127,1.774,0.381,2.096c0.253,0.323,0.567,0.484,0.939,0.484c0.373,0,0.686-0.162,0.939-0.486
		c0.254-0.323,0.381-1.022,0.381-2.094c0-1.038-0.122-1.727-0.366-2.068c-0.243-0.341-0.565-0.512-0.963-0.512
		c-0.373,0-0.68,0.151-0.923,0.452C268.426,130.471,268.297,131.18,268.297,132.215L268.297,132.215z"/>
	<path style="fill-rule:evenodd;clip-rule:evenodd;" d="M272.497,133.715l0.84-0.12c0.063,0.399,0.198,0.698,0.405,0.899
		c0.208,0.201,0.492,0.301,0.853,0.301c0.446,0,0.788-0.142,1.026-0.426c0.237-0.283,0.356-0.66,0.356-1.13
		c0-0.447-0.11-0.799-0.331-1.057c-0.221-0.258-0.563-0.387-1.028-0.387c-0.293,0-0.53,0.067-0.713,0.201
		c-0.182,0.133-0.332,0.306-0.448,0.519l-0.84-0.12l0.72-3.36h3.12v0.84h-2.445l-0.337,1.616c0.377-0.277,0.773-0.416,1.186-0.416
		c0.549,0,1.012,0.197,1.39,0.592c0.377,0.395,0.566,0.903,0.566,1.523c0,0.591-0.172,1.102-0.516,1.532
		c-0.417,0.529-0.988,0.793-1.711,0.793c-0.593,0-1.076-0.164-1.451-0.493C272.765,134.693,272.551,134.257,272.497,133.715
		L272.497,133.715z"/>
	<path style="fill-rule:evenodd;clip-rule:evenodd;" d="M262.417,151.456l0.84-0.12c0.063,0.399,0.198,0.698,0.405,0.899
		c0.208,0.201,0.492,0.301,0.853,0.301c0.446,0,0.788-0.142,1.026-0.426c0.237-0.283,0.356-0.66,0.356-1.13
		c0-0.447-0.11-0.799-0.331-1.057c-0.221-0.258-0.563-0.387-1.028-0.387c-0.293,0-0.53,0.067-0.713,0.201
		c-0.182,0.133-0.332,0.306-0.448,0.519l-0.84-0.12l0.72-3.36h3.12v0.84h-2.445l-0.337,1.616c0.377-0.277,0.773-0.416,1.186-0.416
		c0.549,0,1.012,0.197,1.39,0.592c0.377,0.395,0.566,0.903,0.566,1.523c0,0.591-0.172,1.102-0.516,1.532
		c-0.417,0.529-0.988,0.793-1.711,0.793c-0.593,0-1.076-0.164-1.451-0.493C262.685,152.434,262.471,151.998,262.417,151.456
		L262.417,151.456z"/>
	<path style="fill-rule:evenodd;clip-rule:evenodd;" d="M270.457,153.136h-0.84v-5.049c-0.187,0.182-0.434,0.364-0.739,0.546
		c-0.305,0.182-0.578,0.319-0.821,0.41v-0.767c0.441-0.209,0.827-0.461,1.157-0.758c0.33-0.296,0.564-0.583,0.701-0.862h0.542
		V153.136z"/>
	<path style="fill-rule:evenodd;clip-rule:evenodd;" d="M276.697,152.296v0.84h-4.32c-0.005-0.2,0.024-0.392,0.088-0.576
		c0.104-0.305,0.27-0.6,0.499-0.885c0.229-0.285,0.571-0.602,1.027-0.95c0.708-0.594,1.176-1.049,1.404-1.366
		c0.228-0.317,0.342-0.627,0.342-0.929c0-0.297-0.109-0.546-0.326-0.749c-0.218-0.203-0.501-0.305-0.85-0.305
		c-0.37,0-0.666,0.106-0.887,0.319c-0.222,0.212-0.334,0.506-0.337,0.881l-0.84-0.12c0.055-0.586,0.263-1.033,0.625-1.34
		s0.848-0.46,1.456-0.46c0.615,0,1.102,0.171,1.461,0.512c0.359,0.341,0.538,0.764,0.538,1.269c0,0.256-0.048,0.508-0.143,0.756
		c-0.096,0.247-0.255,0.508-0.478,0.783c-0.222,0.274-0.611,0.645-1.168,1.112c-0.481,0.389-0.793,0.653-0.935,0.791
		c-0.143,0.138-0.261,0.277-0.355,0.417H276.697z"/>
	<polygon style="fill-rule:evenodd;clip-rule:evenodd;" points="308.922,102.656 306.76,102.656 306.76,103.394 308.922,103.394 
		320.22,103.394 322.382,103.394 322.382,102.656 320.22,102.656 	"/>
	<path style="fill-rule:evenodd;clip-rule:evenodd;" d="M313.34,92.177l-0.84,0.12c-0.072-0.33-0.175-0.57-0.307-0.72
		c-0.22-0.24-0.492-0.36-0.814-0.36c-0.259,0-0.506,0.067-0.743,0.201c-0.216,0.172-0.398,0.424-0.545,0.756
		c-0.148,0.332-0.225,0.819-0.231,1.46c0.198-0.29,0.439-0.505,0.726-0.646c0.286-0.141,0.585-0.211,0.898-0.211
		c0.547,0,1.014,0.196,1.399,0.587c0.385,0.391,0.577,0.896,0.577,1.515c0,0.407-0.091,0.786-0.273,1.136s-0.432,0.618-0.75,0.804
		c-0.318,0.185-0.679,0.278-1.083,0.278c-0.687,0-1.248-0.243-1.682-0.729c-0.435-0.487-0.652-1.289-0.652-2.406
		c0-1.249,0.24-2.157,0.72-2.724c0.419-0.494,0.983-0.741,1.693-0.741c0.529,0,0.962,0.149,1.3,0.446
		C313.07,91.241,313.273,91.652,313.34,92.177L313.34,92.177z M309.86,94.862c0,0.266,0.063,0.522,0.189,0.766
		c0.127,0.244,0.293,0.43,0.499,0.558c0.206,0.127,0.454,0.191,0.743,0.191c0.403,0,0.726-0.132,0.967-0.396
		c0.241-0.263,0.362-0.622,0.362-1.076c0-0.436-0.119-0.78-0.357-1.031c-0.238-0.251-0.574-0.377-1.006-0.377
		c-0.389,0-0.719,0.126-0.99,0.377C309.996,94.125,309.86,94.454,309.86,94.862L309.86,94.862z"/>
	<path style="fill-rule:evenodd;clip-rule:evenodd;" d="M314.18,95.297l0.84-0.12c0.093,0.425,0.24,0.731,0.443,0.919
		c0.202,0.187,0.483,0.281,0.843,0.281c0.42,0,0.751-0.123,0.992-0.37s0.362-0.553,0.362-0.916c0-0.348-0.121-0.635-0.363-0.861
		c-0.242-0.226-0.549-0.339-0.923-0.339c-0.153,0-0.343,0.028-0.57,0.086l0.09-0.72c0.054,0.006,0.096,0.009,0.127,0.009
		c0.328,0,0.623-0.086,0.885-0.259c0.263-0.173,0.394-0.44,0.394-0.8c0-0.285-0.096-0.521-0.287-0.709
		c-0.191-0.187-0.437-0.281-0.739-0.281c-0.3,0-0.549,0.09-0.749,0.27c-0.199,0.18-0.327,0.45-0.385,0.81l-0.84-0.12
		c0.098-0.534,0.318-0.947,0.663-1.24c0.344-0.293,0.772-0.44,1.283-0.44c0.354,0,0.679,0.077,0.976,0.23
		c0.297,0.153,0.524,0.362,0.682,0.627c0.157,0.265,0.236,0.545,0.236,0.842c0,0.282-0.075,0.54-0.224,0.772
		c-0.149,0.233-0.371,0.417-0.665,0.553c0.382,0.088,0.685,0.269,0.911,0.543c0.225,0.275,0.338,0.619,0.338,1.032
		c0,0.558-0.21,1.031-0.63,1.419c-0.42,0.388-0.951,0.582-1.594,0.582c-0.578,0-1.059-0.167-1.442-0.502
		C314.452,96.261,314.234,95.828,314.18,95.297L314.18,95.297z"/>
	<path style="fill-rule:evenodd;clip-rule:evenodd;" d="M310.82,113.878v0.84h-4.32c-0.005-0.2,0.024-0.392,0.088-0.576
		c0.104-0.305,0.27-0.6,0.499-0.885c0.229-0.285,0.571-0.602,1.027-0.95c0.708-0.594,1.176-1.049,1.404-1.366
		s0.342-0.627,0.342-0.929c0-0.297-0.109-0.546-0.326-0.749c-0.218-0.203-0.501-0.305-0.85-0.305c-0.37,0-0.666,0.106-0.887,0.319
		c-0.222,0.212-0.334,0.506-0.337,0.881l-0.84-0.12c0.055-0.586,0.263-1.033,0.625-1.34s0.848-0.46,1.456-0.46
		c0.615,0,1.102,0.171,1.461,0.512s0.538,0.764,0.538,1.269c0,0.256-0.048,0.508-0.143,0.756c-0.096,0.247-0.255,0.508-0.478,0.783
		c-0.222,0.274-0.611,0.645-1.168,1.112c-0.481,0.389-0.793,0.653-0.935,0.791c-0.143,0.138-0.261,0.277-0.355,0.417H310.82z"/>
	<path style="fill-rule:evenodd;clip-rule:evenodd;" d="M311.66,113.038l0.84-0.12c0.063,0.399,0.198,0.698,0.405,0.899
		c0.208,0.201,0.492,0.301,0.853,0.301c0.446,0,0.788-0.142,1.026-0.426c0.237-0.283,0.356-0.66,0.356-1.13
		c0-0.447-0.11-0.799-0.331-1.057s-0.563-0.387-1.028-0.387c-0.293,0-0.53,0.067-0.713,0.201c-0.182,0.133-0.332,0.306-0.448,0.519
		l-0.84-0.12l0.72-3.36h3.12v0.84h-2.445l-0.337,1.616c0.377-0.277,0.773-0.416,1.186-0.416c0.549,0,1.012,0.197,1.39,0.592
		c0.377,0.395,0.566,0.903,0.566,1.523c0,0.591-0.172,1.102-0.516,1.532c-0.417,0.529-0.988,0.793-1.711,0.793
		c-0.593,0-1.076-0.164-1.451-0.493C311.928,114.016,311.714,113.58,311.66,113.038L311.66,113.038z"/>
	<path style="fill-rule:evenodd;clip-rule:evenodd;" d="M320.9,109.918l-0.84,0.12c-0.072-0.33-0.175-0.57-0.307-0.72
		c-0.22-0.24-0.492-0.36-0.814-0.36c-0.259,0-0.506,0.067-0.743,0.201c-0.216,0.172-0.398,0.424-0.545,0.756
		c-0.148,0.332-0.225,0.819-0.231,1.46c0.198-0.29,0.439-0.505,0.726-0.646c0.286-0.141,0.585-0.211,0.898-0.211
		c0.547,0,1.014,0.196,1.399,0.587c0.385,0.391,0.577,0.896,0.577,1.515c0,0.407-0.091,0.786-0.273,1.136
		c-0.182,0.35-0.432,0.618-0.75,0.804c-0.318,0.185-0.679,0.278-1.083,0.278c-0.687,0-1.248-0.243-1.682-0.729
		c-0.435-0.487-0.652-1.289-0.652-2.406c0-1.249,0.24-2.157,0.72-2.724c0.419-0.494,0.983-0.741,1.693-0.741
		c0.529,0,0.962,0.149,1.3,0.446C320.63,108.982,320.833,109.393,320.9,109.918L320.9,109.918z M317.42,112.603
		c0,0.266,0.063,0.522,0.189,0.766c0.127,0.244,0.293,0.43,0.499,0.558c0.206,0.127,0.454,0.191,0.743,0.191
		c0.403,0,0.726-0.132,0.967-0.396c0.241-0.263,0.362-0.622,0.362-1.076c0-0.436-0.119-0.78-0.357-1.031
		c-0.238-0.251-0.574-0.377-1.006-0.377c-0.389,0-0.719,0.126-0.99,0.377C317.556,111.866,317.42,112.195,317.42,112.603
		L317.42,112.603z"/>
	<polygon style="fill-rule:evenodd;clip-rule:evenodd;" points="353.125,141.074 350.963,141.074 350.963,141.812 353.125,141.812 
		364.423,141.812 366.585,141.812 366.585,141.074 364.423,141.074 	"/>
	<path style="fill-rule:evenodd;clip-rule:evenodd;" d="M353.823,135.395h-0.84v-5.049c-0.187,0.182-0.434,0.364-0.739,0.546
		c-0.305,0.182-0.578,0.319-0.821,0.41v-0.767c0.441-0.209,0.827-0.461,1.157-0.758c0.33-0.296,0.564-0.583,0.701-0.862h0.542
		V135.395z"/>
	<path style="fill-rule:evenodd;clip-rule:evenodd;" d="M355.863,132.217c0-0.764,0.081-1.389,0.242-1.875
		c0.161-0.486,0.401-0.846,0.718-1.078c0.318-0.233,0.718-0.349,1.2-0.349c0.355,0,0.677,0.07,0.965,0.209
		c0.288,0.139,0.509,0.341,0.664,0.604c0.155,0.263,0.283,0.584,0.382,0.962s0.149,0.887,0.149,1.527
		c0,0.759-0.08,1.381-0.239,1.866c-0.159,0.486-0.398,0.846-0.716,1.08c-0.318,0.235-0.72,0.352-1.205,0.352
		c-0.639,0-1.141-0.203-1.506-0.609C356.081,134.327,355.863,133.431,355.863,132.217L355.863,132.217z M356.703,132.215
		c0,1.075,0.127,1.774,0.381,2.096c0.253,0.323,0.567,0.484,0.939,0.484c0.373,0,0.686-0.162,0.939-0.486
		c0.254-0.323,0.381-1.022,0.381-2.094c0-1.038-0.122-1.727-0.366-2.068c-0.243-0.341-0.565-0.512-0.963-0.512
		c-0.373,0-0.68,0.151-0.923,0.452C356.832,130.471,356.703,131.18,356.703,132.215L356.703,132.215z"/>
	<path style="fill-rule:evenodd;clip-rule:evenodd;" d="M360.903,133.715l0.84-0.12c0.063,0.399,0.198,0.698,0.405,0.899
		c0.208,0.201,0.492,0.301,0.853,0.301c0.446,0,0.788-0.142,1.026-0.426c0.237-0.283,0.356-0.66,0.356-1.13
		c0-0.447-0.11-0.799-0.331-1.057c-0.221-0.258-0.563-0.387-1.028-0.387c-0.293,0-0.53,0.067-0.713,0.201
		c-0.182,0.133-0.332,0.306-0.448,0.519l-0.84-0.12l0.72-3.36h3.12v0.84h-2.445l-0.337,1.616c0.377-0.277,0.773-0.416,1.186-0.416
		c0.549,0,1.012,0.197,1.39,0.592c0.377,0.395,0.566,0.903,0.566,1.523c0,0.591-0.172,1.102-0.516,1.532
		c-0.417,0.529-0.988,0.793-1.711,0.793c-0.593,0-1.076-0.164-1.451-0.493C361.171,134.693,360.957,134.257,360.903,133.715
		L360.903,133.715z"/>
	<path style="fill-rule:evenodd;clip-rule:evenodd;" d="M350.823,151.456l0.84-0.12c0.063,0.399,0.198,0.698,0.405,0.899
		c0.208,0.201,0.492,0.301,0.853,0.301c0.446,0,0.788-0.142,1.026-0.426c0.237-0.283,0.356-0.66,0.356-1.13
		c0-0.447-0.11-0.799-0.331-1.057c-0.221-0.258-0.563-0.387-1.028-0.387c-0.293,0-0.53,0.067-0.713,0.201
		c-0.182,0.133-0.332,0.306-0.448,0.519l-0.84-0.12l0.72-3.36h3.12v0.84h-2.445l-0.337,1.616c0.377-0.277,0.773-0.416,1.186-0.416
		c0.549,0,1.012,0.197,1.39,0.592c0.377,0.395,0.566,0.903,0.566,1.523c0,0.591-0.172,1.102-0.516,1.532
		c-0.417,0.529-0.988,0.793-1.711,0.793c-0.593,0-1.076-0.164-1.451-0.493C351.091,152.434,350.877,151.998,350.823,151.456
		L350.823,151.456z"/>
	<path style="fill-rule:evenodd;clip-rule:evenodd;" d="M358.863,153.136h-0.84v-5.049c-0.187,0.182-0.434,0.364-0.739,0.546
		c-0.305,0.182-0.578,0.319-0.821,0.41v-0.767c0.441-0.209,0.827-0.461,1.157-0.758c0.33-0.296,0.564-0.583,0.701-0.862h0.542
		V153.136z"/>
	<path style="fill-rule:evenodd;clip-rule:evenodd;" d="M365.103,152.296v0.84h-4.32c-0.005-0.2,0.024-0.392,0.088-0.576
		c0.104-0.305,0.27-0.6,0.499-0.885s0.571-0.602,1.027-0.95c0.708-0.594,1.176-1.049,1.404-1.366s0.342-0.627,0.342-0.929
		c0-0.297-0.109-0.546-0.326-0.749c-0.218-0.203-0.501-0.305-0.85-0.305c-0.37,0-0.666,0.106-0.887,0.319
		c-0.222,0.212-0.334,0.506-0.337,0.881l-0.84-0.12c0.055-0.586,0.263-1.033,0.625-1.34s0.848-0.46,1.456-0.46
		c0.615,0,1.102,0.171,1.461,0.512c0.359,0.341,0.538,0.764,0.538,1.269c0,0.256-0.048,0.508-0.143,0.756
		c-0.096,0.247-0.255,0.508-0.478,0.783c-0.222,0.274-0.611,0.645-1.168,1.112c-0.481,0.389-0.793,0.653-0.935,0.791
		c-0.143,0.138-0.261,0.277-0.355,0.417H365.103z"/>
	<polygon style="fill-rule:evenodd;clip-rule:evenodd;" points="397.329,223.397 395.167,223.397 395.167,224.135 397.329,224.135 
		408.627,224.135 410.789,224.135 410.789,223.397 408.627,223.397 	"/>
	<path style="fill-rule:evenodd;clip-rule:evenodd;" d="M400.547,217.718h-0.84v-5.049c-0.187,0.182-0.434,0.364-0.739,0.546
		c-0.305,0.182-0.578,0.319-0.821,0.41v-0.767c0.441-0.209,0.827-0.461,1.157-0.758c0.33-0.296,0.564-0.583,0.701-0.862h0.542
		V217.718z"/>
	<path style="fill-rule:evenodd;clip-rule:evenodd;" d="M402.587,216.038l0.84-0.12c0.063,0.399,0.198,0.698,0.405,0.899
		c0.208,0.201,0.492,0.301,0.853,0.301c0.446,0,0.788-0.142,1.026-0.426c0.237-0.283,0.356-0.66,0.356-1.13
		c0-0.447-0.11-0.799-0.331-1.057c-0.221-0.258-0.563-0.387-1.028-0.387c-0.293,0-0.53,0.067-0.713,0.201
		c-0.182,0.133-0.332,0.306-0.448,0.519l-0.84-0.12l0.72-3.36h3.12v0.84h-2.445l-0.337,1.616c0.377-0.277,0.773-0.416,1.186-0.416
		c0.549,0,1.012,0.197,1.39,0.592c0.377,0.395,0.566,0.903,0.566,1.523c0,0.591-0.172,1.102-0.516,1.532
		c-0.417,0.529-0.988,0.793-1.711,0.793c-0.593,0-1.076-0.164-1.451-0.493C402.855,217.016,402.641,216.58,402.587,216.038
		L402.587,216.038z"/>
	<path style="fill-rule:evenodd;clip-rule:evenodd;" d="M398.027,235.459h-0.84v-5.049c-0.187,0.182-0.434,0.364-0.739,0.546
		c-0.305,0.182-0.578,0.319-0.821,0.41v-0.767c0.441-0.209,0.827-0.461,1.157-0.758c0.33-0.296,0.564-0.583,0.701-0.862h0.542
		V235.459z"/>
	<path style="fill-rule:evenodd;clip-rule:evenodd;" d="M404.267,234.619v0.84h-4.32c-0.005-0.2,0.024-0.392,0.088-0.576
		c0.104-0.305,0.27-0.6,0.499-0.885c0.229-0.285,0.571-0.602,1.027-0.95c0.708-0.594,1.176-1.049,1.404-1.366
		c0.228-0.317,0.342-0.627,0.342-0.929c0-0.297-0.109-0.546-0.326-0.749c-0.218-0.203-0.501-0.305-0.85-0.305
		c-0.37,0-0.666,0.106-0.887,0.319c-0.222,0.212-0.334,0.506-0.337,0.881l-0.84-0.12c0.055-0.586,0.263-1.033,0.625-1.34
		c0.362-0.307,0.848-0.46,1.456-0.46c0.615,0,1.102,0.171,1.461,0.512c0.359,0.341,0.538,0.764,0.538,1.269
		c0,0.256-0.048,0.508-0.143,0.756c-0.096,0.247-0.255,0.508-0.478,0.783c-0.222,0.274-0.611,0.645-1.168,1.112
		c-0.481,0.389-0.793,0.653-0.935,0.791c-0.143,0.138-0.261,0.277-0.355,0.417H404.267z"/>
	<path style="fill-rule:evenodd;clip-rule:evenodd;" d="M406.341,231.956c-0.338-0.12-0.588-0.291-0.75-0.514
		c-0.163-0.223-0.244-0.49-0.244-0.8c0-0.47,0.168-0.865,0.505-1.184s0.785-0.479,1.344-0.479c0.562,0,1.015,0.163,1.357,0.49
		c0.343,0.327,0.514,0.725,0.514,1.194c0,0.3-0.08,0.56-0.241,0.782c-0.161,0.221-0.405,0.391-0.732,0.511
		c0.395,0.13,0.696,0.34,0.903,0.628s0.31,0.632,0.31,1.034c0,0.553-0.193,1.019-0.578,1.396c-0.386,0.377-0.893,0.565-1.522,0.565
		s-1.136-0.189-1.522-0.568c-0.385-0.379-0.578-0.851-0.578-1.416c0-0.421,0.107-0.774,0.321-1.058
		C405.641,232.252,405.946,232.059,406.341,231.956L406.341,231.956z M406.187,230.635c0,0.288,0.085,0.525,0.256,0.708
		c0.171,0.184,0.428,0.276,0.773,0.276c0.335,0,0.588-0.091,0.757-0.274c0.169-0.182,0.254-0.405,0.254-0.669
		c0-0.275-0.087-0.507-0.262-0.695c-0.175-0.188-0.428-0.282-0.758-0.282c-0.332,0-0.586,0.092-0.759,0.276
		C406.274,230.158,406.187,230.378,406.187,230.635L406.187,230.635z M405.947,233.586c0,0.217,0.041,0.428,0.124,0.632
		c0.082,0.203,0.235,0.361,0.458,0.473s0.451,0.168,0.684,0.168c0.403,0,0.713-0.118,0.93-0.353
		c0.216-0.235,0.324-0.533,0.324-0.894c0-0.367-0.112-0.671-0.335-0.912c-0.223-0.241-0.537-0.361-0.944-0.361
		c-0.397,0-0.703,0.119-0.918,0.356C406.055,232.933,405.947,233.23,405.947,233.586L405.947,233.586z"/>
	<polygon style="fill-rule:evenodd;clip-rule:evenodd;" points="439.012,292 436.85,292 436.85,292.738 439.012,292.738 
		455.35,292.738 457.512,292.738 457.512,292 455.35,292 	"/>
	<path style="fill-rule:evenodd;clip-rule:evenodd;" d="M444.39,286.321v-1.56h-2.88v-0.84l3.12-3.96h0.6v3.96h0.84v0.84h-0.84v1.56
		H444.39z M444.39,283.921v-2.338l-1.843,2.338H444.39z"/>
	<path style="fill-rule:evenodd;clip-rule:evenodd;" d="M446.79,284.641l0.84-0.12c0.063,0.399,0.198,0.698,0.405,0.899
		c0.208,0.201,0.492,0.301,0.853,0.301c0.446,0,0.788-0.142,1.026-0.426c0.237-0.283,0.356-0.66,0.356-1.13
		c0-0.447-0.11-0.799-0.331-1.057c-0.221-0.258-0.563-0.387-1.028-0.387c-0.293,0-0.53,0.067-0.713,0.201
		c-0.182,0.133-0.332,0.306-0.448,0.519l-0.84-0.12l0.72-3.36h3.12v0.84h-2.445l-0.337,1.616c0.377-0.277,0.773-0.416,1.186-0.416
		c0.549,0,1.012,0.197,1.39,0.592c0.377,0.395,0.566,0.903,0.566,1.523c0,0.591-0.172,1.102-0.516,1.532
		c-0.417,0.529-0.988,0.793-1.711,0.793c-0.593,0-1.076-0.164-1.451-0.493C447.058,285.619,446.844,285.183,446.79,284.641
		L446.79,284.641z"/>
	<path style="fill-rule:evenodd;clip-rule:evenodd;" d="M439.71,304.062h-0.84v-5.049c-0.187,0.182-0.434,0.364-0.739,0.546
		c-0.305,0.182-0.578,0.319-0.821,0.41v-0.767c0.441-0.209,0.827-0.461,1.157-0.758c0.33-0.296,0.564-0.583,0.701-0.862h0.542
		V304.062z"/>
	<path style="fill-rule:evenodd;clip-rule:evenodd;" d="M441.75,300.884c0-0.764,0.081-1.389,0.242-1.875
		c0.161-0.486,0.401-0.846,0.718-1.078c0.318-0.233,0.718-0.349,1.2-0.349c0.355,0,0.677,0.07,0.965,0.209
		c0.288,0.139,0.509,0.341,0.664,0.604c0.155,0.263,0.283,0.584,0.382,0.962c0.099,0.378,0.149,0.887,0.149,1.527
		c0,0.759-0.08,1.381-0.239,1.866c-0.159,0.486-0.398,0.846-0.716,1.08c-0.318,0.235-0.72,0.352-1.205,0.352
		c-0.639,0-1.141-0.203-1.506-0.609C441.968,302.994,441.75,302.098,441.75,300.884L441.75,300.884z M442.59,300.882
		c0,1.075,0.127,1.774,0.381,2.096c0.253,0.323,0.567,0.484,0.939,0.484c0.373,0,0.686-0.162,0.939-0.486
		c0.254-0.323,0.381-1.022,0.381-2.094c0-1.038-0.122-1.727-0.366-2.068c-0.243-0.341-0.565-0.512-0.963-0.512
		c-0.373,0-0.68,0.151-0.923,0.452C442.719,299.138,442.59,299.847,442.59,300.882L442.59,300.882z"/>
	<path style="fill-rule:evenodd;clip-rule:evenodd;" d="M450.99,303.222v0.84h-4.32c-0.005-0.2,0.024-0.392,0.088-0.576
		c0.104-0.305,0.27-0.6,0.499-0.885c0.229-0.285,0.571-0.602,1.027-0.95c0.708-0.594,1.176-1.049,1.404-1.366
		s0.342-0.627,0.342-0.929c0-0.297-0.109-0.546-0.326-0.749c-0.218-0.203-0.501-0.305-0.85-0.305c-0.37,0-0.666,0.106-0.887,0.319
		c-0.222,0.212-0.334,0.506-0.337,0.881l-0.84-0.12c0.055-0.586,0.263-1.033,0.625-1.34s0.848-0.46,1.456-0.46
		c0.615,0,1.102,0.171,1.461,0.512c0.359,0.341,0.538,0.764,0.538,1.269c0,0.256-0.048,0.508-0.143,0.756
		c-0.096,0.247-0.255,0.508-0.478,0.783c-0.222,0.274-0.611,0.645-1.168,1.112c-0.481,0.389-0.793,0.653-0.935,0.791
		c-0.143,0.138-0.261,0.277-0.355,0.417H450.99z"/>
	<path style="fill-rule:evenodd;clip-rule:evenodd;" d="M454.47,304.062v-1.56h-2.88v-0.84l3.12-3.96h0.6v3.96h0.84v0.84h-0.84v1.56
		H454.47z M454.47,301.662v-2.338l-1.843,2.338H454.47z"/>
	<polygon style="fill-rule:evenodd;clip-rule:evenodd;" points="485.735,324.015 483.573,324.015 483.573,324.753 485.735,324.753 
		497.033,324.753 499.195,324.753 499.195,324.015 497.033,324.015 	"/>
	<path style="fill-rule:evenodd;clip-rule:evenodd;" d="M488.473,316.656l0.84-0.12c0.063,0.399,0.198,0.698,0.405,0.899
		c0.208,0.201,0.492,0.301,0.853,0.301c0.446,0,0.788-0.142,1.026-0.426c0.237-0.283,0.356-0.66,0.356-1.13
		c0-0.447-0.11-0.799-0.331-1.057c-0.221-0.258-0.563-0.387-1.028-0.387c-0.293,0-0.53,0.067-0.713,0.201
		c-0.182,0.133-0.332,0.306-0.448,0.519l-0.84-0.12l0.72-3.36h3.12v0.84h-2.445l-0.337,1.616c0.377-0.277,0.773-0.416,1.186-0.416
		c0.549,0,1.012,0.197,1.39,0.592c0.377,0.395,0.566,0.903,0.566,1.523c0,0.591-0.172,1.102-0.516,1.532
		c-0.417,0.529-0.988,0.793-1.711,0.793c-0.593,0-1.076-0.164-1.451-0.493C488.741,317.634,488.527,317.198,488.473,316.656
		L488.473,316.656z"/>
	<path style="fill-rule:evenodd;clip-rule:evenodd;" d="M483.433,334.397l0.84-0.12c0.063,0.399,0.198,0.698,0.405,0.899
		c0.208,0.201,0.492,0.301,0.853,0.301c0.446,0,0.788-0.142,1.026-0.426c0.237-0.283,0.356-0.66,0.356-1.13
		c0-0.447-0.11-0.799-0.331-1.057s-0.563-0.387-1.028-0.387c-0.293,0-0.53,0.067-0.713,0.201c-0.182,0.133-0.332,0.306-0.448,0.519
		l-0.84-0.12l0.72-3.36h3.12v0.84h-2.445l-0.337,1.616c0.377-0.277,0.773-0.416,1.186-0.416c0.549,0,1.012,0.197,1.39,0.592
		c0.377,0.395,0.566,0.903,0.566,1.523c0,0.591-0.172,1.102-0.516,1.532c-0.417,0.529-0.988,0.793-1.711,0.793
		c-0.593,0-1.076-0.164-1.451-0.493C483.701,335.375,483.487,334.939,483.433,334.397L483.433,334.397z"/>
	<path style="fill-rule:evenodd;clip-rule:evenodd;" d="M491.473,336.077h-0.84v-5.049c-0.187,0.182-0.434,0.364-0.739,0.546
		c-0.305,0.182-0.578,0.319-0.821,0.41v-0.767c0.441-0.209,0.827-0.461,1.157-0.758c0.33-0.296,0.564-0.583,0.701-0.862h0.542
		V336.077z"/>
	<path style="fill-rule:evenodd;clip-rule:evenodd;" d="M497.713,335.237v0.84h-4.32c-0.005-0.2,0.024-0.392,0.088-0.576
		c0.104-0.305,0.27-0.6,0.499-0.885c0.229-0.285,0.571-0.602,1.027-0.95c0.708-0.594,1.176-1.049,1.404-1.366
		c0.228-0.317,0.342-0.627,0.342-0.929c0-0.297-0.109-0.546-0.326-0.749c-0.218-0.203-0.501-0.305-0.85-0.305
		c-0.37,0-0.666,0.106-0.887,0.319c-0.222,0.212-0.334,0.506-0.337,0.881l-0.84-0.12c0.055-0.586,0.263-1.033,0.625-1.34
		c0.362-0.307,0.848-0.46,1.456-0.46c0.615,0,1.102,0.171,1.461,0.512s0.538,0.764,0.538,1.269c0,0.256-0.048,0.508-0.143,0.756
		c-0.096,0.247-0.255,0.508-0.478,0.783c-0.222,0.274-0.611,0.645-1.168,1.112c-0.481,0.389-0.793,0.653-0.935,0.791
		c-0.143,0.138-0.261,0.277-0.355,0.417H497.713z"/>
	<polygon style="fill-rule:evenodd;clip-rule:evenodd;" points="527.419,332.247 525.257,332.247 525.257,332.985 527.419,332.985 
		543.757,332.985 545.919,332.985 545.919,332.247 543.757,332.247 	"/>
	<path style="fill-rule:evenodd;clip-rule:evenodd;" d="M535.677,326.568h-0.84v-5.049c-0.187,0.182-0.434,0.364-0.739,0.546
		c-0.305,0.182-0.578,0.319-0.821,0.41v-0.767c0.441-0.209,0.827-0.461,1.157-0.758c0.33-0.296,0.564-0.583,0.701-0.862h0.542
		V326.568z"/>
	<path style="fill-rule:evenodd;clip-rule:evenodd;" d="M528.117,344.309h-0.84v-5.049c-0.187,0.182-0.434,0.364-0.739,0.546
		c-0.305,0.182-0.578,0.319-0.821,0.41v-0.767c0.441-0.209,0.827-0.461,1.157-0.758c0.33-0.296,0.564-0.583,0.701-0.862h0.542
		V344.309z"/>
	<path style="fill-rule:evenodd;clip-rule:evenodd;" d="M530.157,341.131c0-0.764,0.081-1.389,0.242-1.875
		c0.161-0.486,0.401-0.846,0.718-1.078c0.318-0.233,0.718-0.349,1.2-0.349c0.355,0,0.677,0.07,0.965,0.209
		c0.288,0.139,0.509,0.341,0.664,0.604c0.155,0.263,0.283,0.584,0.382,0.962c0.099,0.378,0.149,0.887,0.149,1.527
		c0,0.759-0.08,1.381-0.239,1.866c-0.159,0.486-0.398,0.846-0.716,1.08c-0.318,0.235-0.72,0.352-1.205,0.352
		c-0.639,0-1.141-0.203-1.506-0.609C530.375,343.241,530.157,342.345,530.157,341.131L530.157,341.131z M530.997,341.129
		c0,1.075,0.127,1.774,0.381,2.096c0.253,0.323,0.567,0.484,0.939,0.484c0.373,0,0.686-0.162,0.939-0.486
		c0.254-0.323,0.381-1.022,0.381-2.094c0-1.038-0.122-1.727-0.366-2.068c-0.243-0.341-0.565-0.512-0.963-0.512
		c-0.373,0-0.68,0.151-0.923,0.452C531.126,339.385,530.997,340.094,530.997,341.129L530.997,341.129z"/>
	<path style="fill-rule:evenodd;clip-rule:evenodd;" d="M539.397,343.469v0.84h-4.32c-0.005-0.2,0.024-0.392,0.088-0.576
		c0.104-0.305,0.27-0.6,0.499-0.885c0.229-0.285,0.571-0.602,1.027-0.95c0.708-0.594,1.176-1.049,1.404-1.366
		c0.228-0.317,0.342-0.627,0.342-0.929c0-0.297-0.109-0.546-0.326-0.749c-0.218-0.203-0.501-0.305-0.85-0.305
		c-0.37,0-0.666,0.106-0.887,0.319c-0.222,0.212-0.334,0.506-0.337,0.881l-0.84-0.12c0.055-0.586,0.263-1.033,0.625-1.34
		c0.362-0.307,0.848-0.46,1.456-0.46c0.615,0,1.102,0.171,1.461,0.512s0.538,0.764,0.538,1.269c0,0.256-0.048,0.508-0.143,0.756
		c-0.096,0.247-0.255,0.508-0.478,0.783c-0.222,0.274-0.611,0.645-1.168,1.112c-0.481,0.389-0.793,0.653-0.935,0.791
		c-0.143,0.138-0.261,0.277-0.355,0.417H539.397z"/>
	<path style="fill-rule:evenodd;clip-rule:evenodd;" d="M542.877,344.309v-1.56h-2.88v-0.84l3.12-3.96h0.6v3.96h0.84v0.84h-0.84
		v1.56H542.877z M542.877,341.909v-2.338l-1.843,2.338H542.877z"/>
	
		<line style="fill:none;stroke:#FF0000;stroke-width:0.5;stroke-miterlimit:3.25;" x1="481.069" y1="263.104" x2="545.401" y2="263.104"/>
	<polygon style="fill:#FF0000;" points="482.413,266.664 482.218,266.267 481.793,265.315 481.567,264.742 481.371,264.165 
		481.235,263.627 481.189,263.174 481.235,262.764 481.371,262.234 481.567,261.637 481.793,261.028 482.218,259.987 
		482.413,259.545 469.152,263.174 482.413,266.664 	"/>
	
		<polygon style="fill:none;stroke:#FF0000;stroke-width:0.1;stroke-linecap:square;stroke-linejoin:bevel;stroke-miterlimit:3.25;" points="
		482.413,266.664 482.218,266.267 481.793,265.315 481.567,264.742 481.371,264.165 481.235,263.627 481.189,263.174 
		481.235,262.764 481.371,262.234 481.567,261.637 481.793,261.028 482.218,259.987 482.413,259.545 469.152,263.174 
		482.413,266.664 	"/>
	<polygon style="fill:#FF0000;" points="544.297,259.684 544.492,260.081 544.917,261.034 545.143,261.606 545.339,262.184 
		545.475,262.721 545.521,263.174 545.475,263.584 545.339,264.115 545.143,264.711 544.917,265.321 544.492,266.361 
		544.297,266.804 557.558,263.174 544.297,259.684 	"/>
	
		<polygon style="fill:none;stroke:#FF0000;stroke-width:0.1;stroke-linecap:square;stroke-linejoin:bevel;stroke-miterlimit:3.25;" points="
		544.297,259.684 544.492,260.081 544.917,261.034 545.143,261.606 545.339,262.184 545.475,262.721 545.521,263.174 
		545.475,263.584 545.339,264.115 545.143,264.711 544.917,265.321 544.492,266.361 544.297,266.804 557.558,263.174 
		544.297,259.684 	"/>
	<path style="fill-rule:evenodd;clip-rule:evenodd;" d="M514.071,256.654h-6.703v-1.922c0.726-0.347,1.353-0.76,1.881-1.238
		c0.527-0.478,0.961-1.015,1.3-1.609s0.591-1.239,0.756-1.933c0.164-0.695,0.246-1.432,0.246-2.212c0-0.81-0.105-1.6-0.317-2.372
		c-0.211-0.771-0.535-1.46-0.973-2.066c-0.437-0.606-0.99-1.092-1.657-1.459c-0.668-0.366-1.463-0.549-2.385-0.549
		c-0.906,0-1.691,0.187-2.355,0.562c-0.664,0.374-1.215,0.864-1.652,1.47c-0.438,0.605-0.762,1.294-0.973,2.066
		c-0.211,0.772-0.317,1.554-0.317,2.348c0,0.78,0.082,1.516,0.246,2.206c0.165,0.691,0.417,1.331,0.756,1.921
		s0.769,1.126,1.289,1.609c0.52,0.482,1.14,0.901,1.858,1.256v1.922h-6.703v-2.04h3.773c-1.164-0.918-2.051-1.986-2.66-3.205
		c-0.609-1.22-0.914-2.57-0.914-4.051c0-1.142,0.176-2.198,0.527-3.17c0.351-0.972,0.855-1.815,1.511-2.528
		c0.656-0.714,1.457-1.274,2.403-1.679c0.945-0.405,2.016-0.607,3.211-0.607c1.172,0,2.231,0.204,3.176,0.613
		c0.945,0.409,1.75,0.972,2.414,1.689c0.664,0.718,1.176,1.563,1.536,2.535c0.359,0.971,0.539,2.02,0.539,3.147
		c0,1.473-0.313,2.818-0.938,4.033s-1.508,2.289-2.649,3.223h3.774V256.654z"/>
	<path style="fill-rule:evenodd;clip-rule:evenodd;" d="M516.205,261.094l2.52-12.24h5.136c1.013,0,1.782,0.085,2.305,0.254
		c0.523,0.169,0.934,0.487,1.232,0.953c0.298,0.467,0.447,1.055,0.447,1.765c0,0.994-0.318,1.818-0.954,2.474
		c-0.637,0.656-1.665,1.08-3.085,1.274c0.45,0.345,0.79,0.684,1.02,1.016c0.484,0.7,0.873,1.425,1.168,2.173l0.975,2.331h-1.58
		l-0.938-2.402c-0.31-0.802-0.663-1.496-1.061-2.081c-0.415-0.351-0.776-0.592-1.084-0.722c-0.307-0.13-0.807-0.195-1.5-0.195
		h-2.023l-1.112,5.4H516.205z M519.079,254.254h2.38c1.101,0,1.819,0,2.152,0c0.625-0.059,1.137-0.193,1.537-0.404
		c0.399-0.211,0.709-0.494,0.928-0.849c0.219-0.356,0.329-0.738,0.329-1.147c0-0.345-0.085-0.645-0.254-0.901
		c-0.169-0.256-0.391-0.429-0.666-0.521c-0.274-0.092-0.741-0.138-1.401-0.138h-4.189L519.079,254.254z"/>
</g>
</svg>
