<?xml version="1.0" encoding="iso-8859-1"?>
<!-- Generator: Adobe Illustrator 28.7.3, SVG Export Plug-In . SVG Version: 9.03 Build 54978)  -->
<svg version="1.1" id="Layer_1" xmlns="http://www.w3.org/2000/svg" xmlns:xlink="http://www.w3.org/1999/xlink" x="0px" y="0px"
	 viewBox="0 0 797.96 503.827" style="enable-background:new 0 0 797.96 503.827;" xml:space="preserve">
<g>
	<g>
		<defs>
			<rect id="SVGID_1_" x="48.42" y="28.3" width="730" height="453"/>
		</defs>
		<clipPath id="SVGID_00000136394128321306422580000015872014447384178579_">
			<use xlink:href="#SVGID_1_"  style="overflow:visible;"/>
		</clipPath>
		
			<polyline style="clip-path:url(#SVGID_00000136394128321306422580000015872014447384178579_);fill:none;stroke:#5E81B5;stroke-width:1.6;stroke-linecap:square;stroke-miterlimit:3.25;" points="
			49.1,33.9 49.324,33.912 49.547,33.924 49.994,33.949 50.889,33.998 52.677,34.098 56.255,34.302 63.409,34.733 78.922,35.771 
			93.407,36.882 107.608,38.119 123.012,39.645 137.389,41.26 152.969,43.239 168.264,45.438 182.532,47.739 198.004,50.533 
			212.447,53.446 226.606,56.611 241.969,60.419 256.304,64.351 271.843,69.057 287.097,74.157 301.323,79.372 316.753,85.558 
			331.155,91.86 346.761,99.295 362.082,107.239 376.376,115.253 391.873,124.624 406.342,134.036 420.527,143.903 435.915,155.338 
			450.276,166.705 465.84,179.79 481.12,193.406 495.372,206.785 510.828,222.013 525.255,236.876 539.399,252.016 554.746,269.025 
			569.065,285.375 584.588,303.529 599.082,320.779 613.293,337.854 628.707,356.4 643.093,373.562 658.683,391.775 
			673.988,409.002 688.266,424.218 703.747,439.45 718.201,452.127 718.422,452.307 718.643,452.488 719.086,452.847 
			719.972,453.559 721.743,454.963 725.285,457.681 725.506,457.847 725.728,458.012 726.171,458.341 727.056,458.993 
			728.827,460.274 732.37,462.736 732.61,462.898 732.85,463.06 733.33,463.381 734.291,464.015 736.213,465.252 740.056,467.597 
			740.296,467.738 740.536,467.878 741.017,468.156 741.978,468.703 743.899,469.764 747.742,471.742 747.966,471.851 
			748.191,471.96 748.639,472.175 749.535,472.597 751.328,473.409 751.553,473.507 751.777,473.605 752.225,473.798 
			753.122,474.176 754.915,474.897 755.139,474.984 755.363,475.07 755.811,475.24 756.708,475.571 758.501,476.197 
			758.725,476.272 758.949,476.346 759.397,476.491 760.294,476.774 762.087,477.3 762.337,477.37 762.587,477.438 763.088,477.572 
			764.089,477.828 764.339,477.889 764.589,477.95 765.089,478.067 766.09,478.29 766.34,478.343 766.591,478.395 767.091,478.496 
			768.092,478.686 768.342,478.73 768.592,478.774 769.093,478.858 770.093,479.013 770.344,479.049 770.594,479.084 
			771.094,479.151 771.344,479.182 771.595,479.213 772.095,479.27 772.345,479.298 772.596,479.324 773.096,479.372 
			773.346,479.395 773.596,479.416 774.097,479.456 774.347,479.474 774.597,479.491 774.847,479.507 775.098,479.522 
			775.348,479.535 775.598,479.548 775.848,479.559 776.098,479.569 776.349,479.578 776.599,479.585 776.849,479.592 
			777.099,479.597 777.349,479.601 777.6,479.604 777.85,479.606 778.1,479.607 		"/>
	</g>
	<line style="fill:none;stroke:#000000;stroke-width:0.5;stroke-miterlimit:3.25;" x1="49.1" y1="479.607" x2="49.1" y2="475.601"/>
	<path style="fill-rule:evenodd;clip-rule:evenodd;" d="M33,495.133c0-2.015,0.208-3.647,0.624-4.895
		c0.417-1.248,1.035-2.195,1.857-2.842c0.821-0.646,1.854-0.969,3.099-0.969c0.919,0,1.734,0.184,2.447,0.552
		c0.712,0.368,1.284,0.899,1.716,1.593c0.431,0.694,0.775,1.538,1.032,2.534c0.257,0.996,0.385,2.338,0.385,4.027
		c0,1.998-0.206,3.622-0.619,4.871c-0.412,1.249-1.029,2.198-1.85,2.848c-0.822,0.65-1.858,0.975-3.111,0.975
		c-1.65,0-2.946-0.569-3.887-1.706C33.564,500.662,33,498.333,33,495.133L33,495.133z M35.16,495.187
		c0,2.831,0.329,4.699,0.986,5.603c0.658,0.905,1.469,1.357,2.434,1.357c0.965,0,1.776-0.454,2.434-1.362
		c0.657-0.908,0.986-2.774,0.986-5.598c0-2.8-0.324-4.66-0.971-5.58c-0.648-0.92-1.471-1.38-2.471-1.38
		c-0.965,0-1.746,0.406-2.342,1.219C35.512,490.482,35.16,492.396,35.16,495.187L35.16,495.187z"/>
	<rect x="47.4" y="501.307" style="fill-rule:evenodd;clip-rule:evenodd;" width="2.28" height="2.28"/>
	<path style="fill-rule:evenodd;clip-rule:evenodd;" d="M53.04,499.027l2.16-0.12c0.161,1.076,0.527,1.885,1.096,2.427
		c0.569,0.542,1.29,0.813,2.163,0.813c1.061,0,1.923-0.381,2.586-1.142c0.663-0.761,0.995-1.771,0.995-3.03
		c0-1.196-0.313-2.14-0.939-2.831c-0.627-0.691-1.501-1.037-2.623-1.037c-0.7,0-1.306,0.145-1.816,0.434
		c-0.511,0.289-0.918,0.665-1.222,1.126l-2.16-0.24l1.8-8.76h8.16v2.16h-6.585l-0.917,4.472c1.016-0.741,2.082-1.112,3.197-1.112
		c1.479,0,2.726,0.517,3.742,1.552c1.015,1.035,1.523,2.367,1.523,3.994c0,1.549-0.444,2.888-1.331,4.016
		c-1.08,1.385-2.554,2.078-4.421,2.078c-1.532,0-2.781-0.438-3.75-1.314C53.73,501.636,53.178,500.474,53.04,499.027L53.04,499.027z
		"/>
	
		<line style="fill:none;stroke:#000000;stroke-width:0.5;stroke-miterlimit:3.25;" x1="194.9" y1="479.607" x2="194.9" y2="475.601"/>
	<path style="fill-rule:evenodd;clip-rule:evenodd;" d="M178.8,495.133c0-2.015,0.208-3.647,0.624-4.895
		c0.417-1.248,1.035-2.195,1.857-2.842c0.821-0.646,1.854-0.969,3.099-0.969c0.919,0,1.734,0.184,2.447,0.552
		c0.712,0.368,1.284,0.899,1.716,1.593c0.431,0.694,0.775,1.538,1.032,2.534c0.257,0.996,0.385,2.338,0.385,4.027
		c0,1.998-0.206,3.622-0.619,4.871c-0.412,1.249-1.029,2.198-1.85,2.848c-0.822,0.65-1.858,0.975-3.111,0.975
		c-1.65,0-2.946-0.569-3.887-1.706C179.364,500.662,178.8,498.333,178.8,495.133L178.8,495.133z M180.96,495.187
		c0,2.831,0.329,4.699,0.986,5.603c0.658,0.905,1.469,1.357,2.434,1.357s1.776-0.454,2.434-1.362
		c0.657-0.908,0.986-2.774,0.986-5.598c0-2.8-0.324-4.66-0.971-5.58c-0.648-0.92-1.471-1.38-2.471-1.38
		c-0.965,0-1.746,0.406-2.342,1.219C181.312,490.482,180.96,492.396,180.96,495.187L180.96,495.187z"/>
	<rect x="193.2" y="501.307" style="fill-rule:evenodd;clip-rule:evenodd;" width="2.28" height="2.28"/>
	<path style="fill-rule:evenodd;clip-rule:evenodd;" d="M209.76,490.747l-2.16,0.12c-0.184-0.844-0.444-1.457-0.782-1.839
		c-0.56-0.614-1.25-0.921-2.072-0.921c-0.66,0-1.259,0.185-1.798,0.555c-0.611,0.479-1.105,1.178-1.481,2.097
		c-0.376,0.92-0.572,2.237-0.587,3.954c0.501-0.774,1.114-1.349,1.838-1.724c0.725-0.375,1.484-0.562,2.278-0.562
		c1.386,0,2.567,0.516,3.542,1.548c0.975,1.032,1.462,2.365,1.462,4c0,1.075-0.231,2.074-0.694,2.996
		c-0.462,0.923-1.097,1.629-1.905,2.12c-0.807,0.491-1.724,0.736-2.75,0.736c-1.748,0-3.173-0.641-4.276-1.924
		c-1.103-1.282-1.655-3.396-1.655-6.341c0-3.293,0.613-5.687,1.839-7.183c1.072-1.301,2.514-1.952,4.326-1.952
		c1.351,0,2.458,0.383,3.322,1.148C209.07,488.341,209.588,489.398,209.76,490.747L209.76,490.747z M201,498.043
		c0,0.722,0.156,1.414,0.468,2.075c0.312,0.661,0.738,1.165,1.28,1.511c0.541,0.345,1.14,0.518,1.796,0.518
		c0.941,0,1.726-0.358,2.354-1.073c0.628-0.715,0.942-1.686,0.942-2.915c0-1.181-0.31-2.112-0.93-2.792
		c-0.62-0.68-1.436-1.02-2.449-1.02c-0.963,0-1.781,0.34-2.453,1.02C201.336,496.047,201,496.939,201,498.043L201,498.043z"/>
	
		<line style="fill:none;stroke:#000000;stroke-width:0.5;stroke-miterlimit:3.25;" x1="340.7" y1="479.607" x2="340.7" y2="475.601"/>
	<path style="fill-rule:evenodd;clip-rule:evenodd;" d="M324.6,495.133c0-2.015,0.208-3.647,0.624-4.895
		c0.417-1.248,1.035-2.195,1.857-2.842c0.821-0.646,1.854-0.969,3.099-0.969c0.919,0,1.734,0.184,2.447,0.552
		c0.712,0.368,1.284,0.899,1.716,1.593c0.431,0.694,0.775,1.538,1.032,2.534c0.257,0.996,0.385,2.338,0.385,4.027
		c0,1.998-0.206,3.622-0.619,4.871c-0.412,1.249-1.029,2.198-1.85,2.848c-0.822,0.65-1.858,0.975-3.111,0.975
		c-1.65,0-2.946-0.569-3.887-1.706C325.164,500.662,324.6,498.333,324.6,495.133L324.6,495.133z M326.76,495.187
		c0,2.831,0.329,4.699,0.986,5.603c0.658,0.905,1.469,1.357,2.434,1.357c0.965,0,1.776-0.454,2.434-1.362
		c0.657-0.908,0.986-2.774,0.986-5.598c0-2.8-0.324-4.66-0.971-5.58c-0.648-0.92-1.471-1.38-2.471-1.38
		c-0.965,0-1.746,0.406-2.342,1.219C327.112,490.482,326.76,492.396,326.76,495.187L326.76,495.187z"/>
	<rect x="339" y="501.307" style="fill-rule:evenodd;clip-rule:evenodd;" width="2.28" height="2.28"/>
	<path style="fill-rule:evenodd;clip-rule:evenodd;" d="M344.64,488.827v-2.16h11.04v1.747c-1.082,1.172-2.155,2.711-3.217,4.619
		c-1.063,1.907-1.884,3.869-2.462,5.885c-0.418,1.421-0.685,2.978-0.801,4.669h-2.16c0.023-1.336,0.282-2.951,0.779-4.843
		c0.497-1.893,1.21-3.717,2.139-5.474c0.928-1.757,1.916-3.238,2.962-4.443H344.64z"/>
	
		<line style="fill:none;stroke:#000000;stroke-width:0.5;stroke-miterlimit:3.25;" x1="486.5" y1="479.607" x2="486.5" y2="475.601"/>
	<path style="fill-rule:evenodd;clip-rule:evenodd;" d="M470.4,495.133c0-2.015,0.208-3.647,0.624-4.895
		c0.417-1.248,1.035-2.195,1.857-2.842c0.821-0.646,1.854-0.969,3.099-0.969c0.919,0,1.734,0.184,2.447,0.552
		c0.712,0.368,1.284,0.899,1.716,1.593c0.431,0.694,0.775,1.538,1.032,2.534c0.257,0.996,0.385,2.338,0.385,4.027
		c0,1.998-0.206,3.622-0.619,4.871c-0.412,1.249-1.029,2.198-1.85,2.848c-0.822,0.65-1.858,0.975-3.111,0.975
		c-1.65,0-2.946-0.569-3.887-1.706C470.964,500.662,470.4,498.333,470.4,495.133L470.4,495.133z M472.56,495.187
		c0,2.831,0.329,4.699,0.986,5.603c0.658,0.905,1.469,1.357,2.434,1.357s1.776-0.454,2.434-1.362
		c0.657-0.908,0.986-2.774,0.986-5.598c0-2.8-0.324-4.66-0.971-5.58c-0.648-0.92-1.471-1.38-2.471-1.38
		c-0.965,0-1.746,0.406-2.342,1.219C472.912,490.482,472.56,492.396,472.56,495.187L472.56,495.187z"/>
	<rect x="484.8" y="501.307" style="fill-rule:evenodd;clip-rule:evenodd;" width="2.28" height="2.28"/>
	<path style="fill-rule:evenodd;clip-rule:evenodd;" d="M493.626,494.296c-0.878-0.317-1.528-0.77-1.951-1.359
		s-0.635-1.294-0.635-2.117c0-1.24,0.451-2.282,1.352-3.126c0.901-0.845,2.101-1.267,3.598-1.267c1.505,0,2.716,0.432,3.634,1.296
		c0.917,0.863,1.376,1.915,1.376,3.155c0,0.791-0.208,1.48-0.625,2.065c-0.417,0.585-1.051,1.036-1.901,1.353
		c1.019,0.342,1.795,0.892,2.327,1.651c0.533,0.76,0.799,1.666,0.799,2.72c0,1.456-0.512,2.68-1.537,3.672
		c-1.024,0.992-2.372,1.488-4.043,1.488c-1.671,0-3.019-0.498-4.043-1.493c-1.025-0.996-1.537-2.238-1.537-3.725
		c0-1.109,0.276-2.037,0.828-2.785C491.82,495.077,492.606,494.568,493.626,494.296L493.626,494.296z M493.2,490.736
		c0,0.815,0.253,1.48,0.76,1.997c0.507,0.516,1.202,0.774,2.084,0.774c0.858,0,1.538-0.256,2.041-0.769
		c0.503-0.512,0.755-1.14,0.755-1.884c0-0.775-0.259-1.427-0.778-1.955c-0.519-0.528-1.199-0.792-2.042-0.792
		c-0.85,0-1.532,0.258-2.047,0.774C493.458,489.398,493.2,490.016,493.2,490.736L493.2,490.736z M492.6,498.631
		c0,0.602,0.129,1.183,0.388,1.746c0.259,0.562,0.673,0.998,1.243,1.307s1.172,0.463,1.806,0.463c1.025,0,1.848-0.324,2.47-0.972
		c0.622-0.648,0.933-1.472,0.933-2.472c0-1.017-0.32-1.857-0.961-2.52c-0.641-0.664-1.477-0.996-2.51-0.996
		c-1.011,0-1.825,0.328-2.443,0.984C492.909,496.828,492.6,497.648,492.6,498.631L492.6,498.631z"/>
	
		<line style="fill:none;stroke:#000000;stroke-width:0.5;stroke-miterlimit:3.25;" x1="632.3" y1="479.607" x2="632.3" y2="475.601"/>
	<path style="fill-rule:evenodd;clip-rule:evenodd;" d="M616.2,495.133c0-2.015,0.208-3.647,0.624-4.895
		c0.417-1.248,1.035-2.195,1.857-2.842c0.821-0.646,1.854-0.969,3.099-0.969c0.919,0,1.734,0.184,2.447,0.552
		c0.712,0.368,1.284,0.899,1.716,1.593c0.431,0.694,0.775,1.538,1.032,2.534c0.257,0.996,0.385,2.338,0.385,4.027
		c0,1.998-0.206,3.622-0.619,4.871c-0.412,1.249-1.029,2.198-1.85,2.848c-0.822,0.65-1.858,0.975-3.111,0.975
		c-1.65,0-2.946-0.569-3.887-1.706C616.764,500.662,616.2,498.333,616.2,495.133L616.2,495.133z M618.36,495.187
		c0,2.831,0.329,4.699,0.986,5.603c0.658,0.905,1.469,1.357,2.434,1.357s1.776-0.454,2.434-1.362
		c0.657-0.908,0.986-2.774,0.986-5.598c0-2.8-0.324-4.66-0.971-5.58c-0.648-0.92-1.471-1.38-2.471-1.38
		c-0.965,0-1.746,0.406-2.342,1.219C618.712,490.482,618.36,492.396,618.36,495.187L618.36,495.187z"/>
	<rect x="630.6" y="501.307" style="fill-rule:evenodd;clip-rule:evenodd;" width="2.28" height="2.28"/>
	<path style="fill-rule:evenodd;clip-rule:evenodd;" d="M636.48,499.507l2.16-0.12c0.166,0.967,0.483,1.669,0.95,2.106
		c0.467,0.436,1.066,0.654,1.797,0.654c0.625,0,1.183-0.15,1.673-0.451c0.491-0.301,0.877-0.702,1.159-1.205
		c0.282-0.502,0.525-1.18,0.729-2.033c0.203-0.853,0.305-1.717,0.305-2.592c0-0.094-0.004-0.235-0.013-0.422
		c-0.414,0.672-0.978,1.218-1.694,1.636c-0.716,0.418-1.49,0.627-2.324,0.627c-1.393,0-2.571-0.509-3.535-1.527
		c-0.965-1.018-1.447-2.361-1.447-4.027c0-1.72,0.508-3.104,1.523-4.153c1.015-1.049,2.286-1.573,3.813-1.573
		c1.104,0,2.113,0.298,3.028,0.895c0.915,0.597,1.61,1.447,2.084,2.551c0.475,1.104,0.712,2.702,0.712,4.795
		c0,2.177-0.237,3.911-0.711,5.201c-0.473,1.29-1.178,2.272-2.115,2.946c-0.936,0.675-2.033,1.012-3.292,1.012
		c-1.336,0-2.428-0.378-3.275-1.133C637.16,501.938,636.651,500.876,636.48,499.507L636.48,499.507z M645.12,492.046
		c0-1.171-0.309-2.1-0.927-2.788c-0.618-0.687-1.396-1.031-2.334-1.031c-0.968,0-1.787,0.37-2.456,1.111
		c-0.669,0.741-1.003,1.7-1.003,2.879c0,1.057,0.317,1.917,0.951,2.578c0.633,0.661,1.45,0.992,2.45,0.992
		c0.967,0,1.761-0.331,2.384-0.992C644.808,494.134,645.12,493.218,645.12,492.046L645.12,492.046z"/>
	
		<line style="fill:none;stroke:#000000;stroke-width:0.5;stroke-miterlimit:3.25;" x1="778.1" y1="479.607" x2="778.1" y2="475.601"/>
	<path style="fill-rule:evenodd;clip-rule:evenodd;" d="M776.46,503.587h-2.16v-13.371c-0.491,0.482-1.135,0.963-1.932,1.445
		s-1.513,0.843-2.148,1.085v-2.029c1.151-0.551,2.158-1.219,3.019-2.004c0.861-0.785,1.471-1.547,1.83-2.286h1.391V503.587z"/>
	<rect x="783.06" y="501.307" style="fill-rule:evenodd;clip-rule:evenodd;" width="2.28" height="2.28"/>
	
		<line style="fill:none;stroke:#000000;stroke-width:0.5;stroke-miterlimit:3.25;" x1="49.1" y1="479.607" x2="778.1" y2="479.607"/>
	<path style="fill-rule:evenodd;clip-rule:evenodd;" d="M787.16,492.007v-17.28h2.16v1.686c0.441-0.643,0.939-1.124,1.493-1.445
		c0.555-0.321,1.227-0.481,2.017-0.481c1.034,0,1.946,0.272,2.737,0.817c0.79,0.545,1.387,1.314,1.789,2.307
		c0.403,0.992,0.604,2.08,0.604,3.262c0,1.269-0.227,2.411-0.682,3.427c-0.454,1.015-1.114,1.794-1.979,2.335
		c-0.865,0.541-1.775,0.812-2.73,0.812c-0.698,0-1.325-0.144-1.88-0.431c-0.555-0.288-1.011-0.651-1.369-1.09v6.081H787.16z
		 M789.32,481.078c0,1.598,0.312,2.78,0.936,3.543c0.623,0.764,1.378,1.146,2.265,1.146c0.901,0,1.673-0.396,2.315-1.187
		c0.643-0.791,0.964-2.017,0.964-3.677c0-1.582-0.314-2.767-0.941-3.555c-0.628-0.787-1.377-1.181-2.248-1.181
		c-0.864,0-1.628,0.419-2.293,1.257C789.653,478.262,789.32,479.48,789.32,481.078L789.32,481.078z"/>
	
		<line style="fill:none;stroke:#000000;stroke-width:0.5;stroke-miterlimit:3.25;" x1="49.1" y1="479.607" x2="53.105" y2="479.607"/>
	<path style="fill-rule:evenodd;clip-rule:evenodd;" d="M33.36,478.753c0-2.015,0.208-3.647,0.624-4.895
		c0.417-1.248,1.035-2.195,1.857-2.842c0.821-0.646,1.854-0.969,3.099-0.969c0.919,0,1.734,0.184,2.447,0.552
		c0.712,0.368,1.284,0.899,1.716,1.593c0.431,0.694,0.775,1.538,1.032,2.534c0.257,0.996,0.385,2.338,0.385,4.027
		c0,1.998-0.206,3.622-0.619,4.871c-0.412,1.249-1.029,2.198-1.85,2.848c-0.822,0.65-1.858,0.975-3.111,0.975
		c-1.65,0-2.946-0.569-3.887-1.706C33.924,484.282,33.36,481.953,33.36,478.753L33.36,478.753z M35.52,478.807
		c0,2.831,0.329,4.699,0.986,5.603c0.658,0.905,1.469,1.357,2.434,1.357c0.965,0,1.776-0.454,2.434-1.362
		c0.657-0.908,0.986-2.774,0.986-5.598c0-2.8-0.324-4.66-0.971-5.58c-0.648-0.92-1.471-1.38-2.471-1.38
		c-0.965,0-1.746,0.406-2.342,1.219C35.872,474.102,35.52,476.016,35.52,478.807L35.52,478.807z"/>
	<line style="fill:none;stroke:#000000;stroke-width:0.5;stroke-miterlimit:3.25;" x1="49.1" y1="366.97" x2="53.105" y2="366.97"/>
	<path style="fill-rule:evenodd;clip-rule:evenodd;" d="M0,366.116c0-2.015,0.208-3.647,0.624-4.895
		c0.417-1.248,1.035-2.195,1.857-2.842c0.821-0.646,1.854-0.969,3.099-0.969c0.919,0,1.734,0.184,2.447,0.552
		c0.712,0.368,1.284,0.899,1.716,1.593c0.431,0.694,0.775,1.538,1.032,2.534c0.257,0.996,0.385,2.338,0.385,4.027
		c0,1.998-0.206,3.622-0.619,4.871c-0.412,1.249-1.029,2.198-1.85,2.848c-0.822,0.65-1.858,0.975-3.111,0.975
		c-1.65,0-2.946-0.569-3.887-1.706C0.564,371.645,0,369.316,0,366.116L0,366.116z M2.16,366.17c0,2.831,0.329,4.699,0.986,5.603
		c0.658,0.905,1.469,1.357,2.434,1.357c0.965,0,1.776-0.454,2.434-1.362C8.671,370.86,9,368.994,9,366.17
		c0-2.8-0.324-4.66-0.971-5.58c-0.648-0.92-1.471-1.38-2.471-1.38c-0.965,0-1.746,0.406-2.342,1.219
		C2.512,361.465,2.16,363.379,2.16,366.17L2.16,366.17z"/>
	<rect x="14.4" y="372.29" style="fill-rule:evenodd;clip-rule:evenodd;" width="2.28" height="2.28"/>
	<path style="fill-rule:evenodd;clip-rule:evenodd;" d="M30.96,372.41v2.16H19.68c-0.016-0.526,0.061-1.032,0.233-1.517
		c0.273-0.801,0.712-1.585,1.315-2.351c0.603-0.766,1.498-1.632,2.686-2.597c1.844-1.553,3.099-2.755,3.766-3.608
		c0.667-0.854,1-1.67,1-2.448c0-0.798-0.299-1.47-0.897-2.018c-0.598-0.547-1.378-0.821-2.339-0.821
		c-1.015,0-1.828,0.297-2.438,0.892c-0.61,0.594-0.918,1.417-0.926,2.468l-2.16-0.24c0.149-1.601,0.707-2.822,1.674-3.661
		c0.968-0.839,2.267-1.259,3.897-1.259c1.646,0,2.949,0.452,3.909,1.356c0.96,0.903,1.44,2.023,1.44,3.36
		c0,0.678-0.135,1.346-0.404,2.002c-0.269,0.656-0.717,1.348-1.343,2.074c-0.625,0.726-1.68,1.717-3.165,2.972
		c-1.258,1.04-2.084,1.745-2.477,2.117c-0.394,0.371-0.72,0.744-0.977,1.119H30.96z"/>
	<path style="fill-rule:evenodd;clip-rule:evenodd;" d="M33.36,370.01l2.16-0.12c0.161,1.076,0.527,1.885,1.096,2.427
		c0.569,0.542,1.29,0.813,2.163,0.813c1.061,0,1.923-0.381,2.586-1.142c0.663-0.761,0.995-1.771,0.995-3.03
		c0-1.196-0.313-2.14-0.939-2.831c-0.627-0.691-1.501-1.037-2.623-1.037c-0.7,0-1.306,0.145-1.816,0.434
		c-0.511,0.289-0.918,0.665-1.222,1.126l-2.16-0.24l1.8-8.76h8.16v2.16h-6.585l-0.917,4.472c1.016-0.741,2.082-1.112,3.197-1.112
		c1.479,0,2.726,0.517,3.742,1.552c1.015,1.035,1.523,2.367,1.523,3.994c0,1.549-0.444,2.888-1.331,4.016
		c-1.08,1.385-2.554,2.078-4.421,2.078c-1.532,0-2.781-0.438-3.75-1.314C34.05,372.619,33.498,371.457,33.36,370.01L33.36,370.01z"
		/>
	
		<line style="fill:none;stroke:#000000;stroke-width:0.5;stroke-miterlimit:3.25;" x1="49.1" y1="254.333" x2="53.105" y2="254.333"/>
	<path style="fill-rule:evenodd;clip-rule:evenodd;" d="M13.32,253.479c0-2.015,0.208-3.647,0.624-4.895
		c0.417-1.248,1.035-2.195,1.857-2.842c0.821-0.646,1.854-0.969,3.099-0.969c0.919,0,1.734,0.184,2.447,0.552
		c0.712,0.368,1.284,0.899,1.716,1.593c0.431,0.694,0.775,1.538,1.032,2.534c0.257,0.996,0.385,2.338,0.385,4.027
		c0,1.998-0.206,3.622-0.619,4.871c-0.412,1.249-1.029,2.198-1.85,2.848c-0.822,0.65-1.858,0.975-3.111,0.975
		c-1.65,0-2.946-0.569-3.887-1.706C13.884,259.008,13.32,256.679,13.32,253.479L13.32,253.479z M15.48,253.533
		c0,2.831,0.329,4.699,0.986,5.603c0.658,0.905,1.469,1.357,2.434,1.357c0.965,0,1.776-0.454,2.434-1.362
		c0.657-0.908,0.986-2.774,0.986-5.598c0-2.8-0.324-4.66-0.971-5.58c-0.648-0.92-1.471-1.38-2.471-1.38
		c-0.965,0-1.746,0.406-2.342,1.219C15.832,248.828,15.48,250.742,15.48,253.533L15.48,253.533z"/>
	<rect x="27.72" y="259.653" style="fill-rule:evenodd;clip-rule:evenodd;" width="2.28" height="2.28"/>
	<path style="fill-rule:evenodd;clip-rule:evenodd;" d="M33.36,257.373l2.16-0.12c0.161,1.076,0.527,1.885,1.096,2.427
		c0.569,0.542,1.29,0.813,2.163,0.813c1.061,0,1.923-0.381,2.586-1.142c0.663-0.761,0.995-1.771,0.995-3.03
		c0-1.196-0.313-2.14-0.939-2.831c-0.627-0.691-1.501-1.037-2.623-1.037c-0.7,0-1.306,0.145-1.816,0.434
		c-0.511,0.289-0.918,0.665-1.222,1.126l-2.16-0.24l1.8-8.76h8.16v2.16h-6.585l-0.917,4.472c1.016-0.741,2.082-1.112,3.197-1.112
		c1.479,0,2.726,0.517,3.742,1.552c1.015,1.035,1.523,2.367,1.523,3.994c0,1.549-0.444,2.888-1.331,4.016
		c-1.08,1.385-2.554,2.078-4.421,2.078c-1.532,0-2.781-0.438-3.75-1.314C34.05,259.982,33.498,258.82,33.36,257.373L33.36,257.373z"
		/>
	
		<line style="fill:none;stroke:#000000;stroke-width:0.5;stroke-miterlimit:3.25;" x1="49.1" y1="141.697" x2="53.105" y2="141.697"/>
	<path style="fill-rule:evenodd;clip-rule:evenodd;" d="M0,140.843c0-2.015,0.208-3.647,0.624-4.895
		c0.417-1.248,1.035-2.195,1.857-2.842c0.821-0.646,1.854-0.969,3.099-0.969c0.919,0,1.734,0.184,2.447,0.552
		c0.712,0.368,1.284,0.899,1.716,1.593c0.431,0.694,0.775,1.538,1.032,2.534c0.257,0.996,0.385,2.338,0.385,4.027
		c0,1.998-0.206,3.622-0.619,4.871c-0.412,1.249-1.029,2.198-1.85,2.848c-0.822,0.65-1.858,0.975-3.111,0.975
		c-1.65,0-2.946-0.569-3.887-1.706C0.564,146.372,0,144.043,0,140.843L0,140.843z M2.16,140.897c0,2.831,0.329,4.699,0.986,5.603
		c0.658,0.905,1.469,1.357,2.434,1.357c0.965,0,1.776-0.454,2.434-1.362C8.671,145.587,9,143.721,9,140.897
		c0-2.8-0.324-4.66-0.971-5.58c-0.648-0.92-1.471-1.38-2.471-1.38c-0.965,0-1.746,0.406-2.342,1.219
		C2.512,136.192,2.16,138.106,2.16,140.897L2.16,140.897z"/>
	<rect x="14.4" y="147.017" style="fill-rule:evenodd;clip-rule:evenodd;" width="2.28" height="2.28"/>
	<path style="fill-rule:evenodd;clip-rule:evenodd;" d="M20.04,134.537v-2.16h11.04v1.747c-1.082,1.172-2.155,2.711-3.217,4.619
		c-1.063,1.907-1.884,3.869-2.462,5.885c-0.418,1.421-0.685,2.978-0.801,4.669h-2.16c0.023-1.336,0.282-2.951,0.779-4.843
		c0.497-1.893,1.21-3.717,2.139-5.474c0.928-1.757,1.916-3.238,2.962-4.443H20.04z"/>
	<path style="fill-rule:evenodd;clip-rule:evenodd;" d="M33.36,144.737l2.16-0.12c0.161,1.076,0.527,1.885,1.096,2.427
		s1.29,0.813,2.163,0.813c1.061,0,1.923-0.381,2.586-1.142c0.663-0.761,0.995-1.771,0.995-3.03c0-1.196-0.313-2.14-0.939-2.831
		c-0.627-0.691-1.501-1.037-2.623-1.037c-0.7,0-1.306,0.145-1.816,0.434c-0.511,0.289-0.918,0.665-1.222,1.126l-2.16-0.24l1.8-8.76
		h8.16v2.16h-6.585l-0.917,4.472c1.016-0.741,2.082-1.112,3.197-1.112c1.479,0,2.726,0.517,3.742,1.552
		c1.015,1.035,1.523,2.367,1.523,3.994c0,1.549-0.444,2.888-1.331,4.016c-1.08,1.385-2.554,2.078-4.421,2.078
		c-1.532,0-2.781-0.438-3.75-1.314C34.05,147.346,33.498,146.184,33.36,144.737L33.36,144.737z"/>
	<line style="fill:none;stroke:#000000;stroke-width:0.5;stroke-miterlimit:3.25;" x1="49.1" y1="29.06" x2="53.105" y2="29.06"/>
	<path style="fill-rule:evenodd;clip-rule:evenodd;" d="M34.44,36.66h-2.16V23.289c-0.491,0.482-1.135,0.963-1.932,1.445
		c-0.797,0.482-1.513,0.843-2.148,1.085V23.79c1.151-0.551,2.158-1.219,3.019-2.004c0.861-0.785,1.471-1.547,1.83-2.286h1.391V36.66
		z"/>
	<rect x="41.04" y="34.38" style="fill-rule:evenodd;clip-rule:evenodd;" width="2.28" height="2.28"/>
	<line style="fill:none;stroke:#000000;stroke-width:0.5;stroke-miterlimit:3.25;" x1="49.1" y1="479.607" x2="49.1" y2="29.06"/>
	<path style="fill-rule:evenodd;clip-rule:evenodd;" d="M55.871,3.392c0,0.585-0.109,1.129-0.328,1.633s-0.515,0.952-0.89,1.343
		C54.278,6.76,53.84,7.091,53.34,7.36c-0.5,0.27-1.031,0.454-1.594,0.554c0.517,0.062,0.983,0.176,1.401,0.343
		c0.417,0.168,0.777,0.396,1.078,0.686c0.301,0.289,0.532,0.636,0.692,1.039c0.16,0.404,0.24,0.869,0.24,1.395
		c0,0.549-0.078,1.079-0.234,1.589c-0.157,0.51-0.375,0.988-0.657,1.434c-0.281,0.446-0.615,0.854-1.002,1.223
		c-0.387,0.37-0.815,0.686-1.283,0.948c-0.469,0.263-0.967,0.466-1.495,0.611c-0.527,0.145-1.068,0.217-1.622,0.217
		c-0.461,0-0.854-0.031-1.178-0.093c-0.324-0.062-0.615-0.164-0.873-0.306c-0.257-0.143-0.498-0.332-0.721-0.567
		c-0.223-0.235-0.463-0.53-0.721-0.885l-1.348,6.531h-2.109l3.622-16.918c0.164-0.775,0.441-1.479,0.832-2.11
		c0.39-0.632,0.869-1.175,1.435-1.628s1.203-0.804,1.91-1.052C50.42,0.124,51.172,0,51.969,0c0.508,0,0.998,0.075,1.47,0.225
		c0.473,0.15,0.889,0.369,1.248,0.657c0.36,0.288,0.647,0.644,0.862,1.067S55.871,2.853,55.871,3.392L55.871,3.392z M53.844,3.827
		c0-0.335-0.064-0.632-0.193-0.892c-0.128-0.259-0.304-0.478-0.528-0.658c-0.223-0.179-0.48-0.316-0.773-0.411
		c-0.292-0.095-0.599-0.143-0.921-0.143c-0.562,0-1.056,0.086-1.482,0.258c-0.425,0.172-0.79,0.41-1.095,0.715
		c-0.304,0.305-0.556,0.667-0.755,1.087c-0.2,0.419-0.354,0.88-0.464,1.383l-1.382,6.373c-0.048,0.221-0.085,0.44-0.112,0.658
		c-0.027,0.217-0.04,0.437-0.04,0.658c0,0.426,0.062,0.821,0.187,1.183c0.125,0.363,0.309,0.677,0.551,0.944
		c0.241,0.267,0.538,0.477,0.89,0.629c0.352,0.153,0.754,0.229,1.207,0.229c0.579,0,1.114-0.121,1.606-0.363
		s0.917-0.561,1.277-0.959c0.359-0.397,0.64-0.85,0.843-1.356c0.203-0.507,0.305-1.029,0.305-1.565c0-0.598-0.123-1.082-0.369-1.452
		c-0.247-0.371-0.569-0.658-0.967-0.863c-0.398-0.204-0.845-0.342-1.341-0.414c-0.497-0.072-0.995-0.108-1.495-0.108h-0.082
		l0.328-1.56c0.555,0,1.118-0.055,1.688-0.166c0.571-0.111,1.086-0.296,1.547-0.555c0.461-0.259,0.838-0.604,1.131-1.035
		S53.844,4.474,53.844,3.827L53.844,3.827z"/>
</g>
</svg>
