<?xml version="1.0" encoding="iso-8859-1"?>
<!-- Generator: Adobe Illustrator 28.7.3, SVG Export Plug-In . SVG Version: 9.03 Build 54978)  -->
<svg version="1.1" id="Layer_1" xmlns="http://www.w3.org/2000/svg" xmlns:xlink="http://www.w3.org/1999/xlink" x="0px" y="0px"
	 viewBox="0 0 342.692 246.566" style="enable-background:new 0 0 342.692 246.566;" xml:space="preserve">
<g>
	<polyline style="fill:none;stroke:#CA3300;stroke-width:2.16;stroke-miterlimit:3.25;" points="37.912,181.26 52.779,179.417 
		67.611,178.866 82.365,176.284 97.014,175.362 111.514,172.229 125.834,169.28 139.939,167.065 153.803,162.46 167.393,158.401 
		180.678,154.346 193.635,151.581 206.24,146.788 218.475,141.444 230.318,134.069 241.752,126.514 252.768,119.694 263.35,112.135 
		273.494,102.549 283.189,91.674 292.439,84.483 	"/>
	<polyline style="fill:none;stroke:#3163CE;stroke-width:2.16;stroke-miterlimit:3.25;" points="37.912,185.87 52.779,185.87 
		67.611,186.421 82.365,185.87 97.014,185.499 111.514,184.764 125.834,183.659 139.939,182.921 153.803,181.628 167.393,180.155 
		180.678,178.678 193.635,176.651 206.24,174.256 218.475,171.307 230.318,167.803 241.752,165.225 252.768,160.799 263.35,156.928 
		273.494,152.69 283.189,146.788 292.439,143.471 	"/>
	<path style="fill:none;stroke:#000000;stroke-width:0.144;stroke-linecap:square;stroke-miterlimit:3.25;" d="M336.174,188.081
		H37.912 M37.912,188.081V3.745"/>
	
		<line style="fill:none;stroke:#000000;stroke-width:0.072;stroke-miterlimit:3.25;" x1="37.912" y1="188.081" x2="37.912" y2="185.1"/>
	<path d="M36.241,199.616c0.397,0.499,0.943,0.748,1.639,0.748c0.528,0,0.965-0.142,1.312-0.426c0.346-0.284,0.606-0.686,0.78-1.206
		c0.174-0.52,0.261-1.203,0.261-2.05c0-0.715-0.054-1.284-0.162-1.705c-0.108-0.422-0.258-0.779-0.448-1.073
		c-0.19-0.294-0.431-0.518-0.723-0.674c-0.292-0.156-0.632-0.234-1.019-0.234c-0.525,0-0.961,0.141-1.307,0.423
		c-0.346,0.282-0.607,0.683-0.783,1.203c-0.176,0.52-0.263,1.207-0.263,2.06C35.527,198.038,35.765,199.015,36.241,199.616
		L36.241,199.616L36.241,199.616z M36.895,194.246c0.243-0.344,0.568-0.517,0.974-0.517c0.413,0,0.759,0.195,1.036,0.586
		c0.277,0.39,0.416,1.18,0.416,2.367c0,1.181-0.139,1.969-0.416,2.362c-0.277,0.394-0.619,0.591-1.026,0.591
		c-0.407,0-0.749-0.196-1.026-0.588c-0.277-0.392-0.416-1.18-0.416-2.365C36.438,195.498,36.59,194.686,36.895,194.246
		L36.895,194.246L36.895,194.246z"/>
	
		<line style="fill:none;stroke:#000000;stroke-width:0.072;stroke-miterlimit:3.25;" x1="112.478" y1="188.081" x2="112.478" y2="185.1"/>
	<path d="M106.603,199.616c0.397,0.499,0.943,0.748,1.639,0.748c0.528,0,0.965-0.142,1.312-0.426
		c0.346-0.284,0.606-0.686,0.78-1.206c0.174-0.52,0.261-1.203,0.261-2.05c0-0.715-0.054-1.284-0.162-1.705
		c-0.108-0.422-0.258-0.779-0.448-1.073c-0.19-0.294-0.431-0.518-0.723-0.674c-0.292-0.156-0.632-0.234-1.019-0.234
		c-0.525,0-0.961,0.141-1.307,0.423c-0.346,0.282-0.607,0.683-0.783,1.203c-0.176,0.52-0.263,1.207-0.263,2.06
		C105.89,198.038,106.127,199.015,106.603,199.616L106.603,199.616L106.603,199.616z M107.258,194.246
		c0.243-0.344,0.568-0.517,0.974-0.517c0.413,0,0.759,0.195,1.036,0.586c0.277,0.39,0.416,1.18,0.416,2.367
		c0,1.181-0.139,1.969-0.416,2.362c-0.277,0.394-0.619,0.591-1.026,0.591c-0.407,0-0.749-0.196-1.026-0.588
		c-0.277-0.392-0.416-1.18-0.416-2.365C106.8,195.498,106.953,194.686,107.258,194.246L107.258,194.246L107.258,194.246z
		 M113.001,200.241v-1.009h-1.009v1.009H113.001L113.001,200.241z M117.632,192.996h-0.571c-0.154,0.312-0.417,0.633-0.787,0.965
		c-0.371,0.331-0.804,0.614-1.299,0.846v0.856c0.276-0.102,0.586-0.254,0.933-0.458c0.346-0.203,0.626-0.407,0.839-0.61v5.645h0.886
		V192.996L117.632,192.996z"/>
	
		<line style="fill:none;stroke:#000000;stroke-width:0.072;stroke-miterlimit:3.25;" x1="187.045" y1="188.081" x2="187.045" y2="185.1"/>
	<path d="M181.169,199.616c0.397,0.499,0.943,0.748,1.639,0.748c0.528,0,0.965-0.142,1.312-0.426
		c0.346-0.284,0.606-0.686,0.78-1.206c0.174-0.52,0.261-1.203,0.261-2.05c0-0.715-0.054-1.284-0.162-1.705
		c-0.108-0.422-0.258-0.779-0.448-1.073c-0.19-0.294-0.431-0.518-0.723-0.674c-0.292-0.156-0.632-0.234-1.019-0.234
		c-0.525,0-0.961,0.141-1.307,0.423c-0.346,0.282-0.607,0.683-0.783,1.203c-0.176,0.52-0.263,1.207-0.263,2.06
		C180.455,198.038,180.693,199.015,181.169,199.616L181.169,199.616L181.169,199.616z M181.823,194.246
		c0.243-0.344,0.568-0.517,0.974-0.517c0.413,0,0.759,0.195,1.036,0.586c0.277,0.39,0.416,1.18,0.416,2.367
		c0,1.181-0.139,1.969-0.416,2.362c-0.277,0.394-0.619,0.591-1.026,0.591c-0.407,0-0.749-0.196-1.026-0.588
		c-0.277-0.392-0.416-1.18-0.416-2.365C181.366,195.498,181.518,194.686,181.823,194.246L181.823,194.246L181.823,194.246z
		 M187.567,200.241v-1.009h-1.009v1.009H187.567L187.567,200.241z M189.978,199.389c0.098-0.161,0.223-0.321,0.374-0.48
		c0.151-0.159,0.492-0.462,1.024-0.908c0.636-0.538,1.092-0.961,1.366-1.27c0.274-0.308,0.47-0.602,0.588-0.881
		c0.118-0.279,0.177-0.563,0.177-0.851c0-0.568-0.202-1.043-0.605-1.427c-0.404-0.384-0.952-0.576-1.644-0.576
		c-0.686,0-1.232,0.178-1.639,0.534c-0.407,0.356-0.641,0.874-0.704,1.553l0.91,0.094c0.003-0.453,0.133-0.807,0.389-1.063
		c0.256-0.256,0.597-0.384,1.024-0.384c0.404,0,0.731,0.121,0.982,0.362s0.376,0.537,0.376,0.888c0,0.335-0.138,0.69-0.413,1.065
		c-0.276,0.376-0.805,0.885-1.59,1.528c-0.505,0.413-0.892,0.778-1.159,1.093c-0.267,0.315-0.462,0.635-0.583,0.96
		c-0.076,0.197-0.11,0.402-0.103,0.615h4.769v-0.851H189.978L189.978,199.389z"/>
	
		<line style="fill:none;stroke:#000000;stroke-width:0.072;stroke-miterlimit:3.25;" x1="261.607" y1="188.081" x2="261.607" y2="185.1"/>
	<path d="M255.734,199.616c0.397,0.499,0.943,0.748,1.639,0.748c0.528,0,0.965-0.142,1.312-0.426
		c0.346-0.284,0.606-0.686,0.78-1.206c0.174-0.52,0.261-1.203,0.261-2.05c0-0.715-0.054-1.284-0.162-1.705
		c-0.108-0.422-0.258-0.779-0.448-1.073c-0.19-0.294-0.431-0.518-0.723-0.674c-0.292-0.156-0.632-0.234-1.019-0.234
		c-0.525,0-0.961,0.141-1.307,0.423c-0.346,0.282-0.607,0.683-0.782,1.203c-0.176,0.52-0.263,1.207-0.263,2.06
		C255.021,198.038,255.259,199.015,255.734,199.616L255.734,199.616L255.734,199.616z M256.389,194.246
		c0.243-0.344,0.568-0.517,0.974-0.517c0.413,0,0.759,0.195,1.036,0.586c0.277,0.39,0.416,1.18,0.416,2.367
		c0,1.181-0.139,1.969-0.416,2.362c-0.277,0.394-0.619,0.591-1.026,0.591c-0.407,0-0.749-0.196-1.026-0.588
		c-0.277-0.392-0.416-1.18-0.416-2.365C255.931,195.498,256.084,194.686,256.389,194.246L256.389,194.246L256.389,194.246z
		 M262.132,200.241v-1.009h-1.009v1.009H262.132L262.132,200.241z M264.148,199.803c0.418,0.377,0.944,0.566,1.577,0.566
		c0.702,0,1.283-0.219,1.742-0.657c0.459-0.438,0.689-0.972,0.689-1.602c0-0.466-0.118-0.854-0.354-1.164
		c-0.236-0.31-0.568-0.514-0.994-0.613c0.328-0.151,0.576-0.354,0.743-0.61c0.167-0.256,0.251-0.54,0.251-0.851
		c0-0.328-0.088-0.638-0.263-0.93c-0.176-0.292-0.429-0.522-0.76-0.691c-0.331-0.169-0.694-0.253-1.088-0.253
		c-0.571,0-1.048,0.163-1.432,0.49c-0.384,0.327-0.63,0.787-0.738,1.38l0.886,0.157c0.066-0.433,0.213-0.758,0.443-0.974
		c0.23-0.217,0.517-0.325,0.861-0.325c0.348,0,0.632,0.107,0.851,0.32c0.22,0.213,0.33,0.482,0.33,0.807
		c0,0.41-0.151,0.714-0.453,0.91c-0.302,0.197-0.641,0.295-1.019,0.295c-0.036,0-0.084-0.003-0.143-0.01l-0.098,0.778
		c0.249-0.066,0.458-0.098,0.625-0.098c0.41,0,0.748,0.132,1.014,0.396c0.266,0.264,0.399,0.6,0.399,1.006
		c0,0.427-0.144,0.784-0.431,1.073c-0.287,0.289-0.639,0.433-1.056,0.433c-0.351,0-0.649-0.111-0.893-0.332
		c-0.244-0.221-0.418-0.583-0.519-1.085l-0.886,0.118C263.491,198.937,263.729,199.425,264.148,199.803L264.148,199.803z"/>
	
		<line style="fill:none;stroke:#000000;stroke-width:0.072;stroke-miterlimit:3.25;" x1="336.174" y1="188.081" x2="336.174" y2="185.1"/>
	<path d="M330.3,199.616c0.397,0.499,0.943,0.748,1.639,0.748c0.528,0,0.965-0.142,1.312-0.426c0.346-0.284,0.606-0.686,0.78-1.206
		c0.174-0.52,0.261-1.203,0.261-2.05c0-0.715-0.054-1.284-0.162-1.705c-0.108-0.422-0.258-0.779-0.448-1.073
		c-0.19-0.294-0.431-0.518-0.723-0.674c-0.292-0.156-0.632-0.234-1.019-0.234c-0.525,0-0.961,0.141-1.307,0.423
		c-0.346,0.282-0.607,0.683-0.782,1.203c-0.176,0.52-0.263,1.207-0.263,2.06C329.586,198.038,329.824,199.015,330.3,199.616
		L330.3,199.616L330.3,199.616z M330.955,194.246c0.243-0.344,0.568-0.517,0.974-0.517c0.413,0,0.759,0.195,1.036,0.586
		c0.277,0.39,0.416,1.18,0.416,2.367c0,1.181-0.139,1.969-0.416,2.362c-0.277,0.394-0.619,0.591-1.026,0.591
		c-0.407,0-0.749-0.196-1.026-0.588c-0.277-0.392-0.416-1.18-0.416-2.365C330.497,195.498,330.649,194.686,330.955,194.246
		L330.955,194.246L330.955,194.246z M336.698,200.241v-1.009h-1.009v1.009H336.698L336.698,200.241z M341.718,200.241v-1.727h0.974
		v-0.812h-0.974v-4.675h-0.723l-3.292,4.675v0.812h3.13v1.727H341.718L341.718,200.241z M338.573,197.701l2.259-3.253v3.253H338.573
		L338.573,197.701z"/>
	
		<line style="fill:none;stroke:#000000;stroke-width:0.072;stroke-miterlimit:3.25;" x1="37.912" y1="188.081" x2="40.893" y2="188.081"/>
	<path d="M31.278,190.956c0.397,0.499,0.943,0.748,1.639,0.748c0.528,0,0.965-0.142,1.312-0.426c0.346-0.284,0.606-0.686,0.78-1.206
		c0.174-0.52,0.261-1.203,0.261-2.05c0-0.715-0.054-1.284-0.162-1.705c-0.108-0.422-0.258-0.779-0.448-1.073
		c-0.19-0.294-0.431-0.518-0.723-0.674c-0.292-0.156-0.632-0.234-1.019-0.234c-0.525,0-0.961,0.141-1.307,0.423
		c-0.346,0.282-0.607,0.683-0.783,1.203c-0.176,0.52-0.263,1.207-0.263,2.06C30.564,189.378,30.802,190.355,31.278,190.956
		L31.278,190.956L31.278,190.956z M31.933,185.586c0.243-0.344,0.568-0.517,0.974-0.517c0.413,0,0.759,0.195,1.036,0.586
		c0.277,0.39,0.416,1.18,0.416,2.367c0,1.181-0.139,1.969-0.416,2.362c-0.277,0.394-0.619,0.591-1.026,0.591
		c-0.407,0-0.749-0.196-1.026-0.588c-0.277-0.392-0.416-1.18-0.416-2.365C31.475,186.838,31.627,186.026,31.933,185.586
		L31.933,185.586L31.933,185.586z"/>
	
		<line style="fill:none;stroke:#000000;stroke-width:0.072;stroke-miterlimit:3.25;" x1="37.912" y1="151.213" x2="40.893" y2="151.213"/>
	<path d="M22.872,154.088c0.397,0.499,0.943,0.748,1.639,0.748c0.528,0,0.965-0.142,1.312-0.426c0.346-0.284,0.606-0.686,0.78-1.206
		c0.174-0.52,0.261-1.203,0.261-2.05c0-0.715-0.054-1.284-0.162-1.705c-0.108-0.422-0.258-0.779-0.448-1.073
		c-0.19-0.294-0.431-0.518-0.723-0.674c-0.292-0.156-0.632-0.234-1.019-0.234c-0.525,0-0.961,0.141-1.307,0.423
		c-0.346,0.282-0.607,0.683-0.783,1.203c-0.176,0.52-0.263,1.207-0.263,2.06C22.158,152.51,22.396,153.488,22.872,154.088
		L22.872,154.088L22.872,154.088z M23.526,148.719c0.243-0.344,0.568-0.517,0.974-0.517c0.413,0,0.759,0.195,1.036,0.586
		c0.277,0.39,0.416,1.18,0.416,2.367c0,1.181-0.139,1.969-0.416,2.362c-0.277,0.394-0.619,0.591-1.026,0.591
		c-0.407,0-0.749-0.196-1.026-0.588c-0.277-0.392-0.416-1.18-0.416-2.365C23.069,149.971,23.221,149.159,23.526,148.719
		L23.526,148.719L23.526,148.719z M29.27,154.713v-1.009h-1.009v1.009H29.27L29.27,154.713z M31.681,153.862
		c0.098-0.161,0.223-0.321,0.374-0.48c0.151-0.159,0.492-0.462,1.024-0.908c0.636-0.538,1.092-0.961,1.366-1.27
		c0.274-0.308,0.47-0.602,0.588-0.881c0.118-0.279,0.177-0.563,0.177-0.851c0-0.568-0.202-1.043-0.605-1.427
		c-0.404-0.384-0.952-0.576-1.644-0.576c-0.686,0-1.232,0.178-1.639,0.534c-0.407,0.356-0.641,0.874-0.704,1.553l0.91,0.094
		c0.003-0.453,0.133-0.807,0.389-1.063c0.256-0.256,0.597-0.384,1.024-0.384c0.404,0,0.731,0.121,0.982,0.362
		s0.376,0.537,0.376,0.888c0,0.335-0.138,0.69-0.413,1.065c-0.276,0.376-0.805,0.885-1.59,1.528
		c-0.505,0.413-0.892,0.778-1.159,1.093c-0.267,0.315-0.462,0.635-0.583,0.96c-0.076,0.197-0.11,0.402-0.103,0.615h4.769v-0.851
		H31.681L31.681,153.862z"/>
	
		<line style="fill:none;stroke:#000000;stroke-width:0.072;stroke-miterlimit:3.25;" x1="37.912" y1="114.346" x2="40.893" y2="114.346"/>
	<path d="M22.872,117.221c0.397,0.499,0.943,0.748,1.639,0.748c0.528,0,0.965-0.142,1.312-0.426c0.346-0.284,0.606-0.686,0.78-1.206
		c0.174-0.52,0.261-1.203,0.261-2.05c0-0.715-0.054-1.284-0.162-1.705c-0.108-0.422-0.258-0.779-0.448-1.073
		c-0.19-0.294-0.431-0.518-0.723-0.674c-0.292-0.156-0.632-0.234-1.019-0.234c-0.525,0-0.961,0.141-1.307,0.423
		c-0.346,0.282-0.607,0.683-0.783,1.203c-0.176,0.52-0.263,1.207-0.263,2.06C22.158,115.643,22.396,116.621,22.872,117.221
		L22.872,117.221L22.872,117.221z M23.526,111.852c0.243-0.344,0.568-0.517,0.974-0.517c0.413,0,0.759,0.195,1.036,0.586
		c0.277,0.39,0.416,1.18,0.416,2.367c0,1.181-0.139,1.969-0.416,2.362c-0.277,0.394-0.619,0.591-1.026,0.591
		c-0.407,0-0.749-0.196-1.026-0.588c-0.277-0.392-0.416-1.18-0.416-2.365C23.069,113.104,23.221,112.292,23.526,111.852
		L23.526,111.852L23.526,111.852z M29.27,117.846v-1.009h-1.009v1.009H29.27L29.27,117.846z M34.289,117.846v-1.727h0.974v-0.812
		h-0.974v-4.675h-0.723l-3.292,4.675v0.812h3.13v1.727H34.289L34.289,117.846z M31.145,115.307l2.259-3.253v3.253H31.145
		L31.145,115.307z"/>
	
		<line style="fill:none;stroke:#000000;stroke-width:0.072;stroke-miterlimit:3.25;" x1="37.912" y1="77.479" x2="40.893" y2="77.479"/>
	<path d="M22.872,80.354c0.397,0.499,0.943,0.748,1.639,0.748c0.528,0,0.965-0.142,1.312-0.426c0.346-0.284,0.606-0.686,0.78-1.206
		c0.174-0.52,0.261-1.203,0.261-2.05c0-0.715-0.054-1.284-0.162-1.705c-0.108-0.422-0.258-0.779-0.448-1.073
		c-0.19-0.294-0.431-0.518-0.723-0.674c-0.292-0.156-0.632-0.234-1.019-0.234c-0.525,0-0.961,0.141-1.307,0.423
		c-0.346,0.282-0.607,0.683-0.783,1.203c-0.176,0.52-0.263,1.207-0.263,2.06C22.158,78.776,22.396,79.753,22.872,80.354
		L22.872,80.354L22.872,80.354z M23.526,74.985c0.243-0.344,0.568-0.517,0.974-0.517c0.413,0,0.759,0.195,1.036,0.586
		c0.277,0.39,0.416,1.18,0.416,2.367c0,1.181-0.139,1.969-0.416,2.362c-0.277,0.394-0.619,0.591-1.026,0.591
		c-0.407,0-0.749-0.196-1.026-0.588c-0.277-0.392-0.416-1.18-0.416-2.365C23.069,76.236,23.221,75.424,23.526,74.985L23.526,74.985
		L23.526,74.985z M29.27,80.979V79.97h-1.009v1.009H29.27L29.27,80.979z M34.508,74.212c-0.363-0.318-0.828-0.477-1.395-0.477
		c-0.761,0-1.367,0.276-1.816,0.827c-0.515,0.633-0.773,1.647-0.773,3.041c0,1.247,0.233,2.142,0.699,2.685
		c0.466,0.543,1.068,0.814,1.806,0.814c0.433,0,0.82-0.103,1.161-0.31c0.341-0.207,0.609-0.504,0.805-0.893
		c0.195-0.389,0.293-0.81,0.293-1.262c0-0.689-0.208-1.251-0.623-1.686c-0.415-0.435-0.918-0.652-1.508-0.652
		c-0.338,0-0.661,0.079-0.97,0.236c-0.308,0.157-0.569,0.399-0.783,0.723c0.007-0.722,0.09-1.278,0.251-1.668
		c0.161-0.39,0.381-0.687,0.659-0.891c0.213-0.157,0.461-0.236,0.743-0.236c0.351,0,0.646,0.126,0.886,0.379
		c0.144,0.157,0.256,0.41,0.335,0.758l0.881-0.069C35.088,74.97,34.871,74.53,34.508,74.212L34.508,74.212z M31.962,77.512
		c0.279-0.287,0.618-0.431,1.019-0.431c0.404,0,0.738,0.144,1.004,0.431c0.266,0.287,0.399,0.68,0.399,1.179
		c0,0.518-0.135,0.929-0.404,1.23c-0.269,0.302-0.591,0.453-0.965,0.453c-0.256,0-0.5-0.073-0.733-0.219
		c-0.233-0.146-0.414-0.358-0.544-0.637c-0.13-0.279-0.194-0.571-0.194-0.876C31.543,78.175,31.683,77.799,31.962,77.512
		L31.962,77.512z"/>
	
		<line style="fill:none;stroke:#000000;stroke-width:0.072;stroke-miterlimit:3.25;" x1="37.912" y1="40.612" x2="40.893" y2="40.612"/>
	<path d="M22.872,43.487c0.397,0.499,0.943,0.748,1.639,0.748c0.528,0,0.965-0.142,1.312-0.426c0.346-0.284,0.606-0.686,0.78-1.206
		c0.174-0.52,0.261-1.203,0.261-2.05c0-0.715-0.054-1.284-0.162-1.705c-0.108-0.422-0.258-0.779-0.448-1.073
		c-0.19-0.294-0.431-0.518-0.723-0.674c-0.292-0.156-0.632-0.234-1.019-0.234c-0.525,0-0.961,0.141-1.307,0.423
		c-0.346,0.282-0.607,0.683-0.783,1.203c-0.176,0.52-0.263,1.207-0.263,2.06C22.158,41.909,22.396,42.886,22.872,43.487
		L22.872,43.487L22.872,43.487z M23.526,38.117c0.243-0.344,0.568-0.517,0.974-0.517c0.413,0,0.759,0.195,1.036,0.586
		c0.277,0.39,0.416,1.18,0.416,2.367c0,1.181-0.139,1.969-0.416,2.362c-0.277,0.394-0.619,0.591-1.026,0.591
		c-0.407,0-0.749-0.196-1.026-0.588c-0.277-0.392-0.416-1.18-0.416-2.365C23.069,39.369,23.221,38.557,23.526,38.117L23.526,38.117
		L23.526,38.117z M29.27,44.112v-1.009h-1.009v1.009H29.27L29.27,44.112z M30.911,40.846c-0.238,0.317-0.357,0.71-0.357,1.179
		c0,0.63,0.218,1.156,0.655,1.577c0.436,0.422,1.011,0.632,1.723,0.632c0.712,0,1.286-0.21,1.723-0.63
		c0.436-0.42,0.655-0.938,0.655-1.555c0-0.446-0.116-0.83-0.347-1.152c-0.231-0.322-0.568-0.554-1.011-0.699
		c0.358-0.134,0.624-0.326,0.8-0.573c0.175-0.248,0.263-0.539,0.263-0.874c0-0.525-0.192-0.97-0.576-1.336
		c-0.384-0.366-0.891-0.549-1.521-0.549c-0.627,0-1.129,0.179-1.506,0.536c-0.377,0.358-0.566,0.799-0.566,1.324
		c0,0.348,0.089,0.646,0.266,0.896c0.177,0.249,0.449,0.441,0.817,0.576C31.487,40.314,31.149,40.53,30.911,40.846L30.911,40.846z
		 M32.085,37.92c0.223-0.217,0.504-0.325,0.842-0.325c0.335,0,0.614,0.111,0.839,0.332c0.225,0.221,0.337,0.495,0.337,0.819
		c0,0.312-0.109,0.575-0.327,0.79c-0.218,0.215-0.498,0.322-0.839,0.322c-0.351,0-0.637-0.108-0.856-0.325
		c-0.22-0.217-0.33-0.495-0.33-0.837C31.75,38.396,31.861,38.137,32.085,37.92L32.085,37.92z M31.875,40.996
		c0.274-0.276,0.619-0.413,1.036-0.413c0.426,0,0.782,0.139,1.065,0.418c0.284,0.279,0.426,0.632,0.426,1.058
		c0,0.42-0.138,0.766-0.413,1.038c-0.276,0.272-0.625,0.408-1.048,0.408c-0.272,0-0.527-0.065-0.763-0.194
		c-0.236-0.13-0.414-0.313-0.534-0.549c-0.12-0.236-0.18-0.481-0.18-0.733C31.465,41.616,31.601,41.272,31.875,40.996L31.875,40.996
		z"/>
	
		<line style="fill:none;stroke:#000000;stroke-width:0.072;stroke-miterlimit:3.25;" x1="37.912" y1="3.745" x2="40.893" y2="3.745"/>
	<path d="M25.495,0h-0.571c-0.154,0.312-0.417,0.633-0.787,0.965c-0.371,0.331-0.804,0.614-1.299,0.846v0.856
		c0.276-0.102,0.586-0.254,0.933-0.458c0.346-0.203,0.626-0.407,0.839-0.61v5.645h0.886V0L25.495,0z M29.27,7.244V6.235h-1.009
		v1.009H29.27L29.27,7.244z M31.277,6.619c0.397,0.499,0.943,0.748,1.639,0.748c0.528,0,0.965-0.142,1.312-0.426
		c0.346-0.284,0.606-0.686,0.78-1.206c0.174-0.52,0.261-1.203,0.261-2.05c0-0.715-0.054-1.284-0.162-1.705
		c-0.108-0.422-0.258-0.779-0.448-1.073c-0.19-0.294-0.431-0.518-0.723-0.674C33.643,0.078,33.303,0,32.916,0
		c-0.525,0-0.961,0.141-1.307,0.423c-0.346,0.282-0.607,0.683-0.783,1.203c-0.176,0.52-0.263,1.207-0.263,2.06
		C30.564,5.041,30.802,6.019,31.277,6.619L31.277,6.619L31.277,6.619z M31.932,1.25c0.243-0.344,0.568-0.517,0.974-0.517
		c0.413,0,0.759,0.195,1.036,0.586c0.277,0.39,0.416,1.18,0.416,2.367c0,1.181-0.139,1.969-0.416,2.362
		c-0.277,0.394-0.619,0.591-1.026,0.591c-0.407,0-0.749-0.196-1.026-0.588c-0.277-0.392-0.416-1.18-0.416-2.365
		C31.474,2.502,31.627,1.69,31.932,1.25L31.932,1.25L31.932,1.25z"/>
	<path d="M146.107,223.401v-10.53l3.577,10.53h1.477l3.594-10.352v10.352h1.578v-12.369h-2.202l-2.961,8.606
		c-0.298,0.872-0.518,1.533-0.658,1.983c-0.124-0.405-0.321-1.015-0.591-1.831l-2.928-8.758h-2.464v12.369H146.107L146.107,223.401z
		 M163.976,221.916c-0.394,0.293-0.869,0.439-1.426,0.439c-0.748,0-1.372-0.262-1.873-0.785c-0.501-0.523-0.779-1.277-0.835-2.261
		h6.682c0.006-0.18,0.008-0.315,0.008-0.405c0-1.479-0.38-2.627-1.139-3.442c-0.759-0.816-1.738-1.223-2.936-1.223
		c-1.238,0-2.244,0.416-3.021,1.249c-0.776,0.833-1.164,2.003-1.164,3.51c0,1.457,0.384,2.589,1.152,3.396
		c0.768,0.807,1.807,1.211,3.118,1.211c1.041,0,1.895-0.253,2.565-0.759c0.669-0.506,1.128-1.218,1.375-2.135l-1.569-0.194
		C164.682,221.156,164.37,221.623,163.976,221.916L163.976,221.916z M160.715,216.187c0.475-0.467,1.062-0.7,1.759-0.7
		c0.771,0,1.398,0.293,1.881,0.877c0.315,0.377,0.506,0.942,0.574,1.696h-5.003C159.977,217.278,160.24,216.654,160.715,216.187
		L160.715,216.187z M175.611,223.401v-12.369h-1.51v4.438c-0.264-0.366-0.607-0.662-1.029-0.89
		c-0.422-0.228-0.903-0.342-1.443-0.342c-0.737,0-1.403,0.194-2,0.582c-0.596,0.388-1.043,0.946-1.342,1.675
		c-0.298,0.729-0.447,1.54-0.447,2.434c0,0.917,0.165,1.728,0.494,2.434c0.329,0.706,0.793,1.256,1.392,1.649
		c0.599,0.394,1.256,0.591,1.97,0.591c1.102,0,1.938-0.444,2.506-1.333v1.131H175.611L175.611,223.401z M170.081,216.322
		c0.453-0.551,1.017-0.827,1.692-0.827c0.692,0,1.274,0.287,1.746,0.861c0.472,0.574,0.709,1.474,0.709,2.7
		c0,1.114-0.232,1.942-0.696,2.485c-0.464,0.543-1.028,0.814-1.692,0.814c-0.658,0-1.229-0.284-1.713-0.852
		c-0.484-0.568-0.726-1.426-0.726-2.573C169.401,217.742,169.628,216.873,170.081,216.322L170.081,216.322z M179.526,212.778v-1.746
		h-1.519v1.746H179.526L179.526,212.778z M179.526,223.401v-8.96h-1.519v8.96H179.526L179.526,223.401z M187.989,223.401h1.586
		c-0.191-0.343-0.319-0.702-0.384-1.076c-0.065-0.374-0.097-1.267-0.097-2.679v-2.025c0-0.675-0.025-1.142-0.076-1.401
		c-0.09-0.416-0.248-0.761-0.472-1.034c-0.225-0.273-0.577-0.499-1.055-0.679c-0.478-0.18-1.1-0.27-1.865-0.27
		c-0.771,0-1.448,0.105-2.033,0.316c-0.585,0.211-1.032,0.512-1.342,0.903c-0.309,0.391-0.532,0.904-0.667,1.54l1.485,0.202
		c0.163-0.636,0.415-1.079,0.755-1.329c0.34-0.25,0.868-0.375,1.582-0.375c0.765,0,1.342,0.172,1.73,0.515
		c0.287,0.253,0.43,0.689,0.43,1.308c0,0.056-0.003,0.189-0.008,0.397c-0.579,0.202-1.482,0.377-2.708,0.523
		c-0.602,0.073-1.052,0.149-1.35,0.228c-0.405,0.113-0.769,0.278-1.093,0.498c-0.324,0.219-0.585,0.51-0.785,0.873
		c-0.2,0.363-0.3,0.764-0.3,1.202c0,0.748,0.264,1.363,0.793,1.844c0.529,0.481,1.285,0.721,2.27,0.721
		c0.596,0,1.154-0.098,1.675-0.295c0.52-0.197,1.062-0.534,1.624-1.012C187.73,222.717,187.831,223.086,187.989,223.401
		L187.989,223.401L187.989,223.401z M187.558,219.461c0,0.669-0.082,1.176-0.245,1.519c-0.214,0.444-0.548,0.795-1.004,1.05
		c-0.456,0.256-0.976,0.384-1.561,0.384c-0.591,0-1.039-0.135-1.346-0.405c-0.307-0.27-0.46-0.607-0.46-1.012
		c0-0.264,0.07-0.505,0.211-0.721c0.141-0.216,0.34-0.381,0.599-0.494c0.259-0.112,0.7-0.214,1.325-0.304
		c1.102-0.157,1.929-0.349,2.481-0.574V219.461L187.558,219.461z M192.966,223.401v-4.894c0-1.147,0.235-1.926,0.704-2.337
		c0.47-0.411,1.028-0.616,1.675-0.616c0.405,0,0.758,0.091,1.059,0.274c0.301,0.183,0.51,0.428,0.629,0.734
		c0.118,0.307,0.177,0.769,0.177,1.388v5.45h1.519v-5.509c0-0.703-0.028-1.195-0.084-1.477c-0.09-0.433-0.248-0.807-0.472-1.122
		c-0.225-0.315-0.564-0.57-1.017-0.764c-0.453-0.194-0.949-0.291-1.489-0.291c-1.243,0-2.194,0.492-2.852,1.477v-1.274h-1.367v8.96
		H192.966L192.966,223.401z"/>
	<path d="M210.519,223.401c0.748,0,1.41-0.07,1.987-0.211c0.577-0.141,1.069-0.347,1.477-0.62c0.408-0.273,0.783-0.647,1.126-1.122
		c0.343-0.475,0.624-1.076,0.844-1.801c0.219-0.726,0.329-1.558,0.329-2.497c0-1.102-0.162-2.083-0.485-2.94
		c-0.324-0.858-0.811-1.562-1.464-2.114c-0.501-0.427-1.105-0.723-1.814-0.886c-0.506-0.118-1.24-0.177-2.202-0.177h-4.261v12.369
		H210.519L210.519,223.401z M207.692,212.491h2.599c0.973,0,1.679,0.084,2.118,0.253c0.607,0.236,1.123,0.702,1.548,1.396
		c0.425,0.695,0.637,1.689,0.637,2.983c0,0.934-0.108,1.728-0.325,2.383c-0.217,0.655-0.519,1.177-0.907,1.565
		c-0.276,0.276-0.645,0.489-1.109,0.641c-0.464,0.152-1.104,0.228-1.919,0.228h-2.641V212.491L207.692,212.491z M219.867,212.778
		v-1.746h-1.519v1.746H219.867L219.867,212.778z M219.867,223.401v-8.96h-1.519v8.96H219.867L219.867,223.401z M224.052,223.401
		v-7.779h1.746v-1.181h-1.746v-0.827c0-0.54,0.096-0.908,0.287-1.105c0.191-0.197,0.517-0.295,0.979-0.295
		c0.281,0,0.579,0.028,0.894,0.084l0.228-1.325c-0.518-0.101-0.99-0.152-1.417-0.152c-0.664,0-1.18,0.122-1.548,0.367
		c-0.368,0.245-0.626,0.564-0.772,0.958c-0.107,0.293-0.16,0.74-0.16,1.342v0.953H221.2v1.181h1.342v7.779H224.052L224.052,223.401z
		 M228.853,223.401v-7.779h1.746v-1.181h-1.746v-0.827c0-0.54,0.096-0.908,0.287-1.105c0.191-0.197,0.517-0.295,0.979-0.295
		c0.281,0,0.579,0.028,0.894,0.084l0.228-1.325c-0.518-0.101-0.99-0.152-1.417-0.152c-0.664,0-1.18,0.122-1.548,0.367
		c-0.368,0.245-0.626,0.564-0.772,0.958c-0.107,0.293-0.16,0.74-0.16,1.342v0.953h-1.342v1.181h1.342v7.779H228.853L228.853,223.401
		z"/>
	<path d="M1.426,90.686c-0.309,0.155-0.57,0.361-0.78,0.62c-0.211,0.259-0.371,0.558-0.481,0.899C0.055,92.545,0,92.898,0,93.263
		c0,0.574,0.09,1.115,0.27,1.624c0.18,0.509,0.435,0.967,0.764,1.375c0.329,0.408,0.723,0.752,1.181,1.034
		c0.458,0.281,0.969,0.481,1.531,0.599l12.276,2.607v-1.519l-4.581-0.97c0.259-0.186,0.474-0.359,0.645-0.519
		c0.172-0.16,0.309-0.333,0.413-0.519c0.104-0.186,0.178-0.395,0.224-0.629c0.045-0.233,0.068-0.516,0.068-0.848
		c0-0.399-0.054-0.789-0.16-1.169c-0.107-0.38-0.257-0.738-0.451-1.076c-0.194-0.337-0.427-0.645-0.7-0.924
		c-0.273-0.278-0.574-0.519-0.903-0.721c-0.329-0.202-0.682-0.36-1.059-0.472c-0.377-0.112-0.768-0.169-1.173-0.169
		c-0.388,0-0.731,0.058-1.029,0.173c-0.298,0.115-0.554,0.281-0.768,0.498c-0.214,0.217-0.382,0.475-0.506,0.776
		c-0.124,0.301-0.208,0.637-0.253,1.008c-0.073-0.405-0.208-0.787-0.405-1.147c-0.197-0.36-0.439-0.675-0.726-0.945
		s-0.614-0.484-0.983-0.641c-0.368-0.157-0.766-0.236-1.194-0.236C2.087,90.454,1.735,90.531,1.426,90.686L1.426,90.686z
		 M3.995,92.23c0.318,0.211,0.572,0.482,0.764,0.814c0.191,0.332,0.328,0.703,0.409,1.114c0.082,0.411,0.122,0.816,0.122,1.215
		l1.105,0.236V95.55c0-0.36,0.027-0.718,0.08-1.076c0.054-0.357,0.156-0.679,0.308-0.966c0.152-0.287,0.366-0.519,0.641-0.696
		c0.276-0.177,0.636-0.266,1.08-0.266c0.399,0,0.788,0.073,1.164,0.219c0.377,0.146,0.713,0.349,1.008,0.607
		c0.295,0.259,0.533,0.565,0.713,0.92c0.18,0.354,0.27,0.74,0.27,1.156c0,0.326-0.056,0.616-0.169,0.869
		c-0.112,0.253-0.267,0.467-0.464,0.641c-0.197,0.174-0.429,0.307-0.696,0.397c-0.267,0.09-0.558,0.135-0.873,0.135
		c-0.163,0-0.325-0.01-0.485-0.03c-0.16-0.02-0.322-0.046-0.485-0.08l-4.699-0.996c-0.371-0.079-0.712-0.19-1.021-0.333
		c-0.309-0.143-0.576-0.325-0.802-0.544c-0.225-0.219-0.401-0.482-0.527-0.789c-0.127-0.307-0.19-0.662-0.19-1.067
		c0-0.231,0.035-0.451,0.105-0.662c0.07-0.211,0.172-0.397,0.304-0.557c0.132-0.16,0.294-0.287,0.485-0.38
		c0.191-0.093,0.411-0.139,0.658-0.139C3.279,91.913,3.677,92.019,3.995,92.23L3.995,92.23z"/>
	
		<line style="fill:none;stroke:#CA3300;stroke-width:2.16;stroke-miterlimit:3.25;" x1="64.959" y1="240.846" x2="77.201" y2="240.846"/>
	<path d="M85.288,244.445v-6.142l2.087,6.142h0.861l2.097-6.039v6.039h0.92v-7.215h-1.284l-1.727,5.02
		c-0.174,0.509-0.302,0.894-0.384,1.157c-0.072-0.236-0.187-0.592-0.344-1.068l-1.708-5.108h-1.437v7.215H85.288L85.288,244.445z
		 M96.268,244.445h0.925c-0.112-0.2-0.186-0.409-0.224-0.627c-0.038-0.218-0.057-0.739-0.057-1.563v-1.181
		c0-0.394-0.015-0.666-0.044-0.817c-0.053-0.243-0.144-0.444-0.276-0.603c-0.131-0.159-0.336-0.291-0.615-0.396
		c-0.279-0.105-0.641-0.157-1.088-0.157c-0.45,0-0.845,0.062-1.186,0.185c-0.341,0.123-0.602,0.299-0.783,0.527
		c-0.18,0.228-0.31,0.527-0.389,0.898l0.866,0.118c0.095-0.371,0.242-0.629,0.44-0.775c0.198-0.146,0.506-0.219,0.923-0.219
		c0.446,0,0.783,0.1,1.009,0.3c0.167,0.148,0.251,0.402,0.251,0.763c0,0.033-0.002,0.11-0.005,0.231
		c-0.338,0.118-0.865,0.22-1.58,0.305c-0.351,0.043-0.614,0.087-0.787,0.133c-0.236,0.066-0.449,0.162-0.637,0.29
		c-0.189,0.128-0.341,0.298-0.458,0.509c-0.117,0.212-0.175,0.445-0.175,0.701c0,0.436,0.154,0.795,0.463,1.075
		c0.308,0.281,0.75,0.421,1.324,0.421c0.348,0,0.673-0.057,0.977-0.172c0.303-0.115,0.619-0.312,0.947-0.591
		C96.117,244.046,96.176,244.261,96.268,244.445L96.268,244.445L96.268,244.445z M96.017,242.146c0,0.39-0.048,0.686-0.143,0.886
		c-0.125,0.259-0.32,0.463-0.586,0.613c-0.266,0.149-0.569,0.224-0.91,0.224c-0.345,0-0.606-0.079-0.785-0.236
		c-0.179-0.157-0.268-0.354-0.268-0.591c0-0.154,0.041-0.294,0.123-0.421c0.082-0.126,0.198-0.222,0.349-0.288
		c0.151-0.066,0.408-0.125,0.773-0.177c0.643-0.092,1.125-0.203,1.447-0.335V242.146L96.017,242.146z M99.172,244.445v-2.854
		c0-0.669,0.137-1.124,0.411-1.363c0.274-0.239,0.6-0.359,0.977-0.359c0.236,0,0.442,0.053,0.618,0.16
		c0.175,0.107,0.298,0.249,0.367,0.428c0.069,0.179,0.103,0.449,0.103,0.81v3.179h0.886v-3.214c0-0.41-0.016-0.697-0.049-0.861
		c-0.053-0.253-0.144-0.471-0.276-0.655c-0.131-0.184-0.329-0.332-0.593-0.445c-0.264-0.113-0.554-0.17-0.869-0.17
		c-0.725,0-1.28,0.287-1.663,0.861v-0.743h-0.797v5.227H99.172L99.172,244.445z M104.777,244.445v-2.854
		c0-0.669,0.137-1.124,0.411-1.363c0.274-0.239,0.6-0.359,0.977-0.359c0.236,0,0.442,0.053,0.618,0.16
		c0.175,0.107,0.298,0.249,0.367,0.428c0.069,0.179,0.103,0.449,0.103,0.81v3.179h0.886v-3.214c0-0.41-0.016-0.697-0.049-0.861
		c-0.053-0.253-0.144-0.471-0.276-0.655c-0.131-0.184-0.329-0.332-0.593-0.445c-0.264-0.113-0.554-0.17-0.869-0.17
		c-0.725,0-1.28,0.287-1.663,0.861v-0.743h-0.797v5.227H104.777L104.777,244.445z"/>
	<polygon points="114.162,241.408 109.388,241.408 109.388,242.235 114.162,242.235 114.162,241.408 	"/>
	<path d="M117.73,244.445l1.531-5.497c0.066-0.233,0.136-0.515,0.212-0.846c0.023,0.105,0.098,0.387,0.226,0.846l1.521,5.497h0.92
		l1.978-7.215h-0.96l-1.132,4.636c-0.148,0.591-0.267,1.114-0.359,1.57c-0.115-0.797-0.302-1.649-0.561-2.554l-1.033-3.652h-1.152
		l-1.373,4.872c-0.033,0.118-0.141,0.563-0.325,1.334c-0.085-0.489-0.187-0.981-0.305-1.476l-1.097-4.729h-0.979l1.914,7.215H117.73
		L117.73,244.445z M125.782,244.445v-2.859c0-0.41,0.049-0.732,0.148-0.965c0.098-0.233,0.263-0.417,0.495-0.554
		c0.231-0.136,0.478-0.204,0.741-0.204c0.351,0,0.623,0.101,0.814,0.303c0.192,0.202,0.288,0.524,0.288,0.967v3.312h0.886v-3.312
		c0-0.512-0.062-0.902-0.185-1.171c-0.123-0.269-0.327-0.48-0.613-0.632c-0.285-0.153-0.622-0.229-1.009-0.229
		c-0.63,0-1.152,0.24-1.565,0.719v-2.589h-0.886v7.215H125.782L125.782,244.445z M131.392,238.249v-1.019h-0.886v1.019H131.392
		L131.392,238.249z M131.392,244.445v-5.227h-0.886v5.227H131.392L131.392,244.445z M134.286,243.687
		c-0.131,0-0.232-0.021-0.303-0.064c-0.071-0.043-0.121-0.1-0.153-0.172c-0.031-0.072-0.047-0.235-0.047-0.487v-3.056h0.891v-0.689
		h-0.891v-1.826l-0.881,0.532v1.294h-0.65v0.689h0.65v3.007c0,0.532,0.036,0.88,0.108,1.046c0.072,0.166,0.197,0.299,0.374,0.401
		s0.426,0.153,0.748,0.153c0.197,0,0.42-0.026,0.669-0.079l-0.128-0.783C134.514,243.675,134.384,243.687,134.286,243.687
		L134.286,243.687L134.286,243.687z M136.427,244.445v-2.854c0-0.669,0.137-1.124,0.411-1.363c0.274-0.239,0.6-0.359,0.977-0.359
		c0.236,0,0.442,0.053,0.618,0.16c0.175,0.107,0.298,0.249,0.367,0.428c0.069,0.179,0.103,0.449,0.103,0.81v3.179h0.886v-3.214
		c0-0.41-0.016-0.697-0.049-0.861c-0.053-0.253-0.144-0.471-0.276-0.655c-0.131-0.184-0.329-0.332-0.593-0.445
		c-0.264-0.113-0.554-0.17-0.869-0.17c-0.725,0-1.28,0.287-1.663,0.861v-0.743h-0.797v5.227H136.427L136.427,244.445z
		 M144.178,243.578c-0.23,0.171-0.507,0.256-0.832,0.256c-0.436,0-0.801-0.153-1.093-0.458c-0.292-0.305-0.454-0.745-0.487-1.319
		h3.898c0.003-0.105,0.005-0.184,0.005-0.236c0-0.863-0.221-1.532-0.664-2.008c-0.443-0.476-1.014-0.714-1.713-0.714
		c-0.722,0-1.309,0.243-1.762,0.728c-0.453,0.486-0.679,1.168-0.679,2.047c0,0.85,0.224,1.51,0.672,1.981
		c0.448,0.471,1.054,0.706,1.818,0.706c0.607,0,1.106-0.148,1.496-0.443c0.39-0.295,0.658-0.71,0.802-1.245l-0.915-0.113
		C144.59,243.136,144.408,243.408,144.178,243.578L144.178,243.578z M142.276,240.237c0.277-0.272,0.619-0.408,1.026-0.408
		c0.449,0,0.815,0.171,1.097,0.512c0.184,0.22,0.295,0.55,0.335,0.989h-2.918C141.845,240.873,141.999,240.509,142.276,240.237
		L142.276,240.237z M147.283,246.566c0.282,0,0.525-0.068,0.728-0.204c0.203-0.136,0.384-0.35,0.541-0.642
		c0.118-0.217,0.284-0.612,0.497-1.186l1.988-5.315h-0.886l-1.117,3.046c-0.141,0.387-0.263,0.784-0.364,1.191
		c-0.112-0.423-0.238-0.827-0.379-1.211l-1.088-3.027h-0.955l1.983,5.236c-0.036,0.095-0.062,0.167-0.079,0.217
		c-0.125,0.351-0.215,0.571-0.271,0.659c-0.076,0.118-0.172,0.21-0.29,0.276c-0.118,0.066-0.276,0.098-0.472,0.098
		c-0.144,0-0.313-0.026-0.507-0.079l0.098,0.832C146.922,246.53,147.113,246.566,147.283,246.566L147.283,246.566L147.283,246.566z"
		/>
	
		<line style="fill:none;stroke:#3163CE;stroke-width:2.16;stroke-miterlimit:3.25;" x1="161.064" y1="240.846" x2="173.303" y2="240.846"/>
	<path d="M181.601,244.445v-2.5l1.181-1.152l2.569,3.652h1.26l-3.16-4.291l3.027-2.923h-1.294l-3.583,3.578v-3.578h-0.955v7.215
		H181.601L181.601,244.445z M187.642,243.859c0.451,0.469,1.042,0.704,1.774,0.704c0.456,0,0.877-0.107,1.262-0.32
		c0.385-0.213,0.679-0.513,0.881-0.898c0.202-0.385,0.303-0.915,0.303-1.587c0-0.83-0.228-1.48-0.684-1.951
		c-0.456-0.471-1.043-0.706-1.762-0.706c-0.646,0-1.194,0.194-1.644,0.581c-0.538,0.466-0.807,1.183-0.807,2.151
		C186.965,242.714,187.191,243.39,187.642,243.859L187.642,243.859z M188.314,240.33c0.292-0.331,0.659-0.497,1.102-0.497
		c0.436,0,0.801,0.167,1.095,0.5c0.294,0.333,0.44,0.823,0.44,1.469c0,0.686-0.146,1.196-0.438,1.531
		c-0.292,0.335-0.658,0.502-1.097,0.502c-0.443,0-0.81-0.166-1.102-0.5c-0.292-0.333-0.438-0.834-0.438-1.504
		C187.876,241.162,188.022,240.662,188.314,240.33L188.314,240.33z M193.767,244.445v-7.215h-0.886v7.215H193.767L193.767,244.445z
		 M196.026,244.445v-2.712c0-0.476,0.048-0.84,0.143-1.093c0.095-0.253,0.249-0.445,0.46-0.576c0.212-0.131,0.442-0.197,0.691-0.197
		c0.328,0,0.564,0.098,0.709,0.295c0.144,0.197,0.217,0.492,0.217,0.886v3.396h0.886v-3.037c0-0.538,0.121-0.929,0.364-1.174
		c0.243-0.244,0.548-0.367,0.915-0.367c0.203,0,0.381,0.048,0.532,0.143c0.151,0.095,0.255,0.221,0.312,0.376
		c0.057,0.156,0.086,0.411,0.086,0.765v3.292h0.881v-3.588c0-0.597-0.139-1.039-0.418-1.326c-0.279-0.287-0.678-0.431-1.196-0.431
		c-0.663,0-1.201,0.305-1.614,0.915c-0.102-0.289-0.276-0.513-0.524-0.674c-0.248-0.161-0.565-0.241-0.952-0.241
		c-0.348,0-0.658,0.078-0.93,0.234c-0.272,0.156-0.491,0.362-0.655,0.618v-0.733h-0.792v5.227H196.026L196.026,244.445z
		 M203.883,243.859c0.451,0.469,1.042,0.704,1.774,0.704c0.456,0,0.877-0.107,1.262-0.32c0.385-0.213,0.679-0.513,0.881-0.898
		c0.202-0.385,0.303-0.915,0.303-1.587c0-0.83-0.228-1.48-0.684-1.951c-0.456-0.471-1.043-0.706-1.762-0.706
		c-0.646,0-1.194,0.194-1.644,0.581c-0.538,0.466-0.807,1.183-0.807,2.151C203.206,242.714,203.431,243.39,203.883,243.859
		L203.883,243.859z M204.554,240.33c0.292-0.331,0.659-0.497,1.102-0.497c0.436,0,0.801,0.167,1.095,0.5
		c0.294,0.333,0.44,0.823,0.44,1.469c0,0.686-0.146,1.196-0.438,1.531c-0.292,0.335-0.658,0.502-1.097,0.502
		c-0.443,0-0.81-0.166-1.102-0.5c-0.292-0.333-0.438-0.834-0.438-1.504C204.116,241.162,204.262,240.662,204.554,240.33
		L204.554,240.33z M209.535,246.145c0.384,0.281,0.887,0.421,1.511,0.421c0.525,0,0.967-0.098,1.326-0.295
		c0.359-0.197,0.622-0.465,0.787-0.805c0.166-0.34,0.249-0.916,0.249-1.73v-4.518h-0.817v0.63c-0.4-0.499-0.909-0.748-1.526-0.748
		c-0.463,0-0.865,0.115-1.208,0.344c-0.343,0.23-0.605,0.555-0.785,0.977c-0.18,0.422-0.271,0.882-0.271,1.38
		c0,0.725,0.197,1.347,0.591,1.865c0.394,0.518,0.95,0.778,1.668,0.778c0.577,0,1.06-0.228,1.447-0.684
		c0.003,0.577-0.018,0.956-0.064,1.137c-0.079,0.295-0.23,0.525-0.453,0.689c-0.223,0.164-0.54,0.246-0.95,0.246
		c-0.381,0-0.681-0.082-0.901-0.246c-0.164-0.121-0.264-0.315-0.3-0.581l-0.861-0.128
		C208.966,245.442,209.151,245.864,209.535,246.145L209.535,246.145z M210.125,240.313c0.276-0.32,0.61-0.48,1.004-0.48
		c0.4,0,0.742,0.162,1.026,0.487c0.284,0.325,0.426,0.807,0.426,1.447c0,0.669-0.138,1.161-0.413,1.474
		c-0.276,0.313-0.617,0.47-1.024,0.47c-0.41,0-0.751-0.157-1.024-0.472c-0.272-0.315-0.408-0.815-0.408-1.501
		C209.712,241.108,209.85,240.633,210.125,240.313L210.125,240.313z M215.094,243.859c0.451,0.469,1.042,0.704,1.774,0.704
		c0.456,0,0.877-0.107,1.262-0.32c0.385-0.213,0.679-0.513,0.881-0.898c0.202-0.385,0.303-0.915,0.303-1.587
		c0-0.83-0.228-1.48-0.684-1.951c-0.456-0.471-1.043-0.706-1.762-0.706c-0.646,0-1.194,0.194-1.644,0.581
		c-0.538,0.466-0.807,1.183-0.807,2.151C214.417,242.714,214.642,243.39,215.094,243.859L215.094,243.859z M215.765,240.33
		c0.292-0.331,0.659-0.497,1.102-0.497c0.436,0,0.801,0.167,1.095,0.5c0.294,0.333,0.44,0.823,0.44,1.469
		c0,0.686-0.146,1.196-0.438,1.531c-0.292,0.335-0.658,0.502-1.097,0.502c-0.443,0-0.81-0.166-1.102-0.5
		c-0.292-0.333-0.438-0.834-0.438-1.504C215.327,241.162,215.473,240.662,215.765,240.33L215.765,240.33z M221.228,244.445v-2.736
		c0-0.374,0.049-0.719,0.148-1.033c0.066-0.207,0.175-0.368,0.33-0.485c0.154-0.116,0.328-0.175,0.522-0.175
		c0.217,0,0.433,0.064,0.65,0.192l0.305-0.822c-0.308-0.19-0.612-0.285-0.91-0.285c-0.207,0-0.396,0.059-0.568,0.177
		c-0.172,0.118-0.36,0.363-0.564,0.733v-0.792h-0.797v5.227H221.228L221.228,244.445z M224.056,243.859
		c0.451,0.469,1.042,0.704,1.774,0.704c0.456,0,0.877-0.107,1.262-0.32c0.385-0.213,0.679-0.513,0.881-0.898
		c0.202-0.385,0.303-0.915,0.303-1.587c0-0.83-0.228-1.48-0.684-1.951c-0.456-0.471-1.043-0.706-1.762-0.706
		c-0.646,0-1.194,0.194-1.644,0.581c-0.538,0.466-0.807,1.183-0.807,2.151C223.379,242.714,223.604,243.39,224.056,243.859
		L224.056,243.859z M224.727,240.33c0.292-0.331,0.659-0.497,1.102-0.497c0.436,0,0.801,0.167,1.095,0.5
		c0.294,0.333,0.44,0.823,0.44,1.469c0,0.686-0.146,1.196-0.438,1.531c-0.292,0.335-0.658,0.502-1.097,0.502
		c-0.443,0-0.81-0.166-1.102-0.5c-0.292-0.333-0.438-0.834-0.438-1.504C224.289,241.162,224.435,240.662,224.727,240.33
		L224.727,240.33z M231.593,244.445l1.978-5.227h-0.91l-1.161,3.189c-0.141,0.387-0.251,0.719-0.33,0.994
		c-0.102-0.364-0.213-0.715-0.335-1.053l-1.122-3.13h-0.935l1.988,5.227H231.593L231.593,244.445z"/>
	<polygon points="239.019,241.408 234.245,241.408 234.245,242.235 239.019,242.235 239.019,241.408 	"/>
	<path d="M240.424,243.423c0.251,0.382,0.597,0.669,1.038,0.859c0.441,0.19,0.988,0.285,1.641,0.285c0.515,0,0.979-0.094,1.39-0.283
		c0.412-0.189,0.728-0.453,0.947-0.792c0.22-0.34,0.33-0.701,0.33-1.085c0-0.387-0.1-0.729-0.3-1.026
		c-0.2-0.297-0.51-0.542-0.93-0.736c-0.289-0.131-0.821-0.285-1.597-0.46c-0.776-0.175-1.256-0.347-1.44-0.514
		c-0.187-0.167-0.281-0.381-0.281-0.64c0-0.299,0.132-0.554,0.396-0.765c0.264-0.212,0.685-0.317,1.262-0.317
		c0.554,0,0.974,0.117,1.257,0.349c0.284,0.233,0.45,0.577,0.5,1.034l0.915-0.069c-0.016-0.423-0.135-0.802-0.354-1.137
		c-0.22-0.335-0.534-0.588-0.942-0.76c-0.408-0.172-0.88-0.258-1.415-0.258c-0.486,0-0.927,0.082-1.324,0.246
		c-0.397,0.164-0.699,0.404-0.906,0.721c-0.207,0.317-0.31,0.657-0.31,1.021c0,0.331,0.084,0.631,0.253,0.898
		c0.169,0.267,0.426,0.491,0.77,0.672c0.266,0.141,0.73,0.291,1.393,0.45c0.663,0.159,1.091,0.276,1.285,0.352
		c0.302,0.115,0.518,0.257,0.65,0.426c0.131,0.169,0.197,0.367,0.197,0.593c0,0.223-0.068,0.429-0.204,0.618
		c-0.136,0.189-0.344,0.337-0.623,0.445c-0.279,0.108-0.6,0.162-0.965,0.162c-0.41,0-0.779-0.071-1.107-0.214
		c-0.328-0.143-0.57-0.33-0.726-0.561c-0.156-0.231-0.255-0.527-0.298-0.888l-0.901,0.079
		C240.041,242.609,240.173,243.041,240.424,243.423L240.424,243.423z M247.848,244.445v-2.712c0-0.476,0.048-0.84,0.143-1.093
		c0.095-0.253,0.249-0.445,0.46-0.576c0.212-0.131,0.442-0.197,0.691-0.197c0.328,0,0.564,0.098,0.709,0.295
		c0.144,0.197,0.217,0.492,0.217,0.886v3.396h0.886v-3.037c0-0.538,0.121-0.929,0.364-1.174c0.243-0.244,0.548-0.367,0.915-0.367
		c0.203,0,0.381,0.048,0.532,0.143c0.151,0.095,0.255,0.221,0.312,0.376c0.057,0.156,0.086,0.411,0.086,0.765v3.292h0.881v-3.588
		c0-0.597-0.14-1.039-0.418-1.326c-0.279-0.287-0.678-0.431-1.196-0.431c-0.663,0-1.201,0.305-1.614,0.915
		c-0.102-0.289-0.276-0.513-0.524-0.674c-0.248-0.161-0.565-0.241-0.952-0.241c-0.348,0-0.658,0.078-0.93,0.234
		c-0.272,0.156-0.491,0.362-0.655,0.618v-0.733h-0.792v5.227H247.848L247.848,244.445z M256.249,238.249v-1.019h-0.886v1.019
		H256.249L256.249,238.249z M256.249,244.445v-5.227h-0.886v5.227H256.249L256.249,244.445z M258.474,244.445v-2.736
		c0-0.374,0.049-0.719,0.148-1.033c0.066-0.207,0.175-0.368,0.33-0.485c0.154-0.116,0.328-0.175,0.522-0.175
		c0.216,0,0.433,0.064,0.65,0.192l0.305-0.822c-0.308-0.19-0.612-0.285-0.91-0.285c-0.207,0-0.396,0.059-0.568,0.177
		c-0.172,0.118-0.36,0.363-0.563,0.733v-0.792h-0.797v5.227H258.474L258.474,244.445z M261.84,244.445v-2.854
		c0-0.669,0.137-1.124,0.411-1.363c0.274-0.239,0.6-0.359,0.977-0.359c0.236,0,0.442,0.053,0.618,0.16
		c0.175,0.107,0.298,0.249,0.367,0.428c0.069,0.179,0.103,0.449,0.103,0.81v3.179h0.886v-3.214c0-0.41-0.016-0.697-0.049-0.861
		c-0.053-0.253-0.144-0.471-0.276-0.655c-0.131-0.184-0.329-0.332-0.593-0.445c-0.264-0.113-0.554-0.17-0.869-0.17
		c-0.725,0-1.28,0.287-1.663,0.861v-0.743h-0.797v5.227H261.84L261.84,244.445z M266.906,243.859
		c0.451,0.469,1.042,0.704,1.774,0.704c0.456,0,0.877-0.107,1.262-0.32c0.385-0.213,0.679-0.513,0.881-0.898
		c0.202-0.385,0.303-0.915,0.303-1.587c0-0.83-0.228-1.48-0.684-1.951c-0.456-0.471-1.043-0.706-1.762-0.706
		c-0.646,0-1.194,0.194-1.644,0.581c-0.538,0.466-0.807,1.183-0.807,2.151C266.23,242.714,266.455,243.39,266.906,243.859
		L266.906,243.859z M267.578,240.33c0.292-0.331,0.659-0.497,1.102-0.497c0.436,0,0.801,0.167,1.095,0.5
		c0.294,0.333,0.44,0.823,0.44,1.469c0,0.686-0.146,1.196-0.438,1.531c-0.292,0.335-0.658,0.502-1.097,0.502
		c-0.443,0-0.81-0.166-1.102-0.5c-0.292-0.333-0.438-0.834-0.438-1.504C267.14,241.162,267.286,240.662,267.578,240.33
		L267.578,240.33z M274.444,244.445l1.978-5.227h-0.91l-1.161,3.189c-0.141,0.387-0.251,0.719-0.33,0.994
		c-0.102-0.364-0.213-0.715-0.335-1.053l-1.122-3.13h-0.935l1.988,5.227H274.444L274.444,244.445z"/>
</g>
</svg>
