<?xml version="1.0" encoding="iso-8859-1"?>
<!-- Generator: Adobe Illustrator 28.7.3, SVG Export Plug-In . SVG Version: 9.03 Build 54978)  -->
<svg version="1.1" id="Layer_1" xmlns="http://www.w3.org/2000/svg" xmlns:xlink="http://www.w3.org/1999/xlink" x="0px" y="0px"
	 viewBox="0 0 1920 1080" style="enable-background:new 0 0 1920 1080;" xml:space="preserve">
<g>
	<polyline style="fill:none;stroke:#CA3300;stroke-width:2.16;stroke-miterlimit:3.25;" points="825.912,594.022 840.779,593.835 
		855.611,592.917 870.365,592.362 885.014,587.936 899.514,583.881 913.834,576.694 927.939,567.846 941.803,558.999 
		955.393,551.807 968.678,542.405 981.635,533.928 994.24,525.631 1006.475,516.229 1018.318,506.092 1029.752,496.323 
		1040.768,487.475 1051.35,474.385 1061.494,463.327 1071.189,457.245 1080.439,449.503 	"/>
	<polyline style="fill:none;stroke:#3163CE;stroke-width:2.16;stroke-miterlimit:3.25;" points="825.912,596.049 840.779,596.233 
		855.611,595.495 870.365,594.022 885.014,593.284 899.514,589.596 913.834,585.542 927.939,582.038 941.803,575.588 
		955.393,571.346 968.678,564.342 981.635,557.706 994.24,551.624 1006.475,544.803 1018.318,534.296 1029.752,527.292 
		1040.768,519.549 1051.35,510.147 1061.494,501.854 1071.189,492.452 1080.439,484.155 	"/>
	<polyline style="fill:none;stroke:#FF9B00;stroke-width:2.16;stroke-miterlimit:3.25;" points="825.912,593.467 840.779,595.128 
		855.611,594.022 870.365,591.807 885.014,589.963 899.514,584.987 913.834,578.905 927.939,572.268 941.803,566.186 
		955.393,554.573 968.678,544.249 981.635,535.217 994.24,527.659 1006.475,518.26 1018.318,511.253 1029.752,499.639 
		1040.768,490.241 1051.35,479.362 1061.494,468.671 1071.189,460.928 1080.439,452.819 	"/>
	<path style="fill:none;stroke:#000000;stroke-width:0.144;stroke-linecap:square;stroke-miterlimit:3.25;" d="M1124.174,605.081
		H825.912 M825.912,605.081V420.745"/>
	
		<line style="fill:none;stroke:#000000;stroke-width:0.072;stroke-miterlimit:3.25;" x1="825.912" y1="605.081" x2="825.912" y2="602.1"/>
	<path d="M824.241,616.616c0.397,0.499,0.943,0.748,1.639,0.748c0.528,0,0.965-0.142,1.312-0.426
		c0.346-0.284,0.606-0.686,0.78-1.206c0.174-0.52,0.261-1.203,0.261-2.05c0-0.715-0.054-1.284-0.162-1.705
		c-0.108-0.422-0.258-0.779-0.448-1.073c-0.19-0.294-0.431-0.518-0.723-0.674c-0.292-0.156-0.632-0.234-1.019-0.234
		c-0.525,0-0.961,0.141-1.307,0.423c-0.346,0.282-0.607,0.683-0.783,1.203c-0.176,0.52-0.263,1.207-0.263,2.06
		C823.527,615.038,823.765,616.015,824.241,616.616L824.241,616.616L824.241,616.616z M824.895,611.246
		c0.243-0.344,0.568-0.517,0.974-0.517c0.413,0,0.759,0.195,1.036,0.586c0.277,0.39,0.416,1.18,0.416,2.367
		c0,1.181-0.139,1.969-0.416,2.362c-0.277,0.394-0.619,0.591-1.026,0.591c-0.407,0-0.749-0.196-1.026-0.588
		c-0.277-0.392-0.416-1.18-0.416-2.365C824.438,612.498,824.59,611.686,824.895,611.246L824.895,611.246L824.895,611.246z"/>
	
		<line style="fill:none;stroke:#000000;stroke-width:0.072;stroke-miterlimit:3.25;" x1="900.478" y1="605.081" x2="900.478" y2="602.1"/>
	<path d="M894.603,616.616c0.397,0.499,0.943,0.748,1.639,0.748c0.528,0,0.965-0.142,1.312-0.426
		c0.346-0.284,0.606-0.686,0.78-1.206c0.174-0.52,0.261-1.203,0.261-2.05c0-0.715-0.054-1.284-0.162-1.705
		c-0.108-0.422-0.258-0.779-0.448-1.073c-0.19-0.294-0.431-0.518-0.723-0.674c-0.292-0.156-0.632-0.234-1.019-0.234
		c-0.525,0-0.961,0.141-1.307,0.423c-0.346,0.282-0.607,0.683-0.783,1.203c-0.176,0.52-0.263,1.207-0.263,2.06
		C893.89,615.038,894.127,616.015,894.603,616.616L894.603,616.616L894.603,616.616z M895.258,611.246
		c0.243-0.344,0.568-0.517,0.974-0.517c0.413,0,0.759,0.195,1.036,0.586c0.277,0.39,0.416,1.18,0.416,2.367
		c0,1.181-0.139,1.969-0.416,2.362c-0.277,0.394-0.619,0.591-1.026,0.591c-0.407,0-0.749-0.196-1.026-0.588
		c-0.277-0.392-0.416-1.18-0.416-2.365C894.8,612.498,894.953,611.686,895.258,611.246L895.258,611.246L895.258,611.246z
		 M901.001,617.241v-1.009h-1.009v1.009H901.001L901.001,617.241z M905.632,609.996h-0.571c-0.154,0.312-0.417,0.633-0.787,0.965
		c-0.371,0.331-0.804,0.614-1.299,0.846v0.856c0.276-0.102,0.586-0.254,0.933-0.458c0.346-0.203,0.626-0.407,0.839-0.61v5.645h0.886
		V609.996L905.632,609.996z"/>
	
		<line style="fill:none;stroke:#000000;stroke-width:0.072;stroke-miterlimit:3.25;" x1="975.045" y1="605.081" x2="975.045" y2="602.1"/>
	<path d="M969.169,616.616c0.397,0.499,0.943,0.748,1.639,0.748c0.528,0,0.965-0.142,1.312-0.426
		c0.346-0.284,0.606-0.686,0.78-1.206c0.174-0.52,0.261-1.203,0.261-2.05c0-0.715-0.054-1.284-0.162-1.705
		c-0.108-0.422-0.258-0.779-0.448-1.073c-0.19-0.294-0.431-0.518-0.723-0.674c-0.292-0.156-0.632-0.234-1.019-0.234
		c-0.525,0-0.961,0.141-1.307,0.423c-0.346,0.282-0.607,0.683-0.783,1.203c-0.176,0.52-0.263,1.207-0.263,2.06
		C968.455,615.038,968.693,616.015,969.169,616.616L969.169,616.616L969.169,616.616z M969.823,611.246
		c0.243-0.344,0.568-0.517,0.974-0.517c0.413,0,0.759,0.195,1.036,0.586c0.277,0.39,0.416,1.18,0.416,2.367
		c0,1.181-0.139,1.969-0.416,2.362c-0.277,0.394-0.619,0.591-1.026,0.591c-0.407,0-0.749-0.196-1.026-0.588
		c-0.277-0.392-0.416-1.18-0.416-2.365C969.366,612.498,969.518,611.686,969.823,611.246L969.823,611.246L969.823,611.246z
		 M975.567,617.241v-1.009h-1.009v1.009H975.567L975.567,617.241z M977.978,616.389c0.098-0.161,0.223-0.321,0.374-0.48
		c0.151-0.159,0.492-0.462,1.024-0.908c0.636-0.538,1.092-0.961,1.366-1.27c0.274-0.308,0.47-0.602,0.588-0.881
		s0.177-0.563,0.177-0.851c0-0.568-0.202-1.043-0.605-1.427c-0.404-0.384-0.952-0.576-1.644-0.576c-0.686,0-1.232,0.178-1.639,0.534
		c-0.407,0.356-0.641,0.874-0.704,1.553l0.91,0.094c0.003-0.453,0.133-0.807,0.389-1.063c0.256-0.256,0.597-0.384,1.024-0.384
		c0.404,0,0.731,0.121,0.982,0.362s0.376,0.537,0.376,0.888c0,0.335-0.138,0.69-0.413,1.065c-0.276,0.376-0.805,0.885-1.59,1.528
		c-0.505,0.413-0.892,0.778-1.159,1.093c-0.267,0.315-0.462,0.635-0.583,0.96c-0.076,0.197-0.11,0.402-0.103,0.615h4.769v-0.851
		H977.978L977.978,616.389z"/>
	
		<line style="fill:none;stroke:#000000;stroke-width:0.072;stroke-miterlimit:3.25;" x1="1049.607" y1="605.081" x2="1049.607" y2="602.1"/>
	<path d="M1043.734,616.616c0.397,0.499,0.943,0.748,1.639,0.748c0.528,0,0.965-0.142,1.312-0.426
		c0.346-0.284,0.606-0.686,0.78-1.206c0.174-0.52,0.261-1.203,0.261-2.05c0-0.715-0.054-1.284-0.162-1.705
		c-0.108-0.422-0.258-0.779-0.448-1.073c-0.19-0.294-0.431-0.518-0.723-0.674c-0.292-0.156-0.632-0.234-1.019-0.234
		c-0.525,0-0.96,0.141-1.307,0.423c-0.346,0.282-0.607,0.683-0.782,1.203c-0.176,0.52-0.263,1.207-0.263,2.06
		C1043.021,615.038,1043.259,616.015,1043.734,616.616L1043.734,616.616L1043.734,616.616z M1044.389,611.246
		c0.243-0.344,0.568-0.517,0.974-0.517c0.413,0,0.759,0.195,1.036,0.586s0.416,1.18,0.416,2.367c0,1.181-0.139,1.969-0.416,2.362
		c-0.277,0.394-0.619,0.591-1.026,0.591s-0.749-0.196-1.026-0.588c-0.277-0.392-0.416-1.18-0.416-2.365
		C1043.931,612.498,1044.084,611.686,1044.389,611.246L1044.389,611.246L1044.389,611.246z M1050.132,617.241v-1.009h-1.009v1.009
		H1050.132L1050.132,617.241z M1052.148,616.803c0.418,0.377,0.944,0.566,1.577,0.566c0.702,0,1.283-0.219,1.742-0.657
		c0.459-0.438,0.689-0.972,0.689-1.602c0-0.466-0.118-0.854-0.354-1.164s-0.568-0.514-0.994-0.613
		c0.328-0.151,0.576-0.354,0.743-0.61c0.167-0.256,0.251-0.54,0.251-0.851c0-0.328-0.088-0.638-0.263-0.93
		c-0.176-0.292-0.429-0.522-0.76-0.691c-0.331-0.169-0.694-0.253-1.088-0.253c-0.571,0-1.048,0.163-1.432,0.49
		s-0.63,0.787-0.738,1.38l0.886,0.157c0.066-0.433,0.213-0.758,0.443-0.974c0.23-0.216,0.517-0.325,0.861-0.325
		c0.348,0,0.632,0.107,0.851,0.32c0.22,0.213,0.33,0.482,0.33,0.807c0,0.41-0.151,0.714-0.453,0.911
		c-0.302,0.197-0.641,0.295-1.019,0.295c-0.036,0-0.084-0.003-0.143-0.01l-0.098,0.778c0.249-0.066,0.458-0.098,0.625-0.098
		c0.41,0,0.748,0.132,1.014,0.396c0.266,0.264,0.399,0.6,0.399,1.006c0,0.427-0.144,0.784-0.431,1.073
		c-0.287,0.289-0.639,0.433-1.056,0.433c-0.351,0-0.649-0.111-0.893-0.332c-0.244-0.221-0.417-0.583-0.519-1.085l-0.886,0.118
		C1051.491,615.937,1051.729,616.425,1052.148,616.803L1052.148,616.803z"/>
	
		<line style="fill:none;stroke:#000000;stroke-width:0.072;stroke-miterlimit:3.25;" x1="1124.174" y1="605.081" x2="1124.174" y2="602.1"/>
	<path d="M1118.3,616.616c0.397,0.499,0.943,0.748,1.639,0.748c0.528,0,0.965-0.142,1.312-0.426c0.346-0.284,0.606-0.686,0.78-1.206
		s0.261-1.203,0.261-2.05c0-0.715-0.054-1.284-0.162-1.705c-0.108-0.422-0.258-0.779-0.448-1.073
		c-0.19-0.294-0.432-0.518-0.724-0.674c-0.292-0.156-0.632-0.234-1.019-0.234c-0.525,0-0.961,0.141-1.307,0.423
		c-0.346,0.282-0.607,0.683-0.783,1.203c-0.176,0.52-0.263,1.207-0.263,2.06C1117.586,615.038,1117.824,616.015,1118.3,616.616
		L1118.3,616.616L1118.3,616.616z M1118.954,611.246c0.243-0.344,0.568-0.517,0.974-0.517c0.413,0,0.759,0.195,1.036,0.586
		c0.277,0.39,0.416,1.18,0.416,2.367c0,1.181-0.139,1.969-0.416,2.362c-0.277,0.394-0.619,0.591-1.026,0.591
		c-0.407,0-0.749-0.196-1.026-0.588c-0.277-0.392-0.416-1.18-0.416-2.365C1118.497,612.498,1118.649,611.686,1118.954,611.246
		L1118.954,611.246L1118.954,611.246z M1124.698,617.241v-1.009h-1.009v1.009H1124.698L1124.698,617.241z M1129.718,617.241v-1.727
		h0.974v-0.812h-0.974v-4.675h-0.724l-3.292,4.675v0.812h3.13v1.727H1129.718L1129.718,617.241z M1126.573,614.701l2.259-3.253
		v3.253H1126.573L1126.573,614.701z"/>
	
		<line style="fill:none;stroke:#000000;stroke-width:0.072;stroke-miterlimit:3.25;" x1="825.912" y1="605.081" x2="828.893" y2="605.081"/>
	<path d="M819.278,607.956c0.397,0.499,0.943,0.748,1.639,0.748c0.528,0,0.965-0.142,1.312-0.426
		c0.346-0.284,0.606-0.686,0.78-1.206c0.174-0.52,0.261-1.203,0.261-2.05c0-0.715-0.054-1.284-0.162-1.705
		c-0.108-0.422-0.258-0.779-0.448-1.073c-0.19-0.294-0.431-0.518-0.723-0.674c-0.292-0.156-0.632-0.234-1.019-0.234
		c-0.525,0-0.961,0.141-1.307,0.423c-0.346,0.282-0.607,0.683-0.783,1.203c-0.176,0.52-0.263,1.207-0.263,2.06
		C818.564,606.378,818.802,607.355,819.278,607.956L819.278,607.956L819.278,607.956z M819.932,602.586
		c0.243-0.344,0.568-0.517,0.974-0.517c0.413,0,0.759,0.195,1.036,0.586c0.277,0.391,0.416,1.18,0.416,2.367
		c0,1.181-0.139,1.969-0.416,2.362c-0.277,0.394-0.619,0.591-1.026,0.591c-0.407,0-0.749-0.196-1.026-0.588
		c-0.277-0.392-0.416-1.18-0.416-2.365C819.475,603.838,819.627,603.026,819.932,602.586L819.932,602.586L819.932,602.586z"/>
	
		<line style="fill:none;stroke:#000000;stroke-width:0.072;stroke-miterlimit:3.25;" x1="825.912" y1="568.213" x2="828.893" y2="568.213"/>
	<path d="M810.872,571.088c0.397,0.499,0.943,0.748,1.639,0.748c0.528,0,0.965-0.142,1.312-0.426
		c0.346-0.284,0.606-0.686,0.78-1.206c0.174-0.52,0.261-1.203,0.261-2.05c0-0.715-0.054-1.284-0.162-1.705
		c-0.108-0.422-0.258-0.779-0.448-1.073c-0.19-0.294-0.432-0.518-0.723-0.674c-0.292-0.156-0.632-0.234-1.019-0.234
		c-0.525,0-0.961,0.141-1.307,0.423c-0.346,0.282-0.607,0.683-0.783,1.203c-0.176,0.52-0.263,1.207-0.263,2.06
		C810.158,569.51,810.396,570.488,810.872,571.088L810.872,571.088L810.872,571.088z M811.526,565.719
		c0.243-0.345,0.568-0.517,0.974-0.517c0.413,0,0.759,0.195,1.036,0.586c0.277,0.391,0.416,1.18,0.416,2.367
		c0,1.181-0.139,1.969-0.416,2.362c-0.277,0.394-0.619,0.591-1.026,0.591c-0.407,0-0.749-0.196-1.026-0.588
		c-0.277-0.392-0.416-1.18-0.416-2.365C811.069,566.971,811.221,566.159,811.526,565.719L811.526,565.719L811.526,565.719z
		 M817.27,571.713v-1.009h-1.009v1.009H817.27L817.27,571.713z M819.681,570.862c0.098-0.161,0.223-0.321,0.374-0.48
		c0.151-0.159,0.492-0.462,1.024-0.908c0.636-0.538,1.092-0.961,1.366-1.27c0.274-0.308,0.47-0.602,0.588-0.881
		c0.118-0.279,0.177-0.563,0.177-0.851c0-0.568-0.202-1.043-0.605-1.427s-0.952-0.576-1.644-0.576c-0.686,0-1.232,0.178-1.639,0.534
		c-0.407,0.356-0.641,0.874-0.704,1.553l0.91,0.094c0.003-0.453,0.133-0.807,0.389-1.063c0.256-0.256,0.597-0.384,1.024-0.384
		c0.404,0,0.731,0.121,0.982,0.362c0.251,0.241,0.377,0.537,0.377,0.888c0,0.335-0.138,0.69-0.413,1.065
		c-0.276,0.376-0.806,0.885-1.59,1.528c-0.505,0.413-0.892,0.778-1.159,1.093c-0.267,0.315-0.462,0.635-0.583,0.96
		c-0.076,0.197-0.11,0.402-0.103,0.615h4.769v-0.851H819.681L819.681,570.862z"/>
	
		<line style="fill:none;stroke:#000000;stroke-width:0.072;stroke-miterlimit:3.25;" x1="825.912" y1="531.346" x2="828.893" y2="531.346"/>
	<path d="M810.872,534.221c0.397,0.499,0.943,0.748,1.639,0.748c0.528,0,0.965-0.142,1.312-0.426
		c0.346-0.284,0.606-0.686,0.78-1.206c0.174-0.52,0.261-1.203,0.261-2.05c0-0.715-0.054-1.284-0.162-1.705
		c-0.108-0.422-0.258-0.779-0.448-1.073c-0.19-0.294-0.432-0.518-0.723-0.674c-0.292-0.156-0.632-0.234-1.019-0.234
		c-0.525,0-0.961,0.141-1.307,0.423c-0.346,0.282-0.607,0.683-0.783,1.203c-0.176,0.52-0.263,1.207-0.263,2.06
		C810.158,532.643,810.396,533.621,810.872,534.221L810.872,534.221L810.872,534.221z M811.526,528.852
		c0.243-0.344,0.568-0.517,0.974-0.517c0.413,0,0.759,0.195,1.036,0.586c0.277,0.391,0.416,1.18,0.416,2.367
		c0,1.181-0.139,1.969-0.416,2.362c-0.277,0.394-0.619,0.591-1.026,0.591c-0.407,0-0.749-0.196-1.026-0.588
		c-0.277-0.392-0.416-1.18-0.416-2.365C811.069,530.104,811.221,529.292,811.526,528.852L811.526,528.852L811.526,528.852z
		 M817.27,534.846v-1.009h-1.009v1.009H817.27L817.27,534.846z M822.289,534.846v-1.727h0.974v-0.812h-0.974v-4.675h-0.723
		l-3.292,4.675v0.812h3.13v1.727H822.289L822.289,534.846z M819.145,532.307l2.259-3.253v3.253H819.145L819.145,532.307z"/>
	
		<line style="fill:none;stroke:#000000;stroke-width:0.072;stroke-miterlimit:3.25;" x1="825.912" y1="494.479" x2="828.893" y2="494.479"/>
	<path d="M810.872,497.354c0.397,0.499,0.943,0.748,1.639,0.748c0.528,0,0.965-0.142,1.312-0.426
		c0.346-0.284,0.606-0.686,0.78-1.206c0.174-0.52,0.261-1.203,0.261-2.05c0-0.715-0.054-1.284-0.162-1.705
		c-0.108-0.422-0.258-0.779-0.448-1.073c-0.19-0.294-0.432-0.518-0.723-0.674c-0.292-0.156-0.632-0.234-1.019-0.234
		c-0.525,0-0.961,0.141-1.307,0.423c-0.346,0.282-0.607,0.683-0.783,1.203c-0.176,0.52-0.263,1.207-0.263,2.06
		C810.158,495.776,810.396,496.753,810.872,497.354L810.872,497.354L810.872,497.354z M811.526,491.985
		c0.243-0.344,0.568-0.517,0.974-0.517c0.413,0,0.759,0.195,1.036,0.586c0.277,0.391,0.416,1.18,0.416,2.367
		c0,1.181-0.139,1.969-0.416,2.362c-0.277,0.394-0.619,0.591-1.026,0.591c-0.407,0-0.749-0.196-1.026-0.588
		c-0.277-0.392-0.416-1.18-0.416-2.365C811.069,493.236,811.221,492.424,811.526,491.985L811.526,491.985L811.526,491.985z
		 M817.27,497.979v-1.009h-1.009v1.009H817.27L817.27,497.979z M822.508,491.212c-0.363-0.318-0.828-0.477-1.395-0.477
		c-0.761,0-1.367,0.276-1.816,0.827c-0.515,0.633-0.773,1.647-0.773,3.041c0,1.247,0.233,2.142,0.699,2.685
		c0.466,0.543,1.068,0.814,1.806,0.814c0.433,0,0.82-0.103,1.161-0.31c0.341-0.207,0.609-0.504,0.805-0.893s0.293-0.81,0.293-1.262
		c0-0.689-0.208-1.251-0.623-1.686c-0.415-0.435-0.918-0.652-1.508-0.652c-0.338,0-0.661,0.079-0.969,0.236
		c-0.308,0.158-0.569,0.399-0.783,0.723c0.007-0.722,0.09-1.278,0.251-1.668c0.161-0.39,0.381-0.687,0.659-0.891
		c0.213-0.158,0.461-0.236,0.743-0.236c0.351,0,0.646,0.126,0.886,0.379c0.144,0.157,0.256,0.41,0.335,0.758l0.881-0.069
		C823.088,491.97,822.871,491.53,822.508,491.212L822.508,491.212z M819.962,494.512c0.279-0.287,0.618-0.431,1.019-0.431
		c0.404,0,0.738,0.144,1.004,0.431c0.266,0.287,0.399,0.68,0.399,1.179c0,0.518-0.135,0.929-0.404,1.23
		c-0.269,0.302-0.591,0.453-0.965,0.453c-0.256,0-0.5-0.073-0.733-0.219c-0.233-0.146-0.414-0.358-0.544-0.637
		c-0.13-0.279-0.194-0.571-0.194-0.876C819.543,495.175,819.683,494.799,819.962,494.512L819.962,494.512z"/>
	
		<line style="fill:none;stroke:#000000;stroke-width:0.072;stroke-miterlimit:3.25;" x1="825.912" y1="457.612" x2="828.893" y2="457.612"/>
	<path d="M810.872,460.487c0.397,0.499,0.943,0.748,1.639,0.748c0.528,0,0.965-0.142,1.312-0.426
		c0.346-0.284,0.606-0.686,0.78-1.206c0.174-0.52,0.261-1.203,0.261-2.05c0-0.715-0.054-1.284-0.162-1.705
		c-0.108-0.422-0.258-0.779-0.448-1.073c-0.19-0.294-0.432-0.518-0.723-0.674c-0.292-0.156-0.632-0.234-1.019-0.234
		c-0.525,0-0.961,0.141-1.307,0.423c-0.346,0.282-0.607,0.683-0.783,1.203c-0.176,0.52-0.263,1.207-0.263,2.06
		C810.158,458.909,810.396,459.886,810.872,460.487L810.872,460.487L810.872,460.487z M811.526,455.117
		c0.243-0.344,0.568-0.517,0.974-0.517c0.413,0,0.759,0.195,1.036,0.586c0.277,0.391,0.416,1.18,0.416,2.367
		c0,1.181-0.139,1.969-0.416,2.362c-0.277,0.394-0.619,0.591-1.026,0.591c-0.407,0-0.749-0.196-1.026-0.588
		c-0.277-0.392-0.416-1.18-0.416-2.365C811.069,456.369,811.221,455.557,811.526,455.117L811.526,455.117L811.526,455.117z
		 M817.27,461.112v-1.009h-1.009v1.009H817.27L817.27,461.112z M818.911,457.846c-0.238,0.317-0.357,0.71-0.357,1.179
		c0,0.63,0.218,1.156,0.655,1.577c0.436,0.422,1.01,0.632,1.722,0.632c0.712,0,1.286-0.21,1.722-0.63
		c0.436-0.42,0.655-0.938,0.655-1.555c0-0.446-0.116-0.83-0.347-1.152c-0.231-0.322-0.568-0.554-1.011-0.699
		c0.358-0.135,0.624-0.326,0.8-0.573c0.175-0.248,0.263-0.539,0.263-0.874c0-0.525-0.192-0.97-0.576-1.336
		c-0.384-0.366-0.891-0.549-1.521-0.549c-0.627,0-1.129,0.179-1.506,0.536c-0.377,0.358-0.566,0.799-0.566,1.324
		c0,0.348,0.089,0.646,0.266,0.896c0.177,0.249,0.449,0.441,0.817,0.576C819.487,457.314,819.149,457.53,818.911,457.846
		L818.911,457.846z M820.085,454.92c0.223-0.217,0.504-0.325,0.842-0.325c0.335,0,0.614,0.111,0.839,0.332
		c0.225,0.221,0.337,0.495,0.337,0.819c0,0.312-0.109,0.575-0.327,0.79c-0.218,0.215-0.498,0.322-0.839,0.322
		c-0.351,0-0.637-0.108-0.856-0.325c-0.22-0.217-0.33-0.495-0.33-0.837C819.75,455.396,819.861,455.137,820.085,454.92
		L820.085,454.92z M819.875,457.996c0.274-0.276,0.619-0.413,1.036-0.413c0.427,0,0.782,0.139,1.066,0.418
		c0.284,0.279,0.426,0.632,0.426,1.058c0,0.42-0.138,0.766-0.413,1.038c-0.276,0.272-0.625,0.408-1.048,0.408
		c-0.272,0-0.527-0.065-0.763-0.194c-0.236-0.13-0.414-0.312-0.534-0.549c-0.12-0.236-0.18-0.481-0.18-0.733
		C819.464,458.616,819.601,458.272,819.875,457.996L819.875,457.996z"/>
	
		<line style="fill:none;stroke:#000000;stroke-width:0.072;stroke-miterlimit:3.25;" x1="825.912" y1="420.745" x2="828.893" y2="420.745"/>
	<path d="M813.495,417h-0.571c-0.154,0.312-0.417,0.633-0.787,0.965c-0.371,0.331-0.804,0.614-1.299,0.846v0.856
		c0.276-0.102,0.586-0.254,0.933-0.458c0.346-0.203,0.626-0.407,0.839-0.61v5.645h0.886V417L813.495,417z M817.27,424.244v-1.009
		h-1.009v1.009H817.27L817.27,424.244z M819.277,423.619c0.397,0.499,0.943,0.748,1.639,0.748c0.528,0,0.965-0.142,1.312-0.426
		c0.346-0.284,0.606-0.686,0.78-1.206c0.174-0.52,0.261-1.203,0.261-2.05c0-0.715-0.054-1.284-0.162-1.705
		c-0.108-0.422-0.258-0.779-0.448-1.073c-0.19-0.294-0.431-0.518-0.723-0.674c-0.292-0.156-0.632-0.234-1.019-0.234
		c-0.525,0-0.961,0.141-1.307,0.423c-0.346,0.282-0.607,0.683-0.783,1.203c-0.176,0.52-0.263,1.207-0.263,2.06
		C818.564,422.041,818.802,423.019,819.277,423.619L819.277,423.619L819.277,423.619z M819.932,418.25
		c0.243-0.345,0.568-0.517,0.974-0.517c0.413,0,0.759,0.195,1.036,0.586c0.277,0.39,0.416,1.18,0.416,2.367
		c0,1.181-0.139,1.969-0.416,2.362c-0.277,0.394-0.619,0.591-1.026,0.591c-0.407,0-0.749-0.196-1.026-0.588
		c-0.277-0.392-0.416-1.18-0.416-2.365C819.474,419.502,819.627,418.69,819.932,418.25L819.932,418.25L819.932,418.25z"/>
	<path d="M934.107,640.401v-10.53l3.577,10.53h1.477l3.594-10.352v10.352h1.578v-12.369h-2.202l-2.961,8.606
		c-0.298,0.872-0.518,1.533-0.658,1.983c-0.124-0.405-0.321-1.015-0.591-1.831l-2.928-8.758h-2.464v12.369H934.107L934.107,640.401z
		 M951.976,638.916c-0.394,0.293-0.869,0.439-1.426,0.439c-0.748,0-1.372-0.262-1.873-0.785c-0.501-0.523-0.779-1.277-0.835-2.261
		h6.682c0.006-0.18,0.008-0.315,0.008-0.405c0-1.479-0.38-2.627-1.139-3.442c-0.759-0.816-1.738-1.223-2.936-1.223
		c-1.237,0-2.244,0.416-3.021,1.249c-0.776,0.833-1.164,2.003-1.164,3.51c0,1.457,0.384,2.589,1.152,3.396
		c0.768,0.807,1.807,1.211,3.118,1.211c1.041,0,1.895-0.253,2.565-0.759c0.669-0.506,1.128-1.218,1.375-2.135l-1.569-0.194
		C952.682,638.156,952.37,638.623,951.976,638.916L951.976,638.916z M948.715,633.187c0.475-0.467,1.062-0.7,1.759-0.7
		c0.771,0,1.398,0.293,1.881,0.878c0.315,0.377,0.506,0.942,0.574,1.696h-5.003C947.977,634.278,948.24,633.654,948.715,633.187
		L948.715,633.187z M963.611,640.401v-12.369h-1.51v4.438c-0.264-0.366-0.607-0.662-1.029-0.89
		c-0.422-0.228-0.903-0.342-1.443-0.342c-0.737,0-1.404,0.194-2,0.582c-0.596,0.388-1.043,0.946-1.341,1.675
		c-0.298,0.728-0.447,1.54-0.447,2.434c0,0.917,0.165,1.728,0.494,2.434c0.329,0.706,0.793,1.256,1.392,1.649
		c0.599,0.394,1.256,0.591,1.97,0.591c1.102,0,1.938-0.444,2.506-1.333v1.131H963.611L963.611,640.401z M958.081,633.322
		c0.453-0.551,1.017-0.827,1.692-0.827c0.692,0,1.274,0.287,1.746,0.861c0.473,0.574,0.709,1.474,0.709,2.7
		c0,1.114-0.232,1.942-0.696,2.485c-0.464,0.543-1.028,0.814-1.692,0.814c-0.658,0-1.229-0.284-1.713-0.852
		c-0.484-0.568-0.726-1.426-0.726-2.573C957.401,634.742,957.628,633.873,958.081,633.322L958.081,633.322z M967.526,629.778v-1.746
		h-1.519v1.746H967.526L967.526,629.778z M967.526,640.401v-8.96h-1.519v8.96H967.526L967.526,640.401z M975.989,640.401h1.586
		c-0.191-0.343-0.319-0.702-0.384-1.076c-0.065-0.374-0.097-1.267-0.097-2.679v-2.025c0-0.675-0.025-1.142-0.076-1.401
		c-0.09-0.416-0.248-0.761-0.472-1.034c-0.225-0.273-0.577-0.499-1.055-0.679c-0.478-0.18-1.1-0.27-1.865-0.27
		c-0.771,0-1.448,0.105-2.033,0.316c-0.585,0.211-1.032,0.512-1.342,0.903c-0.309,0.391-0.531,0.904-0.667,1.54l1.485,0.203
		c0.163-0.636,0.415-1.078,0.755-1.329c0.34-0.25,0.868-0.375,1.582-0.375c0.765,0,1.342,0.172,1.73,0.515
		c0.287,0.253,0.43,0.689,0.43,1.308c0,0.056-0.003,0.188-0.008,0.396c-0.579,0.203-1.482,0.377-2.708,0.523
		c-0.602,0.073-1.052,0.149-1.35,0.228c-0.405,0.113-0.769,0.278-1.093,0.498c-0.323,0.219-0.585,0.51-0.785,0.873
		c-0.2,0.363-0.299,0.764-0.299,1.202c0,0.748,0.264,1.363,0.793,1.844c0.529,0.481,1.285,0.721,2.27,0.721
		c0.596,0,1.154-0.099,1.675-0.295c0.52-0.197,1.062-0.534,1.624-1.012C975.73,639.717,975.831,640.086,975.989,640.401
		L975.989,640.401L975.989,640.401z M975.558,636.461c0,0.669-0.082,1.176-0.245,1.519c-0.214,0.444-0.548,0.795-1.004,1.05
		c-0.456,0.256-0.976,0.384-1.561,0.384c-0.591,0-1.039-0.135-1.346-0.405c-0.307-0.27-0.46-0.607-0.46-1.012
		c0-0.264,0.07-0.505,0.211-0.721c0.141-0.216,0.34-0.381,0.599-0.494c0.259-0.112,0.7-0.214,1.325-0.304
		c1.102-0.157,1.929-0.349,2.481-0.574V636.461L975.558,636.461z M980.966,640.401v-4.894c0-1.147,0.235-1.926,0.704-2.337
		c0.47-0.411,1.028-0.616,1.675-0.616c0.405,0,0.758,0.092,1.059,0.274c0.301,0.183,0.51,0.428,0.629,0.734
		c0.118,0.307,0.177,0.769,0.177,1.388v5.45h1.519v-5.509c0-0.703-0.028-1.195-0.084-1.477c-0.09-0.433-0.248-0.807-0.473-1.122
		c-0.225-0.315-0.564-0.57-1.017-0.764c-0.453-0.194-0.949-0.291-1.489-0.291c-1.243,0-2.194,0.492-2.852,1.477v-1.274h-1.367v8.96
		H980.966L980.966,640.401z"/>
	<path d="M998.519,640.401c0.748,0,1.41-0.07,1.987-0.211c0.576-0.141,1.069-0.347,1.477-0.62c0.408-0.273,0.783-0.647,1.126-1.122
		c0.343-0.475,0.624-1.076,0.844-1.801c0.219-0.726,0.329-1.558,0.329-2.497c0-1.102-0.162-2.083-0.485-2.94
		c-0.323-0.858-0.811-1.562-1.464-2.114c-0.501-0.427-1.105-0.723-1.814-0.886c-0.506-0.118-1.24-0.177-2.202-0.177h-4.261v12.369
		H998.519L998.519,640.401z M995.692,629.491h2.599c0.973,0,1.679,0.084,2.118,0.253c0.607,0.236,1.123,0.702,1.548,1.396
		c0.425,0.695,0.637,1.689,0.637,2.983c0,0.934-0.108,1.728-0.325,2.383c-0.217,0.655-0.519,1.177-0.907,1.565
		c-0.276,0.276-0.645,0.489-1.109,0.641c-0.464,0.152-1.104,0.228-1.919,0.228h-2.641V629.491L995.692,629.491z M1007.867,629.778
		v-1.746h-1.519v1.746H1007.867L1007.867,629.778z M1007.867,640.401v-8.96h-1.519v8.96H1007.867L1007.867,640.401z
		 M1012.052,640.401v-7.779h1.747v-1.181h-1.747v-0.827c0-0.54,0.096-0.908,0.287-1.105c0.191-0.197,0.517-0.295,0.979-0.295
		c0.281,0,0.579,0.028,0.894,0.084l0.228-1.325c-0.518-0.101-0.99-0.152-1.417-0.152c-0.664,0-1.18,0.122-1.548,0.367
		c-0.368,0.245-0.626,0.564-0.772,0.958c-0.107,0.292-0.16,0.74-0.16,1.341v0.953h-1.341v1.181h1.341v7.779H1012.052
		L1012.052,640.401z M1016.853,640.401v-7.779h1.747v-1.181h-1.747v-0.827c0-0.54,0.096-0.908,0.287-1.105
		c0.191-0.197,0.517-0.295,0.979-0.295c0.281,0,0.579,0.028,0.894,0.084l0.228-1.325c-0.518-0.101-0.99-0.152-1.417-0.152
		c-0.664,0-1.18,0.122-1.548,0.367c-0.369,0.245-0.626,0.564-0.772,0.958c-0.107,0.292-0.16,0.74-0.16,1.341v0.953h-1.341v1.181
		h1.341v7.779H1016.853L1016.853,640.401z"/>
	<path d="M789.426,507.686c-0.309,0.155-0.57,0.361-0.78,0.62c-0.211,0.259-0.371,0.558-0.481,0.899
		c-0.11,0.34-0.165,0.693-0.165,1.059c0,0.574,0.09,1.115,0.27,1.624c0.18,0.509,0.434,0.968,0.764,1.375
		c0.329,0.408,0.723,0.752,1.181,1.034c0.458,0.281,0.969,0.481,1.531,0.599l12.276,2.607v-1.519l-4.581-0.97
		c0.259-0.186,0.474-0.359,0.645-0.519c0.172-0.16,0.309-0.333,0.413-0.519s0.178-0.395,0.224-0.629
		c0.045-0.233,0.068-0.516,0.068-0.848c0-0.399-0.054-0.789-0.16-1.169c-0.107-0.38-0.257-0.738-0.451-1.076
		c-0.194-0.337-0.427-0.645-0.7-0.924c-0.273-0.278-0.574-0.519-0.903-0.721c-0.329-0.202-0.682-0.36-1.059-0.472
		c-0.377-0.112-0.768-0.169-1.173-0.169c-0.388,0-0.731,0.058-1.029,0.173c-0.298,0.115-0.554,0.281-0.768,0.498
		c-0.214,0.217-0.382,0.475-0.506,0.776c-0.124,0.301-0.208,0.637-0.253,1.008c-0.073-0.405-0.208-0.787-0.405-1.147
		c-0.197-0.36-0.439-0.675-0.726-0.945c-0.287-0.27-0.614-0.484-0.983-0.641c-0.368-0.157-0.766-0.236-1.194-0.236
		C790.087,507.454,789.735,507.531,789.426,507.686L789.426,507.686z M791.995,509.23c0.318,0.211,0.572,0.482,0.764,0.814
		c0.191,0.332,0.328,0.703,0.409,1.114c0.082,0.411,0.122,0.816,0.122,1.215l1.105,0.236v-0.059c0-0.36,0.027-0.719,0.08-1.076
		c0.054-0.357,0.156-0.679,0.308-0.966s0.366-0.519,0.641-0.696c0.276-0.177,0.636-0.266,1.08-0.266
		c0.399,0,0.788,0.073,1.164,0.219c0.377,0.146,0.713,0.349,1.008,0.607c0.295,0.259,0.533,0.565,0.713,0.92
		c0.18,0.354,0.27,0.74,0.27,1.156c0,0.326-0.056,0.616-0.169,0.869c-0.112,0.253-0.267,0.467-0.464,0.641
		c-0.197,0.174-0.429,0.307-0.696,0.397c-0.267,0.09-0.558,0.135-0.873,0.135c-0.163,0-0.325-0.01-0.485-0.03
		c-0.16-0.02-0.322-0.046-0.485-0.08l-4.7-0.996c-0.371-0.079-0.711-0.19-1.021-0.333c-0.309-0.143-0.576-0.325-0.802-0.544
		c-0.225-0.219-0.401-0.482-0.527-0.789c-0.127-0.306-0.19-0.662-0.19-1.067c0-0.231,0.035-0.451,0.105-0.662
		c0.07-0.211,0.172-0.397,0.304-0.557c0.132-0.16,0.294-0.287,0.485-0.38c0.191-0.093,0.411-0.139,0.658-0.139
		C791.279,508.913,791.677,509.019,791.995,509.23L791.995,509.23z"/>
	
		<line style="fill:none;stroke:#CA3300;stroke-width:2.16;stroke-miterlimit:3.25;" x1="842.459" y1="657.846" x2="854.701" y2="657.846"/>
	<path d="M862.788,661.445v-6.142l2.087,6.142h0.861l2.097-6.039v6.039h0.92v-7.215h-1.284l-1.727,5.02
		c-0.174,0.509-0.302,0.894-0.384,1.157c-0.072-0.236-0.187-0.592-0.344-1.068l-1.708-5.108h-1.437v7.215H862.788L862.788,661.445z
		 M873.768,661.445h0.925c-0.112-0.2-0.186-0.409-0.224-0.627c-0.038-0.218-0.057-0.739-0.057-1.563v-1.181
		c0-0.394-0.015-0.666-0.044-0.817c-0.053-0.243-0.144-0.444-0.276-0.603c-0.131-0.159-0.336-0.291-0.615-0.396
		c-0.279-0.105-0.641-0.157-1.088-0.157c-0.45,0-0.845,0.062-1.186,0.185c-0.341,0.123-0.602,0.299-0.783,0.527
		c-0.18,0.228-0.31,0.527-0.389,0.898l0.866,0.118c0.095-0.371,0.242-0.629,0.44-0.775c0.198-0.146,0.506-0.219,0.923-0.219
		c0.446,0,0.783,0.1,1.009,0.3c0.167,0.148,0.251,0.402,0.251,0.763c0,0.033-0.002,0.11-0.005,0.231
		c-0.338,0.118-0.865,0.22-1.58,0.305c-0.351,0.043-0.614,0.087-0.787,0.133c-0.236,0.066-0.449,0.162-0.637,0.29
		c-0.189,0.128-0.341,0.298-0.458,0.509c-0.117,0.212-0.175,0.445-0.175,0.701c0,0.436,0.154,0.795,0.463,1.075
		c0.308,0.281,0.75,0.421,1.324,0.421c0.348,0,0.673-0.057,0.977-0.172c0.303-0.115,0.619-0.312,0.947-0.591
		C873.617,661.046,873.676,661.261,873.768,661.445L873.768,661.445L873.768,661.445z M873.517,659.146
		c0,0.391-0.048,0.686-0.143,0.886c-0.125,0.259-0.32,0.463-0.586,0.613c-0.266,0.149-0.569,0.224-0.91,0.224
		c-0.345,0-0.606-0.079-0.785-0.236c-0.179-0.157-0.268-0.354-0.268-0.591c0-0.154,0.041-0.294,0.123-0.421
		c0.082-0.126,0.198-0.222,0.349-0.288c0.151-0.066,0.409-0.125,0.773-0.177c0.643-0.092,1.125-0.203,1.447-0.335V659.146
		L873.517,659.146z M876.672,661.445v-2.854c0-0.669,0.137-1.124,0.411-1.363c0.274-0.239,0.6-0.359,0.977-0.359
		c0.236,0,0.442,0.053,0.618,0.16c0.175,0.107,0.298,0.249,0.367,0.428c0.069,0.179,0.103,0.449,0.103,0.81v3.179h0.886v-3.214
		c0-0.41-0.016-0.697-0.049-0.861c-0.053-0.253-0.144-0.471-0.276-0.655c-0.131-0.184-0.329-0.332-0.593-0.445
		c-0.264-0.113-0.554-0.17-0.869-0.17c-0.725,0-1.28,0.287-1.663,0.861v-0.743h-0.797v5.227H876.672L876.672,661.445z
		 M882.277,661.445v-2.854c0-0.669,0.137-1.124,0.411-1.363c0.274-0.239,0.6-0.359,0.977-0.359c0.236,0,0.442,0.053,0.618,0.16
		s0.298,0.249,0.367,0.428c0.069,0.179,0.103,0.449,0.103,0.81v3.179h0.886v-3.214c0-0.41-0.016-0.697-0.049-0.861
		c-0.052-0.253-0.144-0.471-0.276-0.655c-0.131-0.184-0.329-0.332-0.593-0.445c-0.264-0.113-0.554-0.17-0.869-0.17
		c-0.725,0-1.28,0.287-1.663,0.861v-0.743h-0.797v5.227H882.277L882.277,661.445z"/>
	<polygon points="891.662,658.408 886.888,658.408 886.888,659.235 891.662,659.235 891.662,658.408 	"/>
	<path d="M895.23,661.445l1.531-5.497c0.066-0.233,0.136-0.515,0.212-0.846c0.023,0.105,0.098,0.387,0.226,0.846l1.521,5.497h0.92
		l1.978-7.215h-0.96l-1.132,4.636c-0.148,0.591-0.267,1.114-0.359,1.57c-0.115-0.797-0.302-1.649-0.561-2.554l-1.034-3.652h-1.152
		l-1.373,4.872c-0.033,0.118-0.141,0.563-0.325,1.334c-0.085-0.489-0.187-0.981-0.305-1.476l-1.098-4.729h-0.979l1.914,7.215H895.23
		L895.23,661.445z M903.282,661.445v-2.859c0-0.41,0.049-0.732,0.148-0.965c0.098-0.233,0.263-0.417,0.495-0.554
		c0.231-0.136,0.478-0.204,0.741-0.204c0.351,0,0.623,0.101,0.815,0.303c0.192,0.202,0.288,0.524,0.288,0.967v3.312h0.886v-3.312
		c0-0.512-0.062-0.902-0.185-1.171c-0.123-0.269-0.327-0.48-0.613-0.632c-0.285-0.153-0.622-0.229-1.009-0.229
		c-0.63,0-1.152,0.24-1.565,0.719v-2.589h-0.886v7.215H903.282L903.282,661.445z M908.892,655.249v-1.019h-0.886v1.019H908.892
		L908.892,655.249z M908.892,661.445v-5.227h-0.886v5.227H908.892L908.892,661.445z M911.786,660.687
		c-0.131,0-0.232-0.021-0.303-0.064c-0.071-0.043-0.121-0.1-0.153-0.172c-0.031-0.072-0.047-0.235-0.047-0.487v-3.056h0.891v-0.689
		h-0.891v-1.826l-0.881,0.531v1.294h-0.65v0.689h0.65v3.007c0,0.531,0.036,0.88,0.108,1.046c0.072,0.166,0.197,0.299,0.374,0.401
		c0.177,0.102,0.427,0.153,0.748,0.153c0.197,0,0.42-0.026,0.669-0.079l-0.128-0.783
		C912.014,660.675,911.884,660.687,911.786,660.687L911.786,660.687L911.786,660.687z M913.927,661.445v-2.854
		c0-0.669,0.137-1.124,0.411-1.363c0.274-0.239,0.6-0.359,0.977-0.359c0.236,0,0.442,0.053,0.618,0.16
		c0.175,0.107,0.298,0.249,0.367,0.428c0.069,0.179,0.103,0.449,0.103,0.81v3.179h0.886v-3.214c0-0.41-0.016-0.697-0.049-0.861
		c-0.052-0.253-0.144-0.471-0.276-0.655c-0.131-0.184-0.329-0.332-0.593-0.445c-0.264-0.113-0.554-0.17-0.869-0.17
		c-0.725,0-1.28,0.287-1.663,0.861v-0.743h-0.797v5.227H913.927L913.927,661.445z M921.678,660.578
		c-0.23,0.171-0.507,0.256-0.832,0.256c-0.436,0-0.801-0.153-1.093-0.458c-0.292-0.305-0.454-0.745-0.487-1.319h3.898
		c0.003-0.105,0.005-0.184,0.005-0.236c0-0.863-0.221-1.532-0.664-2.008c-0.443-0.476-1.014-0.714-1.713-0.714
		c-0.722,0-1.309,0.243-1.762,0.728c-0.453,0.486-0.679,1.168-0.679,2.047c0,0.85,0.224,1.51,0.672,1.981
		c0.448,0.471,1.054,0.706,1.818,0.706c0.607,0,1.106-0.148,1.496-0.443c0.39-0.295,0.658-0.71,0.802-1.245l-0.915-0.113
		C922.09,660.135,921.908,660.408,921.678,660.578L921.678,660.578z M919.776,657.237c0.277-0.272,0.619-0.409,1.026-0.409
		c0.449,0,0.815,0.171,1.097,0.512c0.184,0.22,0.295,0.55,0.335,0.989h-2.918C919.345,657.873,919.499,657.509,919.776,657.237
		L919.776,657.237z M924.783,663.566c0.282,0,0.525-0.068,0.728-0.204c0.203-0.136,0.384-0.35,0.541-0.642
		c0.118-0.216,0.284-0.612,0.497-1.186l1.988-5.315h-0.886l-1.117,3.046c-0.141,0.387-0.263,0.784-0.364,1.191
		c-0.112-0.423-0.238-0.827-0.379-1.211l-1.088-3.027h-0.955l1.983,5.236c-0.036,0.095-0.062,0.167-0.079,0.217
		c-0.125,0.351-0.215,0.571-0.271,0.659c-0.075,0.118-0.172,0.21-0.29,0.276c-0.118,0.066-0.276,0.098-0.472,0.098
		c-0.144,0-0.313-0.026-0.507-0.079l0.098,0.832C924.422,663.53,924.613,663.566,924.783,663.566L924.783,663.566L924.783,663.566z"
		/>
	
		<line style="fill:none;stroke:#3163CE;stroke-width:2.16;stroke-miterlimit:3.25;" x1="938.564" y1="657.846" x2="950.803" y2="657.846"/>
	<path d="M958.285,660.423c0.251,0.382,0.597,0.669,1.038,0.859c0.441,0.19,0.988,0.285,1.641,0.285c0.515,0,0.979-0.094,1.39-0.283
		c0.412-0.189,0.727-0.453,0.947-0.792c0.22-0.34,0.33-0.701,0.33-1.085c0-0.387-0.1-0.729-0.3-1.026
		c-0.2-0.297-0.51-0.542-0.93-0.736c-0.289-0.131-0.821-0.285-1.597-0.46s-1.256-0.347-1.44-0.514
		c-0.187-0.167-0.281-0.381-0.281-0.64c0-0.299,0.132-0.554,0.396-0.765c0.264-0.212,0.685-0.317,1.262-0.317
		c0.554,0,0.974,0.117,1.257,0.349c0.284,0.233,0.45,0.578,0.5,1.034l0.915-0.069c-0.016-0.423-0.135-0.802-0.354-1.137
		c-0.22-0.335-0.534-0.588-0.943-0.76c-0.408-0.172-0.88-0.258-1.415-0.258c-0.486,0-0.927,0.082-1.324,0.246
		c-0.397,0.164-0.699,0.404-0.906,0.721c-0.207,0.317-0.31,0.657-0.31,1.021c0,0.331,0.084,0.631,0.253,0.898
		c0.169,0.267,0.426,0.491,0.77,0.672c0.266,0.141,0.73,0.291,1.393,0.45c0.663,0.159,1.091,0.276,1.285,0.352
		c0.302,0.115,0.518,0.257,0.65,0.426c0.131,0.169,0.197,0.367,0.197,0.593c0,0.223-0.068,0.429-0.204,0.618
		c-0.136,0.189-0.344,0.337-0.623,0.445c-0.279,0.108-0.6,0.162-0.965,0.162c-0.41,0-0.779-0.071-1.107-0.214
		c-0.328-0.143-0.57-0.33-0.726-0.561c-0.156-0.231-0.255-0.527-0.298-0.888l-0.901,0.079
		C957.901,659.609,958.034,660.041,958.285,660.423L958.285,660.423z M965.714,655.249v-1.019h-0.886v1.019H965.714L965.714,655.249
		z M965.714,661.445v-5.227h-0.886v5.227H965.714L965.714,661.445z M967.456,663.145c0.384,0.281,0.887,0.421,1.511,0.421
		c0.525,0,0.967-0.098,1.326-0.295c0.359-0.197,0.622-0.465,0.787-0.805c0.166-0.34,0.249-0.916,0.249-1.73v-4.518h-0.817v0.63
		c-0.4-0.499-0.909-0.748-1.526-0.748c-0.463,0-0.865,0.115-1.208,0.344c-0.343,0.23-0.605,0.555-0.785,0.977
		c-0.18,0.422-0.271,0.882-0.271,1.38c0,0.725,0.197,1.347,0.591,1.865c0.394,0.518,0.95,0.778,1.668,0.778
		c0.577,0,1.06-0.228,1.447-0.684c0.003,0.577-0.018,0.956-0.064,1.137c-0.079,0.295-0.23,0.525-0.453,0.689
		c-0.223,0.164-0.54,0.246-0.95,0.246c-0.381,0-0.681-0.082-0.901-0.246c-0.164-0.121-0.264-0.315-0.3-0.581l-0.861-0.128
		C966.886,662.442,967.072,662.865,967.456,663.145L967.456,663.145z M968.046,657.313c0.276-0.32,0.61-0.48,1.004-0.48
		c0.4,0,0.742,0.162,1.026,0.487c0.284,0.325,0.426,0.807,0.426,1.447c0,0.669-0.138,1.161-0.413,1.474
		c-0.276,0.313-0.617,0.47-1.024,0.47c-0.41,0-0.751-0.157-1.024-0.472c-0.272-0.315-0.409-0.815-0.409-1.501
		C967.633,658.108,967.771,657.633,968.046,657.313L968.046,657.313z M973.553,661.445v-2.854c0-0.669,0.137-1.124,0.411-1.363
		c0.274-0.239,0.6-0.359,0.977-0.359c0.236,0,0.442,0.053,0.618,0.16c0.175,0.107,0.298,0.249,0.367,0.428
		c0.069,0.179,0.103,0.449,0.103,0.81v3.179h0.886v-3.214c0-0.41-0.016-0.697-0.049-0.861c-0.052-0.253-0.144-0.471-0.276-0.655
		c-0.131-0.184-0.329-0.332-0.593-0.445s-0.554-0.17-0.869-0.17c-0.725,0-1.28,0.287-1.663,0.861v-0.743h-0.797v5.227H973.553
		L973.553,661.445z"/>
	<path d="M983.979,661.445v-6.363h2.387v-0.851h-5.719v0.851h2.377v6.363H983.979L983.979,661.445z M990.263,660.578
		c-0.23,0.171-0.507,0.256-0.832,0.256c-0.436,0-0.801-0.153-1.093-0.458c-0.292-0.305-0.454-0.745-0.487-1.319h3.898
		c0.003-0.105,0.005-0.184,0.005-0.236c0-0.863-0.221-1.532-0.664-2.008c-0.443-0.476-1.014-0.714-1.713-0.714
		c-0.722,0-1.309,0.243-1.762,0.728c-0.453,0.486-0.679,1.168-0.679,2.047c0,0.85,0.224,1.51,0.672,1.981
		c0.448,0.471,1.054,0.706,1.818,0.706c0.607,0,1.106-0.148,1.496-0.443c0.39-0.295,0.658-0.71,0.802-1.245l-0.915-0.113
		C990.675,660.136,990.493,660.408,990.263,660.578L990.263,660.578z M988.361,657.237c0.277-0.272,0.619-0.408,1.026-0.408
		c0.449,0,0.815,0.171,1.097,0.512c0.184,0.22,0.295,0.55,0.335,0.989h-2.918C987.931,657.873,988.084,657.509,988.361,657.237
		L988.361,657.237z M993.165,661.14c0.356,0.282,0.874,0.423,1.553,0.423c0.41,0,0.778-0.071,1.102-0.214
		c0.325-0.143,0.573-0.344,0.746-0.605c0.172-0.261,0.258-0.539,0.258-0.834c0-0.302-0.071-0.554-0.212-0.758
		c-0.141-0.203-0.336-0.358-0.583-0.465c-0.248-0.107-0.685-0.244-1.312-0.411c-0.433-0.118-0.694-0.194-0.783-0.226
		c-0.154-0.062-0.267-0.141-0.34-0.236c-0.072-0.092-0.108-0.195-0.108-0.31c0-0.18,0.087-0.338,0.261-0.472
		c0.174-0.135,0.464-0.202,0.871-0.202c0.344,0,0.611,0.076,0.8,0.226c0.189,0.151,0.303,0.361,0.342,0.63l0.866-0.118
		c-0.056-0.338-0.157-0.608-0.305-0.81c-0.148-0.202-0.376-0.362-0.687-0.48s-0.67-0.177-1.08-0.177
		c-0.272,0-0.527,0.035-0.765,0.106c-0.238,0.071-0.426,0.157-0.563,0.258c-0.184,0.131-0.329,0.296-0.436,0.495
		c-0.107,0.199-0.16,0.414-0.16,0.647c0,0.256,0.065,0.49,0.194,0.701c0.13,0.212,0.32,0.377,0.571,0.497
		c0.251,0.12,0.701,0.262,1.351,0.426c0.482,0.121,0.784,0.221,0.906,0.3c0.174,0.115,0.261,0.272,0.261,0.472
		c0,0.223-0.098,0.418-0.295,0.583c-0.197,0.166-0.499,0.249-0.906,0.249c-0.404,0-0.718-0.094-0.942-0.281
		c-0.225-0.187-0.362-0.456-0.411-0.807l-0.876,0.138C992.581,660.439,992.808,660.857,993.165,661.14L993.165,661.14z
		 M999.422,660.687c-0.131,0-0.232-0.021-0.303-0.064c-0.071-0.043-0.121-0.1-0.153-0.172c-0.031-0.072-0.047-0.235-0.047-0.487
		v-3.056h0.891v-0.689h-0.891v-1.826l-0.881,0.532v1.294h-0.65v0.689h0.65v3.007c0,0.532,0.036,0.88,0.108,1.046
		c0.072,0.166,0.197,0.299,0.374,0.401c0.177,0.102,0.426,0.153,0.748,0.153c0.197,0,0.42-0.026,0.669-0.079l-0.128-0.782
		C999.65,660.675,999.521,660.687,999.422,660.687L999.422,660.687L999.422,660.687z"/>
	
		<line style="fill:none;stroke:#FF9B00;stroke-width:2.16;stroke-miterlimit:3.25;" x1="1009.67" y1="657.846" x2="1021.908" y2="657.846"/>
	<path d="M1029.425,660.423c0.251,0.382,0.597,0.669,1.038,0.859c0.441,0.19,0.988,0.285,1.641,0.285
		c0.515,0,0.979-0.094,1.39-0.283c0.412-0.189,0.727-0.453,0.947-0.792c0.22-0.34,0.33-0.701,0.33-1.085
		c0-0.387-0.1-0.729-0.3-1.026c-0.2-0.297-0.51-0.542-0.93-0.736c-0.289-0.131-0.821-0.285-1.597-0.46
		c-0.776-0.176-1.256-0.347-1.44-0.514c-0.187-0.167-0.281-0.381-0.281-0.64c0-0.299,0.132-0.554,0.396-0.765
		c0.264-0.212,0.685-0.317,1.262-0.317c0.554,0,0.974,0.117,1.257,0.349c0.284,0.233,0.45,0.578,0.5,1.034l0.915-0.069
		c-0.016-0.423-0.135-0.802-0.354-1.137c-0.22-0.335-0.534-0.588-0.943-0.76s-0.88-0.258-1.415-0.258
		c-0.486,0-0.927,0.082-1.324,0.246s-0.699,0.404-0.906,0.721c-0.207,0.317-0.31,0.657-0.31,1.021c0,0.331,0.084,0.631,0.253,0.898
		c0.169,0.267,0.426,0.491,0.77,0.672c0.266,0.141,0.73,0.291,1.393,0.45c0.663,0.159,1.091,0.276,1.285,0.352
		c0.302,0.115,0.518,0.257,0.65,0.426c0.131,0.169,0.197,0.367,0.197,0.593c0,0.223-0.068,0.429-0.204,0.618
		c-0.136,0.189-0.344,0.337-0.623,0.445c-0.279,0.108-0.6,0.162-0.965,0.162c-0.41,0-0.779-0.071-1.107-0.214
		c-0.328-0.143-0.57-0.33-0.726-0.561c-0.156-0.231-0.255-0.527-0.298-0.888l-0.901,0.079
		C1029.042,659.609,1029.174,660.041,1029.425,660.423L1029.425,660.423z M1036.854,655.249v-1.019h-0.886v1.019H1036.854
		L1036.854,655.249z M1036.854,661.445v-5.227h-0.886v5.227H1036.854L1036.854,661.445z M1038.596,663.145
		c0.384,0.281,0.887,0.421,1.511,0.421c0.525,0,0.967-0.098,1.326-0.295c0.359-0.197,0.622-0.465,0.787-0.805
		c0.166-0.34,0.249-0.916,0.249-1.73v-4.518h-0.817v0.63c-0.4-0.499-0.909-0.748-1.526-0.748c-0.463,0-0.865,0.115-1.208,0.344
		c-0.343,0.23-0.605,0.555-0.785,0.977c-0.181,0.422-0.271,0.882-0.271,1.38c0,0.725,0.197,1.347,0.591,1.865
		s0.95,0.778,1.668,0.778c0.578,0,1.06-0.228,1.447-0.684c0.003,0.577-0.018,0.956-0.064,1.137c-0.079,0.295-0.23,0.525-0.453,0.689
		c-0.223,0.164-0.54,0.246-0.95,0.246c-0.381,0-0.681-0.082-0.901-0.246c-0.164-0.121-0.264-0.315-0.3-0.581l-0.861-0.128
		C1038.027,662.442,1038.212,662.865,1038.596,663.145L1038.596,663.145z M1039.187,657.313c0.276-0.32,0.61-0.48,1.004-0.48
		c0.4,0,0.742,0.162,1.026,0.487c0.284,0.325,0.426,0.807,0.426,1.447c0,0.669-0.138,1.161-0.413,1.474
		c-0.276,0.313-0.617,0.47-1.024,0.47c-0.41,0-0.751-0.157-1.024-0.472c-0.272-0.315-0.408-0.815-0.408-1.501
		C1038.774,658.108,1038.911,657.633,1039.187,657.313L1039.187,657.313z M1044.694,661.445v-2.854c0-0.669,0.137-1.124,0.411-1.363
		c0.274-0.239,0.599-0.359,0.977-0.359c0.236,0,0.442,0.053,0.618,0.16s0.298,0.249,0.367,0.428c0.069,0.179,0.103,0.449,0.103,0.81
		v3.179h0.886v-3.214c0-0.41-0.016-0.697-0.049-0.861c-0.052-0.253-0.144-0.471-0.276-0.655c-0.131-0.184-0.329-0.332-0.593-0.445
		c-0.264-0.113-0.554-0.17-0.869-0.17c-0.725,0-1.28,0.287-1.663,0.861v-0.743h-0.797v5.227H1044.694L1044.694,661.445z"/>
	<path d="M1053.298,661.445v-3.204h1.107c0.246,0,0.423,0.011,0.531,0.034c0.148,0.036,0.293,0.1,0.436,0.192
		c0.143,0.092,0.304,0.253,0.485,0.482c0.18,0.23,0.41,0.561,0.689,0.994l0.955,1.501h1.201l-1.255-1.964
		c-0.249-0.384-0.514-0.704-0.792-0.96c-0.131-0.118-0.323-0.238-0.576-0.359c0.692-0.095,1.204-0.318,1.536-0.669
		c0.331-0.351,0.497-0.783,0.497-1.294c0-0.397-0.1-0.76-0.3-1.088c-0.2-0.328-0.468-0.557-0.802-0.687
		c-0.335-0.13-0.824-0.194-1.467-0.194h-3.199v7.215H1053.298L1053.298,661.445z M1053.298,655.027h2.284
		c0.535,0,0.926,0.11,1.174,0.33c0.248,0.22,0.372,0.5,0.372,0.842c0,0.233-0.064,0.449-0.192,0.647
		c-0.128,0.199-0.315,0.343-0.561,0.433c-0.246,0.09-0.587,0.135-1.024,0.135h-2.052V655.027L1053.298,655.027z M1063.082,661.445
		h0.925c-0.112-0.2-0.186-0.409-0.224-0.627c-0.038-0.218-0.057-0.739-0.057-1.563v-1.181c0-0.394-0.015-0.666-0.044-0.817
		c-0.052-0.243-0.144-0.444-0.276-0.603c-0.131-0.159-0.336-0.291-0.615-0.396c-0.279-0.105-0.641-0.157-1.088-0.157
		c-0.45,0-0.845,0.062-1.186,0.185c-0.341,0.123-0.602,0.299-0.783,0.527s-0.31,0.527-0.389,0.898l0.866,0.118
		c0.095-0.371,0.242-0.629,0.44-0.775c0.198-0.146,0.506-0.219,0.923-0.219c0.446,0,0.782,0.1,1.009,0.3
		c0.167,0.148,0.251,0.402,0.251,0.763c0,0.033-0.002,0.11-0.005,0.231c-0.338,0.118-0.865,0.22-1.58,0.305
		c-0.351,0.043-0.614,0.087-0.787,0.133c-0.236,0.066-0.449,0.162-0.637,0.29c-0.189,0.128-0.341,0.298-0.458,0.509
		c-0.117,0.212-0.175,0.445-0.175,0.701c0,0.436,0.154,0.795,0.463,1.075s0.75,0.421,1.324,0.421c0.348,0,0.673-0.057,0.977-0.172
		c0.303-0.115,0.619-0.312,0.947-0.591C1062.931,661.046,1062.99,661.261,1063.082,661.445L1063.082,661.445L1063.082,661.445z
		 M1062.831,659.146c0,0.391-0.048,0.686-0.143,0.886c-0.125,0.259-0.32,0.463-0.586,0.613c-0.266,0.149-0.569,0.224-0.911,0.224
		c-0.344,0-0.606-0.079-0.785-0.236c-0.179-0.157-0.268-0.354-0.268-0.591c0-0.154,0.041-0.294,0.123-0.421
		c0.082-0.126,0.198-0.222,0.349-0.288c0.151-0.066,0.408-0.125,0.773-0.177c0.643-0.092,1.125-0.203,1.447-0.335V659.146
		L1062.831,659.146z M1065.986,661.445v-2.854c0-0.669,0.137-1.124,0.411-1.363c0.274-0.239,0.599-0.359,0.977-0.359
		c0.236,0,0.442,0.053,0.618,0.16s0.298,0.249,0.367,0.428c0.069,0.179,0.103,0.449,0.103,0.81v3.179h0.886v-3.214
		c0-0.41-0.016-0.697-0.049-0.861c-0.052-0.253-0.144-0.471-0.276-0.655c-0.131-0.184-0.329-0.332-0.593-0.445
		c-0.264-0.113-0.554-0.17-0.869-0.17c-0.725,0-1.28,0.287-1.663,0.861v-0.743h-0.797v5.227H1065.986L1065.986,661.445z
		 M1071.596,661.445v-2.072l0.625-0.6l1.727,2.672h1.093l-2.2-3.287l1.998-1.939h-1.147l-2.097,2.126v-4.114h-0.886v7.215H1071.596
		L1071.596,661.445z"/>
</g>
</svg>
