<?xml version="1.0" encoding="iso-8859-1"?>
<!-- Generator: Adobe Illustrator 28.7.3, SVG Export Plug-In . SVG Version: 9.03 Build 54978)  -->
<svg version="1.1" id="Layer_1" xmlns="http://www.w3.org/2000/svg" xmlns:xlink="http://www.w3.org/1999/xlink" x="0px" y="0px"
	 viewBox="0 0 344.694 237.337" style="enable-background:new 0 0 344.694 237.337;" xml:space="preserve">
<g>
	<polyline style="fill:none;stroke:#CA3300;stroke-width:2.16;stroke-miterlimit:3.25;" points="15.754,194.043 31.824,192.25 
		47.855,186.274 63.809,181.293 79.641,173.32 95.316,160.168 110.797,143.828 126.047,128.684 141.031,110.551 155.723,93.215 
		170.082,74.086 184.09,54.359 197.719,40.609 210.941,28.055 223.746,19.285 236.109,12.711 248.016,9.324 259.453,6.934 
		270.418,5.34 280.902,4.34 290.898,4.34 	"/>
	<polyline style="fill:none;stroke:#3163CE;stroke-width:2.16;stroke-miterlimit:3.25;" points="15.754,195.84 31.824,196.637 
		47.855,192.25 63.809,187.469 79.641,180.695 95.316,171.926 110.797,162.359 126.047,151.402 141.031,138.051 	"/>
	<path style="fill:none;stroke:#000000;stroke-width:0.144;stroke-linecap:square;stroke-miterlimit:3.25;" d="M338.176,203.012
		H15.754 M15.754,203.012V3.742"/>
	
		<line style="fill:none;stroke:#000000;stroke-width:0.072;stroke-miterlimit:3.25;" x1="15.754" y1="203.012" x2="15.754" y2="199.789"/>
	<path d="M14.083,214.547c0.397,0.499,0.943,0.748,1.639,0.748c0.528,0,0.965-0.142,1.312-0.426c0.346-0.284,0.606-0.686,0.78-1.206
		c0.174-0.52,0.261-1.203,0.261-2.05c0-0.715-0.054-1.284-0.162-1.705c-0.108-0.422-0.258-0.779-0.448-1.073
		c-0.19-0.294-0.431-0.518-0.723-0.674c-0.292-0.156-0.632-0.234-1.019-0.234c-0.525,0-0.961,0.141-1.307,0.423
		c-0.346,0.282-0.607,0.683-0.783,1.203c-0.176,0.52-0.263,1.207-0.263,2.06C13.369,212.969,13.607,213.947,14.083,214.547
		L14.083,214.547L14.083,214.547z M14.737,209.178c0.243-0.344,0.568-0.517,0.974-0.517c0.413,0,0.759,0.195,1.036,0.586
		c0.277,0.39,0.416,1.18,0.416,2.367c0,1.181-0.139,1.969-0.416,2.362c-0.277,0.394-0.619,0.591-1.026,0.591
		c-0.407,0-0.749-0.196-1.026-0.588c-0.277-0.392-0.416-1.18-0.416-2.365C14.279,210.43,14.432,209.618,14.737,209.178
		L14.737,209.178L14.737,209.178z"/>
	
		<line style="fill:none;stroke:#000000;stroke-width:0.072;stroke-miterlimit:3.25;" x1="96.359" y1="203.012" x2="96.359" y2="199.789"/>
	<path d="M90.485,214.547c0.397,0.499,0.943,0.748,1.639,0.748c0.528,0,0.965-0.142,1.312-0.426c0.346-0.284,0.606-0.686,0.78-1.206
		c0.174-0.52,0.261-1.203,0.261-2.05c0-0.715-0.054-1.284-0.162-1.705c-0.108-0.422-0.258-0.779-0.448-1.073
		c-0.19-0.294-0.431-0.518-0.723-0.674c-0.292-0.156-0.632-0.234-1.019-0.234c-0.525,0-0.961,0.141-1.307,0.423
		c-0.346,0.282-0.607,0.683-0.783,1.203c-0.176,0.52-0.263,1.207-0.263,2.06C89.771,212.969,90.009,213.947,90.485,214.547
		L90.485,214.547L90.485,214.547z M91.14,209.178c0.243-0.344,0.568-0.517,0.974-0.517c0.413,0,0.759,0.195,1.036,0.586
		c0.277,0.39,0.416,1.18,0.416,2.367c0,1.181-0.139,1.969-0.416,2.362c-0.277,0.394-0.619,0.591-1.026,0.591
		c-0.407,0-0.749-0.196-1.026-0.588c-0.277-0.392-0.416-1.18-0.416-2.365C90.682,210.43,90.834,209.618,91.14,209.178L91.14,209.178
		L91.14,209.178z M96.883,215.172v-1.009h-1.009v1.009H96.883L96.883,215.172z M101.514,207.928h-0.571
		c-0.154,0.312-0.417,0.633-0.787,0.965c-0.371,0.331-0.804,0.614-1.299,0.846v0.856c0.276-0.102,0.586-0.254,0.933-0.458
		c0.346-0.203,0.626-0.407,0.839-0.61v5.645h0.886V207.928L101.514,207.928z"/>
	
		<line style="fill:none;stroke:#000000;stroke-width:0.072;stroke-miterlimit:3.25;" x1="176.965" y1="203.012" x2="176.965" y2="199.789"/>
	<path d="M171.091,214.547c0.397,0.499,0.943,0.748,1.639,0.748c0.528,0,0.965-0.142,1.312-0.426
		c0.346-0.284,0.606-0.686,0.78-1.206c0.174-0.52,0.261-1.203,0.261-2.05c0-0.715-0.054-1.284-0.162-1.705
		c-0.108-0.422-0.258-0.779-0.448-1.073c-0.19-0.294-0.431-0.518-0.723-0.674c-0.292-0.156-0.632-0.234-1.019-0.234
		c-0.525,0-0.961,0.141-1.307,0.423c-0.346,0.282-0.607,0.683-0.783,1.203c-0.176,0.52-0.263,1.207-0.263,2.06
		C170.377,212.969,170.615,213.947,171.091,214.547L171.091,214.547L171.091,214.547z M171.745,209.178
		c0.243-0.344,0.568-0.517,0.974-0.517c0.413,0,0.759,0.195,1.036,0.586c0.277,0.39,0.416,1.18,0.416,2.367
		c0,1.181-0.139,1.969-0.416,2.362c-0.277,0.394-0.619,0.591-1.026,0.591c-0.407,0-0.749-0.196-1.026-0.588
		c-0.277-0.392-0.416-1.18-0.416-2.365C171.288,210.43,171.44,209.618,171.745,209.178L171.745,209.178L171.745,209.178z
		 M177.489,215.172v-1.009h-1.009v1.009H177.489L177.489,215.172z M179.9,214.321c0.098-0.161,0.223-0.321,0.374-0.48
		c0.151-0.159,0.492-0.462,1.024-0.908c0.636-0.538,1.092-0.961,1.366-1.27c0.274-0.308,0.47-0.602,0.588-0.881
		c0.118-0.279,0.177-0.563,0.177-0.851c0-0.568-0.202-1.043-0.605-1.427c-0.404-0.384-0.952-0.576-1.644-0.576
		c-0.686,0-1.232,0.178-1.639,0.534c-0.407,0.356-0.641,0.874-0.704,1.553l0.91,0.094c0.003-0.453,0.133-0.807,0.389-1.063
		c0.256-0.256,0.597-0.384,1.024-0.384c0.404,0,0.731,0.121,0.982,0.362s0.376,0.537,0.376,0.888c0,0.335-0.138,0.69-0.413,1.065
		c-0.276,0.376-0.805,0.885-1.59,1.528c-0.505,0.413-0.892,0.778-1.159,1.093c-0.267,0.315-0.462,0.635-0.583,0.96
		c-0.076,0.197-0.11,0.402-0.103,0.615h4.769v-0.851H179.9L179.9,214.321z"/>
	
		<line style="fill:none;stroke:#000000;stroke-width:0.072;stroke-miterlimit:3.25;" x1="257.57" y1="203.012" x2="257.57" y2="199.789"/>
	<path d="M251.696,214.547c0.397,0.499,0.943,0.748,1.639,0.748c0.528,0,0.965-0.142,1.312-0.426
		c0.346-0.284,0.606-0.686,0.78-1.206c0.174-0.52,0.261-1.203,0.261-2.05c0-0.715-0.054-1.284-0.162-1.705
		c-0.108-0.422-0.258-0.779-0.448-1.073c-0.19-0.294-0.431-0.518-0.723-0.674c-0.292-0.156-0.632-0.234-1.019-0.234
		c-0.525,0-0.961,0.141-1.307,0.423c-0.346,0.282-0.607,0.683-0.783,1.203c-0.176,0.52-0.263,1.207-0.263,2.06
		C250.983,212.969,251.221,213.947,251.696,214.547L251.696,214.547L251.696,214.547z M252.351,209.178
		c0.243-0.344,0.568-0.517,0.974-0.517c0.413,0,0.759,0.195,1.036,0.586c0.277,0.39,0.416,1.18,0.416,2.367
		c0,1.181-0.139,1.969-0.416,2.362c-0.277,0.394-0.619,0.591-1.026,0.591c-0.407,0-0.749-0.196-1.026-0.588
		c-0.277-0.392-0.416-1.18-0.416-2.365C251.893,210.43,252.046,209.618,252.351,209.178L252.351,209.178L252.351,209.178z
		 M258.094,215.172v-1.009h-1.009v1.009H258.094L258.094,215.172z M260.109,214.734c0.418,0.377,0.944,0.566,1.577,0.566
		c0.702,0,1.283-0.219,1.742-0.657c0.459-0.438,0.689-0.972,0.689-1.602c0-0.466-0.118-0.854-0.354-1.164
		c-0.236-0.31-0.568-0.514-0.994-0.613c0.328-0.151,0.576-0.354,0.743-0.61c0.167-0.256,0.251-0.54,0.251-0.851
		c0-0.328-0.088-0.638-0.263-0.93c-0.176-0.292-0.429-0.522-0.76-0.691c-0.331-0.169-0.694-0.253-1.088-0.253
		c-0.571,0-1.048,0.163-1.432,0.49c-0.384,0.327-0.63,0.787-0.738,1.38l0.886,0.157c0.066-0.433,0.213-0.758,0.443-0.974
		c0.23-0.217,0.517-0.325,0.861-0.325c0.348,0,0.632,0.107,0.851,0.32c0.22,0.213,0.33,0.482,0.33,0.807
		c0,0.41-0.151,0.714-0.453,0.91c-0.302,0.197-0.641,0.295-1.019,0.295c-0.036,0-0.084-0.003-0.143-0.01l-0.098,0.778
		c0.249-0.066,0.458-0.098,0.625-0.098c0.41,0,0.748,0.132,1.014,0.396c0.266,0.264,0.399,0.6,0.399,1.006
		c0,0.427-0.144,0.784-0.431,1.073c-0.287,0.289-0.639,0.433-1.056,0.433c-0.351,0-0.649-0.111-0.893-0.332
		c-0.244-0.221-0.418-0.583-0.519-1.085l-0.886,0.118C259.452,213.868,259.691,214.357,260.109,214.734L260.109,214.734z"/>
	
		<line style="fill:none;stroke:#000000;stroke-width:0.072;stroke-miterlimit:3.25;" x1="338.176" y1="203.012" x2="338.176" y2="199.789"/>
	<path d="M332.302,214.547c0.397,0.499,0.943,0.748,1.639,0.748c0.528,0,0.965-0.142,1.312-0.426
		c0.346-0.284,0.606-0.686,0.78-1.206c0.174-0.52,0.261-1.203,0.261-2.05c0-0.715-0.054-1.284-0.162-1.705
		c-0.108-0.422-0.258-0.779-0.448-1.073c-0.19-0.294-0.431-0.518-0.723-0.674c-0.292-0.156-0.632-0.234-1.019-0.234
		c-0.525,0-0.961,0.141-1.307,0.423c-0.346,0.282-0.607,0.683-0.782,1.203c-0.176,0.52-0.263,1.207-0.263,2.06
		C331.588,212.969,331.826,213.947,332.302,214.547L332.302,214.547L332.302,214.547z M332.956,209.178
		c0.243-0.344,0.568-0.517,0.974-0.517c0.413,0,0.759,0.195,1.036,0.586c0.277,0.39,0.416,1.18,0.416,2.367
		c0,1.181-0.139,1.969-0.416,2.362c-0.277,0.394-0.619,0.591-1.026,0.591c-0.407,0-0.749-0.196-1.026-0.588
		c-0.277-0.392-0.416-1.18-0.416-2.365C332.499,210.43,332.651,209.618,332.956,209.178L332.956,209.178L332.956,209.178z
		 M338.7,215.172v-1.009h-1.009v1.009H338.7L338.7,215.172z M343.72,215.172v-1.727h0.974v-0.812h-0.974v-4.675h-0.723l-3.292,4.675
		v0.812h3.13v1.727H343.72L343.72,215.172z M340.575,212.633l2.259-3.253v3.253H340.575L340.575,212.633z"/>
	
		<line style="fill:none;stroke:#000000;stroke-width:0.072;stroke-miterlimit:3.25;" x1="15.754" y1="203.012" x2="18.977" y2="203.012"/>
	<path d="M9.12,205.887c0.397,0.499,0.943,0.748,1.639,0.748c0.528,0,0.965-0.142,1.312-0.426c0.346-0.284,0.606-0.686,0.78-1.206
		c0.174-0.52,0.261-1.203,0.261-2.05c0-0.715-0.054-1.284-0.162-1.705c-0.108-0.422-0.258-0.779-0.448-1.073
		c-0.19-0.294-0.431-0.518-0.723-0.674c-0.292-0.156-0.632-0.234-1.019-0.234c-0.525,0-0.961,0.141-1.307,0.423
		c-0.346,0.282-0.607,0.683-0.783,1.203c-0.176,0.52-0.263,1.207-0.263,2.06C8.406,204.309,8.644,205.287,9.12,205.887L9.12,205.887
		L9.12,205.887z M9.774,200.518c0.243-0.344,0.568-0.517,0.974-0.517c0.413,0,0.759,0.195,1.036,0.586
		c0.277,0.39,0.416,1.18,0.416,2.367c0,1.181-0.139,1.969-0.416,2.362c-0.277,0.394-0.619,0.591-1.026,0.591
		c-0.407,0-0.749-0.196-1.026-0.588c-0.277-0.392-0.416-1.18-0.416-2.365C9.317,201.77,9.469,200.958,9.774,200.518L9.774,200.518
		L9.774,200.518z"/>
	
		<line style="fill:none;stroke:#000000;stroke-width:0.072;stroke-miterlimit:3.25;" x1="15.754" y1="163.16" x2="18.977" y2="163.16"/>
	<path d="M0.714,166.034c0.397,0.499,0.943,0.748,1.639,0.748c0.528,0,0.965-0.142,1.312-0.426c0.346-0.284,0.606-0.686,0.78-1.206
		c0.174-0.52,0.261-1.203,0.261-2.05c0-0.715-0.054-1.284-0.162-1.705c-0.108-0.422-0.258-0.779-0.448-1.073
		c-0.19-0.294-0.431-0.518-0.723-0.674c-0.292-0.156-0.632-0.234-1.019-0.234c-0.525,0-0.961,0.141-1.307,0.423
		c-0.346,0.282-0.607,0.683-0.783,1.203C0.088,161.561,0,162.248,0,163.101C0,164.456,0.238,165.433,0.714,166.034L0.714,166.034
		L0.714,166.034z M1.368,160.664c0.243-0.344,0.568-0.517,0.974-0.517c0.413,0,0.759,0.195,1.036,0.586
		c0.277,0.39,0.416,1.18,0.416,2.367c0,1.181-0.139,1.969-0.416,2.362c-0.277,0.394-0.619,0.591-1.026,0.591
		c-0.407,0-0.749-0.196-1.026-0.588c-0.277-0.392-0.416-1.18-0.416-2.365C0.91,161.916,1.063,161.104,1.368,160.664L1.368,160.664
		L1.368,160.664z M7.111,166.659v-1.009H6.103v1.009H7.111L7.111,166.659z M9.523,165.807c0.098-0.161,0.223-0.321,0.374-0.48
		c0.151-0.159,0.492-0.462,1.024-0.908c0.636-0.538,1.092-0.961,1.366-1.27c0.274-0.308,0.47-0.602,0.588-0.881
		c0.118-0.279,0.177-0.563,0.177-0.851c0-0.568-0.202-1.043-0.605-1.427c-0.404-0.384-0.952-0.576-1.644-0.576
		c-0.686,0-1.232,0.178-1.639,0.534c-0.407,0.356-0.641,0.874-0.704,1.553l0.91,0.094c0.003-0.453,0.133-0.807,0.389-1.063
		c0.256-0.256,0.597-0.384,1.024-0.384c0.404,0,0.731,0.121,0.982,0.362s0.376,0.537,0.376,0.888c0,0.335-0.138,0.69-0.413,1.065
		c-0.276,0.376-0.805,0.885-1.59,1.528c-0.505,0.413-0.892,0.778-1.159,1.093c-0.267,0.315-0.462,0.635-0.583,0.96
		c-0.076,0.197-0.11,0.402-0.103,0.615h4.769v-0.851H9.523L9.523,165.807z"/>
	
		<line style="fill:none;stroke:#000000;stroke-width:0.072;stroke-miterlimit:3.25;" x1="15.754" y1="123.305" x2="18.977" y2="123.305"/>
	<path d="M0.714,126.18c0.397,0.499,0.943,0.748,1.639,0.748c0.528,0,0.965-0.142,1.312-0.426c0.346-0.284,0.606-0.686,0.78-1.206
		c0.174-0.52,0.261-1.203,0.261-2.05c0-0.715-0.054-1.284-0.162-1.705c-0.108-0.422-0.258-0.779-0.448-1.073
		c-0.19-0.294-0.431-0.518-0.723-0.674c-0.292-0.156-0.632-0.234-1.019-0.234c-0.525,0-0.961,0.141-1.307,0.423
		c-0.346,0.282-0.607,0.683-0.783,1.203C0.088,121.707,0,122.394,0,123.247C0,124.602,0.238,125.58,0.714,126.18L0.714,126.18
		L0.714,126.18z M1.368,120.811c0.243-0.344,0.568-0.517,0.974-0.517c0.413,0,0.759,0.195,1.036,0.586
		c0.277,0.39,0.416,1.18,0.416,2.367c0,1.181-0.139,1.969-0.416,2.362c-0.277,0.394-0.619,0.591-1.026,0.591
		c-0.407,0-0.749-0.196-1.026-0.588c-0.277-0.392-0.416-1.18-0.416-2.365C0.91,122.063,1.063,121.251,1.368,120.811L1.368,120.811
		L1.368,120.811z M7.111,126.805v-1.009H6.103v1.009H7.111L7.111,126.805z M12.131,126.805v-1.727h0.974v-0.812h-0.974v-4.675
		h-0.723l-3.292,4.675v0.812h3.13v1.727H12.131L12.131,126.805z M8.987,124.266l2.259-3.253v3.253H8.987L8.987,124.266z"/>
	
		<line style="fill:none;stroke:#000000;stroke-width:0.072;stroke-miterlimit:3.25;" x1="15.754" y1="83.449" x2="18.977" y2="83.449"/>
	<path d="M0.714,86.327c0.397,0.499,0.943,0.748,1.639,0.748c0.528,0,0.965-0.142,1.312-0.426c0.346-0.284,0.606-0.686,0.78-1.206
		c0.174-0.52,0.261-1.203,0.261-2.05c0-0.715-0.054-1.284-0.162-1.705c-0.108-0.422-0.258-0.779-0.448-1.073
		c-0.19-0.294-0.431-0.518-0.723-0.674c-0.292-0.156-0.632-0.234-1.019-0.234c-0.525,0-0.961,0.141-1.307,0.423
		c-0.346,0.282-0.607,0.683-0.783,1.203C0.088,81.854,0,82.54,0,83.393C0,84.748,0.238,85.726,0.714,86.327L0.714,86.327
		L0.714,86.327z M1.368,80.957c0.243-0.344,0.568-0.517,0.974-0.517c0.413,0,0.759,0.195,1.036,0.586
		c0.277,0.39,0.416,1.18,0.416,2.367c0,1.181-0.139,1.969-0.416,2.362c-0.277,0.394-0.619,0.591-1.026,0.591
		c-0.407,0-0.749-0.196-1.026-0.588c-0.277-0.392-0.416-1.18-0.416-2.365C0.91,82.209,1.063,81.397,1.368,80.957L1.368,80.957
		L1.368,80.957z M7.111,86.952v-1.009H6.103v1.009H7.111L7.111,86.952z M12.35,80.185c-0.363-0.318-0.828-0.477-1.395-0.477
		c-0.761,0-1.367,0.276-1.816,0.827c-0.515,0.633-0.773,1.647-0.773,3.041c0,1.247,0.233,2.142,0.699,2.685
		c0.466,0.543,1.068,0.814,1.806,0.814c0.433,0,0.82-0.103,1.161-0.31c0.341-0.207,0.609-0.504,0.805-0.893
		c0.195-0.389,0.293-0.81,0.293-1.262c0-0.689-0.208-1.251-0.623-1.686c-0.415-0.435-0.918-0.652-1.508-0.652
		c-0.338,0-0.661,0.079-0.97,0.236c-0.308,0.157-0.569,0.399-0.783,0.723c0.007-0.722,0.09-1.278,0.251-1.668
		c0.161-0.39,0.381-0.687,0.659-0.891c0.213-0.157,0.461-0.236,0.743-0.236c0.351,0,0.646,0.126,0.886,0.379
		c0.144,0.157,0.256,0.41,0.335,0.758l0.881-0.069C12.93,80.943,12.713,80.503,12.35,80.185L12.35,80.185z M9.803,83.484
		c0.279-0.287,0.618-0.431,1.019-0.431c0.404,0,0.738,0.144,1.004,0.431c0.266,0.287,0.399,0.68,0.399,1.179
		c0,0.518-0.135,0.929-0.404,1.23c-0.269,0.302-0.591,0.453-0.965,0.453c-0.256,0-0.5-0.073-0.733-0.219
		C9.89,85.981,9.709,85.769,9.58,85.49c-0.13-0.279-0.194-0.571-0.194-0.876C9.385,84.148,9.525,83.772,9.803,83.484L9.803,83.484z"
		/>
	
		<line style="fill:none;stroke:#000000;stroke-width:0.072;stroke-miterlimit:3.25;" x1="15.754" y1="43.598" x2="18.977" y2="43.598"/>
	<path d="M0.714,46.473c0.397,0.499,0.943,0.748,1.639,0.748c0.528,0,0.965-0.142,1.312-0.426c0.346-0.284,0.606-0.686,0.78-1.206
		c0.174-0.52,0.261-1.203,0.261-2.05c0-0.715-0.054-1.284-0.162-1.705c-0.108-0.422-0.258-0.779-0.448-1.073
		c-0.19-0.294-0.431-0.518-0.723-0.674c-0.292-0.156-0.632-0.234-1.019-0.234c-0.525,0-0.961,0.141-1.307,0.423
		C0.7,40.559,0.439,40.96,0.263,41.48C0.088,42,0,42.687,0,43.54C0,44.895,0.238,45.873,0.714,46.473L0.714,46.473L0.714,46.473z
		 M1.368,41.104c0.243-0.344,0.568-0.517,0.974-0.517c0.413,0,0.759,0.195,1.036,0.586c0.277,0.39,0.416,1.18,0.416,2.367
		c0,1.181-0.139,1.969-0.416,2.362c-0.277,0.394-0.619,0.591-1.026,0.591c-0.407,0-0.749-0.196-1.026-0.588
		c-0.277-0.392-0.416-1.18-0.416-2.365C0.91,42.355,1.063,41.543,1.368,41.104L1.368,41.104L1.368,41.104z M7.111,47.098v-1.009
		H6.103v1.009H7.111L7.111,47.098z M8.753,43.833c-0.238,0.317-0.357,0.71-0.357,1.179c0,0.63,0.218,1.156,0.655,1.577
		c0.436,0.422,1.011,0.632,1.723,0.632c0.712,0,1.286-0.21,1.723-0.63c0.436-0.42,0.655-0.938,0.655-1.555
		c0-0.446-0.116-0.83-0.347-1.152c-0.231-0.322-0.568-0.554-1.011-0.699c0.358-0.134,0.624-0.326,0.8-0.573
		c0.175-0.248,0.263-0.539,0.263-0.874c0-0.525-0.192-0.97-0.576-1.336c-0.384-0.366-0.891-0.549-1.521-0.549
		c-0.627,0-1.129,0.179-1.506,0.536c-0.377,0.358-0.566,0.799-0.566,1.324c0,0.348,0.089,0.646,0.266,0.896
		c0.177,0.249,0.449,0.441,0.817,0.576C9.329,43.3,8.991,43.516,8.753,43.833L8.753,43.833z M9.927,40.907
		c0.223-0.217,0.504-0.325,0.842-0.325c0.335,0,0.614,0.111,0.839,0.332c0.225,0.221,0.337,0.495,0.337,0.819
		c0,0.312-0.109,0.575-0.327,0.79c-0.218,0.215-0.498,0.322-0.839,0.322c-0.351,0-0.637-0.108-0.856-0.325
		c-0.22-0.217-0.33-0.495-0.33-0.837C9.592,41.383,9.703,41.123,9.927,40.907L9.927,40.907z M9.717,43.983
		c0.274-0.276,0.619-0.413,1.036-0.413c0.426,0,0.782,0.139,1.065,0.418c0.284,0.279,0.426,0.632,0.426,1.058
		c0,0.42-0.138,0.766-0.413,1.038c-0.276,0.272-0.625,0.408-1.048,0.408c-0.272,0-0.527-0.065-0.763-0.194
		c-0.236-0.13-0.414-0.313-0.534-0.549c-0.12-0.236-0.18-0.481-0.18-0.733C9.306,44.603,9.443,44.258,9.717,43.983L9.717,43.983z"/>
	
		<line style="fill:none;stroke:#000000;stroke-width:0.072;stroke-miterlimit:3.25;" x1="15.754" y1="3.742" x2="18.977" y2="3.742"/>
	<path d="M3.337,0H2.766C2.612,0.312,2.349,0.633,1.978,0.965C1.608,1.296,1.175,1.578,0.679,1.811v0.856
		C0.955,2.566,1.266,2.413,1.612,2.21c0.346-0.203,0.626-0.407,0.839-0.61v5.645h0.886V0L3.337,0z M7.111,7.244V6.235H6.103v1.009
		H7.111L7.111,7.244z M9.119,6.619c0.397,0.499,0.943,0.748,1.639,0.748c0.528,0,0.965-0.142,1.312-0.426
		c0.346-0.284,0.606-0.686,0.78-1.206c0.174-0.52,0.261-1.203,0.261-2.05c0-0.715-0.054-1.284-0.162-1.705
		C12.84,1.559,12.691,1.202,12.5,0.908c-0.19-0.294-0.431-0.518-0.723-0.674C11.485,0.078,11.145,0,10.758,0
		c-0.525,0-0.961,0.141-1.307,0.423C9.105,0.705,8.845,1.107,8.669,1.627c-0.176,0.52-0.263,1.207-0.263,2.06
		C8.406,5.041,8.644,6.019,9.119,6.619L9.119,6.619L9.119,6.619z M9.774,1.25c0.243-0.344,0.568-0.517,0.974-0.517
		c0.413,0,0.759,0.195,1.036,0.586c0.277,0.39,0.416,1.18,0.416,2.367c0,1.181-0.139,1.969-0.416,2.362
		c-0.277,0.394-0.619,0.591-1.026,0.591c-0.407,0-0.749-0.196-1.026-0.588c-0.277-0.392-0.416-1.18-0.416-2.365
		C9.316,2.502,9.469,1.69,9.774,1.25L9.774,1.25L9.774,1.25z"/>
	
		<line style="fill:none;stroke:#CA3300;stroke-width:2.16;stroke-miterlimit:3.25;" x1="66.961" y1="231.617" x2="79.203" y2="231.617"/>
	<path d="M87.29,235.216v-6.142l2.087,6.142h0.861l2.097-6.039v6.039h0.92v-7.215H91.97l-1.727,5.02
		c-0.174,0.509-0.302,0.894-0.384,1.157c-0.072-0.236-0.187-0.592-0.344-1.068l-1.708-5.108H86.37v7.215H87.29L87.29,235.216z
		 M98.27,235.216h0.925c-0.112-0.2-0.186-0.409-0.224-0.627c-0.038-0.218-0.057-0.739-0.057-1.563v-1.181
		c0-0.394-0.015-0.666-0.044-0.817c-0.053-0.243-0.144-0.444-0.276-0.603c-0.131-0.159-0.336-0.291-0.615-0.396
		c-0.279-0.105-0.641-0.157-1.088-0.157c-0.45,0-0.845,0.062-1.186,0.185c-0.341,0.123-0.602,0.299-0.783,0.527
		c-0.18,0.228-0.31,0.527-0.389,0.898l0.866,0.118c0.095-0.371,0.242-0.629,0.44-0.775c0.198-0.146,0.506-0.219,0.923-0.219
		c0.446,0,0.783,0.1,1.009,0.3c0.167,0.148,0.251,0.402,0.251,0.763c0,0.033-0.002,0.11-0.005,0.231
		c-0.338,0.118-0.865,0.22-1.58,0.305c-0.351,0.043-0.614,0.087-0.787,0.133c-0.236,0.066-0.449,0.162-0.637,0.29
		c-0.189,0.128-0.341,0.298-0.458,0.509c-0.117,0.212-0.175,0.445-0.175,0.701c0,0.436,0.154,0.795,0.463,1.075
		c0.308,0.281,0.75,0.421,1.324,0.421c0.348,0,0.673-0.057,0.977-0.172c0.303-0.115,0.619-0.312,0.947-0.591
		C98.119,234.818,98.178,235.033,98.27,235.216L98.27,235.216L98.27,235.216z M98.019,232.918c0,0.39-0.048,0.686-0.143,0.886
		c-0.125,0.259-0.32,0.463-0.586,0.613c-0.266,0.149-0.569,0.224-0.91,0.224c-0.345,0-0.606-0.079-0.785-0.236
		c-0.179-0.157-0.268-0.354-0.268-0.591c0-0.154,0.041-0.294,0.123-0.421c0.082-0.126,0.198-0.222,0.349-0.288
		c0.151-0.066,0.408-0.125,0.773-0.177c0.643-0.092,1.125-0.203,1.447-0.335V232.918L98.019,232.918z M101.173,235.216v-2.854
		c0-0.669,0.137-1.124,0.411-1.363c0.274-0.239,0.6-0.359,0.977-0.359c0.236,0,0.442,0.053,0.618,0.16
		c0.175,0.107,0.298,0.249,0.367,0.428c0.069,0.179,0.103,0.449,0.103,0.81v3.179h0.886v-3.214c0-0.41-0.016-0.697-0.049-0.861
		c-0.053-0.253-0.144-0.471-0.276-0.655c-0.131-0.184-0.329-0.332-0.593-0.445c-0.264-0.113-0.554-0.17-0.869-0.17
		c-0.725,0-1.28,0.287-1.663,0.861v-0.743h-0.797v5.227H101.173L101.173,235.216z M106.779,235.216v-2.854
		c0-0.669,0.137-1.124,0.411-1.363c0.274-0.239,0.6-0.359,0.977-0.359c0.236,0,0.442,0.053,0.618,0.16
		c0.175,0.107,0.298,0.249,0.367,0.428c0.069,0.179,0.103,0.449,0.103,0.81v3.179h0.886v-3.214c0-0.41-0.016-0.697-0.049-0.861
		c-0.053-0.253-0.144-0.471-0.276-0.655c-0.131-0.184-0.329-0.332-0.593-0.445c-0.264-0.113-0.554-0.17-0.869-0.17
		c-0.725,0-1.28,0.287-1.663,0.861v-0.743h-0.797v5.227H106.779L106.779,235.216z"/>
	<polygon points="116.164,232.18 111.39,232.18 111.39,233.007 116.164,233.007 116.164,232.18 	"/>
	<path d="M119.732,235.216l1.531-5.497c0.066-0.233,0.136-0.515,0.212-0.846c0.023,0.105,0.098,0.387,0.226,0.846l1.521,5.497h0.92
		l1.978-7.215h-0.96l-1.132,4.636c-0.148,0.591-0.267,1.114-0.359,1.57c-0.115-0.797-0.302-1.649-0.561-2.554l-1.033-3.652h-1.152
		l-1.373,4.872c-0.033,0.118-0.141,0.563-0.325,1.334c-0.085-0.489-0.187-0.981-0.305-1.476l-1.097-4.729h-0.979l1.914,7.215
		H119.732L119.732,235.216z M127.784,235.216v-2.859c0-0.41,0.049-0.732,0.148-0.965c0.098-0.233,0.263-0.417,0.495-0.554
		c0.231-0.136,0.478-0.204,0.741-0.204c0.351,0,0.623,0.101,0.814,0.303c0.192,0.202,0.288,0.524,0.288,0.967v3.312h0.886v-3.312
		c0-0.512-0.062-0.902-0.185-1.171c-0.123-0.269-0.327-0.48-0.613-0.632c-0.285-0.153-0.622-0.229-1.009-0.229
		c-0.63,0-1.152,0.24-1.565,0.719v-2.589h-0.886v7.215H127.784L127.784,235.216z M133.394,229.02v-1.019h-0.886v1.019H133.394
		L133.394,229.02z M133.394,235.216v-5.227h-0.886v5.227H133.394L133.394,235.216z M136.288,234.458
		c-0.131,0-0.232-0.021-0.303-0.064c-0.071-0.043-0.121-0.1-0.153-0.172c-0.031-0.072-0.047-0.235-0.047-0.487v-3.056h0.891v-0.689
		h-0.891v-1.826l-0.881,0.532v1.294h-0.65v0.689h0.65v3.007c0,0.532,0.036,0.88,0.108,1.046c0.072,0.166,0.197,0.299,0.374,0.401
		s0.426,0.153,0.748,0.153c0.197,0,0.42-0.026,0.669-0.079l-0.128-0.783C136.516,234.447,136.386,234.458,136.288,234.458
		L136.288,234.458L136.288,234.458z M138.429,235.216v-2.854c0-0.669,0.137-1.124,0.411-1.363c0.274-0.239,0.6-0.359,0.977-0.359
		c0.236,0,0.442,0.053,0.618,0.16c0.175,0.107,0.298,0.249,0.367,0.428c0.069,0.179,0.103,0.449,0.103,0.81v3.179h0.886v-3.214
		c0-0.41-0.016-0.697-0.049-0.861c-0.053-0.253-0.144-0.471-0.276-0.655c-0.131-0.184-0.329-0.332-0.593-0.445
		c-0.264-0.113-0.554-0.17-0.869-0.17c-0.725,0-1.28,0.287-1.663,0.861v-0.743h-0.797v5.227H138.429L138.429,235.216z
		 M146.18,234.35c-0.23,0.171-0.507,0.256-0.832,0.256c-0.436,0-0.801-0.153-1.093-0.458c-0.292-0.305-0.454-0.745-0.487-1.319
		h3.898c0.003-0.105,0.005-0.184,0.005-0.236c0-0.863-0.221-1.532-0.664-2.008c-0.443-0.476-1.014-0.714-1.713-0.714
		c-0.722,0-1.309,0.243-1.762,0.728c-0.453,0.486-0.679,1.168-0.679,2.047c0,0.85,0.224,1.51,0.672,1.981
		c0.448,0.471,1.054,0.706,1.818,0.706c0.607,0,1.106-0.148,1.496-0.443c0.39-0.295,0.658-0.71,0.802-1.245l-0.915-0.113
		C146.592,233.907,146.41,234.18,146.18,234.35L146.18,234.35z M144.278,231.009c0.277-0.272,0.619-0.408,1.026-0.408
		c0.449,0,0.815,0.171,1.097,0.512c0.184,0.22,0.295,0.55,0.335,0.989h-2.918C143.847,231.645,144,231.281,144.278,231.009
		L144.278,231.009z M149.285,237.337c0.282,0,0.525-0.068,0.728-0.204c0.203-0.136,0.384-0.35,0.541-0.642
		c0.118-0.217,0.284-0.612,0.497-1.186l1.988-5.315h-0.886l-1.117,3.046c-0.141,0.387-0.263,0.784-0.364,1.191
		c-0.112-0.423-0.238-0.827-0.379-1.211l-1.088-3.027h-0.955l1.983,5.236c-0.036,0.095-0.062,0.167-0.079,0.217
		c-0.125,0.351-0.215,0.571-0.271,0.659c-0.076,0.118-0.172,0.21-0.29,0.276c-0.118,0.066-0.276,0.098-0.472,0.098
		c-0.144,0-0.313-0.026-0.507-0.079l0.098,0.832C148.924,237.301,149.115,237.337,149.285,237.337L149.285,237.337L149.285,237.337z
		"/>
	
		<line style="fill:none;stroke:#3163CE;stroke-width:2.16;stroke-miterlimit:3.25;" x1="163.066" y1="231.617" x2="175.305" y2="231.617"/>
	<path d="M183.603,235.216v-2.5l1.181-1.152l2.569,3.652h1.26l-3.16-4.291l3.027-2.923h-1.294l-3.583,3.578v-3.578h-0.955v7.215
		H183.603L183.603,235.216z M189.644,234.631c0.451,0.469,1.042,0.704,1.774,0.704c0.456,0,0.877-0.107,1.262-0.32
		c0.385-0.213,0.679-0.513,0.881-0.898c0.202-0.385,0.303-0.915,0.303-1.587c0-0.83-0.228-1.48-0.684-1.951
		c-0.456-0.471-1.043-0.706-1.762-0.706c-0.646,0-1.194,0.194-1.644,0.581c-0.538,0.466-0.807,1.183-0.807,2.151
		C188.967,233.486,189.193,234.162,189.644,234.631L189.644,234.631z M190.316,231.102c0.292-0.331,0.659-0.497,1.102-0.497
		c0.436,0,0.801,0.167,1.095,0.5c0.294,0.333,0.44,0.823,0.44,1.469c0,0.686-0.146,1.196-0.438,1.531
		c-0.292,0.335-0.658,0.502-1.097,0.502c-0.443,0-0.81-0.166-1.102-0.5c-0.292-0.333-0.438-0.834-0.438-1.504
		C189.878,231.934,190.023,231.433,190.316,231.102L190.316,231.102z M195.768,235.216v-7.215h-0.886v7.215H195.768L195.768,235.216
		z M198.027,235.216v-2.712c0-0.476,0.048-0.84,0.143-1.093c0.095-0.253,0.249-0.445,0.46-0.576
		c0.212-0.131,0.442-0.197,0.691-0.197c0.328,0,0.564,0.098,0.709,0.295c0.144,0.197,0.217,0.492,0.217,0.886v3.396h0.886v-3.037
		c0-0.538,0.121-0.929,0.364-1.174c0.243-0.244,0.548-0.367,0.915-0.367c0.203,0,0.381,0.048,0.532,0.143
		c0.151,0.095,0.255,0.221,0.312,0.376c0.057,0.156,0.086,0.411,0.086,0.765v3.292h0.881v-3.588c0-0.597-0.139-1.039-0.418-1.326
		c-0.279-0.287-0.678-0.431-1.196-0.431c-0.663,0-1.201,0.305-1.614,0.915c-0.102-0.289-0.276-0.513-0.524-0.674
		c-0.248-0.161-0.565-0.241-0.952-0.241c-0.348,0-0.658,0.078-0.93,0.234c-0.272,0.156-0.491,0.362-0.655,0.618v-0.733h-0.792v5.227
		H198.027L198.027,235.216z M205.884,234.631c0.451,0.469,1.042,0.704,1.774,0.704c0.456,0,0.877-0.107,1.262-0.32
		c0.385-0.213,0.679-0.513,0.881-0.898c0.202-0.385,0.303-0.915,0.303-1.587c0-0.83-0.228-1.48-0.684-1.951
		c-0.456-0.471-1.043-0.706-1.762-0.706c-0.646,0-1.194,0.194-1.644,0.581c-0.538,0.466-0.807,1.183-0.807,2.151
		C205.208,233.486,205.433,234.162,205.884,234.631L205.884,234.631z M206.556,231.102c0.292-0.331,0.659-0.497,1.102-0.497
		c0.436,0,0.801,0.167,1.095,0.5c0.294,0.333,0.44,0.823,0.44,1.469c0,0.686-0.146,1.196-0.438,1.531
		c-0.292,0.335-0.658,0.502-1.097,0.502c-0.443,0-0.81-0.166-1.102-0.5c-0.292-0.333-0.438-0.834-0.438-1.504
		C206.118,231.934,206.264,231.433,206.556,231.102L206.556,231.102z M211.537,236.917c0.384,0.281,0.887,0.421,1.511,0.421
		c0.525,0,0.967-0.098,1.326-0.295c0.359-0.197,0.622-0.465,0.787-0.805c0.166-0.34,0.249-0.916,0.249-1.73v-4.518h-0.817v0.63
		c-0.4-0.499-0.909-0.748-1.526-0.748c-0.463,0-0.865,0.115-1.208,0.344c-0.343,0.23-0.605,0.555-0.785,0.977
		c-0.18,0.422-0.271,0.882-0.271,1.38c0,0.725,0.197,1.347,0.591,1.865c0.394,0.518,0.95,0.778,1.668,0.778
		c0.577,0,1.06-0.228,1.447-0.684c0.003,0.577-0.018,0.956-0.064,1.137c-0.079,0.295-0.23,0.525-0.453,0.689
		c-0.223,0.164-0.54,0.246-0.95,0.246c-0.381,0-0.681-0.082-0.901-0.246c-0.164-0.121-0.264-0.315-0.3-0.581l-0.861-0.128
		C210.967,236.214,211.153,236.636,211.537,236.917L211.537,236.917z M212.127,231.085c0.276-0.32,0.61-0.48,1.004-0.48
		c0.4,0,0.742,0.162,1.026,0.487c0.284,0.325,0.426,0.807,0.426,1.447c0,0.669-0.138,1.161-0.413,1.474
		c-0.276,0.313-0.617,0.47-1.024,0.47c-0.41,0-0.751-0.157-1.024-0.472c-0.272-0.315-0.408-0.815-0.408-1.501
		C211.714,231.88,211.852,231.405,212.127,231.085L212.127,231.085z M217.096,234.631c0.451,0.469,1.042,0.704,1.774,0.704
		c0.456,0,0.877-0.107,1.262-0.32c0.385-0.213,0.679-0.513,0.881-0.898c0.202-0.385,0.303-0.915,0.303-1.587
		c0-0.83-0.228-1.48-0.684-1.951c-0.456-0.471-1.043-0.706-1.762-0.706c-0.646,0-1.194,0.194-1.644,0.581
		c-0.538,0.466-0.807,1.183-0.807,2.151C216.419,233.486,216.644,234.162,217.096,234.631L217.096,234.631z M217.767,231.102
		c0.292-0.331,0.659-0.497,1.102-0.497c0.436,0,0.801,0.167,1.095,0.5c0.294,0.333,0.44,0.823,0.44,1.469
		c0,0.686-0.146,1.196-0.438,1.531c-0.292,0.335-0.658,0.502-1.097,0.502c-0.443,0-0.81-0.166-1.102-0.5
		c-0.292-0.333-0.438-0.834-0.438-1.504C217.329,231.934,217.475,231.433,217.767,231.102L217.767,231.102z M223.23,235.216v-2.736
		c0-0.374,0.049-0.719,0.148-1.033c0.066-0.207,0.175-0.368,0.33-0.485c0.154-0.116,0.328-0.175,0.522-0.175
		c0.217,0,0.433,0.064,0.65,0.192l0.305-0.822c-0.308-0.19-0.612-0.285-0.91-0.285c-0.207,0-0.396,0.059-0.568,0.177
		c-0.172,0.118-0.36,0.363-0.564,0.733v-0.792h-0.797v5.227H223.23L223.23,235.216z M226.057,234.631
		c0.451,0.469,1.042,0.704,1.774,0.704c0.456,0,0.877-0.107,1.262-0.32c0.385-0.213,0.679-0.513,0.881-0.898
		c0.202-0.385,0.303-0.915,0.303-1.587c0-0.83-0.228-1.48-0.684-1.951c-0.456-0.471-1.043-0.706-1.762-0.706
		c-0.646,0-1.194,0.194-1.644,0.581c-0.538,0.466-0.807,1.183-0.807,2.151C225.381,233.486,225.606,234.162,226.057,234.631
		L226.057,234.631z M226.729,231.102c0.292-0.331,0.659-0.497,1.102-0.497c0.436,0,0.801,0.167,1.095,0.5
		c0.294,0.333,0.44,0.823,0.44,1.469c0,0.686-0.146,1.196-0.438,1.531c-0.292,0.335-0.658,0.502-1.097,0.502
		c-0.443,0-0.81-0.166-1.102-0.5c-0.292-0.333-0.438-0.834-0.438-1.504C226.291,231.934,226.437,231.433,226.729,231.102
		L226.729,231.102z M233.595,235.216l1.978-5.227h-0.91l-1.161,3.189c-0.141,0.387-0.251,0.719-0.33,0.994
		c-0.102-0.364-0.213-0.715-0.335-1.053l-1.122-3.13h-0.935l1.988,5.227H233.595L233.595,235.216z"/>
	<polygon points="241.021,232.18 236.247,232.18 236.247,233.007 241.021,233.007 241.021,232.18 	"/>
	<path d="M242.426,234.195c0.251,0.382,0.597,0.669,1.038,0.859c0.441,0.19,0.988,0.285,1.641,0.285c0.515,0,0.979-0.094,1.39-0.283
		c0.412-0.189,0.728-0.453,0.947-0.792c0.22-0.34,0.33-0.701,0.33-1.085c0-0.387-0.1-0.729-0.3-1.026
		c-0.2-0.297-0.51-0.542-0.93-0.736c-0.289-0.131-0.821-0.285-1.597-0.46c-0.776-0.175-1.256-0.347-1.44-0.514
		c-0.187-0.167-0.281-0.381-0.281-0.64c0-0.299,0.132-0.554,0.396-0.765c0.264-0.212,0.685-0.317,1.262-0.317
		c0.554,0,0.974,0.117,1.257,0.349c0.284,0.233,0.45,0.577,0.5,1.034l0.915-0.069c-0.016-0.423-0.135-0.802-0.354-1.137
		c-0.22-0.335-0.534-0.588-0.942-0.76c-0.408-0.172-0.88-0.258-1.415-0.258c-0.486,0-0.927,0.082-1.324,0.246
		c-0.397,0.164-0.699,0.404-0.906,0.721c-0.207,0.317-0.31,0.657-0.31,1.021c0,0.331,0.084,0.631,0.253,0.898
		c0.169,0.267,0.426,0.491,0.77,0.672c0.266,0.141,0.73,0.291,1.393,0.45c0.663,0.159,1.091,0.276,1.285,0.352
		c0.302,0.115,0.518,0.257,0.65,0.426c0.131,0.169,0.197,0.367,0.197,0.593c0,0.223-0.068,0.429-0.204,0.618
		c-0.136,0.189-0.344,0.337-0.623,0.445c-0.279,0.108-0.6,0.162-0.965,0.162c-0.41,0-0.779-0.071-1.107-0.214
		c-0.328-0.143-0.57-0.33-0.726-0.561c-0.156-0.231-0.255-0.527-0.298-0.888l-0.901,0.079
		C242.043,233.381,242.175,233.813,242.426,234.195L242.426,234.195z M249.85,235.216v-2.712c0-0.476,0.048-0.84,0.143-1.093
		c0.095-0.253,0.249-0.445,0.46-0.576c0.212-0.131,0.442-0.197,0.691-0.197c0.328,0,0.564,0.098,0.709,0.295
		c0.144,0.197,0.217,0.492,0.217,0.886v3.396h0.886v-3.037c0-0.538,0.121-0.929,0.364-1.174c0.243-0.244,0.548-0.367,0.915-0.367
		c0.203,0,0.381,0.048,0.532,0.143c0.151,0.095,0.255,0.221,0.312,0.376c0.057,0.156,0.086,0.411,0.086,0.765v3.292h0.881v-3.588
		c0-0.597-0.14-1.039-0.418-1.326c-0.279-0.287-0.678-0.431-1.196-0.431c-0.663,0-1.201,0.305-1.614,0.915
		c-0.102-0.289-0.276-0.513-0.524-0.674c-0.248-0.161-0.565-0.241-0.952-0.241c-0.348,0-0.658,0.078-0.93,0.234
		c-0.272,0.156-0.491,0.362-0.655,0.618v-0.733h-0.792v5.227H249.85L249.85,235.216z M258.251,229.02v-1.019h-0.886v1.019H258.251
		L258.251,229.02z M258.251,235.216v-5.227h-0.886v5.227H258.251L258.251,235.216z M260.476,235.216v-2.736
		c0-0.374,0.049-0.719,0.148-1.033c0.066-0.207,0.175-0.368,0.33-0.485c0.154-0.116,0.328-0.175,0.522-0.175
		c0.216,0,0.433,0.064,0.65,0.192l0.305-0.822c-0.308-0.19-0.612-0.285-0.91-0.285c-0.207,0-0.396,0.059-0.568,0.177
		c-0.172,0.118-0.36,0.363-0.563,0.733v-0.792h-0.797v5.227H260.476L260.476,235.216z M263.842,235.216v-2.854
		c0-0.669,0.137-1.124,0.411-1.363c0.274-0.239,0.6-0.359,0.977-0.359c0.236,0,0.442,0.053,0.618,0.16
		c0.175,0.107,0.298,0.249,0.367,0.428c0.069,0.179,0.103,0.449,0.103,0.81v3.179h0.886v-3.214c0-0.41-0.016-0.697-0.049-0.861
		c-0.053-0.253-0.144-0.471-0.276-0.655c-0.131-0.184-0.329-0.332-0.593-0.445c-0.264-0.113-0.554-0.17-0.869-0.17
		c-0.725,0-1.28,0.287-1.663,0.861v-0.743h-0.797v5.227H263.842L263.842,235.216z M268.908,234.631
		c0.451,0.469,1.042,0.704,1.774,0.704c0.456,0,0.877-0.107,1.262-0.32c0.385-0.213,0.679-0.513,0.881-0.898
		c0.202-0.385,0.303-0.915,0.303-1.587c0-0.83-0.228-1.48-0.684-1.951c-0.456-0.471-1.043-0.706-1.762-0.706
		c-0.646,0-1.194,0.194-1.644,0.581c-0.538,0.466-0.807,1.183-0.807,2.151C268.232,233.486,268.457,234.162,268.908,234.631
		L268.908,234.631z M269.58,231.102c0.292-0.331,0.659-0.497,1.102-0.497c0.436,0,0.801,0.167,1.095,0.5
		c0.294,0.333,0.44,0.823,0.44,1.469c0,0.686-0.146,1.196-0.438,1.531c-0.292,0.335-0.658,0.502-1.097,0.502
		c-0.443,0-0.81-0.166-1.102-0.5c-0.292-0.333-0.438-0.834-0.438-1.504C269.142,231.934,269.288,231.433,269.58,231.102
		L269.58,231.102z M276.446,235.216l1.978-5.227h-0.91l-1.161,3.189c-0.141,0.387-0.251,0.719-0.33,0.994
		c-0.102-0.364-0.213-0.715-0.335-1.053l-1.122-3.13h-0.935l1.988,5.227H276.446L276.446,235.216z"/>
</g>
</svg>
